<svg width="23" height="23" viewBox="0 0 23 23" version="1.1" xmlns="http://www.w3.org/2000/svg" xmlns:xlink="http://www.w3.org/1999/xlink">
<g id="Canvas" fill="none">
<g id="Checklist">
<g id="Group">
<g id="Vector">
<path d="M 11.5 23C 17.8513 23 23 17.8513 23 11.5C 23 5.14873 17.8513 0 11.5 0C 5.14873 0 0 5.14873 0 11.5C 0 17.8513 5.14873 23 11.5 23Z" fill="#87BBFD"/>
</g>
<g id="Vector_2">
<path fill-rule="evenodd" clip-rule="evenodd" d="M 11.0512 0.280626L 3.74724 7.75463L 1.76624 5.51263C 0.899242 4.76463 -0.462759 5.63663 0.156241 6.75863L 2.50924 10.7446C 2.88024 11.2426 3.74724 11.7406 4.61324 10.7446C 4.98524 10.2456 12.0412 1.40163 12.0412 1.40163C 12.9082 0.405626 11.7942 -0.466374 11.0512 0.280626Z" transform="translate(5.99966 6.00018)" fill="#6772E5"/>
</g>
</g>
</g>
</g>
</svg>

