<svg width="17" height="15" viewBox="0 0 17 15" version="1.1" xmlns="http://www.w3.org/2000/svg" xmlns:xlink="http://www.w3.org/1999/xlink">
<g id="Canvas" fill="none">
<g id="documentation">
<g id="Vector">
<path id="vector1" d="M 0.945 2.57492e-08L 4.577 2.57492e-08C 6.744 2.57492e-08 8.5 1.007 8.5 2.832L 8.5 14.415C 7.988 14.415 7.485 14.078 7.17 13.825C 6.14 12.997 4.113 12.997 1.948 12.997L 0.945 12.997C 0.821032 12.9971 0.698252 12.9728 0.583671 12.9255C 0.469089 12.8782 0.36495 12.8088 0.277198 12.7212C 0.189447 12.6337 0.119802 12.5297 0.0722403 12.4152C 0.0246785 12.3007 0.000131252 12.178 0 12.054L 0 0.946C 0 0.424 0.423 0.002 0.945 0.002L 0.945 2.57492e-08Z" fill="#87BBFD"/>
</g>
<g id="Vector_2">
<path id="vector2" d="M 7.555 2.57492e-08L 3.923 2.57492e-08C 1.757 2.57492e-08 0 1.007 0 2.832L 0 14.415C 0.512 14.415 1.015 14.078 1.33 13.825C 2.36 12.997 4.387 12.997 6.552 12.997L 7.555 12.997C 7.67914 12.9971 7.80208 12.9728 7.91679 12.9253C 8.0315 12.8779 8.13573 12.8083 8.22351 12.7205C 8.31129 12.6327 8.38089 12.5285 8.42833 12.4138C 8.47578 12.2991 8.50013 12.1761 8.5 12.052L 8.5 0.947C 8.50013 0.822864 8.47578 0.699921 8.42833 0.585209C 8.38089 0.470496 8.31129 0.366268 8.22351 0.278491C 8.13573 0.190713 8.0315 0.12111 7.91679 0.0736658C 7.80208 0.0262217 7.67914 0.00186843 7.555 0.002L 7.555 2.57492e-08Z" transform="translate(8.5 0)" fill="#6772E5"/>
</g>
</g>
</g>
</svg>

