<svg width="34" height="33" viewBox="0 0 34 33" version="1.1" xmlns="http://www.w3.org/2000/svg" xmlns:xlink="http://www.w3.org/1999/xlink">
<g id="Canvas" fill="none">
<g id="Group">
<g id="Group_2">
<g id="Group_3">
<g id="Vector">
<path fill-rule="evenodd" clip-rule="evenodd" d="M 29.952 24.352C 31.9612 20.9778 32.6686 16.9859 31.9414 13.1267C 31.2142 9.26758 29.1024 5.80694 26.0029 3.39537C 22.9035 0.983806 19.03 -0.212601 15.1105 0.0310578C 11.1909 0.274717 7.4954 1.94166 4.71853 4.71853C 1.94166 7.4954 0.274717 11.1909 0.0310578 15.1105C -0.212601 19.03 0.983806 22.9035 3.39537 26.0029C 5.80694 29.1024 9.26758 31.2142 13.1267 31.9414C 16.9859 32.6686 20.9778 31.9612 24.352 29.952L 31.812 32.442C 32.332 32.612 32.612 32.332 32.442 31.812L 29.952 24.352Z" transform="translate(0.99765 0)" fill="#87BBFD"/>
</g>
<g id="Dots">
<path fill-rule="evenodd" clip-rule="evenodd" d="M 1.79 3.58C 1.55493 3.58 1.32217 3.5337 1.105 3.44374C 0.887823 3.35379 0.690496 3.22194 0.524279 3.05572C 0.358062 2.8895 0.226211 2.69218 0.136255 2.475C 0.0462994 2.25783 7.54429e-08 2.02507 7.54429e-08 1.79C 7.54429e-08 1.55493 0.0462994 1.32217 0.136255 1.105C 0.226211 0.887823 0.358062 0.690495 0.524279 0.524279C 0.690496 0.358062 0.887823 0.226211 1.105 0.136255C 1.32217 0.0462993 1.55493 -9.9073e-09 1.79 0C 2.26474 2.00087e-08 2.72003 0.188589 3.05572 0.524279C 3.39141 0.859969 3.58 1.31526 3.58 1.79C 3.58 2.26474 3.39141 2.72003 3.05572 3.05572C 2.72003 3.39141 2.26474 3.58 1.79 3.58ZM 7.79 3.58C 7.55493 3.58 7.32217 3.5337 7.105 3.44374C 6.88782 3.35379 6.6905 3.22194 6.52428 3.05572C 6.35806 2.8895 6.22621 2.69218 6.13626 2.475C 6.0463 2.25783 6 2.02507 6 1.79C 6 1.55493 6.0463 1.32217 6.13626 1.105C 6.22621 0.887823 6.35806 0.690495 6.52428 0.524279C 6.6905 0.358062 6.88782 0.226211 7.105 0.136255C 7.32217 0.0462993 7.55493 -9.9073e-09 7.79 0C 8.26474 2.00087e-08 8.72003 0.188589 9.05572 0.524279C 9.39141 0.859969 9.58 1.31526 9.58 1.79C 9.58 2.26474 9.39141 2.72003 9.05572 3.05572C 8.72003 3.39141 8.26474 3.58 7.79 3.58ZM 13.79 3.58C 13.5549 3.58 13.3222 3.5337 13.105 3.44374C 12.8878 3.35379 12.6905 3.22194 12.5243 3.05572C 12.3581 2.8895 12.2262 2.69218 12.1363 2.475C 12.0463 2.25783 12 2.02507 12 1.79C 12 1.55493 12.0463 1.32217 12.1363 1.105C 12.2262 0.887823 12.3581 0.690495 12.5243 0.524279C 12.6905 0.358062 12.8878 0.226211 13.105 0.136255C 13.3222 0.0462993 13.5549 -9.9073e-09 13.79 0C 14.2647 2.00087e-08 14.72 0.188589 15.0557 0.524279C 15.3914 0.859969 15.58 1.31526 15.58 1.79C 15.58 2.26474 15.3914 2.72003 15.0557 3.05572C 14.72 3.39141 14.2647 3.58 13.79 3.58Z" transform="translate(8.99968 15.002)" fill="#6772E5"/>
</g>
</g>
</g>
</g>
</g>
</svg>

