<svg width="38" height="42" viewBox="0 0 38 42" version="1.1" xmlns="http://www.w3.org/2000/svg" xmlns:xlink="http://www.w3.org/1999/xlink">
<g id="Canvas" fill="none">
<g id="Group">
<g id="Group_2">
<g id="Vector">
<path d="M 0 3.8147e-07L 18 3.8147e-07L 18 8.1L 0 8.1L 0 3.8147e-07Z" transform="translate(7.2 3.60001)" fill="#159570"/>
</g>
<g id="Vector_2">
<path d="M 4.5 0.0100661C 2.359 -0.155934 0.18 1.98107 0 4.50807C 0.091 6.22107 1.18 7.28807 2.7 7.20807L 14.4 7.20807C 15.92 7.28807 17.009 6.22107 17.1 4.50807C 16.92 1.98007 14.74 -0.156935 12.6 0.00906477L 4.5 0.00906477L 4.5 0.0100661Z" transform="translate(7.2 3.59993)" fill="#3ECF8E"/>
</g>
<g id="Group_3">
<g id="Vector_3">
<path d="M 33.3 17.712L 24.882 26.142C 24.6013 26.4237 24.4023 26.7762 24.306 27.162L 23.424 30.694C 23.3678 30.917 23.4326 31.1531 23.5948 31.316C 23.757 31.479 23.9928 31.5451 24.216 31.49L 27.742 30.604C 28.1276 30.5088 28.4795 30.3092 28.759 30.027L 28.76 30.029L 33.3 25.482L 33.3 35.1C 33.3 36.5912 32.0912 37.8 30.6 37.8L 2.7 37.8C 1.20883 37.8 0 36.5912 0 35.1L 0 2.7C 0 1.20883 1.20883 -9.53674e-08 2.7 -9.53674e-08L 30.6 -9.53674e-08C 32.0912 -9.53674e-08 33.3 1.20883 33.3 2.7L 33.3 17.712ZM 5.85 17.1C 5.10442 17.1 4.5 17.7044 4.5 18.45C 4.5 19.1956 5.10442 19.8 5.85 19.8L 12.15 19.8C 12.8956 19.8 13.5 19.1956 13.5 18.45C 13.5 17.7044 12.8956 17.1 12.15 17.1L 5.85 17.1ZM 5.85 21.6C 5.10442 21.6 4.5 22.2044 4.5 22.95C 4.5 23.6956 5.10442 24.3 5.85 24.3L 12.15 24.3C 12.8956 24.3 13.5 23.6956 13.5 22.95C 13.5 22.2044 12.8956 21.6 12.15 21.6L 5.85 21.6ZM 16.65 17.1C 15.9044 17.1 15.3 17.7044 15.3 18.45C 15.3 19.1956 15.9044 19.8 16.65 19.8L 22.95 19.8C 23.6956 19.8 24.3 19.1956 24.3 18.45C 24.3 17.7044 23.6956 17.1 22.95 17.1L 16.65 17.1ZM 16.65 21.6C 15.9044 21.6 15.3 22.2044 15.3 22.95C 15.3 23.6956 15.9044 24.3 16.65 24.3L 22.95 24.3C 23.6956 24.3 24.3 23.6956 24.3 22.95C 24.3 22.2044 23.6956 21.6 22.95 21.6L 16.65 21.6ZM 5.85 11.7C 5.10442 11.7 4.5 12.3044 4.5 13.05C 4.5 13.7956 5.10442 14.4 5.85 14.4L 19.35 14.4C 20.0956 14.4 20.7 13.7956 20.7 13.05C 20.7 12.3044 20.0956 11.7 19.35 11.7L 5.85 11.7Z" transform="translate(0 3.60001)" fill="#87BBFD"/>
</g>
<g id="Vector_4">
<path d="M 22.95 0L 1.35 0C 0.604415 0 0 0.604417 0 1.35C 0 2.09559 0.604415 2.7 1.35 2.7L 22.95 2.7C 23.6956 2.7 24.3 2.09559 24.3 1.35C 24.3 0.604417 23.6956 0 22.95 0Z" transform="translate(4.5 33.3)" fill="#C1DCFF"/>
</g>
<g id="Vector_5">
<path d="M 18.86 32.728L 28.89 22.684C 29.9597 21.6095 29.9597 19.8725 28.89 18.798C 28.3761 18.2827 27.6783 17.993 26.9505 17.993C 26.2227 17.993 25.5249 18.2827 25.011 18.798L 14.982 28.842C 14.7013 29.1237 14.5023 29.4762 14.406 29.862L 13.524 33.395C 13.4682 33.6178 13.5333 33.8536 13.6954 34.0163C 13.8575 34.179 14.093 34.2449 14.316 34.19L 17.842 33.304C 18.2276 33.2088 18.5795 33.0092 18.859 32.727L 18.86 32.728ZM 7.5 0L 9.6 0C 11.2569 0 12.6 1.34315 12.6 3L 12.6 3.6L 4.5 3.6L 4.5 3C 4.5 1.34315 5.84315 0 7.5 0ZM 3.6 3.61L 13.5 3.61C 15.4874 3.61 17.0989 5.22056 17.1 7.208L 17.1 7.808C 17.1 9.46485 15.7569 10.808 14.1 10.808L 3 10.808C 1.34315 10.808 3.8147e-07 9.46485 3.8147e-07 7.808L 3.8147e-07 7.208C 0.000552561 5.22017 1.61217 3.61 3.6 3.61Z" transform="translate(8.1 0)" fill="#6772E5"/>
</g>
</g>
</g>
</g>
</g>
</svg>

