<svg width="17" height="17" viewBox="0 0 17 17" version="1.1" xmlns="http://www.w3.org/2000/svg" xmlns:xlink="http://www.w3.org/1999/xlink">
<g id="Canvas" fill="none">
<g id="281764">
<g id="Vector">
<path d="M 3.76756 5.68238L 3.17581 7.89145L 1.01299 7.93721C 0.366629 6.73834 0 5.36669 0 3.90907C 0 2.49956 0.342789 1.17038 0.950406 1.78337e-07L 2.87639 0.353015L 3.71988 2.26698C 3.54334 2.78166 3.44712 3.33416 3.44712 3.90907C 3.44718 4.53302 3.56021 5.13085 3.76756 5.68238Z" transform="translate(0 4.59093)" fill="currentColor"/>
</g>
<g id="Vector_2">
<path d="M 8.16461 -1.70231e-07C 8.26223 0.514183 8.31313 1.0452 8.31313 1.58791C 8.31313 2.19645 8.24915 2.79006 8.12726 3.36265C 7.71348 5.3111 6.63229 7.0125 5.13453 8.21651L 2.70878 8.0923L 2.36552 5.94954C 3.35936 5.36669 4.13605 4.45456 4.54518 3.36265L -3.08037e-07 3.36265L -3.08037e-07 -1.70231e-07L 4.61148 -1.70231e-07L 8.16461 -1.70231e-07Z" transform="translate(8.68686 6.91209)" fill="currentColor"/>
</g>
<g id="Vector_3">
<path d="M 12.8079 4.85479L 12.8084 4.85526C 11.3517 6.0261 9.50131 6.72665 7.48701 6.72665C 4.25 6.72665 1.43567 4.91738 2.58386e-08 2.25482L 2.75456 -1.13487e-07C 3.47238 1.91575 5.32044 3.27951 7.48701 3.27951C 8.41825 3.27951 9.2907 3.02776 10.0393 2.58828L 12.8079 4.85479Z" transform="translate(1.013 10.2733)" fill="currentColor"/>
</g>
<g id="Vector_4">
<path d="M 12.9751 1.95686L 10.2215 4.21122C 9.44669 3.72692 8.53081 3.44715 7.54959 3.44715C 5.33398 3.44715 3.45137 4.87346 2.76951 6.85791L 0.00046486 4.59093L 1.8239e-08 4.59093C 1.41465 1.86346 4.26448 0 7.54959 0C 9.61201 0 11.503 0.734652 12.9751 1.95686Z" transform="translate(0.950409 0)" fill="currentColor"/>
</g>
</g>
</g>
</svg>

