<svg width="17" height="21" viewBox="0 0 17 21" version="1.1" xmlns="http://www.w3.org/2000/svg" xmlns:xlink="http://www.w3.org/1999/xlink">
<g id="Canvas" fill="none">
<g id="1694">
<g id="Group">
<g id="Vector">
<path d="M 4.976 4.72L 6.525 4.72L 6.525 11.547L 4.976 11.547L 4.976 4.72ZM 9.951 4.669C 9.009 4.669 8.341 4.73 7.864 4.812L 7.864 11.547L 9.394 11.547L 9.394 9.106C 9.537 9.126 9.718 9.137 9.921 9.137C 10.832 9.137 11.612 8.913 12.139 8.416C 12.544 8.03 12.767 7.464 12.767 6.795C 12.767 6.127 12.472 5.561 12.038 5.216C 11.582 4.851 10.902 4.669 9.951 4.669ZM 9.909 7.95C 9.687 7.95 9.524 7.94 9.393 7.909L 9.393 5.895C 9.504 5.865 9.717 5.834 10.032 5.834C 10.801 5.834 11.237 6.209 11.237 6.836C 11.237 7.535 10.73 7.95 9.909 7.95ZM 8.317 0C 3.723 0 -4.76837e-08 3.723 -4.76837e-08 8.316C -4.76837e-08 12.909 8.317 20.234 8.317 20.234C 8.317 20.234 16.634 12.91 16.634 8.317C 16.634 3.724 12.911 0 8.317 0ZM 8.338 13.373C 5.288 13.373 2.816 10.9 2.816 7.849C 2.816 4.799 5.289 2.327 8.338 2.327C 11.389 2.327 13.86 4.8 13.86 7.849C 13.86 10.899 11.388 13.373 8.338 13.373Z" fill="currentColor"/>
</g>
</g>
</g>
</g>
</svg>

