<svg width="17" height="15" viewBox="0 0 17 15" version="1.1" xmlns="http://www.w3.org/2000/svg" xmlns:xlink="http://www.w3.org/1999/xlink">
<g id="Canvas" fill="none">
<g id="Rio">
<g id="Group">
<g id="Layer 5 59">
<g id="Group_2">
<g id="Vector">
<path d="M 7.56791 3.4242C 7.26534 3.62479 6.87785 3.73528 6.47681 3.73528C 6.07576 3.73528 5.68827 3.62483 5.3857 3.4242L 0.445868 0.149375C 0.445868 0.149375 -6.63176e-08 -0.146041 -6.63176e-08 0.523184C -6.63176e-08 1.28314 -6.63176e-08 3.56302 -6.63176e-08 3.56302C -6.63176e-08 3.59342 -6.63176e-08 3.74601 -6.63176e-08 3.79331C -6.63176e-08 5.51598 2.89972 7.37309 6.47668 7.37309C 10.0536 7.37309 12.9534 5.51603 12.9534 3.79331C 12.9534 3.74601 12.9534 3.59342 12.9534 3.56302C 12.9534 3.56302 12.9534 1.14488 12.9534 0.338813C 12.9534 -0.198364 12.6364 0.0641217 12.6364 0.0641217L 7.56791 3.4242Z" transform="translate(2.02319 7.62691)" fill="currentColor"/>
</g>
<g id="Vector_2">
<path d="M 16.7153 5.17138C 17.0949 4.91976 17.0949 4.508 16.7153 4.25634L 9.19011 0.188712C 8.81054 -0.062904 8.18942 -0.062904 7.80985 0.188712L 0.284676 4.25634C -0.0948918 4.50795 -0.0948918 4.91971 0.284676 5.17138L 7.80985 10.1602C 8.18942 10.4118 8.81054 10.4118 9.19011 10.1602" fill="currentColor"/>
</g>
<g id="Vector_3">
<path d="M 1.24275 5.70195C 1.24275 4.32453 1.24275 0.192243 1.24275 0.192243C 1.24275 0.192243 1.24629 -0.0687226 1.10304 0.0174522C 0.988119 0.0865855 0.706427 0.25631 0.607189 0.349624C 0.492611 0.457262 0.518432 0.698883 0.518432 0.698883C 0.518432 0.698883 0.518432 4.45119 0.518432 5.70195C 0.518432 5.77297 0.461974 5.80687 0.435045 5.824C 0.174913 5.98931 1.04028e-08 6.29444 1.04028e-08 6.64425C 1.04028e-08 7.16996 0.394225 7.59614 0.880615 7.59614C 1.36696 7.59614 1.76119 7.16996 1.76119 6.64425C 1.76119 6.29311 1.585 5.987 1.3232 5.82212C 1.29717 5.80572 1.24275 5.77293 1.24275 5.70195Z" transform="translate(15.1613 6.86397)" fill="currentColor"/>
</g>
</g>
</g>
</g>
</g>
</g>
</svg>

