<svg width="17" height="17" viewBox="0 0 17 17" version="1.1" xmlns="http://www.w3.org/2000/svg" xmlns:xlink="http://www.w3.org/1999/xlink">
<g id="Canvas" fill="none">
<g id="SIMP">
<g id="Group">
<g id="Group_2">
<path id="Vector" d="M 15.4756 4.64196C 14.6147 5.50285 13.2189 5.50285 12.358 4.64196C 11.4971 3.78107 11.4971 2.38525 12.358 1.52436L 10.8336 0L 0 10.8336L 1.52439 12.358C 2.38528 11.4971 3.78111 11.4971 4.642 12.358C 5.50289 13.2189 5.50289 14.6148 4.642 15.4756L 6.16635 17L 17 6.16635L 15.4756 4.64196ZM 8.48403 6.07438L 7.77687 5.36722L 8.48121 4.66288L 9.18837 5.37004L 8.48403 6.07438ZM 9.89835 7.48873L 9.19116 6.78157L 9.89549 6.07723L 10.6027 6.78439L 9.89835 7.48873ZM 11.3127 8.90309L 10.6055 8.19589L 11.3098 7.49155L 12.017 8.19875L 11.3127 8.90309Z" fill="currentColor"/>
</g>
</g>
</g>
</g>
</svg>
