<svg width="17" height="17" viewBox="0 0 24 24" version="1.1" xmlns="http://www.w3.org/2000/svg" xmlns:xlink="http://www.w3.org/1999/xlink">
<g id="Canvas" fill="none">
<g id="Slack_Mark_Monochrome_Black">
<g id="Layer 2">
<g id="Group">
<g id="Vector">
<path d="M 3.37687 0L 0 0L 0 3.26175L 3.37687 3.26175L 3.37687 0Z" transform="matrix(0.9482 -0.3176 0.3176 0.9482 9.88072 11.0082)" fill="currentColor"/>
</g>
<g id="Group_2">
<g id="Vector_2">
<path d="M 3.37687 0L 0 0L 0 3.26175L 3.37687 3.26175L 3.37687 0Z" transform="matrix(0.9482 -0.3176 0.3176 0.9482 9.88072 11.0082)" fill="currentColor"/>
</g>
<g id="Vector_3">
<path d="M 22.994 8.69988C 20.5189 0.449578 16.9502 -1.4691 8.69988 1.00599C 0.449578 3.48108 -1.4691 7.04982 1.00599 15.3001C 3.48108 23.5504 7.04982 25.4691 15.3001 22.994C 23.5504 20.5189 25.4691 16.9502 22.994 8.69988ZM 18.8305 14.053L 17.2764 14.571L 17.8136 16.1827C 18.0246 16.8351 17.6793 17.545 17.0269 17.756C 16.8926 17.7944 16.7391 17.8328 16.6048 17.8136C 16.106 17.7944 15.6263 17.4682 15.4536 16.9694L 14.9164 15.3577L 11.7122 16.4321L 12.2494 18.0438C 12.4605 18.6962 12.1151 19.4061 11.4628 19.6171C 11.3285 19.6555 11.175 19.6939 11.0407 19.6747C 10.5418 19.6555 10.0621 19.3293 9.88946 18.8305L 9.35223 17.2188L 7.7981 17.7368C 7.6638 17.7752 7.5103 17.8136 7.37599 17.7944C 6.87714 17.7752 6.39747 17.449 6.22479 16.9502C 6.01373 16.2978 6.3591 15.5879 7.01145 15.3769L 8.56557 14.8588L 7.52949 11.7698L 5.97536 12.2878C 5.84105 12.3262 5.68756 12.3645 5.55325 12.3454C 5.0544 12.3262 4.57473 12 4.40205 11.5011C 4.19099 10.8488 4.53636 10.1389 5.18871 9.92783L 6.74283 9.40979L 6.2056 7.7981C 5.99455 7.14575 6.33991 6.43584 6.99226 6.22479C 7.64461 6.01373 8.35452 6.3591 8.56557 7.01145L 9.1028 8.62313L 12.307 7.54867L 11.7698 5.93699C 11.5587 5.28464 11.9041 4.57473 12.5564 4.36367C 13.2088 4.15262 13.9187 4.49798 14.1297 5.15033L 14.667 6.76202L 16.2211 6.24398C 16.8734 6.03292 17.5833 6.37828 17.7944 7.03063C 18.0055 7.68298 17.6601 8.39289 17.0077 8.60395L 15.4536 9.12199L 16.4897 12.2111L 18.0438 11.693C 18.6962 11.482 19.4061 11.8273 19.6171 12.4797C 19.8282 13.132 19.4828 13.8419 18.8305 14.053Z" fill="currentColor"/>
</g>
</g>
</g>
</g>
</g>
</g>
</svg>

