<svg width="17" height="17" viewBox="0 0 17 17" version="1.1" xmlns="http://www.w3.org/2000/svg" xmlns:xlink="http://www.w3.org/1999/xlink">
<g id="Canvas" fill="none">
<g id="Software">
<g id="Group">
<g id="Vector">
<path d="M 8.5 0C 3.8131 0 0 3.8131 0 8.5C 0 13.1869 3.8131 17 8.5 17C 13.1869 17 17 13.1869 17 8.5C 17 3.8131 13.1869 0 8.5 0ZM 8.5 12.4667C 6.31267 12.4667 4.53333 10.6873 4.53333 8.5C 4.53333 6.31267 6.31267 4.53333 8.5 4.53333C 10.6873 4.53333 12.4667 6.31267 12.4667 8.5C 12.4667 10.6873 10.6873 12.4667 8.5 12.4667Z" fill="currentColor"/>
</g>
<g id="Vector_2">
<path d="M 2.26667 0C 1.01688 0 0 1.01688 0 2.26667C 0 3.51645 1.01688 4.53333 2.26667 4.53333C 3.51645 4.53333 4.53333 3.51645 4.53333 2.26667C 4.53333 1.01688 3.51645 0 2.26667 0Z" transform="translate(6.23334 6.23333)" fill="currentColor"/>
</g>
</g>
</g>
</g>
</svg>

