<svg width="17" height="16" viewBox="0 0 17 16" version="1.1" xmlns="http://www.w3.org/2000/svg" xmlns:xlink="http://www.w3.org/1999/xlink">
<g id="Canvas" fill="none">
<g id="UHIMC">
<g id="Group">
<g id="Vector">
<path d="M 15.7246 -1.90019e-08L 1.27542 -1.90019e-08C 0.572141 -1.90019e-08 0 0.67499 0 1.50469L 0 12.5518C 0 13.3814 0.572141 14.0564 1.27542 14.0564L 4.44763 14.0564L 3.82957 14.6172C 3.60768 14.8186 3.51907 15.1643 3.60918 15.477C 3.69932 15.7897 3.94821 16 4.22821 16L 12.7718 16C 13.0518 16 13.3007 15.7897 13.3909 15.477C 13.481 15.1643 13.3924 14.8186 13.1705 14.6172L 12.5524 14.0563L 15.7246 14.0563C 16.4279 14.0563 17 13.3813 17 12.5517L 17 1.50469C 17.0001 0.67499 16.4279 -1.90019e-08 15.7246 -1.90019e-08ZM 15.2564 11.9994L 1.74362 11.9994L 1.74362 2.05702L 15.2565 2.05702L 15.2565 11.9994L 15.2564 11.9994L 15.2564 11.9994Z" fill="currentColor"/>
</g>
</g>
</g>
</g>
</svg>

