<svg width="44" height="40" viewBox="0 0 44 40" version="1.1" xmlns="http://www.w3.org/2000/svg" xmlns:xlink="http://www.w3.org/1999/xlink">
<g id="Canvas" fill="none">
<g id="Group">
<path id="Vector" d="M 41 0L 3 0C 1.3 0 0 1.3 0 3L 0 31C 0 32.7 1.3 34 3 34L 16.4 34L 18.1 31L 7 31C 7 28.8 5.2 27 3 27L 3 7C 5.2 7 7 5.2 7 3L 37 3C 37 5.2 38.8 7 41 7L 41 27C 38.8 27 37 28.8 37 31L 35.8 31L 37.5 34L 41 34C 42.7 34 44 32.7 44 31L 44 3C 44 1.3 42.7 0 41 0ZM 33 9L 11 9C 9.9 9 9 9.9 9 11C 9 12.1 9.9 13 11 13L 33 13C 34.1 13 35 12.1 35 11C 35 9.9 34.1 9 33 9ZM 27 23C 25.3 23 24 24.3 24 26C 24 27.7 25.3 29 27 29C 28.7 29 30 27.7 30 26C 30 24.3 28.7 23 27 23Z" fill="#FDD760"/>
<path id="Vector_2" d="M 18.6805 17L 14.6805 11.6C 15.7805 10.4 16.3805 8.8 16.3805 7C 16.3805 3.1 13.2805 -3.8147e-07 9.38051 -3.8147e-07C 5.48051 -3.8147e-07 2.38051 3.1 2.38051 7C 2.38051 8.8 3.08051 10.4 4.08051 11.6L 0.0805065 17C -0.119493 17.2 0.0805058 17.6 0.380506 17.5L 3.98051 16.5C 4.18051 16.5 4.38051 16.6 4.38051 16.7L 5.38051 20.4C 5.48051 20.7 5.88051 20.7 5.98051 20.4L 8.68051 14L 9.88051 14L 12.5805 20.4C 12.6805 20.7 13.0805 20.7 13.1805 20.4L 14.1805 16.7C 14.1805 16.5 14.3805 16.4 14.5805 16.5L 18.1805 17.5C 18.6805 17.6 18.8805 17.3 18.6805 17L 18.6805 17ZM 4.48051 7.1C 4.48051 4.3 6.68051 2.1 9.48051 2.1C 12.2805 2.1 14.4805 4.3 14.4805 7.1C 14.4805 9.9 12.2805 12.1 9.48051 12.1C 6.68051 12.1 4.48051 9.9 4.48051 7.1Z" transform="translate(17.5195 18.9)" fill="#E5A03E"/>
</g>
</g>
</svg>
