<svg width="20" height="20" viewBox="0 0 20 20" version="1.1" xmlns="http://www.w3.org/2000/svg" xmlns:xlink="http://www.w3.org/1999/xlink">
<g id="Canvas" fill="none">
<g id="question-circle">
<path id="Vector" d="M 20 10C 20 15.5241 15.5225 20 10 20C 4.47754 20 0 15.5241 0 10C 0 4.47915 4.47754 0 10 0C 15.5225 0 20 4.47915 20 10ZM 10.2683 3.30645C 8.07089 3.30645 6.66935 4.23214 5.56879 5.87734C 5.42621 6.09048 5.47391 6.37794 5.67827 6.5329L 7.07742 7.59379C 7.2873 7.75294 7.58633 7.71508 7.74939 7.50823C 8.46972 6.5946 8.96363 6.0648 10.06 6.0648C 10.8838 6.0648 11.9027 6.59496 11.9027 7.39375C 11.9027 7.99762 11.4042 8.30774 10.5908 8.76375C 9.64226 9.29548 8.3871 9.9573 8.3871 11.6129L 8.3871 11.7742C 8.3871 12.0414 8.60375 12.2581 8.87097 12.2581L 11.129 12.2581C 11.3962 12.2581 11.6129 12.0414 11.6129 11.7742L 11.6129 11.7204C 11.6129 10.5728 14.9672 10.525 14.9672 7.41935C 14.9672 5.08056 12.5412 3.30645 10.2683 3.30645ZM 10 13.3065C 8.97722 13.3065 8.14516 14.1385 8.14516 15.1613C 8.14516 16.184 8.97722 17.0161 10 17.0161C 11.0228 17.0161 11.8548 16.184 11.8548 15.1613C 11.8548 14.1385 11.0228 13.3065 10 13.3065Z" fill="#FDD760"/>
</g>
</g>
</svg>
