<svg width="17" height="13" viewBox="0 0 17 13" version="1.1" xmlns="http://www.w3.org/2000/svg" xmlns:xlink="http://www.w3.org/1999/xlink">
<g id="Canvas" fill="none">
<g id="Group">
<path id="Vector" d="M 1 0L 5.5 0L 5.5 11L 1.75 11C 1.28587 11 0.840752 10.8156 0.512563 10.4874C 0.184374 10.1592 0 9.71413 0 9.25L 0 1C 0 0.734784 0.105357 0.48043 0.292893 0.292893C 0.48043 0.105357 0.734784 0 1 0Z" transform="translate(0 2)" fill="#FDD760"/>
<path id="Vector_2" d="M 12 13L 0 13L 0 12.975C 0.548731 12.9152 1.05615 12.6552 1.42515 12.2447C 1.79415 11.8341 1.99882 11.302 2 10.75L 2 1C 2 0.734784 2.10536 0.48043 2.29289 0.292893C 2.48043 0.105357 2.73478 0 3 0L 14 0C 14.2652 0 14.5196 0.105357 14.7071 0.292893C 14.8946 0.48043 15 0.734784 15 1L 15 10C 15 10.7956 14.6839 11.5587 14.1213 12.1213C 13.5587 12.6839 12.7956 13 12 13ZM 13 2L 4 2L 4 5L 13 5L 13 2Z" transform="translate(2 0)" fill="#E5A03E"/>
</g>
</g>
</svg>
