<svg width="17" height="14" viewBox="0 0 17 14" version="1.1" xmlns="http://www.w3.org/2000/svg" xmlns:xlink="http://www.w3.org/1999/xlink">
<g id="Canvas" fill="none">
<g id="Group">
<path id="Vector" d="M 1.5 0L 15.5 0C 16.328 0 17 0.67 17 1.5L 17 9.5C 17 9.89782 16.842 10.2794 16.5607 10.5607C 16.2794 10.842 15.8978 11 15.5 11L 1.5 11C 1.10218 11 0.720644 10.842 0.43934 10.5607C 0.158035 10.2794 0 9.89782 0 9.5L 0 1.5C 0 0.67 0.67 0 1.5 0Z" transform="translate(0 3)" fill="#E5A03E"/>
<path id="Vector_2" d="M 11 11L 11 0L 13 0L 13 11L 11 11ZM 0 0L 2 0L 2 11L 0 11L 0 0Z" transform="translate(2 3)" fill="#FDD760"/>
<path id="Vector_3" d="M 7.5 2.5C 7.5 2.23478 7.39464 1.98043 7.20711 1.79289C 7.01957 1.60536 6.76522 1.5 6.5 1.5L 2.5 1.5C 2.23478 1.5 1.98043 1.60536 1.79289 1.79289C 1.60536 1.98043 1.5 2.23478 1.5 2.5L 1.5 3L 0 3L 0 2.5C 0 1.83696 0.263392 1.20107 0.732233 0.732233C 1.20107 0.263392 1.83696 0 2.5 0L 6.5 0C 7.16304 0 7.79893 0.263392 8.26777 0.732233C 8.73661 1.20107 9 1.83696 9 2.5L 9 3L 7.5 3L 7.5 2.5Z" transform="translate(4 0)" fill="#E5A03E"/>
</g>
</g>
</svg>
