<svg width="20" height="18" viewBox="0 0 20 18" version="1.1" xmlns="http://www.w3.org/2000/svg" xmlns:xlink="http://www.w3.org/1999/xlink">
<g id="Canvas" fill="none">
<g id="Group">
<g id="Group_2">
<g id="Group_3">
<path id="Vector" d="M 19.2432 0L 0.447517 0C 0.20036 0 0 0.194344 0 0.43408L 0 1.73632C 0 1.97606 0.20036 2.1704 0.447517 2.1704L 19.2432 2.1704C 19.4904 2.1704 19.6907 1.97606 19.6907 1.73632L 19.6907 0.43408C 19.6907 0.194344 19.4904 0 19.2432 0Z" transform="translate(0.153854 15.8296)" fill="#FDD760"/>
<path id="Vector_2" fill-rule="evenodd" clip-rule="evenodd" d="M 0 0.65112C 0 0.290834 0.299836 0 0.671275 0L 15.4393 0C 15.8108 0 16.1106 0.290834 16.1106 0.65112L 16.1106 1.30224L 0 1.30224L 0 0.65112Z" transform="translate(1.94392 14.5274)" fill="#E5A03E"/>
<path id="Vector_3" fill-rule="evenodd" clip-rule="evenodd" d="M 12.5305 0.43408C 12.4118 0.43408 12.2979 0.479813 12.214 0.561219C 12.1301 0.642625 12.0829 0.753035 12.0829 0.86816L 12.0829 5.64304C 12.0829 5.75817 12.1301 5.86858 12.214 5.94998C 12.2979 6.03139 12.4118 6.07712 12.5305 6.07712L 12.5305 6.5112L 9.84536 6.5112L 9.84536 6.07712C 9.96405 6.07712 10.0779 6.03139 10.1618 5.94998C 10.2457 5.86858 10.2929 5.75817 10.2929 5.64304L 10.2929 0.86816C 10.2929 0.753035 10.2457 0.642625 10.1618 0.561219C 10.0779 0.479813 9.96405 0.43408 9.84536 0.43408L 9.84536 0L 12.5305 0L 12.5305 0.43408ZM 7.60778 0.43408C 7.48909 0.43408 7.37526 0.479813 7.29134 0.561219C 7.20741 0.642625 7.16026 0.753035 7.16026 0.86816L 7.16026 5.64304C 7.16026 5.75817 7.20741 5.86858 7.29134 5.94998C 7.37526 6.03139 7.48909 6.07712 7.60778 6.07712L 7.60778 6.5112L 4.92268 6.5112L 4.92268 6.07712C 5.04137 6.07712 5.1552 6.03139 5.23912 5.94998C 5.32305 5.86858 5.3702 5.75817 5.3702 5.64304L 5.3702 0.86816C 5.3702 0.753035 5.32305 0.642625 5.23912 0.561219C 5.1552 0.479813 5.04137 0.43408 4.92268 0.43408L 4.92268 0L 7.60778 0L 7.60778 0.43408ZM 2.6851 0.43408C 2.56641 0.43408 2.45258 0.479813 2.36866 0.561219C 2.28473 0.642625 2.23758 0.753035 2.23758 0.86816L 2.23758 5.64304C 2.23758 5.75817 2.28473 5.86858 2.36866 5.94998C 2.45258 6.03139 2.56641 6.07712 2.6851 6.07712L 2.6851 6.5112L 0 6.5112L 0 6.07712C 0.118689 6.07712 0.232516 6.03139 0.316442 5.94998C 0.400368 5.86858 0.447517 5.75817 0.447517 5.64304L 0.447517 0.86816C 0.447517 0.753035 0.400368 0.642625 0.316442 0.561219C 0.232516 0.479813 0.118689 0.43408 0 0.43408L 0 0L 2.6851 0L 2.6851 0.43408Z" transform="translate(3.73399 7.14799)" fill="#FDD760"/>
<path id="Vector_4" fill-rule="evenodd" clip-rule="evenodd" d="M 0 0L 16.1106 0L 16.1106 0.65112C 16.1106 1.01141 15.8108 1.30224 15.4393 1.30224L 0.671275 1.30224C 0.493242 1.30224 0.3225 1.23364 0.196612 1.11153C 0.0707233 0.989422 0 0.823808 0 0.65112L 0 0Z" transform="translate(1.94392 4.9776)" fill="#E5A03E"/>
<path id="Vector_5" fill-rule="evenodd" clip-rule="evenodd" d="M 9.20265 0.159312C 9.45424 0.0542095 9.72529 1.32594e-08 9.99923 1.32594e-08C 10.2732 1.32594e-08 10.5442 0.0542095 10.7958 0.159312L 19.5403 4.39593C 20.2026 4.71715 20.1444 4.9776 19.3971 4.9776L 0.601378 4.9776C -0.141499 4.9776 -0.204151 4.71715 0.458173 4.39593L 9.20265 0.154971L 9.20265 0.159312Z" fill="#FDD760"/>
</g>
</g>
</g>
</g>
</svg>
