
<svg width="642" height="712" viewBox="0 0 642 712" version="1.1" xmlns="http://www.w3.org/2000/svg" xmlns:xlink="http://www.w3.org/1999/xlink">
<g data-name="Canvas" fill="none">
<g data-name="laptop" filter="url(#filter0_d)">
<g data-name="Page 1">
<g data-name="Landing Page Copy">
<g data-name="Group 3">
<g data-name="Group 4">
<g data-name="Rectangle Copy 3">
<path fill-rule="evenodd" clip-rule="evenodd" d="M 0.361233 209.942C -1.42247 199.842 3.69277 192.216 9.26549 188.85L 336.265 1.27835C 341.44 -1.68993 346.367 0.687088 347.27 6.58511L 382.91 239.469C 383.17 243.909 380.386 249.316 376.661 251.567L 54.0731 454.799C 54.0731 454.799 39.9553 448.602 38.0816 437.456L 0.361233 209.942Z" transform="translate(626.641 11) scale(-1 1)" fill="#CCD3E5"/>
</g>
<g data-name="Rectangle Copy 2">
<path fill-rule="evenodd" clip-rule="evenodd" d="M -6.11914e-06 197.427C -6.11914e-06 191.874 3.92203 185.045 8.7555 182.176L 341.545 0.554166C 345.69 -1.94115 356.664 4.79944 356.664 4.79944L 355.947 242.185C 355.947 247.738 352.025 254.568 347.192 257.436L 18.7128 457.096C 18.7128 457.096 7.85524 451.078 7.80999 446.909L -6.11914e-06 197.427Z" transform="matrix(-0.48481 -0.87462 0.87462 -0.48481 188.187 692.477)" fill="#CCD3E5"/>
</g>
<g data-name="Rectangle">
<path fill-rule="evenodd" clip-rule="evenodd" d="M 0.0222109 205.362C -0.368233 198.693 4.44534 191.437 10.0181 188.072L 334.705 1.28523C 339.874 -1.6886 344.834 0.674528 345.782 6.55578L 382.571 234.889C 382.831 239.329 380.047 244.736 376.322 246.987L 48.5295 438.863C 42.9625 442.225 38.1334 439.551 37.7426 432.876L 0.0222109 205.362Z" transform="translate(622.275 13.5667) scale(-1 1)" fill="#FDFDFF"/>
</g>
<g data-name="Rectangle 2">
<path fill-rule="evenodd" clip-rule="evenodd" d="M 0.045002 176.502C -0.209958 175.029 0.645144 173.243 1.93361 172.525L 310.891 0.406907C 312.624 -0.55846 314.283 0.253244 314.597 2.21393L 346.012 198.682C 346.326 200.645 345.177 203.047 343.465 204.036L 39.4805 379.61C 37.3244 380.855 35.2318 379.872 34.8081 377.423L 0.045002 176.502Z" transform="translate(604.61 46.3586) scale(-1 1)" fill="white"/>
</g>
<g data-name="Rectangle 2 Copy 2">
<path fill-rule="evenodd" clip-rule="evenodd" d="M 0.0492681 35.307C -0.218081 33.8407 0.629429 32.0693 1.94137 31.351L 58.4695 0.401016C 60.2165 -0.555506 61.9025 0.257606 62.2355 2.21805L 72.4691 62.4753C 72.6352 63.4534 72.061 64.6406 71.1946 65.1225L 15.4709 96.1174C 13.2975 97.3263 11.174 96.3236 10.7269 93.871L 0.0492681 35.307Z" transform="translate(502.034 154.823) scale(-1 1)" fill="#EAA137"/>
</g>
<g data-name="Rectangle 2 Copy 3">
<path fill-rule="evenodd" clip-rule="evenodd" d="M 0.0545702 91.6756C -0.226518 90.2071 0.606313 88.4279 1.90905 87.7046L 159.155 0.405571C 160.89 -0.557765 162.584 0.254791 162.937 2.21023L 169.087 36.2959C 169.264 37.2732 168.708 38.4642 167.836 38.962L 123.792 64.1088L 11.3915 128.283C 9.236 129.514 7.11085 128.538 6.64234 126.09L 0.0545702 91.6756Z" transform="translate(487.919 172.95) scale(-1 1)" fill="#26D2FF"/>
</g>
<g data-name="Rectangle Copy">
<path fill-rule="evenodd" clip-rule="evenodd" d="M -5.75977e-06 198.136C -5.75977e-06 192.583 3.92203 185.754 8.7555 182.885L 341.545 1.26356C 346.381 -1.60628 350.301 0.580427 350.301 6.12179L 355.947 242.895C 355.947 248.448 352.025 255.277 347.192 258.146L 16.5655 452.476C 11.73 455.346 7.80998 453.159 7.80998 447.618L -5.75977e-06 198.136Z" transform="matrix(-0.48481 -0.87462 0.87462 -0.48481 187.567 682.754)" fill="#EDF2FF"/>
</g>
<g data-name="Group Copy">
<g data-name="Rectangle 4 Copy">
<path fill-rule="evenodd" clip-rule="evenodd" d="M 1.29277 14.9027C -0.425103 13.8935 -0.434423 12.2643 1.28587 11.2556L 19.1963 0.753067C 20.9104 -0.252042 23.6863 -0.252425 25.4104 0.76035L 44.9761 12.2539C 46.694 13.263 46.7033 14.8922 44.983 15.901L 27.0726 26.4035C 25.3585 27.4086 22.5826 27.409 20.8585 26.3962L 1.29277 14.9027Z" transform="translate(274.409 295.146) scale(-1 1)" fill="#BCC6E0"/>
</g>
<g data-name="Rectangle 4">
<path fill-rule="evenodd" clip-rule="evenodd" d="M 1.29277 14.9027C -0.425103 13.8935 -0.434423 12.2643 1.28587 11.2556L 19.1963 0.753067C 20.9104 -0.252042 23.6863 -0.252425 25.4104 0.76035L 44.9761 12.2539C 46.694 13.263 46.7033 14.8922 44.983 15.901L 27.0726 26.4035C 25.3585 27.4086 22.5826 27.409 20.8585 26.3962L 1.29277 14.9027Z" transform="translate(274.409 293.133) scale(-1 1)" fill="white"/>
</g>
</g>
<g data-name="Group">
<g data-name="Rectangle 4 Copy">
<path fill-rule="evenodd" clip-rule="evenodd" d="M 1.29277 14.9027C -0.425103 13.8935 -0.434423 12.2643 1.28587 11.2556L 19.1963 0.753067C 20.9104 -0.252042 23.6863 -0.252425 25.4104 0.76035L 44.9761 12.2539C 46.694 13.263 46.7033 14.8922 44.983 15.901L 27.0726 26.4035C 25.3585 27.4086 22.5826 27.409 20.8585 26.3962L 1.29277 14.9027Z" transform="translate(308.641 315.279) scale(-1 1)" fill="#BCC6E0"/>
</g>
<g data-name="Rectangle 4">
<path fill-rule="evenodd" clip-rule="evenodd" d="M 1.29277 14.9027C -0.425103 13.8935 -0.434423 12.2643 1.28587 11.2556L 19.1963 0.753067C 20.9104 -0.252042 23.6863 -0.252425 25.4104 0.76035L 44.9761 12.2539C 46.694 13.263 46.7033 14.8922 44.983 15.901L 27.0726 26.4035C 25.3585 27.4086 22.5826 27.409 20.8585 26.3962L 1.29277 14.9027Z" transform="translate(308.641 313.266) scale(-1 1)" fill="white"/>
</g>
</g>
<g data-name="Group 2">
<g data-name="Group">
<g data-name="Rectangle 4 Copy">
<path fill-rule="evenodd" clip-rule="evenodd" d="M 1.29277 14.9027C -0.425103 13.8935 -0.434423 12.2643 1.28587 11.2556L 19.1963 0.753067C 20.9104 -0.252042 23.6863 -0.252425 25.4104 0.76035L 44.9761 12.2539C 46.694 13.263 46.7033 14.8922 44.983 15.901L 27.0726 26.4035C 25.3585 27.4086 22.5826 27.409 20.8585 26.3962L 1.29277 14.9027Z" transform="translate(517.955 435.625) scale(-1 1)" fill="#BCC6E0"/>
</g>
<g data-name="Rectangle 4">
<path fill-rule="evenodd" clip-rule="evenodd" d="M 1.29277 14.9027C -0.425103 13.8935 -0.434423 12.2643 1.28587 11.2556L 19.1963 0.753067C 20.9104 -0.252042 23.6863 -0.252425 25.4104 0.76035L 44.9761 12.2539C 46.694 13.263 46.7033 14.8922 44.983 15.901L 27.0726 26.4035C 25.3585 27.4086 22.5826 27.409 20.8585 26.3962L 1.29277 14.9027Z" transform="translate(517.955 433.612) scale(-1 1)" fill="white"/>
</g>
</g>
<g data-name="Group Copy">
<g data-name="Rectangle 4 Copy">
<path fill-rule="evenodd" clip-rule="evenodd" d="M 1.29277 14.9027C -0.425103 13.8935 -0.434423 12.2643 1.28587 11.2556L 19.1963 0.753067C 20.9104 -0.252042 23.6863 -0.252425 25.4104 0.76035L 44.9761 12.2539C 46.694 13.263 46.7033 14.8922 44.983 15.901L 27.0726 26.4035C 25.3585 27.4086 22.5826 27.409 20.8585 26.3962L 1.29277 14.9027Z" transform="translate(483.723 415.492) scale(-1 1)" fill="#BCC6E0"/>
</g>
<g data-name="Rectangle 4">
<path fill-rule="evenodd" clip-rule="evenodd" d="M 1.29277 14.9027C -0.425103 13.8935 -0.434423 12.2643 1.28587 11.2556L 19.1963 0.753067C 20.9104 -0.252042 23.6863 -0.252425 25.4104 0.76035L 44.9761 12.2539C 46.694 13.263 46.7033 14.8922 44.983 15.901L 27.0726 26.4035C 25.3585 27.4086 22.5826 27.409 20.8585 26.3962L 1.29277 14.9027Z" transform="translate(483.723 413.478) scale(-1 1)" fill="white"/>
</g>
</g>
<g data-name="Group Copy 2">
<g data-name="Rectangle 4 Copy">
<path fill-rule="evenodd" clip-rule="evenodd" d="M 1.29277 14.9027C -0.425103 13.8935 -0.434423 12.2643 1.28587 11.2556L 19.1963 0.753067C 20.9104 -0.252042 23.6863 -0.252425 25.4104 0.76035L 44.9761 12.2539C 46.694 13.263 46.7033 14.8922 44.983 15.901L 27.0726 26.4035C 25.3585 27.4086 22.5826 27.409 20.8585 26.3962L 1.29277 14.9027Z" transform="translate(447.477 395.359) scale(-1 1)" fill="#BCC6E0"/>
</g>
<g data-name="Rectangle 4">
<path fill-rule="evenodd" clip-rule="evenodd" d="M 1.29277 14.9027C -0.425103 13.8935 -0.434423 12.2643 1.28587 11.2556L 19.1963 0.753067C 20.9104 -0.252042 23.6863 -0.252425 25.4104 0.76035L 44.9761 12.2539C 46.694 13.263 46.7033 14.8922 44.983 15.901L 27.0726 26.4035C 25.3585 27.4086 22.5826 27.409 20.8585 26.3962L 1.29277 14.9027Z" transform="translate(447.477 393.345) scale(-1 1)" fill="white"/>
</g>
</g>
<g data-name="Group">
<g data-name="Rectangle 4 Copy">
<path fill-rule="evenodd" clip-rule="evenodd" d="M 1.29277 14.9027C -0.425103 13.8935 -0.434423 12.2643 1.28587 11.2556L 19.1963 0.753067C 20.9104 -0.252042 23.6863 -0.252425 25.4104 0.76035L 44.9761 12.2539C 46.694 13.263 46.7033 14.8922 44.983 15.901L 27.0726 26.4035C 25.3585 27.4086 22.5826 27.409 20.8585 26.3962L 1.29277 14.9027Z" transform="translate(517.955 435.625) scale(-1 1)" fill="#BCC6E0"/>
</g>
<g data-name="Rectangle 4">
<path fill-rule="evenodd" clip-rule="evenodd" d="M 1.29277 14.9027C -0.425103 13.8935 -0.434423 12.2643 1.28587 11.2556L 19.1963 0.753067C 20.9104 -0.252042 23.6863 -0.252425 25.4104 0.76035L 44.9761 12.2539C 46.694 13.263 46.7033 14.8922 44.983 15.901L 27.0726 26.4035C 25.3585 27.4086 22.5826 27.409 20.8585 26.3962L 1.29277 14.9027Z" transform="translate(517.955 433.612) scale(-1 1)" fill="white"/>
</g>
</g>
<g data-name="Group Copy 2.1">
<g data-name="Rectangle 4 Copy">
<path fill-rule="evenodd" clip-rule="evenodd" d="M 1.29277 14.9027C -0.425103 13.8935 -0.434423 12.2643 1.28587 11.2556L 19.1963 0.753067C 20.9104 -0.252042 23.6863 -0.252425 25.4104 0.76035L 44.9761 12.2539C 46.694 13.263 46.7033 14.8922 44.983 15.901L 27.0726 26.4035C 25.3585 27.4086 22.5826 27.409 20.8585 26.3962L 1.29277 14.9027Z" transform="translate(447.477 395.359) scale(-1 1)" fill="#BCC6E0"/>
</g>
<g data-name="Rectangle 4">
<path fill-rule="evenodd" clip-rule="evenodd" d="M 1.29277 14.9027C -0.425103 13.8935 -0.434423 12.2643 1.28587 11.2556L 19.1963 0.753067C 20.9104 -0.252042 23.6863 -0.252425 25.4104 0.76035L 44.9761 12.2539C 46.694 13.263 46.7033 14.8922 44.983 15.901L 27.0726 26.4035C 25.3585 27.4086 22.5826 27.409 20.8585 26.3962L 1.29277 14.9027Z" transform="translate(447.477 393.345) scale(-1 1)" fill="white"/>
</g>
</g>
<g data-name="Group Copy">
<g data-name="Rectangle 4 Copy">
<path fill-rule="evenodd" clip-rule="evenodd" d="M 1.29277 14.9027C -0.425103 13.8935 -0.434423 12.2643 1.28587 11.2556L 19.1963 0.753067C 20.9104 -0.252042 23.6863 -0.252425 25.4104 0.76035L 44.9761 12.2539C 46.694 13.263 46.7033 14.8922 44.983 15.901L 27.0726 26.4035C 25.3585 27.4086 22.5826 27.409 20.8585 26.3962L 1.29277 14.9027Z" transform="translate(378.409 355.146) scale(-1 1)" fill="#BCC6E0"/>
</g>
<g data-name="Rectangle 4">
<path fill-rule="evenodd" clip-rule="evenodd" d="M 1.29277 14.9027C -0.425103 13.8935 -0.434423 12.2643 1.28587 11.2556L 19.1963 0.753067C 20.9104 -0.252042 23.6863 -0.252425 25.4104 0.76035L 44.9761 12.2539C 46.694 13.263 46.7033 14.8922 44.983 15.901L 27.0726 26.4035C 25.3585 27.4086 22.5826 27.409 20.8585 26.3962L 1.29277 14.9027Z" transform="translate(378.409 353.133) scale(-1 1)" fill="white"/>
</g>
</g>
<g data-name="Group">
<g data-name="Rectangle 4 Copy">
<path fill-rule="evenodd" clip-rule="evenodd" d="M 1.29277 14.9027C -0.425103 13.8935 -0.434423 12.2643 1.28587 11.2556L 19.1963 0.753067C 20.9104 -0.252042 23.6863 -0.252425 25.4104 0.76035L 44.9761 12.2539C 46.694 13.263 46.7033 14.8922 44.983 15.901L 27.0726 26.4035C 25.3585 27.4086 22.5826 27.409 20.8585 26.3962L 1.29277 14.9027Z" transform="translate(412.641 375.279) scale(-1 1)" fill="#BCC6E0"/>
</g>
<g data-name="Rectangle 4">
<path fill-rule="evenodd" clip-rule="evenodd" d="M 1.29277 14.9027C -0.425103 13.8935 -0.434423 12.2643 1.28587 11.2556L 19.1963 0.753067C 20.9104 -0.252042 23.6863 -0.252425 25.4104 0.76035L 44.9761 12.2539C 46.694 13.263 46.7033 14.8922 44.983 15.901L 27.0726 26.4035C 25.3585 27.4086 22.5826 27.409 20.8585 26.3962L 1.29277 14.9027Z" transform="translate(412.641 373.266) scale(-1 1)" fill="white"/>
</g>
</g>
<g data-name="Group Copy 2.2">
<g data-name="Rectangle 4 Copy">
<path fill-rule="evenodd" clip-rule="evenodd" d="M 1.29277 14.9027C -0.425103 13.8935 -0.434423 12.2643 1.28587 11.2556L 19.1963 0.753067C 20.9104 -0.252042 23.6863 -0.252425 25.4104 0.76035L 44.9761 12.2539C 46.694 13.263 46.7033 14.8922 44.983 15.901L 27.0726 26.4035C 25.3585 27.4086 22.5826 27.409 20.8585 26.3962L 1.29277 14.9027Z" transform="translate(342.163 335.013) scale(-1 1)" fill="#BCC6E0"/>
</g>
<g data-name="Rectangle 4">
<path fill-rule="evenodd" clip-rule="evenodd" d="M 1.29277 14.9027C -0.425103 13.8935 -0.434423 12.2643 1.28587 11.2556L 19.1963 0.753067C 20.9104 -0.252042 23.6863 -0.252425 25.4104 0.76035L 44.9761 12.2539C 46.694 13.263 46.7033 14.8922 44.983 15.901L 27.0726 26.4035C 25.3585 27.4086 22.5826 27.409 20.8585 26.3962L 1.29277 14.9027Z" transform="translate(342.163 333) scale(-1 1)" fill="white"/>
</g>
</g>
<g data-name="Group Copy 22">
<g data-name="Rectangle 4 Copy">
<path fill-rule="evenodd" clip-rule="evenodd" d="M 1.29277 14.9027C -0.425103 13.8935 -0.434423 12.2643 1.28587 11.2556L 19.1963 0.753067C 20.9104 -0.252042 23.6863 -0.252425 25.4104 0.76035L 44.9761 12.2539C 46.694 13.263 46.7033 14.8922 44.983 15.901L 27.0726 26.4035C 25.3585 27.4086 22.5826 27.409 20.8585 26.3962L 1.29277 14.9027Z" transform="translate(440.395 476.878) scale(-1 1)" fill="#BCC6E0"/>
</g>
<g data-name="Rectangle 4">
<path fill-rule="evenodd" clip-rule="evenodd" d="M 1.29277 14.9027C -0.425103 13.8935 -0.434423 12.2643 1.28587 11.2556L 19.1963 0.753067C 20.9104 -0.252042 23.6863 -0.252425 25.4104 0.76035L 44.9761 12.2539C 46.694 13.263 46.7033 14.8922 44.983 15.901L 27.0726 26.4035C 25.3585 27.4086 22.5826 27.409 20.8585 26.3962L 1.29277 14.9027Z" transform="translate(440.395 474.864) scale(-1 1)" fill="white"/>
</g>
</g>
<g data-name="Group Copy 21">
<g data-name="Rectangle 4 Copy">
<path fill-rule="evenodd" clip-rule="evenodd" d="M 1.29277 14.9027C -0.425103 13.8935 -0.434423 12.2643 1.28587 11.2556L 19.1963 0.753067C 20.9104 -0.252042 23.6863 -0.252425 25.4104 0.76035L 44.9761 12.2539C 46.694 13.263 46.7033 14.8922 44.983 15.901L 27.0726 26.4035C 25.3585 27.4086 22.5826 27.409 20.8585 26.3962L 1.29277 14.9027Z" transform="translate(406.162 456.745) scale(-1 1)" fill="#BCC6E0"/>
</g>
<g data-name="Rectangle 4">
<path fill-rule="evenodd" clip-rule="evenodd" d="M 1.29277 14.9027C -0.425103 13.8935 -0.434423 12.2643 1.28587 11.2556L 19.1963 0.753067C 20.9104 -0.252042 23.6863 -0.252425 25.4104 0.76035L 44.9761 12.2539C 46.694 13.263 46.7033 14.8922 44.983 15.901L 27.0726 26.4035C 25.3585 27.4086 22.5826 27.409 20.8585 26.3962L 1.29277 14.9027Z" transform="translate(406.162 454.731) scale(-1 1)" fill="white"/>
</g>
</g>
<g data-name="Group Copy 21.1">
<g data-name="Rectangle 4 Copy">
<path fill-rule="evenodd" clip-rule="evenodd" d="M 1.29277 14.9027C -0.425103 13.8935 -0.434423 12.2643 1.28587 11.2556L 19.1963 0.753067C 20.9104 -0.252042 23.6863 -0.252425 25.4104 0.76035L 44.9761 12.2539C 46.694 13.263 46.7033 14.8922 44.983 15.901L 27.0726 26.4035C 25.3585 27.4086 22.5826 27.409 20.8585 26.3962L 1.29277 14.9027Z" transform="translate(369.641 435.013) scale(-1 1)" fill="#BCC6E0"/>
</g>
<g data-name="Rectangle 4">
<path fill-rule="evenodd" clip-rule="evenodd" d="M 1.29277 14.9027C -0.425103 13.8935 -0.434423 12.2643 1.28587 11.2556L 19.1963 0.753067C 20.9104 -0.252042 23.6863 -0.252425 25.4104 0.76035L 44.9761 12.2539C 46.694 13.263 46.7033 14.8922 44.983 15.901L 27.0726 26.4035C 25.3585 27.4086 22.5826 27.409 20.8585 26.3962L 1.29277 14.9027Z" transform="translate(369.641 433) scale(-1 1)" fill="white"/>
</g>
</g>
<g data-name="Group Copy 21.2">
<g data-name="Rectangle 4 Copy">
<path fill-rule="evenodd" clip-rule="evenodd" d="M 1.29277 14.9027C -0.425103 13.8935 -0.434423 12.2643 1.28587 11.2556L 19.1963 0.753067C 20.9104 -0.252042 23.6863 -0.252425 25.4104 0.76035L 44.9761 12.2539C 46.694 13.263 46.7033 14.8922 44.983 15.901L 27.0726 26.4035C 25.3585 27.4086 22.5826 27.409 20.8585 26.3962L 1.29277 14.9027Z" transform="translate(331.641 415.013) scale(-1 1)" fill="#BCC6E0"/>
</g>
<g data-name="Rectangle 4">
<path fill-rule="evenodd" clip-rule="evenodd" d="M 1.29277 14.9027C -0.425103 13.8935 -0.434423 12.2643 1.28587 11.2556L 19.1963 0.753067C 20.9104 -0.252042 23.6863 -0.252425 25.4104 0.76035L 44.9761 12.2539C 46.694 13.263 46.7033 14.8922 44.983 15.901L 27.0726 26.4035C 25.3585 27.4086 22.5826 27.409 20.8585 26.3962L 1.29277 14.9027Z" transform="translate(331.641 413) scale(-1 1)" fill="white"/>
</g>
</g>
<g data-name="Group Copy 21.3">
<g data-name="Rectangle 4 Copy">
<path fill-rule="evenodd" clip-rule="evenodd" d="M 1.29277 14.9027C -0.425103 13.8935 -0.434423 12.2643 1.28587 11.2556L 19.1963 0.753067C 20.9104 -0.252042 23.6863 -0.252425 25.4104 0.76035L 44.9761 12.2539C 46.694 13.263 46.7033 14.8922 44.983 15.901L 27.0726 26.4035C 25.3585 27.4086 22.5826 27.409 20.8585 26.3962L 1.29277 14.9027Z" transform="translate(296.641 395.013) scale(-1 1)" fill="#BCC6E0"/>
</g>
<g data-name="Rectangle 4">
<path fill-rule="evenodd" clip-rule="evenodd" d="M 1.29277 14.9027C -0.425103 13.8935 -0.434423 12.2643 1.28587 11.2556L 19.1963 0.753067C 20.9104 -0.252042 23.6863 -0.252425 25.4104 0.76035L 44.9761 12.2539C 46.694 13.263 46.7033 14.8922 44.983 15.901L 27.0726 26.4035C 25.3585 27.4086 22.5826 27.409 20.8585 26.3962L 1.29277 14.9027Z" transform="translate(296.641 393) scale(-1 1)" fill="white"/>
</g>
</g>
<g data-name="Group Copy 21.4">
<g data-name="Rectangle 4 Copy">
<path fill-rule="evenodd" clip-rule="evenodd" d="M 1.29277 14.9027C -0.425103 13.8935 -0.434423 12.2643 1.28587 11.2556L 19.1963 0.753067C 20.9104 -0.252042 23.6863 -0.252425 25.4104 0.76035L 44.9761 12.2539C 46.694 13.263 46.7033 14.8922 44.983 15.901L 27.0726 26.4035C 25.3585 27.4086 22.5826 27.409 20.8585 26.3962L 1.29277 14.9027Z" transform="translate(263.641 375.013) scale(-1 1)" fill="#BCC6E0"/>
</g>
<g data-name="Rectangle 4">
<path fill-rule="evenodd" clip-rule="evenodd" d="M 1.29277 14.9027C -0.425103 13.8935 -0.434423 12.2643 1.28587 11.2556L 19.1963 0.753067C 20.9104 -0.252042 23.6863 -0.252425 25.4104 0.76035L 44.9761 12.2539C 46.694 13.263 46.7033 14.8922 44.983 15.901L 27.0726 26.4035C 25.3585 27.4086 22.5826 27.409 20.8585 26.3962L 1.29277 14.9027Z" transform="translate(263.641 373) scale(-1 1)" fill="white"/>
</g>
</g>
<g data-name="Group Copy 21.5">
<g data-name="Rectangle 4 Copy">
<path fill-rule="evenodd" clip-rule="evenodd" d="M 1.29277 14.9027C -0.425103 13.8935 -0.434423 12.2643 1.28587 11.2556L 19.1963 0.753067C 20.9104 -0.252042 23.6863 -0.252425 25.4104 0.76035L 44.9761 12.2539C 46.694 13.263 46.7033 14.8922 44.983 15.901L 27.0726 26.4035C 25.3585 27.4086 22.5826 27.409 20.8585 26.3962L 1.29277 14.9027Z" transform="translate(230.641 355.013) scale(-1 1)" fill="#BCC6E0"/>
</g>
<g data-name="Rectangle 4">
<path fill-rule="evenodd" clip-rule="evenodd" d="M 1.29277 14.9027C -0.425103 13.8935 -0.434423 12.2643 1.28587 11.2556L 19.1963 0.753067C 20.9104 -0.252042 23.6863 -0.252425 25.4104 0.76035L 44.9761 12.2539C 46.694 13.263 46.7033 14.8922 44.983 15.901L 27.0726 26.4035C 25.3585 27.4086 22.5826 27.409 20.8585 26.3962L 1.29277 14.9027Z" transform="translate(230.641 353) scale(-1 1)" fill="white"/>
</g>
</g>
<g data-name="Group Copy 21.6">
<g data-name="Rectangle 4 Copy">
<path fill-rule="evenodd" clip-rule="evenodd" d="M 1.29277 14.9027C -0.425103 13.8935 -0.434423 12.2643 1.28587 11.2556L 19.1963 0.753067C 20.9104 -0.252042 23.6863 -0.252425 25.4104 0.76035L 44.9761 12.2539C 46.694 13.263 46.7033 14.8922 44.983 15.901L 27.0726 26.4035C 25.3585 27.4086 22.5826 27.409 20.8585 26.3962L 1.29277 14.9027Z" transform="translate(197.641 336.013) scale(-1 1)" fill="#BCC6E0"/>
</g>
<g data-name="Rectangle 4">
<path fill-rule="evenodd" clip-rule="evenodd" d="M 1.29277 14.9027C -0.425103 13.8935 -0.434423 12.2643 1.28587 11.2556L 19.1963 0.753067C 20.9104 -0.252042 23.6863 -0.252425 25.4104 0.76035L 44.9761 12.2539C 46.694 13.263 46.7033 14.8922 44.983 15.901L 27.0726 26.4035C 25.3585 27.4086 22.5826 27.409 20.8585 26.3962L 1.29277 14.9027Z" transform="translate(197.641 334) scale(-1 1)" fill="white"/>
</g>
</g>
<g data-name="Group Copy 24">
<g data-name="Rectangle 4 Copy">
<path fill-rule="evenodd" clip-rule="evenodd" d="M 1.29277 14.9027C -0.425103 13.8935 -0.434423 12.2643 1.28587 11.2556L 19.1963 0.753067C 20.9104 -0.252042 23.6863 -0.252425 25.4104 0.76035L 44.9761 12.2539C 46.694 13.263 46.7033 14.8922 44.983 15.901L 27.0726 26.4035C 25.3585 27.4086 22.5826 27.409 20.8585 26.3962L 1.29277 14.9027Z" transform="translate(413.244 506.091) scale(-1 1)" fill="#BCC6E0"/>
</g>
<g data-name="Rectangle 4">
<path fill-rule="evenodd" clip-rule="evenodd" d="M 1.29277 14.9027C -0.425103 13.8935 -0.434423 12.2643 1.28587 11.2556L 19.1963 0.753067C 20.9104 -0.252042 23.6863 -0.252425 25.4104 0.76035L 44.9761 12.2539C 46.694 13.263 46.7033 14.8922 44.983 15.901L 27.0726 26.4035C 25.3585 27.4086 22.5826 27.409 20.8585 26.3962L 1.29277 14.9027Z" transform="translate(413.244 504.077) scale(-1 1)" fill="white"/>
</g>
</g>
<g data-name="Group Copy 24.1">
<g data-name="Rectangle 4 Copy">
<path fill-rule="evenodd" clip-rule="evenodd" d="M 1.29277 14.9027C -0.425103 13.8935 -0.434423 12.2643 1.28587 11.2556L 19.1963 0.753067C 20.9104 -0.252042 23.6863 -0.252425 25.4104 0.76035L 44.9761 12.2539C 46.694 13.263 46.7033 14.8922 44.983 15.901L 27.0726 26.4035C 25.3585 27.4086 22.5826 27.409 20.8585 26.3962L 1.29277 14.9027Z" transform="translate(379.641 487.013) scale(-1 1)" fill="#BCC6E0"/>
</g>
<g data-name="Rectangle 4">
<path fill-rule="evenodd" clip-rule="evenodd" d="M 1.29277 14.9027C -0.425103 13.8935 -0.434423 12.2643 1.28587 11.2556L 19.1963 0.753067C 20.9104 -0.252042 23.6863 -0.252425 25.4104 0.76035L 44.9761 12.2539C 46.694 13.263 46.7033 14.8922 44.983 15.901L 27.0726 26.4035C 25.3585 27.4086 22.5826 27.409 20.8585 26.3962L 1.29277 14.9027Z" transform="translate(379.641 485) scale(-1 1)" fill="white"/>
</g>
</g>
<g data-name="Group Copy 24.5">
<g data-name="Rectangle 4 Copy">
<path fill-rule="evenodd" clip-rule="evenodd" d="M 1.29277 14.9027C -0.425103 13.8935 -0.434423 12.2643 1.28587 11.2556L 19.1963 0.753067C 20.9104 -0.252042 23.6863 -0.252425 25.4104 0.76035L 44.9761 12.2539C 46.694 13.263 46.7033 14.8922 44.983 15.901L 27.0726 26.4035C 25.3585 27.4086 22.5826 27.409 20.8585 26.3962L 1.29277 14.9027Z" transform="translate(347.641 467.013) scale(-1 1)" fill="#BCC6E0"/>
</g>
<g data-name="Rectangle 4">
<path fill-rule="evenodd" clip-rule="evenodd" d="M 1.29277 14.9027C -0.425103 13.8935 -0.434423 12.2643 1.28587 11.2556L 19.1963 0.753067C 20.9104 -0.252042 23.6863 -0.252425 25.4104 0.76035L 44.9761 12.2539C 46.694 13.263 46.7033 14.8922 44.983 15.901L 27.0726 26.4035C 25.3585 27.4086 22.5826 27.409 20.8585 26.3962L 1.29277 14.9027Z" transform="translate(347.641 465) scale(-1 1)" fill="white"/>
</g>
</g>
<g data-name="Group Copy 24.3">
<g data-name="Rectangle 4 Copy">
<path fill-rule="evenodd" clip-rule="evenodd" d="M 1.29277 14.9027C -0.425103 13.8935 -0.434423 12.2643 1.28587 11.2556L 19.1963 0.753067C 20.9104 -0.252042 23.6863 -0.252425 25.4104 0.76035L 44.9761 12.2539C 46.694 13.263 46.7033 14.8922 44.983 15.901L 27.0726 26.4035C 25.3585 27.4086 22.5826 27.409 20.8585 26.3962L 1.29277 14.9027Z" transform="translate(314.641 448.013) scale(-1 1)" fill="#BCC6E0"/>
</g>
<g data-name="Rectangle 4">
<path fill-rule="evenodd" clip-rule="evenodd" d="M 1.29277 14.9027C -0.425103 13.8935 -0.434423 12.2643 1.28587 11.2556L 19.1963 0.753067C 20.9104 -0.252042 23.6863 -0.252425 25.4104 0.76035L 44.9761 12.2539C 46.694 13.263 46.7033 14.8922 44.983 15.901L 27.0726 26.4035C 25.3585 27.4086 22.5826 27.409 20.8585 26.3962L 1.29277 14.9027Z" transform="translate(314.641 446) scale(-1 1)" fill="white"/>
</g>
</g>
<g data-name="Group Copy 24.4">
<g data-name="Rectangle 4 Copy">
<path fill-rule="evenodd" clip-rule="evenodd" d="M 1.29277 14.9027C -0.425103 13.8935 -0.434423 12.2643 1.28587 11.2556L 19.1963 0.753067C 20.9104 -0.252042 23.6863 -0.252425 25.4104 0.76035L 44.9761 12.2539C 46.694 13.263 46.7033 14.8922 44.983 15.901L 27.0726 26.4035C 25.3585 27.4086 22.5826 27.409 20.8585 26.3962L 1.29277 14.9027Z" transform="translate(280.641 428.013) scale(-1 1)" fill="#BCC6E0"/>
</g>
<g data-name="Rectangle 4">
<path fill-rule="evenodd" clip-rule="evenodd" d="M 1.29277 14.9027C -0.425103 13.8935 -0.434423 12.2643 1.28587 11.2556L 19.1963 0.753067C 20.9104 -0.252042 23.6863 -0.252425 25.4104 0.76035L 44.9761 12.2539C 46.694 13.263 46.7033 14.8922 44.983 15.901L 27.0726 26.4035C 25.3585 27.4086 22.5826 27.409 20.8585 26.3962L 1.29277 14.9027Z" transform="translate(280.641 426) scale(-1 1)" fill="white"/>
</g>
</g>
<g data-name="Group Copy 24.6">
<g data-name="Rectangle 4 Copy">
<path fill-rule="evenodd" clip-rule="evenodd" d="M 1.29277 14.9027C -0.425103 13.8935 -0.434423 12.2643 1.28587 11.2556L 19.1963 0.753067C 20.9104 -0.252042 23.6863 -0.252425 25.4104 0.76035L 44.9761 12.2539C 46.694 13.263 46.7033 14.8922 44.983 15.901L 27.0726 26.4035C 25.3585 27.4086 22.5826 27.409 20.8585 26.3962L 1.29277 14.9027Z" transform="translate(245.641 408.013) scale(-1 1)" fill="#BCC6E0"/>
</g>
<g data-name="Rectangle 4">
<path fill-rule="evenodd" clip-rule="evenodd" d="M 1.29277 14.9027C -0.425103 13.8935 -0.434423 12.2643 1.28587 11.2556L 19.1963 0.753067C 20.9104 -0.252042 23.6863 -0.252425 25.4104 0.76035L 44.9761 12.2539C 46.694 13.263 46.7033 14.8922 44.983 15.901L 27.0726 26.4035C 25.3585 27.4086 22.5826 27.409 20.8585 26.3962L 1.29277 14.9027Z" transform="translate(245.641 406) scale(-1 1)" fill="white"/>
</g>
</g>
<g data-name="Group Copy 24.7">
<g data-name="Rectangle 4 Copy">
<path fill-rule="evenodd" clip-rule="evenodd" d="M 1.29277 14.9027C -0.425103 13.8935 -0.434423 12.2643 1.28587 11.2556L 19.1963 0.753067C 20.9104 -0.252042 23.6863 -0.252425 25.4104 0.76035L 44.9761 12.2539C 46.694 13.263 46.7033 14.8922 44.983 15.901L 27.0726 26.4035C 25.3585 27.4086 22.5826 27.409 20.8585 26.3962L 1.29277 14.9027Z" transform="translate(212.641 389.013) scale(-1 1)" fill="#BCC6E0"/>
</g>
<g data-name="Rectangle 4">
<path fill-rule="evenodd" clip-rule="evenodd" d="M 1.29277 14.9027C -0.425103 13.8935 -0.434423 12.2643 1.28587 11.2556L 19.1963 0.753067C 20.9104 -0.252042 23.6863 -0.252425 25.4104 0.76035L 44.9761 12.2539C 46.694 13.263 46.7033 14.8922 44.983 15.901L 27.0726 26.4035C 25.3585 27.4086 22.5826 27.409 20.8585 26.3962L 1.29277 14.9027Z" transform="translate(212.641 387) scale(-1 1)" fill="white"/>
</g>
</g>
<g data-name="Group Copy 24.8">
<g data-name="Rectangle 4 Copy">
<path fill-rule="evenodd" clip-rule="evenodd" d="M 1.29277 14.9027C -0.425103 13.8935 -0.434423 12.2643 1.28587 11.2556L 19.1963 0.753067C 20.9104 -0.252042 23.6863 -0.252425 25.4104 0.76035L 44.9761 12.2539C 46.694 13.263 46.7033 14.8922 44.983 15.901L 27.0726 26.4035C 25.3585 27.4086 22.5826 27.409 20.8585 26.3962L 1.29277 14.9027Z" transform="translate(179.641 370.013) scale(-1 1)" fill="#BCC6E0"/>
</g>
<g data-name="Rectangle 4">
<path fill-rule="evenodd" clip-rule="evenodd" d="M 1.29277 14.9027C -0.425103 13.8935 -0.434423 12.2643 1.28587 11.2556L 19.1963 0.753067C 20.9104 -0.252042 23.6863 -0.252425 25.4104 0.76035L 44.9761 12.2539C 46.694 13.263 46.7033 14.8922 44.983 15.901L 27.0726 26.4035C 25.3585 27.4086 22.5826 27.409 20.8585 26.3962L 1.29277 14.9027Z" transform="translate(179.641 368) scale(-1 1)" fill="white"/>
</g>
</g>
<g data-name="Group Copy 11">
<g data-name="Rectangle 4 Copy">
<path fill-rule="evenodd" clip-rule="evenodd" d="M 1.29277 14.9027C -0.425103 13.8935 -0.434423 12.2643 1.28587 11.2556L 19.1963 0.753067C 20.9104 -0.252042 23.6863 -0.252425 25.4104 0.76035L 44.9761 12.2539C 46.694 13.263 46.7033 14.8922 44.983 15.901L 27.0726 26.4035C 25.3585 27.4086 22.5826 27.409 20.8585 26.3962L 1.29277 14.9027Z" transform="translate(465.641 448.691) scale(-1 1)" fill="#BCC6E0"/>
</g>
<g data-name="Rectangle 4">
<path fill-rule="evenodd" clip-rule="evenodd" d="M 1.29277 14.9027C -0.425103 13.8935 -0.434423 12.2643 1.28587 11.2556L 19.1963 0.753067C 20.9104 -0.252042 23.6863 -0.252425 25.4104 0.76035L 44.9761 12.2539C 46.694 13.263 46.7033 14.8922 44.983 15.901L 27.0726 26.4035C 25.3585 27.4086 22.5826 27.409 20.8585 26.3962L 1.29277 14.9027Z" transform="translate(465.641 446.678) scale(-1 1)" fill="white"/>
</g>
</g>
<g data-name="Group Copy 10">
<g data-name="Rectangle 4 Copy">
<path fill-rule="evenodd" clip-rule="evenodd" d="M 1.29277 14.9027C -0.425103 13.8935 -0.434423 12.2643 1.28587 11.2556L 19.1963 0.753067C 20.9104 -0.252042 23.6863 -0.252425 25.4104 0.76035L 44.9761 12.2539C 46.694 13.263 46.7033 14.8922 44.983 15.901L 27.0726 26.4035C 25.3585 27.4086 22.5826 27.409 20.8585 26.3962L 1.29277 14.9027Z" transform="translate(431.409 428.558) scale(-1 1)" fill="#BCC6E0"/>
</g>
<g data-name="Rectangle 4">
<path fill-rule="evenodd" clip-rule="evenodd" d="M 1.29277 14.9027C -0.425103 13.8935 -0.434423 12.2643 1.28587 11.2556L 19.1963 0.753067C 20.9104 -0.252042 23.6863 -0.252425 25.4104 0.76035L 44.9761 12.2539C 46.694 13.263 46.7033 14.8922 44.983 15.901L 27.0726 26.4035C 25.3585 27.4086 22.5826 27.409 20.8585 26.3962L 1.29277 14.9027Z" transform="translate(431.409 426.545) scale(-1 1)" fill="white"/>
</g>
</g>
<g data-name="Group Copy 11.1">
<g data-name="Rectangle 4 Copy">
<path fill-rule="evenodd" clip-rule="evenodd" d="M 1.29277 14.9027C -0.425103 13.8935 -0.434423 12.2643 1.28587 11.2556L 19.1963 0.753067C 20.9104 -0.252042 23.6863 -0.252425 25.4104 0.76035L 44.9761 12.2539C 46.694 13.263 46.7033 14.8922 44.983 15.901L 27.0726 26.4035C 25.3585 27.4086 22.5826 27.409 20.8585 26.3962L 1.29277 14.9027Z" transform="translate(396.71 409.146) scale(-1 1)" fill="#BCC6E0"/>
</g>
<g data-name="Rectangle 4">
<path fill-rule="evenodd" clip-rule="evenodd" d="M 1.29277 14.9027C -0.425103 13.8935 -0.434423 12.2643 1.28587 11.2556L 19.1963 0.753067C 20.9104 -0.252042 23.6863 -0.252425 25.4104 0.76035L 44.9761 12.2539C 46.694 13.263 46.7033 14.8922 44.983 15.901L 27.0726 26.4035C 25.3585 27.4086 22.5826 27.409 20.8585 26.3962L 1.29277 14.9027Z" transform="translate(396.71 407.133) scale(-1 1)" fill="white"/>
</g>
</g>
<g data-name="Group Copy 10.1">
<g data-name="Rectangle 4 Copy">
<path fill-rule="evenodd" clip-rule="evenodd" d="M 1.29277 14.9027C -0.425103 13.8935 -0.434423 12.2643 1.28587 11.2556L 19.1963 0.753067C 20.9104 -0.252042 23.6863 -0.252425 25.4104 0.76035L 44.9761 12.2539C 46.694 13.263 46.7033 14.8922 44.983 15.901L 27.0726 26.4035C 25.3585 27.4086 22.5826 27.409 20.8585 26.3962L 1.29277 14.9027Z" transform="translate(362.478 389.013) scale(-1 1)" fill="#BCC6E0"/>
</g>
<g data-name="Rectangle 4">
<path fill-rule="evenodd" clip-rule="evenodd" d="M 1.29277 14.9027C -0.425103 13.8935 -0.434423 12.2643 1.28587 11.2556L 19.1963 0.753067C 20.9104 -0.252042 23.6863 -0.252425 25.4104 0.76035L 44.9761 12.2539C 46.694 13.263 46.7033 14.8922 44.983 15.901L 27.0726 26.4035C 25.3585 27.4086 22.5826 27.409 20.8585 26.3962L 1.29277 14.9027Z" transform="translate(362.478 387) scale(-1 1)" fill="white"/>
</g>
</g>
<g data-name="Group Copy 11.2">
<g data-name="Rectangle 4 Copy">
<path fill-rule="evenodd" clip-rule="evenodd" d="M 1.29277 14.9027C -0.425103 13.8935 -0.434423 12.2643 1.28587 11.2556L 19.1963 0.753067C 20.9104 -0.252042 23.6863 -0.252425 25.4104 0.76035L 44.9761 12.2539C 46.694 13.263 46.7033 14.8922 44.983 15.901L 27.0726 26.4035C 25.3585 27.4086 22.5826 27.409 20.8585 26.3962L 1.29277 14.9027Z" transform="translate(330.71 370.691) scale(-1 1)" fill="#BCC6E0"/>
</g>
<g data-name="Rectangle 4">
<path fill-rule="evenodd" clip-rule="evenodd" d="M 1.29277 14.9027C -0.425103 13.8935 -0.434423 12.2643 1.28587 11.2556L 19.1963 0.753067C 20.9104 -0.252042 23.6863 -0.252425 25.4104 0.76035L 44.9761 12.2539C 46.694 13.263 46.7033 14.8922 44.983 15.901L 27.0726 26.4035C 25.3585 27.4086 22.5826 27.409 20.8585 26.3962L 1.29277 14.9027Z" transform="translate(330.71 368.678) scale(-1 1)" fill="white"/>
</g>
</g>
<g data-name="Group Copy 10.2">
<g data-name="Rectangle 4 Copy">
<path fill-rule="evenodd" clip-rule="evenodd" d="M 1.29277 14.9027C -0.425103 13.8935 -0.434423 12.2643 1.28587 11.2556L 19.1963 0.753067C 20.9104 -0.252042 23.6863 -0.252425 25.4104 0.76035L 44.9761 12.2539C 46.694 13.263 46.7033 14.8922 44.983 15.901L 27.0726 26.4035C 25.3585 27.4086 22.5826 27.409 20.8585 26.3962L 1.29277 14.9027Z" transform="translate(296.478 350.558) scale(-1 1)" fill="#BCC6E0"/>
</g>
<g data-name="Rectangle 4">
<path fill-rule="evenodd" clip-rule="evenodd" d="M 1.29277 14.9027C -0.425103 13.8935 -0.434423 12.2643 1.28587 11.2556L 19.1963 0.753067C 20.9104 -0.252042 23.6863 -0.252425 25.4104 0.76035L 44.9761 12.2539C 46.694 13.263 46.7033 14.8922 44.983 15.901L 27.0726 26.4035C 25.3585 27.4086 22.5826 27.409 20.8585 26.3962L 1.29277 14.9027Z" transform="translate(296.478 348.545) scale(-1 1)" fill="white"/>
</g>
</g>
<g data-name="Group Copy 11.3">
<g data-name="Rectangle 4 Copy">
<path fill-rule="evenodd" clip-rule="evenodd" d="M 1.29277 14.9027C -0.425103 13.8935 -0.434423 12.2643 1.28587 11.2556L 19.1963 0.753067C 20.9104 -0.252042 23.6863 -0.252425 25.4104 0.76035L 44.9761 12.2539C 46.694 13.263 46.7033 14.8922 44.983 15.901L 27.0726 26.4035C 25.3585 27.4086 22.5826 27.409 20.8585 26.3962L 1.29277 14.9027Z" transform="translate(261.779 331.146) scale(-1 1)" fill="#BCC6E0"/>
</g>
<g data-name="Rectangle 4">
<path fill-rule="evenodd" clip-rule="evenodd" d="M 1.29277 14.9027C -0.425103 13.8935 -0.434423 12.2643 1.28587 11.2556L 19.1963 0.753067C 20.9104 -0.252042 23.6863 -0.252425 25.4104 0.76035L 44.9761 12.2539C 46.694 13.263 46.7033 14.8922 44.983 15.901L 27.0726 26.4035C 25.3585 27.4086 22.5826 27.409 20.8585 26.3962L 1.29277 14.9027Z" transform="translate(261.779 329.133) scale(-1 1)" fill="white"/>
</g>
</g>
<g data-name="Group Copy 10.3">
<g data-name="Rectangle 4 Copy">
<path fill-rule="evenodd" clip-rule="evenodd" d="M 1.29277 14.9027C -0.425103 13.8935 -0.434423 12.2643 1.28587 11.2556L 19.1963 0.753067C 20.9104 -0.252042 23.6863 -0.252425 25.4104 0.76035L 44.9761 12.2539C 46.694 13.263 46.7033 14.8922 44.983 15.901L 27.0726 26.4035C 25.3585 27.4086 22.5826 27.409 20.8585 26.3962L 1.29277 14.9027Z" transform="translate(227.546 311.013) scale(-1 1)" fill="#BCC6E0"/>
</g>
<g data-name="Rectangle 4">
<path fill-rule="evenodd" clip-rule="evenodd" d="M 1.29277 14.9027C -0.425103 13.8935 -0.434423 12.2643 1.28587 11.2556L 19.1963 0.753067C 20.9104 -0.252042 23.6863 -0.252425 25.4104 0.76035L 44.9761 12.2539C 46.694 13.263 46.7033 14.8922 44.983 15.901L 27.0726 26.4035C 25.3585 27.4086 22.5826 27.409 20.8585 26.3962L 1.29277 14.9027Z" transform="translate(227.546 309) scale(-1 1)" fill="white"/>
</g>
</g>
</g>
<g data-name="Path">
<path fill-rule="evenodd" clip-rule="evenodd" d="M 2.10327e-07 188.699L 36.6419 407.232L 362.006 219L 327.006 0L 2.10327e-07 188.699Z" transform="translate(611.006 29) scale(-1 1)" fill="#EFF3F6"/>
</g>
<g data-name="Path 5">
<path fill-rule="evenodd" clip-rule="evenodd" d="M 108.061 215.82L 36.1679 257.328L 9.17314 94.4873L 0 39.152L 67.6282 0L 108.061 215.82Z" transform="translate(369.061 39) scale(-1 1)" fill="white"/>
</g>
<g data-name="Line">
<path d="M 35.5 218.5L 0 0L 6.32523 38.3028L 35.5 218.5Z" stroke-linecap="square" transform="translate(369 78) scale(-1 1)" stroke="#E8E8E8"/>
</g>
<g data-name="Path 2">
<path fill-rule="evenodd" clip-rule="evenodd" d="M 3 156.5L 80.9277 112.21L 244.5 19L 241.5 0L 0 139L 3 156.5Z" transform="translate(611 78.5) scale(-1 1)" fill="#0066CC"/>
</g>
<g data-name="Rectangle 2 Copy">
<path fill-rule="evenodd" clip-rule="evenodd" d="M 1.38119 8.75073L 17.0119 0L 53.0514 218.386L 36.3779 228.183L 0.0373363 11.5534C -0.151257 10.4291 0.386521 9.30759 1.38119 8.75073Z" transform="translate(301.051 29) scale(-1 1)" fill="#1D2531"/>
</g>
<g data-name="Path 6">
<path fill-rule="evenodd" clip-rule="evenodd" d="M 1.47266e-07 32.1967L 1.10915 37.4145L 56.6011 5.22063L 55.7824 0L 1.47266e-07 32.1967Z" transform="translate(361.601 49) scale(-1 1)" fill="#EEEEEE"/>
</g>
<g data-name="Oval 2">
<path fill-rule="evenodd" clip-rule="evenodd" d="M 2.55113 6.25C 3.96008 6.25 5 4.85089 5 3.125C 5 1.39911 3.96008 0 2.55113 0C 1.14218 0 0 1.39911 0 3.125C 0 4.85089 1.14218 6.25 2.55113 6.25Z" transform="translate(374 112) scale(-1 1)" fill="#FF9595"/>
</g>
<g data-name="Oval 3">
<path d="M 3 7C 4.65685 7 6 5.433 6 3.5C 6 1.567 4.65685 0 3 0C 1.34315 0 0 1.567 0 3.5C 0 5.433 1.34315 7 3 7Z" transform="translate(360.337 101) scale(-1 1)" fill="#2DA1F8"/>
</g>
<g data-name="Oval 3">
<path d="M 3 7C 4.65685 7 6 5.433 6 3.5C 6 1.567 4.65685 0 3 0C 1.34315 0 0 1.567 0 3.5C 0 5.433 1.34315 7 3 7Z" transform="translate(356.337 121) scale(-1 1)" fill="#3CC127"/>
</g>
<g data-name="Path 7.2">
<path d="M 0 39L 68 0" transform="translate(356 121) scale(-1 1)" stroke="#F1F1F1"/>
</g>
<g data-name="Path 7.7">
<path d="M 0 39L 68 0" transform="translate(344 187) scale(-1 1)" stroke="#F1F1F1"/>
</g>
<g data-name="Card 3.5">
<g data-name="Oval 3">
<path d="M 3 7C 4.65685 7 6 5.433 6 3.5C 6 1.567 4.65685 0 3 0C 1.34315 0 0 1.567 0 3.5C 0 5.433 1.34315 7 3 7Z" transform="translate(342 206) scale(-1 1)" fill="#3CC127"/>
</g>
</g>
<g data-name="Oval 2.1">
<path fill-rule="evenodd" clip-rule="evenodd" d="M 6.12272 15C 9.50421 15 12 11.6421 12 7.5C 12 3.35786 9.50421 0 6.12272 0C 2.74124 0 0 3.35786 0 7.5C 0 11.6421 2.74124 15 6.12272 15Z" transform="translate(312.349 66) scale(-1 1)" fill="#FF9595"/>
</g>
<g data-name="Oval 2.2">
<path fill-rule="evenodd" clip-rule="evenodd" d="M 6.12272 14.5C 9.50421 14.5 12 11.2541 12 7.25C 12 3.24594 9.50421 0 6.12272 0C 2.74124 0 0 3.24594 0 7.25C 0 11.2541 2.74124 14.5 6.12272 14.5Z" transform="translate(308.849 87.5) scale(-1 1)" fill="#5ED1D2"/>
</g>
<g data-name="Line">
<path d="M 66 0L 0 39" stroke-linecap="square" transform="translate(365 58) scale(-1 1)" stroke="#F1F1F1"/>
</g>
<g data-name="Path 7.3">
<path d="M 0 39.4801L 67.9335 3.61328e-07" transform="translate(362.933 79) scale(-1 1)" stroke="#F1F1F1"/>
</g>
<g data-name="Path 7.8">
<path d="M 0 39L 68 -7.62939e-06" transform="translate(341 209) scale(-1 1)" stroke="#F1F1F1"/>
</g>
<g data-name="Path 7.4">
<path d="M 0 40.0384L 69.0589 0" transform="translate(360.059 99) scale(-1 1)" stroke="#F1F1F1"/>
</g>
<g data-name="Path 7.6">
<path d="M 0 37L 68 0" transform="translate(348 165) scale(-1 1)" stroke="#F1F1F1"/>
</g>
<g data-name="Path 8.7">
<path fill-rule="evenodd" clip-rule="evenodd" d="M 0 12L 20 0L 20 1.5L 0 13.5L 0 12Z" transform="translate(333 97) scale(-1 1)" fill="#D9D9D9"/>
</g>
<g data-name="Path 8.8">
<path fill-rule="evenodd" clip-rule="evenodd" d="M 0 18.9677L 32 0L 32 1.5L 0 20.5L 0 18.9677Z" transform="translate(344 103) scale(-1 1)" fill="#E6E6E6"/>
</g>
<g data-name="Path 8.13">
<path fill-rule="evenodd" clip-rule="evenodd" d="M 0 12L 20 0L 20 1.5L 0 13.5L 0 12Z" transform="translate(336 74) scale(-1 1)" fill="#D9D9D9"/>
</g>
<g data-name="Path 8.14">
<path fill-rule="evenodd" clip-rule="evenodd" d="M 0 18.9677L 32 0L 32 1.5L 0 20.5L 0 18.9677Z" transform="translate(347 80) scale(-1 1)" fill="#E6E6E6"/>
</g>
<g data-name="Path 8.15">
<path fill-rule="evenodd" clip-rule="evenodd" d="M 0 12L 20 0L 20 1.5L 0 13.5L 0 12Z" transform="translate(330 118) scale(-1 1)" fill="#D9D9D9"/>
</g>
<g data-name="Path 8.16">
<path fill-rule="evenodd" clip-rule="evenodd" d="M 0 18.9677L 32 0L 32 1.5L 0 20.5L 0 18.9677Z" transform="translate(341 124) scale(-1 1)" fill="#E6E6E6"/>
</g>
<g data-name="Path 8.19">
<path fill-rule="evenodd" clip-rule="evenodd" d="M 0 12L 20 0L 20 1.5L 0 13.5L 0 12Z" transform="translate(324 161) scale(-1 1)" fill="#D9D9D9"/>
</g>
<g data-name="Path 8.20">
<path fill-rule="evenodd" clip-rule="evenodd" d="M 0 18.9677L 32 0L 32 1.5L 0 20.5L 0 18.9677Z" transform="translate(335 167) scale(-1 1)" fill="#E6E6E6"/>
</g>
<g data-name="Path 8.21">
<path fill-rule="evenodd" clip-rule="evenodd" d="M 0 12L 20 0L 20 1.5L 0 13.5L 0 12Z" transform="translate(319 184) scale(-1 1)" fill="#D9D9D9"/>
</g>
<g data-name="Path 8.22">
<path fill-rule="evenodd" clip-rule="evenodd" d="M 0 18.9677L 32 0L 32 1.5L 0 20.5L 0 18.9677Z" transform="translate(330 190) scale(-1 1)" fill="#E6E6E6"/>
</g>
<g data-name="Path 8.23">
<path fill-rule="evenodd" clip-rule="evenodd" d="M 0 12L 20 0L 20 1.5L 0 13.5L 0 12Z" transform="translate(315 206) scale(-1 1)" fill="#D9D9D9"/>
</g>
<g data-name="Path 8.24">
<path fill-rule="evenodd" clip-rule="evenodd" d="M 0 18.9677L 32 0L 32 1.5L 0 20.5L 0 18.9677Z" transform="translate(326 212) scale(-1 1)" fill="#E6E6E6"/>
</g>
<g data-name="Path 8.25">
<path fill-rule="evenodd" clip-rule="evenodd" d="M 0 12L 20 0L 20 1.5L 0 13.5L 0 12Z" transform="translate(311 229) scale(-1 1)" fill="#D9D9D9"/>
</g>
<g data-name="Path 8.26">
<path fill-rule="evenodd" clip-rule="evenodd" d="M 0 18.9677L 32 0L 32 1.5L 0 20.5L 0 18.9677Z" transform="translate(322 235) scale(-1 1)" fill="#E6E6E6"/>
</g>
<g data-name="Path 8.17">
<path fill-rule="evenodd" clip-rule="evenodd" d="M 0 12L 20 0L 20 1.5L 0 13.5L 0 12Z" transform="translate(327 139) scale(-1 1)" fill="#D9D9D9"/>
</g>
<g data-name="Path 8.18">
<path fill-rule="evenodd" clip-rule="evenodd" d="M 0 18.9677L 32 0L 32 1.5L 0 20.5L 0 18.9677Z" transform="translate(338 145) scale(-1 1)" fill="#E6E6E6"/>
</g>
<g data-name="Card 3.6">
<g data-name="Oval 2">
<path fill-rule="evenodd" clip-rule="evenodd" d="M 6.12272 15C 9.50421 15 12 11.6421 12 7.5C 12 3.35786 9.50421 0 6.12272 0C 2.74124 0 0 3.35786 0 7.5C 0 11.6421 2.74124 15 6.12272 15Z" transform="translate(305.349 108.5) scale(-1 1)" fill="#84BDFF"/>
</g>
<g data-name="Oval 3">
<path d="M 3 7C 4.65685 7 6 5.433 6 3.5C 6 1.567 4.65685 0 3 0C 1.34315 0 0 1.567 0 3.5C 0 5.433 1.34315 7 3 7Z" transform="translate(352.337 142) scale(-1 1)" fill="#3CC127"/>
</g>
</g>
<g data-name="Card 3.7">
<g data-name="Oval 2">
<path fill-rule="evenodd" clip-rule="evenodd" d="M 6.12272 15C 9.50421 15 12 11.6421 12 7.5C 12 3.35786 9.50421 0 6.12272 0C 2.74124 0 0 3.35786 0 7.5C 0 11.6421 2.74124 15 6.12272 15Z" transform="translate(301.012 129.759) scale(-1 1)" fill="#FFEB84"/>
</g>
<g data-name="Oval 3">
<path d="M 3 7C 4.65685 7 6 5.433 6 3.5C 6 1.567 4.65685 0 3 0C 1.34315 0 0 1.567 0 3.5C 0 5.433 1.34315 7 3 7Z" transform="translate(349 161) scale(-1 1)" fill="#3CC127"/>
</g>
</g>
<g data-name="Oval 2.3">
<path fill-rule="evenodd" clip-rule="evenodd" d="M 6.12272 15C 9.50421 15 12 11.6421 12 7.5C 12 3.35786 9.50421 0 6.12272 0C 2.74124 0 0 3.35786 0 7.5C 0 11.6421 2.74124 15 6.12272 15Z" transform="translate(297 151) scale(-1 1)" fill="#FF9595"/>
</g>
<g data-name="Oval 2.4">
<path fill-rule="evenodd" clip-rule="evenodd" d="M 6.12272 14.5C 9.50421 14.5 12 11.2541 12 7.25C 12 3.24594 9.50421 0 6.12272 0C 2.74124 0 0 3.24594 0 7.25C 0 11.2541 2.74124 14.5 6.12272 14.5Z" transform="translate(294 174) scale(-1 1)" fill="#5ED1D2"/>
</g>
<g data-name="Path 7.5">
<path d="M 0 37L 68 0" transform="translate(352 143) scale(-1 1)" stroke="#F1F1F1"/>
</g>
<g data-name="Card 3.8">
<g data-name="Oval 2">
<path fill-rule="evenodd" clip-rule="evenodd" d="M 6.12272 15C 9.50421 15 12 11.6421 12 7.5C 12 3.35786 9.50421 0 6.12272 0C 2.74124 0 0 3.35786 0 7.5C 0 11.6421 2.74124 15 6.12272 15Z" transform="translate(290.337 195.94) scale(-1 1)" fill="#84BDFF"/>
</g>
<g data-name="Path 7">
<path d="M 1.43062e-08 39.7847L 68.6344 4.61426e-07" transform="translate(564.966 336.898) scale(-1 1)" stroke="#F1F1F1"/>
</g>
</g>
<g data-name="Card 3.9">
<g data-name="Oval 2">
<path fill-rule="evenodd" clip-rule="evenodd" d="M 6.12272 15C 9.50421 15 12 11.6421 12 7.5C 12 3.35786 9.50421 0 6.12272 0C 2.74124 0 0 3.35786 0 7.5C 0 11.6421 2.74124 15 6.12272 15Z" transform="translate(286 218) scale(-1 1)" fill="#FFEB84"/>
</g>
<g data-name="Path 7">
<path d="M 1.43062e-08 39.7847L 68.6344 4.61426e-07" transform="translate(337.634 231) scale(-1 1)" stroke="#F1F1F1"/>
</g>
<g data-name="Oval 3">
<path d="M 3 7C 4.65685 7 6 5.433 6 3.5C 6 1.567 4.65685 0 3 0C 1.34315 0 0 1.567 0 3.5C 0 5.433 1.34315 7 3 7Z" transform="translate(335 252) scale(-1 1)" fill="#3CC127"/>
</g>
</g>
<g data-name="Path">
<path fill-rule="evenodd" clip-rule="evenodd" d="M 7.03125e-09 5.26743L 9.77576 -2.85156e-07L 11.637 11.2183L 1.96152 16.4603L 7.03125e-09 5.26743Z" transform="translate(295.851 41.496) scale(-1 1)" fill="#BFD0E2"/>
</g>
<g data-name="Path">
<path fill-rule="evenodd" clip-rule="evenodd" d="M 7.03125e-09 5.17264L 9.63132 5.59766e-06L 11.5788 10.8606L 2.14529 16.1887L 7.03125e-09 5.17264Z" transform="translate(292.851 58.0948) scale(-1 1)" fill="#BFD0E2"/>
</g>
<g data-name="Path">
<path fill-rule="evenodd" clip-rule="evenodd" d="M -3.00952e-07 5.3186L 9.66166 -1.11035e-06L 11.3618 11.0563L 2.00072 16.2689L -3.00952e-07 5.3186Z" transform="translate(290.037 74.4603) scale(-1 1)" fill="#BFD0E2"/>
</g>
<g data-name="Path 11">
<path fill-rule="evenodd" clip-rule="evenodd" d="M 0 135.5L 241 0L 243 10L 2 150L 0 135.5Z" transform="translate(576.5 286.5) scale(-1 1)" fill="white"/>
<path d="M 0 135.5L 241 0L 243 10L 2 150L 0 135.5Z" transform="translate(576.5 286.5) scale(-1 1)" stroke="#E8E8E8"/>
</g>
</g>
<g data-name="Path 10">
<g data-name="Vector">
<path d="M 1.00987 32.1605L 57.2139 0.131348C 57.6937 -0.142099 58.3044 0.0252119 58.5778 0.505051C 58.6339 0.603473 58.6729 0.710716 58.693 0.82219L 59.9352 7.68996C 60.0107 8.10727 59.8148 8.52682 59.4463 8.73679L 2.65559 41.0993C 2.17575 41.3727 1.5651 41.2054 1.29166 40.7255C 1.23639 40.6286 1.19775 40.523 1.17735 40.4133L 0.0338132 34.2638C -0.121908 33.4264 0.269836 32.5822 1.00987 32.1605Z" transform="translate(433.951 130) scale(-1 1)" fill="white"/>
</g>
</g>
<g data-name="Path 10">
<g data-name="Vector">
<path d="M 0.994557 14.9534L 26.4706 0.135749C 26.948 -0.141925 27.5601 0.0199928 27.8378 0.497398C 27.9083 0.618543 27.9525 0.753132 27.9676 0.892463L 28.7306 7.93618C 28.773 8.32787 28.5815 8.70797 28.2415 8.90696L 2.66481 23.8738C 2.18814 24.1527 1.57561 23.9924 1.29667 23.5157C 1.23835 23.4161 1.19772 23.307 1.17661 23.1935L 0.0338106 17.0479C -0.120724 16.2169 0.263879 15.3784 0.994557 14.9534Z" transform="translate(406.736 114) scale(-1 1)" fill="white"/>
</g>
</g>
<g data-name="Oval 2">
<path fill-rule="evenodd" clip-rule="evenodd" d="M 2.55113 6.25C 3.96008 6.25 5 4.85089 5 3.125C 5 1.39911 3.96008 0 2.55113 0C 1.14218 0 0 1.39911 0 3.125C 0 4.85089 1.14218 6.25 2.55113 6.25Z" transform="translate(363 170) scale(-1 1)" fill="#5ED1D2"/>
</g>
<g data-name="Path 10.1">
<g data-name="Vector">
<path d="M 1.00987 32.1605L 57.2139 0.131348C 57.6937 -0.142099 58.3044 0.0252119 58.5778 0.505051C 58.6339 0.603473 58.6729 0.710716 58.693 0.82219L 59.9352 7.68996C 60.0107 8.10727 59.8148 8.52682 59.4463 8.73679L 2.65559 41.0993C 2.17575 41.3727 1.5651 41.2054 1.29166 40.7255C 1.23639 40.6286 1.19775 40.523 1.17735 40.4133L 0.0338132 34.2638C -0.121908 33.4264 0.269836 32.5822 1.00987 32.1605Z" transform="translate(425.951 172) scale(-1 1)" fill="white"/>
</g>
</g>
<g data-name="Path 10.2">
<g data-name="Vector">
<path d="M 0.994557 14.9534L 26.4706 0.135749C 26.948 -0.141925 27.5601 0.0199928 27.8378 0.497398C 27.9083 0.618543 27.9525 0.753132 27.9676 0.892463L 28.7306 7.93618C 28.773 8.32787 28.5815 8.70797 28.2415 8.90696L 2.66481 23.8738C 2.18814 24.1527 1.57561 23.9924 1.29667 23.5157C 1.23835 23.4161 1.19772 23.307 1.17661 23.1935L 0.0338106 17.0479C -0.120724 16.2169 0.263879 15.3784 0.994557 14.9534Z" transform="translate(391.736 189) scale(-1 1)" fill="white"/>
</g>
</g>
<g data-name="Oval 2.1">
<path fill-rule="evenodd" clip-rule="evenodd" d="M 2.55113 6.25C 3.96008 6.25 5 4.85089 5 3.125C 5 1.39911 3.96008 0 2.55113 0C 1.14218 0 0 1.39911 0 3.125C 0 4.85089 1.14218 6.25 2.55113 6.25Z" transform="translate(353 230) scale(-1 1)" fill="#835ED2"/>
</g>
<g data-name="Path 10.3">
<g data-name="Vector">
<path d="M 1.00987 32.1605L 57.2139 0.131348C 57.6937 -0.142099 58.3044 0.0252119 58.5778 0.505051C 58.6339 0.603473 58.6729 0.710716 58.693 0.82219L 59.9352 7.68996C 60.0107 8.10727 59.8148 8.52682 59.4463 8.73679L 2.65559 41.0993C 2.17575 41.3727 1.5651 41.2054 1.29166 40.7255C 1.23639 40.6286 1.19775 40.523 1.17735 40.4133L 0.0338132 34.2638C -0.121908 33.4264 0.269836 32.5822 1.00987 32.1605Z" transform="translate(415.951 231) scale(-1 1)" fill="white"/>
</g>
</g>
<g data-name="Path 10.4">
<g data-name="Vector">
<path d="M 0.994557 14.9534L 26.4706 0.135749C 26.948 -0.141925 27.5601 0.0199928 27.8378 0.497398C 27.9083 0.618543 27.9525 0.753132 27.9676 0.892463L 28.7306 7.93618C 28.773 8.32787 28.5815 8.70797 28.2415 8.90696L 2.66481 23.8738C 2.18814 24.1527 1.57561 23.9924 1.29667 23.5157C 1.23835 23.4161 1.19772 23.307 1.17661 23.1935L 0.0338106 17.0479C -0.120724 16.2169 0.263879 15.3784 0.994557 14.9534Z" transform="translate(382.736 248) scale(-1 1)" fill="white"/>
</g>
</g>
</g>
</g>
</g>
</g>
</g>
<defs>
<filter id="filter0_d" x="-3.05176e-05" y="0" width="641.641" height="711.477" filterUnits="userSpaceOnUse" color-interpolation-filters="sRGB">
<feFlood flood-opacity="0" result="BackgroundImageFix"/>
<feColorMatrix in="SourceAlpha" type="matrix" values="0 0 0 0 0 0 0 0 0 0 0 0 0 0 0 0 0 0 255 0"/>
<feOffset dy="4"/>
<feGaussianBlur stdDeviation="7.5"/>
<feColorMatrix type="matrix" values="0 0 0 0 0 0 0 0 0 0 0 0 0 0 0 0 0 0 0.25 0"/>
<feBlend mode="normal" in2="BackgroundImageFix" result="effect1_dropShadow"/>
<feBlend mode="normal" in="SourceGraphic" in2="effect1_dropShadow" result="shape"/>
</filter>

</defs>
</svg>

