
<svg width="708" height="624" viewBox="0 0 708 624" fill="none" xmlns="http://www.w3.org/2000/svg">
<g filter="url(#filter0_d)">
<path d="M9.5 98.44V540.15C9.5 542.175 9.89884 544.18 10.6738 546.051C11.4487 547.922 12.5845 549.622 14.0164 551.054C15.4483 552.485 17.1482 553.621 19.019 554.396C20.8899 555.171 22.895 555.57 24.92 555.57H658.79C662.88 555.57 666.802 553.945 669.694 551.054C672.585 548.162 674.21 544.24 674.21 540.15V98.44H9.5Z" fill="white"/>
</g>
<path opacity="0.1" d="M212.35 137.98H70.7501C65.9728 137.98 62.1001 141.853 62.1001 146.63V222.6C62.1001 227.377 65.9728 231.25 70.7501 231.25H212.35C217.127 231.25 221 227.377 221 222.6V146.63C221 141.853 217.127 137.98 212.35 137.98Z" fill="black"/>
<path opacity="0.1" d="M412.66 137.98H271.06C266.283 137.98 262.41 141.853 262.41 146.63V222.6C262.41 227.377 266.283 231.25 271.06 231.25H412.66C417.437 231.25 421.31 227.377 421.31 222.6V146.63C421.31 141.853 417.437 137.98 412.66 137.98Z" fill="black"/>
<path d="M210.11 139.29H72.9801C68.2028 139.29 64.3301 143.163 64.3301 147.94V221.28C64.3301 226.057 68.2028 229.93 72.9801 229.93H210.11C214.887 229.93 218.76 226.057 218.76 221.28V147.94C218.76 143.163 214.887 139.29 210.11 139.29Z" fill="#E39F48"/>
<path opacity="0.1" d="M473.6 229.93L610.73 229.93C615.507 229.93 619.38 226.057 619.38 221.28V147.94C619.38 143.163 615.507 139.29 610.73 139.29H473.6C468.823 139.29 464.95 143.163 464.95 147.94V221.28C464.95 226.057 468.823 229.93 473.6 229.93Z" fill="#444053"/>
<path d="M273.29 229.93L410.42 229.93C415.197 229.93 419.07 226.057 419.07 221.28V147.94C419.07 143.163 415.197 139.29 410.42 139.29H273.29C268.513 139.29 264.64 143.163 264.64 147.94V221.28C264.64 226.057 268.513 229.93 273.29 229.93Z" fill="#E39F48"/>
<path opacity="0.1" d="M210.11 270.22H72.9801C68.2028 270.22 64.3301 274.093 64.3301 278.87V352.21C64.3301 356.987 68.2028 360.86 72.9801 360.86H210.11C214.887 360.86 218.76 356.987 218.76 352.21V278.87C218.76 274.093 214.887 270.22 210.11 270.22Z" fill="#444053"/>
<path opacity="0.1" d="M473.6 360.86H610.73C615.507 360.86 619.38 356.987 619.38 352.21V278.87C619.38 274.093 615.507 270.22 610.73 270.22H473.6C468.823 270.22 464.95 274.093 464.95 278.87V352.21C464.95 356.987 468.823 360.86 473.6 360.86Z" fill="#444053"/>
<path opacity="0.1" d="M273.29 360.86H410.42C415.197 360.86 419.07 356.987 419.07 352.21V278.87C419.07 274.093 415.197 270.22 410.42 270.22H273.29C268.513 270.22 264.64 274.093 264.64 278.87V352.21C264.64 356.987 268.513 360.86 273.29 360.86Z" fill="#444053"/>
<path opacity="0.1" d="M210.11 401.15H72.9801C68.2028 401.15 64.3301 405.023 64.3301 409.8V483.14C64.3301 487.917 68.2028 491.79 72.9801 491.79H210.11C214.887 491.79 218.76 487.917 218.76 483.14V409.8C218.76 405.023 214.887 401.15 210.11 401.15Z" fill="#444053"/>
<path opacity="0.1" d="M473.6 491.8H610.73C615.507 491.8 619.38 487.927 619.38 483.15V409.81C619.38 405.033 615.507 401.16 610.73 401.16H473.6C468.823 401.16 464.95 405.033 464.95 409.81V483.15C464.95 487.927 468.823 491.8 473.6 491.8Z" fill="#444053"/>
<path opacity="0.1" d="M273.29 491.8H410.42C415.197 491.8 419.07 487.927 419.07 483.15V409.81C419.07 405.033 415.197 401.16 410.42 401.16H273.29C268.513 401.16 264.64 405.033 264.64 409.81V483.15C264.64 487.927 268.513 491.8 273.29 491.8Z" fill="#444053"/>
<g filter="url(#filter1_d)">
<path d="M9.5 20.43V100.68H674.21V20.43C674.211 18.4042 673.813 16.398 673.039 14.526C672.265 12.654 671.129 10.9529 669.697 9.51996C668.265 8.08702 666.565 6.9503 664.693 6.17474C662.822 5.39919 660.816 5 658.79 5H24.92C22.8942 5 20.8882 5.39919 19.0167 6.17474C17.1452 6.9503 15.4449 8.08702 14.0129 9.51996C12.5809 10.9529 11.4452 12.654 10.6709 14.526C9.89656 16.398 9.49869 18.4042 9.5 20.43V20.43ZM174 44.17C171.565 44.17 169.185 43.448 167.161 42.0954C165.137 40.7428 163.559 38.8202 162.627 36.5708C161.695 34.3215 161.452 31.8464 161.927 29.4585C162.402 27.0705 163.574 24.8771 165.296 23.1555C167.017 21.4339 169.211 20.2615 171.598 19.7865C173.986 19.3116 176.461 19.5553 178.711 20.487C180.96 21.4188 182.883 22.9966 184.235 25.0209C185.588 27.0453 186.31 29.4253 186.31 31.86C186.31 35.1248 185.013 38.2559 182.704 40.5645C180.396 42.8731 177.265 44.17 174 44.17V44.17ZM509.71 44.17C507.275 44.17 504.895 43.448 502.871 42.0954C500.847 40.7428 499.269 38.8202 498.337 36.5708C497.405 34.3215 497.162 31.8464 497.637 29.4585C498.112 27.0705 499.284 24.8771 501.005 23.1555C502.727 21.4339 504.921 20.2615 507.308 19.7865C509.696 19.3116 512.171 19.5553 514.421 20.487C516.67 21.4188 518.593 22.9966 519.945 25.0209C521.298 27.0453 522.02 29.4253 522.02 31.86C522.02 33.4783 521.701 35.0806 521.081 36.5755C520.461 38.0703 519.553 39.4282 518.407 40.5716C517.262 41.7149 515.903 42.6213 514.407 43.2387C512.911 43.8562 511.308 44.1726 509.69 44.17H509.71Z" fill="#E39F48"/>
</g>
<path opacity="0.1" d="M174 17.31C171.122 17.308 168.308 18.1597 165.914 19.7573C163.52 21.3548 161.653 23.6265 160.55 26.285C159.448 28.9435 159.158 31.8694 159.718 34.6924C160.279 37.5155 161.664 40.109 163.698 42.1449C165.733 44.1807 168.325 45.5675 171.148 46.1297C173.971 46.6919 176.897 46.4044 179.556 45.3034C182.215 44.2024 184.488 42.3375 186.087 39.9446C187.686 37.5516 188.54 34.7381 188.54 31.86C188.541 29.9497 188.166 28.0579 187.436 26.2927C186.706 24.5275 185.635 22.9234 184.285 21.5722C182.935 20.221 181.331 19.1491 179.567 18.4177C177.802 17.6864 175.91 17.31 174 17.31V17.31ZM174 44.17C171.565 44.17 169.185 43.448 167.161 42.0954C165.137 40.7427 163.559 38.8202 162.627 36.5708C161.695 34.3215 161.452 31.8463 161.927 29.4584C162.402 27.0705 163.574 24.8771 165.296 23.1555C167.017 21.4339 169.211 20.2615 171.599 19.7865C173.986 19.3115 176.462 19.5553 178.711 20.487C180.96 21.4187 182.883 22.9966 184.235 25.0209C185.588 27.0453 186.31 29.4253 186.31 31.86C186.31 35.1248 185.013 38.2559 182.705 40.5645C180.396 42.873 177.265 44.17 174 44.17V44.17Z" fill="black"/>
<path opacity="0.1" d="M509.69 17.31C506.812 17.31 503.999 18.1633 501.606 19.7621C499.214 21.3609 497.349 23.6333 496.247 26.2919C495.146 28.9506 494.858 31.8761 495.419 34.6986C495.981 37.521 497.367 40.1135 499.402 42.1484C501.436 44.1832 504.029 45.569 506.851 46.1304C509.674 46.6918 512.599 46.4037 515.258 45.3024C517.917 44.2012 520.189 42.3363 521.788 39.9435C523.387 37.5508 524.24 34.7377 524.24 31.86C524.24 28.0011 522.707 24.3002 519.978 21.5716C517.25 18.8429 513.549 17.31 509.69 17.31ZM509.69 44.17C507.255 44.17 504.875 43.448 502.851 42.0954C500.826 40.7427 499.249 38.8202 498.317 36.5708C497.385 34.3215 497.141 31.8463 497.616 29.4584C498.091 27.0705 499.264 24.8771 500.985 23.1555C502.707 21.4339 504.9 20.2615 507.288 19.7865C509.676 19.3115 512.151 19.5553 514.401 20.487C516.65 21.4187 518.573 22.9966 519.925 25.0209C521.278 27.0453 522 29.4253 522 31.86C522 35.1248 520.703 38.2559 518.394 40.5645C516.086 42.873 512.955 44.17 509.69 44.17Z" fill="black"/>
<path d="M703.18 577.57C700.903 575.856 698.408 574.453 695.76 573.4C695.559 573.296 695.337 573.238 695.11 573.23C689.631 569.297 684.511 564.887 679.81 560.05C680.81 559.25 681.73 558.47 682.71 557.7C676.71 554.84 673.38 548.29 670.14 542.38C661.574 526.669 650.285 512.604 636.8 500.84C636.47 499.57 634.54 499.84 633.51 499.02C633.174 498.697 632.93 498.291 632.802 497.843C632.673 497.395 632.666 496.922 632.78 496.47C632.94 495.55 633.36 494.7 633.59 493.8C634.14 491.69 633.66 489.47 633.42 487.3C633.18 485.13 633.28 482.71 634.72 481.09C635.18 480.56 635.77 480.15 636.22 479.61C636.693 478.974 637.026 478.245 637.199 477.472C637.371 476.698 637.378 475.897 637.22 475.12C637.111 473.563 636.774 472.03 636.22 470.57C641.12 457.237 646.017 443.88 650.91 430.5C654.34 421.16 657.8 411.62 658.15 401.66C658.43 393.66 656.37 385.35 651.53 379.24C652.41 379.03 653.29 378.81 654.16 378.56C648.44 370.98 647.82 360.94 647.67 351.39C647.59 346.63 647.427 341.867 647.18 337.1C648.84 337.83 650.52 338.48 652.24 339.04L653.84 339.53C656.438 340.291 659.089 340.859 661.77 341.23C662.95 341.4 664.15 341.53 665.34 341.61C663.62 337.303 661.903 332.99 660.19 328.67C659.299 326.758 658.757 324.703 658.59 322.6V322.6V322.2C658.59 321.96 658.59 321.72 658.64 321.48C658.708 320.907 658.839 320.344 659.03 319.8C659.119 319.531 659.222 319.267 659.34 319.01C659.696 318.222 660.125 317.469 660.62 316.76C660.98 316.21 661.38 315.68 661.78 315.14C663.27 313.401 664.481 311.441 665.37 309.33C665.722 308.261 665.907 307.145 665.92 306.02C665.939 304.879 665.839 303.74 665.62 302.62C665.48 301.88 665.3 301.13 665.1 300.41C664.97 299.96 664.83 299.51 664.69 299.07L664.57 298.71C664.46 298.37 664.35 298.04 664.23 297.71L664.11 297.37C663.98 297.01 663.85 296.66 663.71 296.3L663.63 296.09C661.72 291.18 659.18 286.5 657.63 281.45C657.223 280.106 656.889 278.741 656.63 277.36C656.56 277.01 656.51 276.65 656.45 276.3C656.39 275.95 656.36 275.7 656.32 275.4C656.28 275.1 656.23 274.7 656.19 274.35L656.1 273.35C656.1 273.03 656.05 272.71 656.03 272.35C656.03 271.74 655.97 271.13 655.96 270.52C655.96 270.3 655.96 270.09 655.96 269.87C655.96 269.41 655.96 268.94 655.96 268.48C655.96 268.23 655.96 267.98 655.96 267.74C655.96 267.28 656.03 266.82 656.07 266.37C656.07 266.15 656.07 265.93 656.14 265.72C656.207 265.053 656.297 264.387 656.41 263.72C656.51 263.13 656.62 262.53 656.74 261.93C657.102 260.288 657.29 258.612 657.3 256.93C657.3 256.61 657.3 256.28 657.23 255.93C657.16 255.58 657.15 255.39 657.1 255.13C657.095 255.05 657.095 254.97 657.1 254.89C657.1 254.71 657.01 254.53 656.97 254.35C656.93 254.17 656.92 254.18 656.89 254.1C656.86 254.02 656.78 253.75 656.72 253.58C656.66 253.41 656.67 253.43 656.64 253.35C656.61 253.27 656.5 252.99 656.42 252.82L656.35 252.64C656.25 252.42 656.14 252.21 656.03 252C655.643 251.27 655.194 250.575 654.69 249.92V249.92C651.4 245.6 645.93 242.31 642.92 237.55C641.163 234.465 640.018 231.069 639.55 227.55C639.4 226.75 639.27 225.95 639.13 225.16C638.99 224.37 638.87 223.59 638.73 222.81C638.64 222.33 638.55 221.81 638.45 221.37L638.39 221.06C638.31 220.68 638.23 220.29 638.14 219.91L638.08 219.64C637.99 219.24 637.9 218.84 637.8 218.44L637.74 218.23C637.64 217.81 637.53 217.39 637.42 216.97C637.415 216.92 637.415 216.87 637.42 216.82C637.3 216.38 637.17 215.94 637.04 215.5V215.41C636.9 214.95 636.76 214.5 636.61 214.05C636.46 213.59 636.3 213.12 636.13 212.66C635.95 212.19 635.78 211.72 635.59 211.26C634.332 208.038 632.629 205.009 630.53 202.26C625.95 196.38 618.87 192.16 611.53 192.44C607.59 192.59 603.81 193.97 600.1 195.34L590.47 198.89L593.16 197.65C590.36 197.9 587.5 198.16 584.97 199.4C582.44 200.64 580.3 203.07 580.22 205.91C580.17 207.56 580.82 209.2 580.61 210.84C580.26 213.55 577.77 215.39 576.48 217.79C575.724 219.236 575.378 220.861 575.48 222.49V222.57C575.48 222.76 575.48 222.94 575.48 223.13C575.475 223.183 575.475 223.237 575.48 223.29V223.61C571.48 221.87 567.48 220.06 563.48 218.12C556.87 214.87 550.18 211.05 546.06 204.89C544.74 202.89 543.72 200.73 542.41 198.75C540.907 196.619 539.235 194.613 537.41 192.75L525.14 179.47C524.2 181.24 525.41 183.33 526.36 185.09C527.369 186.936 528.132 188.906 528.63 190.95C528.872 191.616 528.851 192.349 528.57 193C528.123 193.536 527.544 193.947 526.89 194.19C525.769 194.895 524.913 195.952 524.456 197.194C523.998 198.437 523.964 199.796 524.36 201.06C524.795 202.305 525.547 203.414 526.541 204.28C527.535 205.147 528.738 205.739 530.03 206C530.896 206.099 531.746 206.307 532.56 206.62C534.04 207.35 534.74 209.05 535.8 210.32C537.73 212.64 540.8 213.51 543.73 214.27C548.27 219.51 552.99 224.53 557.53 229.77C564.4 237.7 571.43 245.77 580.39 251.13C581.32 251.69 582.27 252.21 583.23 252.69C583.23 252.85 583.23 253.01 583.18 253.17C582.929 254.352 583.081 255.584 583.61 256.67C584.41 257.94 586.06 258.32 587.53 258.58L594.31 259.79C594.25 260.669 594.14 261.544 593.98 262.41C593.89 262.94 593.78 263.46 593.68 263.99L593.56 264.67C593.56 264.67 593.56 264.74 593.56 264.77C593.56 264.8 593.56 265.13 593.49 265.32C593.42 265.51 593.49 265.45 593.49 265.51V265.99V266.19C593.49 266.4 593.49 266.62 593.49 266.84C593.72 269.5 595.49 271.7 597.26 273.73L598.21 274.88C596.703 276.778 595.646 278.994 595.12 281.36C594.819 282.844 594.671 284.356 594.68 285.87C593.773 286.735 593.087 287.805 592.68 288.99C592.206 290.629 592.03 292.339 592.16 294.04V294.16C592.16 294.79 592.16 295.41 592.16 296.04C592.044 298.429 592.439 300.816 593.32 303.04C593.41 303.22 593.51 303.38 593.6 303.55C592.1 306.49 589.6 308.78 587.81 311.55C586 314.625 585.181 318.184 585.465 321.741C585.75 325.298 587.124 328.682 589.4 331.43C590.77 333.01 592.53 334.53 592.69 336.63C592.666 337.582 592.573 338.532 592.41 339.47C592.25 341.73 593.29 343.87 593.85 346.06C594.32 347.88 594.34 350.06 593.3 351.52C592.248 353.054 591.764 354.907 591.93 356.76C592.44 359.59 591.27 362.42 591.07 365.29C590.98 366.52 591.07 367.77 590.96 369C590.816 370.179 590.572 371.343 590.23 372.48C590.23 372.6 590.17 372.73 590.13 372.86C587.66 373.95 585.21 375.08 582.85 376.39C581.575 376.958 580.522 377.927 579.85 379.15C579.451 380.378 579.396 381.692 579.69 382.95L581.82 397.77L581.45 397.61C581.617 400.037 581.79 402.473 581.97 404.92C582.1 406.77 582.27 408.73 583.37 410.21C583.93 410.807 584.435 411.453 584.88 412.14C585.72 413.84 584.72 415.82 583.98 417.56C583.24 419.3 582.98 421.77 584.61 422.71C585.46 423.301 586.376 423.791 587.34 424.17C585.34 432.51 587.18 441.25 589.04 449.62C590.46 456.02 591.883 462.413 593.31 468.8C593.868 471.513 594.183 474.271 594.25 477.04C594.25 477.44 594.25 477.84 594.25 478.24C594.451 482.048 595.122 485.817 596.25 489.46C598.47 496.94 596.34 505.92 597.04 514.07C597.505 517.99 598.288 521.866 599.38 525.66C604.21 544.82 608.52 563.6 610.18 583.3C611.956 585.561 614.365 587.243 617.1 588.13C616.9 590.55 617.17 593.32 617.1 594.73C617.097 595.898 616.915 597.058 616.56 598.17C615.71 600.39 613.56 601.84 611.33 602.62C610.63 602.86 609.92 603.05 609.2 603.22L610 602.54C605.428 601.547 600.649 602.387 596.69 604.88C596.068 605.197 595.516 605.634 595.064 606.166C594.613 606.698 594.271 607.315 594.06 607.98C593.896 609.25 594.225 610.535 594.98 611.57C597.182 614.793 600.462 617.123 604.23 618.14C607.953 619.12 611.78 619.654 615.63 619.73L622.69 620.14C622.45 620.543 622.365 621.02 622.449 621.481C622.534 621.943 622.783 622.358 623.15 622.65C623.907 623.203 624.805 623.529 625.74 623.59C628.625 624.018 631.554 624.062 634.45 623.72C635.176 623.699 635.877 623.447 636.45 623C636.583 622.879 636.69 622.732 636.762 622.567C636.835 622.403 636.873 622.225 636.873 622.045C636.873 621.865 636.835 621.687 636.762 621.523C636.69 621.358 636.583 621.211 636.45 621.09C636.874 621.077 637.283 620.936 637.626 620.686C637.968 620.436 638.228 620.089 638.37 619.69C638.647 618.877 638.736 618.012 638.63 617.16C638.44 613.87 638.15 609.09 636.44 606.16C636.144 605.627 635.682 605.205 635.124 604.96C634.566 604.714 633.943 604.658 633.35 604.8C632.244 598.945 631.575 593.015 631.35 587.06C633.112 586.399 634.829 585.624 636.49 584.74C631.58 576.81 631.49 566.74 632.99 557.52C633.585 554.609 634.022 551.668 634.3 548.71C634.63 542.81 633.74 536.13 630.47 531.25C636.431 535.041 641.706 539.815 646.07 545.37C652.98 554.37 657.19 565.27 665.66 572.77C666.773 571.683 667.9 570.603 669.04 569.53C670.827 572.557 672.517 575.647 674.11 578.8C675.36 581.119 676.346 583.571 677.05 586.11C677.83 589.994 677.921 593.985 677.32 597.9C677.087 599.98 676.803 602.05 676.47 604.11C676.336 604.991 676.132 605.861 675.86 606.71C675.856 606.439 675.791 606.172 675.67 605.93C675.14 605 673.67 605.42 672.87 606.06C671.445 607.129 670.268 608.494 669.42 610.06C668.953 610.825 668.737 611.716 668.8 612.61C668.93 613.148 669.176 613.651 669.521 614.083C669.867 614.515 670.304 614.866 670.8 615.11C674.51 617.28 679.17 615.71 683.15 614.11C684.25 613.714 685.297 613.187 686.27 612.54C688.27 611.1 689.36 608.73 691.35 607.33C692.412 606.747 693.438 606.099 694.42 605.39C696.27 603.7 696.42 600.85 697.77 598.71C700.01 595.02 705.02 594.07 706.98 590.16C709.25 585.84 706.6 580.39 703.18 577.57Z" fill="url(#paint0_linear)"/>
<path d="M616.97 595.17C616.964 596.325 616.778 597.472 616.42 598.57C615.58 600.76 613.42 602.19 611.2 602.96C608.98 603.73 606.62 603.96 604.36 604.63C603.367 604.856 602.448 605.331 601.69 606.01C599.69 608.01 600.89 611.61 603.23 613.1C605.57 614.59 608.55 614.54 611.33 614.35C617.229 614.007 623.089 613.174 628.85 611.86C630.93 611.37 633.36 610.41 633.69 608.3C633.752 607.629 633.698 606.952 633.53 606.3C632.111 599.142 631.358 591.867 631.28 584.57C631.28 584.09 619.68 583.78 618.6 584.48C616.18 586.07 617.1 592.71 616.97 595.17Z" fill="#A1616A"/>
<path d="M668.69 569.7C670.61 572.88 672.413 576.123 674.1 579.43C675.349 581.714 676.336 584.133 677.04 586.64C677.815 590.47 677.906 594.408 677.31 598.27C677.077 600.317 676.79 602.36 676.45 604.4C676.12 606.4 675.59 608.67 673.88 609.82C674.642 610.272 675.496 610.547 676.379 610.625C677.262 610.703 678.15 610.581 678.98 610.27C680.63 609.631 682.151 608.7 683.47 607.52C692.04 600.45 698.47 590.18 698.79 579.07C698.88 578.202 698.717 577.327 698.32 576.55C697.916 576.006 697.406 575.55 696.82 575.21C690.425 570.854 684.485 565.866 679.09 560.32C678.773 559.893 678.31 559.598 677.79 559.49C677.38 559.492 676.979 559.606 676.63 559.82C673.34 561.47 667.84 563.82 666.47 567.57C667.406 568.042 668.18 568.784 668.69 569.7V569.7Z" fill="#A1616A"/>
<path d="M628.69 606.78C621.49 609.78 613.69 610.86 605.9 611.89C604.9 612.01 603.83 612.09 603.17 611.39C602.908 611.063 602.751 610.665 602.718 610.248C602.686 609.83 602.781 609.413 602.99 609.05C603.415 608.329 603.983 607.702 604.66 607.21L609.83 602.88C605.322 601.924 600.619 602.733 596.69 605.14C595.455 605.755 594.513 606.834 594.07 608.14C593.903 609.398 594.233 610.671 594.99 611.69C597.203 614.879 600.478 617.176 604.23 618.17C607.953 619.135 611.775 619.662 615.62 619.74L622.62 620.14C622.379 620.539 622.294 621.012 622.38 621.47C622.467 621.928 622.72 622.337 623.09 622.62C623.85 623.175 624.751 623.504 625.69 623.57C628.572 623.99 631.497 624.03 634.39 623.69C635.116 623.678 635.819 623.428 636.39 622.98C636.522 622.862 636.628 622.717 636.701 622.555C636.773 622.393 636.811 622.218 636.811 622.04C636.811 621.863 636.773 621.687 636.701 621.525C636.628 621.363 636.522 621.218 636.39 621.1C636.812 621.087 637.221 620.948 637.564 620.7C637.906 620.452 638.166 620.107 638.31 619.71C638.577 618.909 638.666 618.059 638.57 617.22C638.38 613.98 638.09 609.22 636.38 606.39C634.67 603.56 631.11 605.78 628.69 606.78Z" fill="#3F3D56"/>
<path d="M703 578.19C700.719 576.499 698.224 575.117 695.58 574.08C695.474 573.999 695.352 573.943 695.222 573.916C695.091 573.889 694.956 573.892 694.827 573.925C694.698 573.958 694.579 574.019 694.477 574.105C694.375 574.191 694.294 574.298 694.24 574.42C689.517 580.829 685.829 587.938 683.31 595.49C681.88 599.79 680.75 604.37 677.85 607.85C677.47 608.31 676.85 608.78 676.33 608.51C675.58 608.13 676.04 606.92 675.62 606.19C675.1 605.27 673.68 605.69 672.83 606.32C671.401 607.382 670.226 608.748 669.39 610.32C668.911 611.065 668.693 611.948 668.77 612.83C668.895 613.358 669.134 613.852 669.471 614.277C669.808 614.702 670.235 615.048 670.72 615.29C674.43 617.44 679.09 615.89 683.06 614.29C684.156 613.903 685.201 613.383 686.17 612.74C688.17 611.33 689.26 608.98 691.25 607.61C692.312 607.034 693.337 606.393 694.32 605.69C696.16 604.02 696.32 601.21 697.66 599.09C699.9 595.46 704.91 594.52 706.87 590.66C709.06 586.35 706.42 580.97 703 578.19Z" fill="#3F3D56"/>
<path d="M647.19 378.44C655.05 384.34 658.35 394.83 658 404.65C657.65 414.47 654.2 423.89 650.78 433.1C645.88 446.28 640.987 459.457 636.1 472.63C636.645 474.075 636.982 475.59 637.1 477.13C637.255 477.896 637.246 478.685 637.074 479.447C636.901 480.209 636.569 480.926 636.1 481.55C635.64 482.08 635.1 482.49 634.6 483.01C633.16 484.61 633.07 487.01 633.3 489.14C633.53 491.27 634.02 493.47 633.47 495.55C633.24 496.44 632.82 497.28 632.66 498.18C632.548 498.627 632.557 499.096 632.685 499.538C632.814 499.981 633.057 500.382 633.39 500.7C634.39 501.5 636.39 501.24 636.68 502.5C650.126 514.081 661.402 527.965 669.98 543.5C673.22 549.33 676.49 555.79 682.54 558.61C676.645 563.28 670.994 568.25 665.61 573.5C657.16 566.1 652.95 555.33 646.05 546.5C641.682 541.008 636.414 536.298 630.47 532.57C633.74 537.38 634.63 543.98 634.3 549.79C634.023 552.708 633.586 555.61 632.99 558.48C631.44 567.58 631.58 577.48 636.49 585.34C631.25 588.06 625.23 590.08 619.38 589.27C615.709 588.748 612.376 586.845 610.06 583.95C608.4 564.51 604.06 545.95 599.27 527.08C598.172 523.315 597.392 519.465 596.94 515.57C596.24 507.57 598.37 498.67 596.14 491.29C595.017 487.701 594.345 483.985 594.14 480.23C594.14 479.83 594.14 479.44 594.14 479.04C594.072 476.311 593.757 473.593 593.2 470.92L588.94 452C587.08 443.73 585.22 435.11 587.23 426.88C586.271 426.51 585.359 426.03 584.51 425.45C582.88 424.52 583.14 422.09 583.88 420.37C584.62 418.65 585.61 416.7 584.78 415.02C584.337 414.338 583.832 413.698 583.27 413.11C582.17 411.65 582 409.72 581.87 407.9L581.35 400.68C584.369 401.877 586.883 404.077 588.47 406.91C584.53 400.81 586.47 392.11 589.38 385.45C589.921 383.41 591.107 381.6 592.762 380.289C594.416 378.979 596.45 378.239 598.56 378.18C614.59 375.44 634.17 368.65 647.19 378.44Z" fill="#3F3D56"/>
<path opacity="0.1" d="M639.88 419.5C639.88 419.5 632 424.76 632 428.7C632 432.64 630 468.1 630 468.1V493.1C630 493.1 631.31 506.24 630 509.52C628.69 512.8 630 527.91 630 529.88C630 531.85 632 509.52 632 509.52V485.84L634 431.98L639.88 419.5Z" fill="black"/>
<path d="M595.93 237.36L591.34 235.57C581.96 231.81 572.57 228.04 563.49 223.63C556.89 220.42 550.2 216.63 546.09 210.58C544.77 208.58 543.75 206.48 542.44 204.51C540.935 202.403 539.263 200.42 537.44 198.58L525.18 185.48C524.24 187.23 525.44 189.29 526.4 191.02C527.405 192.843 528.168 194.79 528.67 196.81C528.906 197.461 528.881 198.177 528.6 198.81C528.159 199.345 527.582 199.753 526.93 199.99C525.814 200.675 524.958 201.713 524.5 202.94C524.041 204.166 524.006 205.511 524.4 206.76C524.839 207.995 525.591 209.094 526.584 209.949C527.576 210.805 528.774 211.388 530.06 211.64C530.925 211.74 531.775 211.945 532.59 212.25C534.07 212.98 534.77 214.65 535.83 215.9C537.76 218.19 540.83 219.06 543.75 219.8C548.29 224.97 553 229.92 557.54 235.09C564.4 242.91 571.42 250.87 580.38 256.17C583.562 258.115 587.047 259.514 590.69 260.31C591.895 252.546 593.646 244.877 595.93 237.36V237.36Z" fill="#A1616A"/>
<path opacity="0.15" d="M595.93 237.36L591.34 235.57C581.96 231.81 572.57 228.04 563.49 223.63C556.89 220.42 550.2 216.63 546.09 210.58C544.77 208.58 543.75 206.48 542.44 204.51C540.935 202.403 539.263 200.42 537.44 198.58L525.18 185.48C524.24 187.23 525.44 189.29 526.4 191.02C527.405 192.843 528.168 194.79 528.67 196.81C528.906 197.461 528.881 198.177 528.6 198.81C528.159 199.345 527.582 199.753 526.93 199.99C525.814 200.675 524.958 201.713 524.5 202.94C524.041 204.166 524.006 205.511 524.4 206.76C524.839 207.995 525.591 209.094 526.584 209.949C527.576 210.805 528.774 211.388 530.06 211.64C530.925 211.74 531.775 211.945 532.59 212.25C534.07 212.98 534.77 214.65 535.83 215.9C537.76 218.19 540.83 219.06 543.75 219.8C548.29 224.97 553 229.92 557.54 235.09C564.4 242.91 571.42 250.87 580.38 256.17C583.562 258.115 587.047 259.514 590.69 260.31C591.895 252.546 593.646 244.877 595.93 237.36V237.36Z" fill="black"/>
<path d="M587.53 263.47C586.06 263.21 584.41 262.85 583.61 261.59C583.081 260.522 582.929 259.306 583.18 258.14C583.975 250.603 585.654 243.185 588.18 236.04C590.41 240.17 594.8 242.58 598.96 244.75C602.674 246.815 606.546 248.58 610.54 250.03C609.54 249.71 607.09 265.09 605.71 266.03C603.97 267.25 599.77 265.6 597.84 265.27L587.53 263.47Z" fill="#E39F48"/>
<path d="M598.18 258.93C609.789 258.93 619.2 249.519 619.2 237.91C619.2 226.301 609.789 216.89 598.18 216.89C586.571 216.89 577.16 226.301 577.16 237.91C577.16 249.519 586.571 258.93 598.18 258.93Z" fill="#A1616A"/>
<path d="M593.91 255.31C593.91 255.31 607.7 267.13 601.79 275.01C595.88 282.89 592.59 288.15 600.47 288.81C608.35 289.47 634.62 275.67 634.62 275.67C634.62 275.67 610.32 255.97 614.26 244.15C618.2 232.33 593.91 255.31 593.91 255.31Z" fill="#FBBEBE"/>
<path d="M607.14 273.81C604.201 274.516 601.516 276.025 599.384 278.169C597.253 280.313 595.759 283.007 595.07 285.95C593.52 293.03 596.81 300.95 593.71 307.47C592.25 310.57 589.54 312.89 587.71 315.8C585.908 318.829 585.092 322.344 585.375 325.857C585.658 329.37 587.026 332.708 589.29 335.41C590.66 336.97 592.42 338.48 592.58 340.54C592.557 341.479 592.463 342.415 592.3 343.34C592.14 345.57 593.18 347.69 593.74 349.85C594.21 351.64 594.23 353.79 593.19 355.23C592.141 356.739 591.659 358.57 591.83 360.4C592.33 363.2 591.16 365.99 590.96 368.82C590.87 370.04 590.96 371.26 590.85 372.48C590.704 373.641 590.464 374.788 590.13 375.91L588.37 382.4C597.91 386.48 608.05 387.95 618.37 387.76C627.61 387.58 636.72 385.67 645.76 383.76C648.51 383.18 651.26 382.6 653.97 381.85C648.25 374.37 647.64 364.46 647.48 355.05C647.231 339.361 646.059 323.701 643.97 308.15C646.74 302.92 647.97 297.09 649.11 291.28C649.622 288.94 649.837 286.544 649.75 284.15C649.47 279.15 647.17 274.4 644.92 269.87C642.86 265.73 640.63 261.37 636.04 259.58C634.932 259.113 633.723 258.937 632.528 259.068C631.332 259.199 630.19 259.634 629.21 260.33C625.74 262.95 626.77 267.47 625.88 271.33C624.71 276.33 620.1 279.92 615.19 281.33C611.526 282.29 607.729 282.645 603.95 282.38C603.58 282.359 603.223 282.235 602.919 282.023C602.615 281.811 602.376 281.518 602.229 281.178C602.081 280.838 602.031 280.463 602.085 280.096C602.138 279.729 602.292 279.384 602.53 279.1C604.14 277.32 605.76 275.51 607.14 273.81Z" fill="#E39F48"/>
<path d="M623.42 355.06C615.64 361.42 607.77 367.84 598.79 372.34C593.52 374.98 587.92 376.93 582.79 379.77C581.522 380.327 580.469 381.282 579.79 382.49C579.382 383.699 579.326 385 579.63 386.24L581.91 401.96C582.54 406.22 586.63 408.96 589.91 411.68C589.73 410.25 589.44 409.14 590.12 407.87C590.356 407.473 590.613 407.089 590.89 406.72C592.29 404.6 592.34 401.85 592 399.33C591.66 396.81 591 394.33 591.13 391.75C591.102 391.323 591.185 390.896 591.37 390.51C591.556 390.125 591.839 389.794 592.19 389.55C603.36 384.18 615.39 380.06 626.68 374.96C629.667 373.753 632.482 372.155 635.05 370.21C637.631 368.23 639.367 365.347 639.91 362.14C639.962 361.932 639.971 361.716 639.936 361.504C639.902 361.293 639.825 361.091 639.71 360.91C639.483 360.662 639.187 360.487 638.86 360.41C633.8 358.57 628.46 356.88 623.42 355.06Z" fill="#A1616A"/>
<path opacity="0.1" d="M601.81 289.1C597.95 289.75 593.89 291.75 592.58 295.45C592.109 297.072 591.933 298.766 592.06 300.45C591.94 302.818 592.339 305.183 593.23 307.38C593.888 308.593 594.672 309.732 595.57 310.78C604.81 322.62 609.45 337.49 618.45 349.52C619.25 350.58 620.71 351.96 620.26 353.21C620.096 353.534 619.953 353.868 619.83 354.21C619.789 354.533 619.828 354.862 619.943 355.167C620.058 355.472 620.246 355.744 620.49 355.96C620.97 356.4 621.343 356.944 621.58 357.55C621.75 358.18 621.33 359 620.68 358.95C621.76 362.29 625.07 364.24 628.21 365.82C633.43 368.45 639.21 370.52 645.02 369.95C646.11 365.58 647.63 360.64 647.02 356.19C646.382 352.792 645.253 349.504 643.67 346.43L639.76 337.89C636.43 330.6 633.07 323.26 628.43 316.73C626.758 314.663 625.351 312.395 624.24 309.98C623.05 306.89 619.78 304.72 617.8 302.07C614.86 298.07 611.8 294.07 607.86 291.18C606.28 289.96 603.74 288.78 601.81 289.1Z" fill="black"/>
<path d="M601.81 287.13C597.95 287.78 593.89 289.78 592.58 293.47C592.11 295.092 591.934 296.786 592.06 298.47C591.94 300.838 592.339 303.203 593.23 305.4C593.888 306.613 594.672 307.752 595.57 308.8C604.81 320.64 609.45 335.51 618.45 347.54C619.25 348.6 620.71 349.98 620.26 351.23C620.096 351.554 619.953 351.888 619.83 352.23C619.789 352.553 619.828 352.882 619.943 353.187C620.058 353.492 620.246 353.764 620.49 353.98C620.97 354.42 621.343 354.964 621.58 355.57C621.75 356.2 621.33 357.02 620.68 356.97C621.76 360.31 625.07 362.26 628.21 363.84C633.43 366.47 639.21 368.54 645.02 367.97C646.11 363.6 647.63 358.66 647.02 354.21C646.382 350.812 645.253 347.524 643.67 344.45L639.76 335.91C636.43 328.62 633.07 321.28 628.43 314.75C626.756 312.681 625.349 310.41 624.24 307.99C623.05 304.91 619.78 302.74 617.8 300.09C614.86 296.09 611.8 292.09 607.86 289.2C606.28 287.99 603.74 286.81 601.81 287.13Z" fill="#E39F48"/>
<path d="M593 203.38C590.21 203.62 587.34 203.88 584.82 205.1C582.3 206.32 580.15 208.72 580.07 211.52C580.07 213.15 580.67 214.77 580.46 216.38C580.11 219.06 577.62 220.87 576.34 223.24C574.1 227.36 575.84 232.6 578.74 236.24C581.64 239.88 585.57 242.68 588.55 246.3C590.901 249.194 592.601 252.561 593.536 256.17C594.472 259.78 594.62 263.548 593.97 267.22C593.6 268.647 593.422 270.116 593.44 271.59C593.67 274.21 595.44 276.38 597.2 278.38C605.761 288.391 613.684 298.932 620.92 309.94C623.091 313.137 625.042 316.478 626.76 319.94C628.46 323.52 629.76 327.34 632.12 330.51C634.299 333.232 636.968 335.521 639.99 337.26C647.612 341.961 656.258 344.75 665.19 345.39L660.04 332.62C659.13 330.35 658.19 327.96 658.49 325.53C659.06 320.93 663.7 317.91 665.21 313.53C666.21 310.71 665.76 307.6 664.94 304.73C663.12 298.26 659.48 292.44 657.52 286.01C655.802 280.372 655.418 274.412 656.4 268.6C656.83 266.04 657.53 263.47 657.21 260.9C656.26 253.08 647.09 249.34 642.85 242.71C640.11 238.45 639.58 233.2 638.66 228.22C637.33 220.95 634.96 213.69 630.38 207.89C625.8 202.09 618.74 197.89 611.38 198.2C607.44 198.35 603.67 199.72 599.96 201.06L590.32 204.57" fill="#3F3D56"/>
<g opacity="0.1">
<path opacity="0.1" d="M636.03 219.71C636.86 224.2 637.38 228.91 639.48 232.92C639.19 231.36 638.95 229.79 638.66 228.25C637.981 224.33 636.902 220.49 635.44 216.79C635.69 217.76 635.86 218.73 636.03 219.71Z" fill="black"/>
<path opacity="0.1" d="M653.77 260.09C652.793 265.905 653.177 271.868 654.89 277.51C655.36 279.04 655.89 280.51 656.53 282.01C655.697 277.593 655.653 273.063 656.4 268.63C656.83 266.07 657.53 263.5 657.21 260.93C656.915 258.728 656.015 256.651 654.61 254.93C654.46 256.67 654.06 258.38 653.77 260.09Z" fill="black"/>
<path opacity="0.1" d="M664.94 304.76C664.386 302.881 663.718 301.038 662.94 299.24C663.276 301.169 663.146 303.151 662.56 305.02C661.05 309.39 656.4 312.42 655.84 317.02C655.54 319.45 656.47 321.84 657.39 324.11C657.73 324.96 658.07 325.82 658.39 326.67C658.365 326.3 658.365 325.93 658.39 325.56C658.96 320.96 663.6 317.94 665.11 313.56C666.19 310.74 665.76 307.63 664.94 304.76Z" fill="black"/>
<path opacity="0.1" d="M637.37 328.75C634.348 327.007 631.679 324.714 629.5 321.99C627.13 318.82 625.83 314.99 624.13 311.42C622.415 307.957 620.464 304.616 618.29 301.42C611.057 290.41 603.138 279.866 594.58 269.85C594.27 269.5 593.97 269.14 593.67 268.78C593.464 269.705 593.386 270.654 593.44 271.6C593.67 274.22 595.44 276.39 597.2 278.39C605.762 288.401 613.684 298.942 620.92 309.95C623.091 313.147 625.042 316.488 626.76 319.95C628.46 323.53 629.76 327.35 632.12 330.52C634.299 333.242 636.968 335.531 639.99 337.27C647.612 341.971 656.258 344.76 665.19 345.4L661.69 336.8C653.068 336.045 644.74 333.288 637.37 328.75V328.75Z" fill="black"/>
<path opacity="0.1" d="M585.92 237.8C582.92 234.18 579.01 231.43 576.11 227.75C575.85 227.41 575.6 227.06 575.35 226.69C575.29 230.19 576.494 233.595 578.74 236.28C581.64 239.97 585.57 242.72 588.55 246.34C589.713 247.746 590.719 249.275 591.55 250.9C590.931 246.094 588.981 241.557 585.92 237.8V237.8Z" fill="black"/>
</g>
<path d="M195.57 135.15L188.32 127.86C187.962 127.499 187.536 127.212 187.067 127.016C186.597 126.82 186.094 126.72 185.585 126.72C185.076 126.72 184.573 126.82 184.103 127.016C183.634 127.212 183.208 127.499 182.85 127.86L137.32 172.97L118.06 153.57C117.34 152.85 116.363 152.446 115.345 152.446C114.327 152.446 113.35 152.85 112.63 153.57L105.3 160.82C104.58 161.548 104.176 162.531 104.176 163.555C104.176 164.579 104.58 165.562 105.3 166.29L134.55 195.76C135.277 196.479 136.258 196.883 137.28 196.883C138.302 196.883 139.284 196.479 140.01 195.76L195.57 140.62C195.931 140.262 196.218 139.836 196.414 139.367C196.61 138.897 196.71 138.394 196.71 137.885C196.71 137.376 196.61 136.873 196.414 136.403C196.218 135.934 195.931 135.508 195.57 135.15V135.15Z" fill="#3ACC6C"/>
<path d="M396.57 135.15L389.32 127.86C388.962 127.499 388.536 127.212 388.067 127.016C387.597 126.82 387.094 126.72 386.585 126.72C386.076 126.72 385.573 126.82 385.103 127.016C384.634 127.212 384.208 127.499 383.85 127.86L338.32 172.97L319.06 153.57C318.34 152.85 317.363 152.446 316.345 152.446C315.327 152.446 314.35 152.85 313.63 153.57L306.3 160.82C305.58 161.548 305.176 162.531 305.176 163.555C305.176 164.579 305.58 165.562 306.3 166.29L335.55 195.76C336.277 196.479 337.258 196.883 338.28 196.883C339.302 196.883 340.284 196.479 341.01 195.76L396.57 140.62C396.931 140.262 397.218 139.836 397.414 139.367C397.61 138.897 397.71 138.394 397.71 137.885C397.71 137.376 397.61 136.873 397.414 136.403C397.218 135.934 396.931 135.508 396.57 135.15Z" fill="#3ACC6C"/>
<defs>
<filter id="filter0_d" x="0.5" y="93.44" width="694.71" height="487.13" filterUnits="userSpaceOnUse" color-interpolation-filters="sRGB">
<feFlood flood-opacity="0" result="BackgroundImageFix"/>
<feColorMatrix in="SourceAlpha" type="matrix" values="0 0 0 0 0 0 0 0 0 0 0 0 0 0 0 0 0 0 127 0"/>
<feOffset dx="6" dy="10"/>
<feGaussianBlur stdDeviation="7.5"/>
<feColorMatrix type="matrix" values="0 0 0 0 0 0 0 0 0 0 0 0 0 0 0 0 0 0 0.18 0"/>
<feBlend mode="normal" in2="BackgroundImageFix" result="effect1_dropShadow"/>
<feBlend mode="normal" in="SourceGraphic" in2="effect1_dropShadow" result="shape"/>
</filter>
<filter id="filter1_d" x="0.5" y="0" width="694.71" height="125.68" filterUnits="userSpaceOnUse" color-interpolation-filters="sRGB">
<feFlood flood-opacity="0" result="BackgroundImageFix"/>
<feColorMatrix in="SourceAlpha" type="matrix" values="0 0 0 0 0 0 0 0 0 0 0 0 0 0 0 0 0 0 127 0"/>
<feOffset dx="6" dy="10"/>
<feGaussianBlur stdDeviation="7.5"/>
<feColorMatrix type="matrix" values="0 0 0 0 0 0 0 0 0 0 0 0 0 0 0 0 0 0 0.18 0"/>
<feBlend mode="normal" in2="BackgroundImageFix" result="effect1_dropShadow"/>
<feBlend mode="normal" in="SourceGraphic" in2="effect1_dropShadow" result="shape"/>
</filter>
<linearGradient id="paint0_linear" x1="616.01" y1="623.94" x2="616.01" y2="179.45" gradientUnits="userSpaceOnUse">
<stop stop-color="#808080" stop-opacity="0.25"/>
<stop offset="0.54" stop-color="#808080" stop-opacity="0.12"/>
<stop offset="1" stop-color="#808080" stop-opacity="0.1"/>
</linearGradient>
</defs>
</svg>
