
<svg width="1094" height="799" viewBox="0 0 1094 799" fill="none" xmlns="http://www.w3.org/2000/svg">
<path d="M987.882 0H184.192C180.513 0.0157167 176.872 0.756529 173.479 2.18008C170.086 3.60364 167.007 5.68202 164.418 8.29639C161.828 10.9108 159.78 14.0099 158.389 17.4165C156.998 20.8231 156.292 24.4705 156.312 28.15V593.35C156.292 597.03 156.998 600.677 158.389 604.083C159.78 607.49 161.828 610.589 164.418 613.204C167.007 615.818 170.086 617.896 173.479 619.32C176.872 620.744 180.513 621.484 184.192 621.5H987.882C991.562 621.484 995.202 620.744 998.595 619.32C1001.99 617.896 1005.07 615.818 1007.66 613.204C1010.25 610.589 1012.29 607.49 1013.69 604.083C1015.08 600.677 1015.78 597.03 1015.76 593.35V28.15C1015.78 24.4705 1015.08 20.8231 1013.69 17.4165C1012.29 14.0099 1010.25 10.9108 1007.66 8.29639C1005.07 5.68202 1001.99 3.60364 998.595 2.18008C995.202 0.756529 991.562 0.0157167 987.882 0V0Z" fill="url(#paint0_linear)"/>
<path d="M1012.13 59.88V586.61C1012.13 593.941 1009.22 600.971 1004.04 606.154C998.853 611.338 991.823 614.25 984.492 614.25H187.902C180.572 614.25 173.541 611.338 168.358 606.154C163.174 600.971 160.262 593.941 160.262 586.61V59.88H1012.13Z" fill="#F6F7F9"/>
<path d="M368.352 331.37V614.24H187.902C172.642 614.24 160.262 601.62 160.262 586.06V331.37H368.352Z" fill="#DDE1EC"/>
<path d="M776.952 124.37H430.132V134.12H776.952V124.37Z" fill="#DDE1EC"/>
<path d="M639.302 193.73H430.132V203.48H639.302V193.73Z" fill="#DDE1EC"/>
<path d="M756.362 193.73H685.912V203.48H756.362V193.73Z" fill="#DDE1EC"/>
<g opacity="0.1">
<path opacity="0.1" d="M294.652 437.04H224.202V446.79H294.652V437.04Z" fill="#E4B273"/>
</g>
<path d="M756.362 284.77H685.912V294.52H756.362V284.77Z" fill="#DDE1EC"/>
<path d="M756.362 375.81H685.912V385.56H756.362V375.81Z" fill="#DDE1EC"/>
<path d="M756.362 224.08H685.912V233.83H756.362V224.08Z" fill="#DDE1EC"/>
<path d="M877.742 224.08H807.292V233.83H877.742V224.08Z" fill="#DDE1EC"/>
<path d="M756.362 254.42H685.912V264.17H756.362V254.42Z" fill="#DDE1EC"/>
<path d="M877.742 254.42H807.292V264.17H877.742V254.42Z" fill="#DDE1EC"/>
<path d="M877.742 310.78H807.292V320.53H877.742V310.78Z" fill="#DDE1EC"/>
<path d="M877.742 341.13H807.292V350.88H877.742V341.13Z" fill="#DDE1EC"/>
<path d="M877.742 406.16H807.292V415.91H877.742V406.16Z" fill="#DDE1EC"/>
<path d="M639.302 224.08H430.132V233.83H639.302V224.08Z" fill="#DDE1EC"/>
<path d="M639.302 254.42H430.132V264.17H639.302V254.42Z" fill="#DDE1EC"/>
<path d="M639.302 284.77H430.132V294.52H639.302V284.77Z" fill="#DDE1EC"/>
<path d="M639.302 315.12H430.132V324.87H639.302V315.12Z" fill="#DDE1EC"/>
<path d="M639.302 345.46H430.132V355.21H639.302V345.46Z" fill="#DDE1EC"/>
<path d="M639.302 375.81H430.132V385.56H639.302V375.81Z" fill="#DDE1EC"/>
<path d="M639.302 406.16H430.132V415.91H639.302V406.16Z" fill="#DDE1EC"/>
<path d="M368.352 59.34H160.262V336.79H368.352V59.34Z" fill="#E4B273"/>
<path d="M1012.13 31.7C1012.13 24.3712 1009.22 17.3434 1004.03 12.162C998.85 6.9807 991.821 4.07001 984.492 4.07001H187.902C180.572 4.07001 173.541 6.98207 168.358 12.1656C163.174 17.3491 160.262 24.3794 160.262 31.71V63.14H1012.13V31.7Z" fill="#E8EAF1"/>
<path d="M193.862 44.17C199.849 44.17 204.702 39.3168 204.702 33.33C204.702 27.3432 199.849 22.49 193.862 22.49C187.875 22.49 183.022 27.3432 183.022 33.33C183.022 39.3168 187.875 44.17 193.862 44.17Z" fill="#FF5252"/>
<path d="M229.622 44.17C235.609 44.17 240.462 39.3168 240.462 33.33C240.462 27.3432 235.609 22.49 229.622 22.49C223.635 22.49 218.782 27.3432 218.782 33.33C218.782 39.3168 223.635 44.17 229.622 44.17Z" fill="#FFFF00"/>
<path d="M265.392 44.17C271.379 44.17 276.232 39.3168 276.232 33.33C276.232 27.3432 271.379 22.49 265.392 22.49C259.405 22.49 254.552 27.3432 254.552 33.33C254.552 39.3168 259.405 44.17 265.392 44.17Z" fill="#69F0AE"/>
<path d="M325.012 198.07C325.031 211.97 320.256 225.451 311.492 236.24C311.162 236.65 310.832 237.05 310.492 237.45C310.426 237.518 310.366 237.592 310.312 237.67C307.207 241.263 303.694 244.482 299.842 247.26L299.342 247.63C298.652 248.12 297.952 248.63 297.242 249.05L296.752 249.36L295.702 250.01C295.547 250.108 295.387 250.198 295.222 250.28C295.092 250.373 294.955 250.457 294.812 250.53C293.272 251.43 291.682 252.26 290.052 253.02C289.872 253.12 289.672 253.2 289.482 253.29C289.292 253.38 289.072 253.49 288.852 253.57C288.632 253.65 288.202 253.86 287.852 253.99C284.36 255.468 280.733 256.607 277.022 257.39C273.485 258.147 269.888 258.586 266.272 258.7H265.722H264.292C259.521 258.716 254.765 258.169 250.122 257.07L249.252 256.86C247.212 256.327 245.212 255.707 243.252 255C242.062 254.56 240.882 254.08 239.732 253.57C239.442 253.44 239.162 253.32 238.872 253.18L238.002 252.79L237.242 252.4L236.442 251.99L235.552 251.52L234.552 250.95L234.392 250.86C230.13 248.441 226.174 245.517 222.612 242.15C222.312 241.86 222.002 241.58 221.712 241.27C221.422 240.96 221.082 240.65 220.782 240.33C213.855 233.196 208.787 224.47 206.023 214.918C203.26 205.366 202.885 195.281 204.933 185.551C206.981 175.82 211.389 166.742 217.768 159.115C224.148 151.487 232.304 145.544 241.519 141.808C250.734 138.071 260.725 136.657 270.616 137.688C280.506 138.719 289.991 142.164 298.237 147.721C306.483 153.278 313.238 160.775 317.906 169.555C322.575 178.334 325.015 188.126 325.012 198.07V198.07Z" fill="white"/>
<path d="M298.452 222.38V222.46L298.522 222.53C298.502 222.47 298.472 222.43 298.452 222.38ZM237.292 252.38C237.192 250.98 237.092 249.72 237.002 248.64C236.932 247.88 236.862 247.2 236.802 246.64C236.796 246.614 236.796 246.586 236.802 246.56C236.802 246.42 236.802 246.29 236.802 246.16C235.838 247.631 235.047 249.208 234.442 250.86L234.602 250.95L235.602 251.52L236.492 251.99L237.292 252.4C237.292 252.847 237.325 253.313 237.392 253.8C237.342 253.32 237.322 252.86 237.292 252.41V252.38ZM250.602 195.21L250.652 195.3C250.656 195.323 250.656 195.347 250.652 195.37C250.643 195.324 250.626 195.28 250.602 195.24V195.21Z" fill="url(#paint1_linear)"/>
<path d="M268.012 185C268.012 185 264.402 201.22 274.322 209.79C284.242 218.36 250.892 225.07 245.012 217.9C239.132 210.73 249.092 207.07 249.092 207.07C249.092 207.07 254.092 203.01 249.092 190.85L268.012 185Z" fill="#E0A17E"/>
<path d="M277.012 257.41C273.475 258.167 269.877 258.606 266.262 258.72H265.712H264.282C259.514 258.729 254.761 258.175 250.122 257.07L249.252 256.86C247.212 256.327 245.212 255.707 243.252 255L242.252 240L246.592 219.23L249.142 206.99L249.862 203.57L250.592 204.57L250.752 204.79L250.952 205.05L258.952 215.7L267.142 206.88L267.562 206.42L269.812 203.99L270.662 203.08L271.062 206.17L272.502 217.28L275.172 237.77L277.012 257.41Z" fill="#F0F1F5"/>
<path opacity="0.1" d="M299.332 247.63C298.642 248.12 297.942 248.63 297.232 249.05L296.742 249.36L295.692 250.01C295.537 250.108 295.377 250.198 295.212 250.28C295.082 250.373 294.945 250.457 294.802 250.53C292.599 248.651 290.944 246.212 290.012 243.47C289.895 243.122 289.794 242.768 289.712 242.41C289.707 242.353 289.707 242.297 289.712 242.24L289.142 243.74L287.392 248.07C287.392 248.07 287.912 250.19 288.842 253.55C288.516 253.703 288.182 253.843 287.842 253.97C284.35 255.448 280.723 256.587 277.012 257.37C273.475 258.127 269.877 258.566 266.262 258.68H265.712C265.207 254.032 265.029 249.353 265.182 244.68L266.502 219.51L267.172 206.81L267.542 199.81C267.542 199.81 267.672 199.95 267.922 200.18C268.172 200.41 268.342 200.58 268.642 200.85C273.105 204.75 278.728 207.073 284.642 207.46C286.276 207.507 287.876 207.93 289.319 208.697C290.762 209.464 292.009 210.553 292.962 211.88C294.769 214.45 295.932 217.417 296.352 220.53L296.652 223.28L296.732 224.06L296.842 225.06L299.332 247.63Z" fill="black"/>
<path d="M299.832 247.27L299.332 247.64C298.642 248.13 297.942 248.64 297.232 249.06L296.742 249.37L295.692 250.02C293.341 248.13 291.55 245.633 290.512 242.8V242.8C290.464 242.683 290.424 242.563 290.392 242.44C290.282 242.09 290.182 241.72 290.102 241.36L289.692 242.43L289.132 243.88L287.852 247.22C287.852 247.22 288.442 249.62 289.482 253.32C289.272 253.42 289.072 253.52 288.852 253.6C288.632 253.68 288.202 253.89 287.852 254.02C284.36 255.498 280.733 256.637 277.022 257.42C273.485 258.177 269.888 258.616 266.272 258.73C265.689 253.779 265.478 248.792 265.642 243.81L266.922 219.42L267.602 206.42L267.932 200.29L267.992 199.02C268.045 199.08 268.102 199.137 268.162 199.19C272.769 203.612 278.79 206.265 285.162 206.68C286.773 206.726 288.351 207.138 289.779 207.885C291.207 208.632 292.446 209.694 293.402 210.99C295.26 213.582 296.454 216.59 296.882 219.75L297.412 224.68V224.75L297.522 225.75L299.832 247.27Z" fill="#293158"/>
<path opacity="0.1" d="M251.212 202.07V202.68L251.052 205L250.492 212.94C250.492 212.94 250.162 215.23 249.922 220.39C249.572 227.19 249.362 238.97 250.172 257.09L249.302 256.88C247.262 256.347 245.262 255.727 243.302 255.02C242.112 254.58 240.932 254.1 239.782 253.59C239.492 253.46 239.212 253.34 238.922 253.2C238.632 249.2 238.282 246.75 238.282 246.75C238.282 246.75 238.012 247.09 237.602 247.75C237.432 248.02 237.222 248.35 237.002 248.75L236.952 248.84C236.759 249.173 236.552 249.553 236.332 249.98C236.082 250.48 235.832 250.98 235.592 251.61L234.592 251.04L234.432 250.95C230.17 248.531 226.214 245.607 222.652 242.24C224.262 236.57 225.652 230.87 226.152 230.14C228.017 227.276 229.449 224.152 230.402 220.87C231.068 218.641 232.221 216.587 233.778 214.858C235.334 213.129 237.255 211.766 239.402 210.87C243.889 208.767 247.9 205.773 251.192 202.07H251.212Z" fill="black"/>
<path d="M251.222 201.79C247.352 205.067 243.04 207.784 238.412 209.86C236.265 210.756 234.344 212.118 232.788 213.848C231.231 215.577 230.078 217.631 229.412 219.86C228.459 223.142 227.027 226.266 225.162 229.13C224.672 229.86 223.272 235.57 221.662 241.25C221.952 241.55 222.262 241.84 222.562 242.13C226.124 245.497 230.08 248.421 234.342 250.84L234.502 250.93C235.086 249.444 235.823 248.023 236.702 246.69L236.752 246.61C237.102 246.09 237.322 245.81 237.322 245.81C237.322 245.81 237.412 246.47 237.542 247.66C237.672 248.85 237.842 250.66 238.002 252.76L238.872 253.15C239.152 253.29 239.432 253.41 239.732 253.54C240.882 254.05 242.062 254.54 243.252 254.97C245.192 255.683 247.192 256.303 249.252 256.83C248.432 238.89 248.612 227.07 248.942 220.1C249.202 214.48 249.552 211.99 249.552 211.99L250.822 204.69L251.182 202.63L251.352 201.63L251.222 201.79Z" fill="#293158"/>
<path opacity="0.1" d="M257.652 200.78C255.404 200.782 253.184 200.273 251.162 199.29C250.813 196.699 250.117 194.166 249.092 191.76L268.012 185.91C267.323 189.535 267.191 193.245 267.622 196.91C264.896 199.396 261.341 200.776 257.652 200.78V200.78Z" fill="black"/>
<path d="M257.652 199.88C265.865 199.88 272.522 193.222 272.522 185.01C272.522 176.798 265.865 170.14 257.652 170.14C249.44 170.14 242.782 176.798 242.782 185.01C242.782 193.222 249.44 199.88 257.652 199.88Z" fill="#E0A17E"/>
<g opacity="0.1">
<path opacity="0.1" d="M287.872 254.01C286.702 249.9 286.052 247.2 286.052 247.2L288.302 241.34C288.478 242.164 288.736 242.968 289.072 243.74L289.122 243.87L287.842 247.21C287.842 247.21 288.432 249.61 289.472 253.31C289.262 253.41 289.062 253.51 288.842 253.59C288.622 253.67 288.192 253.88 287.872 254.01Z" fill="black"/>
</g>
<path d="M305.422 226.01C305.422 226.01 304.072 212.94 305.422 206.63C306.772 200.32 289.652 207.53 293.252 216.09C295.178 220.835 297.595 225.367 300.462 229.61L305.422 226.01Z" fill="#E0A17E"/>
<path opacity="0.1" d="M310.302 237.67C307.197 241.263 303.683 244.481 299.832 247.26L299.332 247.63C298.642 248.12 297.942 248.63 297.232 249.05C295.62 247.138 294.181 245.087 292.932 242.92L292.802 242.69L296.412 223.76L296.792 224.15C296.952 224.3 297.162 224.5 297.412 224.7H297.462C299.332 226.3 303.282 228.7 305.182 223.12C305.503 222.143 305.734 221.139 305.872 220.12L306.242 221.5L306.462 222.31L310.462 237.4L310.302 237.67Z" fill="black"/>
<path d="M310.302 237.67C307.197 241.263 303.684 244.482 299.832 247.26L299.332 247.63C298.642 248.12 297.942 248.63 297.232 249.05L296.742 249.36C295.276 247.542 293.959 245.609 292.802 243.58L292.932 242.91L296.412 224.65C296.412 224.65 296.592 224.86 296.902 225.15L297.522 225.7C297.782 225.92 298.082 226.16 298.412 226.38C300.482 227.8 303.632 228.87 305.232 223.88C305.527 222.954 305.741 222.003 305.872 221.04L306.332 222.74L310.302 237.67Z" fill="#293158"/>
<path opacity="0.02" d="M310.302 237.67C307.197 241.263 303.684 244.482 299.832 247.26L299.332 247.63C298.642 248.12 297.942 248.63 297.232 249.05L296.742 249.36C295.276 247.542 293.959 245.609 292.802 243.58L292.932 242.91L296.412 224.65C296.412 224.65 296.592 224.86 296.902 225.15L297.522 225.7C297.782 225.92 298.082 226.16 298.412 226.38C300.482 227.8 303.632 228.87 305.232 223.88C305.527 222.954 305.741 222.003 305.872 221.04L306.332 222.74L310.302 237.67Z" fill="black"/>
<path opacity="0.1" d="M236.802 246.65L236.752 246.73C236.752 246.68 236.752 246.62 236.752 246.58C237.382 244.39 237.952 242.91 238.462 242.47C238.462 242.47 239.132 246.92 239.732 253.59C239.442 253.46 239.162 253.34 238.872 253.2L238.002 252.81C237.852 250.66 237.692 248.91 237.542 247.71C237.392 246.51 237.322 245.86 237.322 245.86C237.322 245.86 237.152 246.13 236.802 246.65Z" fill="black"/>
<path opacity="0.1" d="M257.832 180.91C258.61 180.484 259.505 180.322 260.382 180.45C260.761 180.61 261.102 180.849 261.382 181.15C262.552 182.26 263.712 183.55 265.292 183.89C266.268 184.038 267.263 183.994 268.222 183.76C269.905 183.566 271.538 183.068 273.042 182.29C276.392 180.29 277.462 175.96 277.672 172.07C277.742 170.76 277.472 169.07 276.182 168.79C274.542 168.44 273.342 170.93 271.682 170.66C271.178 170.538 270.723 170.262 270.382 169.87C269.252 168.74 268.482 167.29 267.382 166.15C265.624 164.507 263.345 163.53 260.942 163.39C258.559 163.261 256.169 163.487 253.852 164.06C252.575 164.271 251.341 164.693 250.202 165.31C249.638 165.619 249.149 166.047 248.769 166.566C248.389 167.084 248.127 167.679 248.002 168.31C247.892 169.18 248.122 170.08 247.952 170.94C247.784 171.521 247.499 172.061 247.113 172.527C246.728 172.994 246.251 173.376 245.712 173.65C244.712 174.27 243.532 174.65 242.552 175.41C240.995 176.62 239.915 178.341 239.502 180.27C239.102 182.188 239.048 184.163 239.342 186.1C239.753 189.466 240.691 192.746 242.122 195.82C242.595 196.893 243.204 197.901 243.932 198.82C245.002 199.987 246.23 200.997 247.582 201.82C247.827 202.042 248.118 202.207 248.435 202.302C248.752 202.397 249.085 202.42 249.412 202.37C249.6 202.303 249.773 202.201 249.922 202.07C251.202 201 251.322 199.07 250.922 197.44C250.522 195.81 249.842 194.26 249.762 192.6C249.711 192.134 249.802 191.664 250.022 191.25C250.289 190.916 250.591 190.61 250.922 190.34C251.355 189.842 251.694 189.269 251.922 188.65C252.687 187.12 253.21 185.481 253.472 183.79C253.617 182.398 253.312 180.996 252.602 179.79C253.289 180.436 254.139 180.882 255.061 181.079C255.983 181.276 256.941 181.218 257.832 180.91V180.91Z" fill="black"/>
<path d="M257.832 180.39C258.61 179.964 259.505 179.802 260.382 179.93C260.761 180.09 261.102 180.329 261.382 180.63C262.552 181.74 263.712 183.03 265.292 183.37C266.268 183.518 267.263 183.474 268.222 183.24C269.905 183.046 271.538 182.548 273.042 181.77C276.392 179.77 277.462 175.44 277.672 171.55C277.742 170.24 277.472 168.55 276.182 168.27C274.542 167.92 273.342 170.41 271.682 170.14C271.178 170.018 270.723 169.742 270.382 169.35C269.252 168.22 268.482 166.77 267.382 165.63C265.624 163.986 263.345 163.01 260.942 162.87C258.559 162.741 256.169 162.967 253.852 163.54C252.575 163.751 251.341 164.173 250.202 164.79C249.638 165.099 249.149 165.527 248.769 166.046C248.389 166.564 248.127 167.159 248.002 167.79C247.892 168.66 248.122 169.56 247.952 170.42C247.784 171.001 247.499 171.541 247.113 172.007C246.728 172.474 246.251 172.856 245.712 173.13C244.712 173.75 243.532 174.13 242.552 174.89C240.995 176.1 239.915 177.821 239.502 179.75C239.102 181.668 239.048 183.643 239.342 185.58C239.753 188.946 240.691 192.226 242.122 195.3C242.595 196.373 243.204 197.381 243.932 198.3C245.002 199.467 246.23 200.477 247.582 201.3C247.827 201.522 248.118 201.687 248.435 201.782C248.752 201.877 249.085 201.9 249.412 201.85C249.6 201.783 249.773 201.681 249.922 201.55C251.202 200.48 251.322 198.55 250.922 196.92C250.522 195.29 249.842 193.74 249.762 192.08C249.711 191.614 249.802 191.144 250.022 190.73C250.289 190.396 250.591 190.09 250.922 189.82C251.355 189.322 251.694 188.749 251.922 188.13C252.687 186.6 253.21 184.961 253.472 183.27C253.617 181.878 253.312 180.476 252.602 179.27C253.289 179.916 254.139 180.362 255.061 180.559C255.983 180.756 256.941 180.698 257.832 180.39V180.39Z" fill="#463E3B"/>
<path d="M176.012 566.35C189.924 566.35 201.202 562.209 201.202 557.1C201.202 551.991 189.924 547.85 176.012 547.85C162.1 547.85 150.822 551.991 150.822 557.1C150.822 562.209 162.1 566.35 176.012 566.35Z" fill="#CD9494"/>
<path opacity="0.05" d="M176.012 560.79C183.109 560.79 188.862 558.677 188.862 556.07C188.862 553.463 183.109 551.35 176.012 551.35C168.915 551.35 163.162 553.463 163.162 556.07C163.162 558.677 168.915 560.79 176.012 560.79Z" fill="black"/>
<path d="M150.812 555.07C150.812 555.07 178.572 570.49 201.192 557.13C201.192 557.13 198.112 610.6 182.682 615.74H162.132C162.132 615.74 144.652 579.71 150.812 555.07Z" fill="#FF7361"/>
<path d="M197.762 457.07C204.832 482.9 174.692 556.48 174.692 556.48C174.692 556.48 111.302 508.48 104.232 482.66C100.839 470.257 102.511 457.014 108.882 445.845C115.253 434.675 125.799 426.493 138.202 423.1C150.605 419.707 163.848 421.379 175.018 427.75C186.187 434.12 194.369 444.667 197.762 457.07V457.07Z" fill="#E4B273"/>
<path opacity="0.1" d="M197.762 457.07C204.832 482.9 174.692 556.48 174.692 556.48C174.692 556.48 111.302 508.48 104.232 482.66C100.839 470.257 102.511 457.014 108.882 445.845C115.253 434.675 125.799 426.493 138.202 423.1C150.605 419.707 163.848 421.379 175.018 427.75C186.187 434.12 194.369 444.667 197.762 457.07V457.07Z" fill="black"/>
<path d="M138.462 423.24C138.462 423.24 177.922 482.81 174.952 556.61" stroke="#535461" stroke-miterlimit="10"/>
<path d="M207.832 504.27C207.832 504.27 172.012 484.8 176.582 556.66C176.582 556.66 206.432 555.59 217.022 531.24C219.091 526.505 219.353 521.175 217.757 516.26C216.161 511.346 212.818 507.186 208.362 504.57L207.832 504.27Z" fill="#E4B273"/>
<path d="M208.422 504.39C208.422 504.39 203.802 541.69 176.582 556.66" stroke="#535461" stroke-miterlimit="10"/>
<path opacity="0.05" d="M197.832 558.84C196.832 571.14 192.522 609.34 179.612 613.65H161.182C161.772 614.96 162.132 615.71 162.132 615.71H182.702C198.112 610.56 201.202 557.07 201.202 557.07C200.11 557.717 198.985 558.308 197.832 558.84V558.84Z" fill="black"/>
<path d="M639.302 472.81H430.132V594.2H639.302V472.81Z" fill="#DDE1EC"/>
<path d="M982.842 233.21C982.869 232.817 982.869 232.423 982.842 232.03C982.482 227.15 977.842 223.62 973.242 221.74C968.642 219.86 963.502 218.94 959.432 216.09C952.552 211.27 950.432 202.26 949.812 194.02C949.622 191.46 949.542 188.9 949.532 186.33C949.522 183.76 949.692 180.92 949.932 178.22C950.332 173.74 950.992 169.1 950.932 164.61C951.166 160.326 950.341 156.05 948.532 152.16C944.452 144.1 935.292 139.98 926.812 136.47C923.552 135.12 920.212 133.75 916.672 133.6C912.932 133.44 909.292 134.65 905.752 135.85C900.132 137.75 894.432 140.22 888.622 141.51C885.362 142.23 881.792 141.69 878.622 142.84C872.402 145.12 871.072 150.71 871.172 156.84C871.172 157.23 871.172 157.61 871.172 158C870.552 157.43 869.912 156.89 869.262 156.37L868.882 156.07C868.215 155.53 867.505 155.02 866.752 154.54L866.392 154.31C864.864 153.32 863.263 152.447 861.602 151.7L861.352 151.59C860.519 151.223 859.672 150.89 858.812 150.59L858.652 150.53C856.872 149.91 855.047 149.428 853.192 149.09V149.09C847.349 148.007 841.33 148.373 835.661 150.154C829.992 151.936 824.845 155.079 820.672 159.31L813.802 166.31C782.572 159.31 781.172 186.44 781.172 186.44L781.402 186.39L781.322 186.58C782.033 190.013 782.931 193.405 784.012 196.74L542.842 443.07L518.462 518.63L532.152 513.75L594.692 491.41L818.632 262.65C835.392 274.56 852.812 290.52 852.812 290.52C852.812 290.52 842.012 296.23 846.012 322.39C850.902 354.39 843.552 399.94 843.552 399.94V429.4L844.932 429.02C844.762 430.02 844.582 431.02 844.412 432.17C842.134 446.972 841.845 462.012 843.552 476.89C847.252 508.15 862.032 550.83 862.032 550.83C862.032 550.83 867.572 565.83 868.812 577.88C869.007 580.26 869.539 582.6 870.392 584.83C873.173 591.44 874.64 598.529 874.712 605.7C874.712 618.78 876.422 638.41 884.212 658.44C890.462 674.52 892.772 683.94 893.462 689.44C889.032 695.3 883.242 701.69 878.672 702.33C870.052 703.53 853.412 704.73 864.502 719.16C864.889 719.655 865.321 720.114 865.792 720.53C857.372 721.89 848.112 724.89 857.112 736.59C868.202 751.02 933.502 744.41 933.502 744.41C933.502 744.41 933.922 736.41 933.502 727.59C938.082 727.27 940.912 726.98 940.912 726.98C940.912 726.98 942.762 692.11 934.752 687.9C933.272 688.061 931.819 688.418 930.432 688.96C929.572 684.14 928.912 678.15 928.502 673.71L931.672 673.47V621.17C931.672 621.17 927.972 588.71 914.422 574.28C912.695 572.478 911.206 570.461 909.992 568.28C910.092 564.11 910.102 558.28 910.052 551.55C910.591 550.64 911.232 549.795 911.962 549.03C911.962 549.03 919.352 540.03 944.612 482.9C959.512 449.21 956.192 429.76 950.962 419.46C949.962 415.8 947.362 405.35 943.962 386.11C939.652 361.46 944.582 337.41 944.582 337.41C944.582 337.41 960.582 295.93 967.992 279.1C969.708 275.046 970.422 270.638 970.072 266.25C972.002 264.84 972.932 262.49 973.762 260.25L981.352 240C982.172 237.81 983.012 235.53 982.832 233.2L982.842 233.21ZM879.762 196.75C880.587 198.037 881.506 199.26 882.512 200.41V200.41C882.512 200.41 881.382 199.23 879.512 197.33C879.602 197.14 879.682 196.94 879.762 196.75ZM842.442 238.32L863.332 216.98C870.552 223.58 878.282 230.32 884.742 235.87C884.127 238.714 883.311 241.511 882.302 244.24C879.502 245.63 875.802 246.08 871.302 243.63C864.172 239.78 851.012 238.64 842.442 238.32Z" fill="url(#paint2_linear)"/>
<path d="M825.632 159.57C825.632 159.57 810.142 168.51 814.912 181.07C814.912 181.07 831.002 185.84 837.552 197.76C844.102 209.68 894.762 252.58 894.762 252.58L931.702 234.07C931.702 234.07 918.852 216.91 878.202 204.93C878.202 204.93 854.202 179.24 845.892 174.48C837.582 169.72 825.632 159.57 825.632 159.57Z" fill="#FEBDD5"/>
<path opacity="0.05" d="M825.632 159.57C825.632 159.57 810.142 168.51 814.912 181.07C814.912 181.07 831.002 185.84 837.552 197.76C844.102 209.68 894.762 252.58 894.762 252.58L931.702 234.07C931.702 234.07 918.852 216.91 878.202 204.93C878.202 204.93 854.202 179.24 845.892 174.48C837.582 169.72 825.632 159.57 825.632 159.57Z" fill="black"/>
<path d="M549.632 445.44L818.412 164.07C824.765 157.429 833.493 153.581 842.681 153.371C851.868 153.161 860.763 156.606 867.412 162.95C874.053 169.302 877.901 178.031 878.111 187.218C878.321 196.406 874.876 205.301 868.532 211.95L599.792 493.36L526.052 520.36L549.632 445.44Z" fill="#E4B273"/>
<path opacity="0.1" d="M852.762 157.96C859.403 164.312 863.251 173.041 863.461 182.228C863.671 191.416 860.226 200.311 853.882 206.96L585.112 488.33L529.752 508.58L526.012 520.34L599.752 493.34L868.562 212.07C874.906 205.421 878.351 196.526 878.141 187.338C877.931 178.151 874.083 169.422 867.442 163.07V163.07C861.905 157.765 854.759 154.454 847.132 153.66C849.15 154.898 851.037 156.339 852.762 157.96V157.96Z" fill="white"/>
<path d="M549.632 445.45L599.792 493.36L539.292 515.5L526.052 520.34L534.442 493.71L549.632 445.45Z" fill="#EFC8C4"/>
<path d="M534.442 493.7C536.278 494.057 538.029 494.759 539.602 495.77C541.422 497.08 542.742 499.35 542.242 501.53C541.75 502.888 541.048 504.16 540.162 505.3C539.258 506.825 538.711 508.534 538.56 510.3C538.41 512.067 538.66 513.844 539.292 515.5L526.012 520.34L534.442 493.7Z" fill="#727A9C"/>
<path d="M922.172 667.87C922.172 667.87 923.962 694.09 926.942 697.07C929.922 700.05 900.122 701.84 900.122 701.84L904.292 667.84L922.172 667.87Z" fill="#FFB9B9"/>
<path opacity="0.05" d="M922.172 667.87C922.172 667.87 923.962 694.09 926.942 697.07C929.922 700.05 900.122 701.84 900.122 701.84L904.292 667.84L922.172 667.87Z" fill="black"/>
<path d="M928.722 688.13C928.722 688.13 924.552 688.13 909.652 695.88C909.652 695.88 899.522 694.09 895.352 679.79C895.352 679.79 882.842 701.24 874.492 702.43C866.142 703.62 850.062 704.81 860.782 719.12C871.502 733.43 934.672 726.87 934.672 726.87C934.672 726.87 936.472 692.3 928.722 688.13Z" fill="#CBCDDA"/>
<path opacity="0.05" d="M928.722 688.13C928.722 688.13 924.552 688.13 909.652 695.88C909.652 695.88 899.522 694.09 895.352 679.79C895.352 679.79 882.842 701.24 874.492 702.43C866.142 703.62 850.062 704.81 860.782 719.12C871.502 733.43 934.672 726.87 934.672 726.87C934.672 726.87 936.472 692.3 928.722 688.13Z" fill="black"/>
<path d="M919.782 708.39L915.612 719.71L888.202 711.96L889.762 700.72L890.142 698.01L891.142 690.51C891.142 690.51 914.382 684.51 914.382 687.51C914.697 689.967 915.208 692.395 915.912 694.77C916.912 698.43 918.062 702.61 918.912 705.36C919.432 707.2 919.782 708.39 919.782 708.39Z" fill="#FFB9B9"/>
<path d="M904.832 552.98C902.952 556.16 900.832 562.12 904.782 569.56C905.951 571.714 907.389 573.71 909.062 575.5C922.172 589.8 925.752 621.98 925.752 621.98V673.82L916.812 674.51L902.512 675.61L881.012 587.43C881.012 587.43 868.502 523.07 874.462 511.75C880.422 500.43 885.782 429.52 885.782 429.52L890.732 424.4L902.472 412.24H936.472C939.19 414.19 941.447 416.712 943.082 419.63C948.782 429.07 953.902 448.7 938.262 484.94C913.832 541.55 906.682 550.49 906.682 550.49C905.973 551.247 905.353 552.083 904.832 552.98V552.98Z" fill="#4C4C78"/>
<path opacity="0.05" d="M904.832 552.98C902.952 556.16 900.832 562.12 904.782 569.56C905.951 571.714 907.389 573.71 909.062 575.5C922.172 589.8 925.752 621.98 925.752 621.98V673.82L916.812 674.51L902.512 675.61L881.012 587.43C881.012 587.43 868.502 523.07 874.462 511.75C880.422 500.43 885.782 429.52 885.782 429.52L890.732 424.4L902.472 412.24H936.472C939.19 414.19 941.447 416.712 943.082 419.63C948.782 429.07 953.902 448.7 938.262 484.94C913.832 541.55 906.682 550.49 906.682 550.49C905.973 551.247 905.353 552.083 904.832 552.98V552.98Z" fill="black"/>
<path opacity="0.1" d="M915.952 694.79L890.142 698.01L891.142 690.51C891.142 690.51 914.382 684.51 914.382 687.51C914.709 689.975 915.234 692.409 915.952 694.79V694.79Z" fill="black"/>
<path d="M903.102 476.59C903.102 476.59 904.582 523.5 904.832 552.98C904.882 559.65 904.832 565.43 904.782 569.56C904.818 571.75 904.657 573.939 904.302 576.1C902.512 581.46 906.092 593.38 906.092 593.38C920.992 632.71 916.822 667.27 916.822 667.27V693.49L888.202 697.07C888.202 697.07 892.972 693.49 879.862 658.93C872.332 639.07 870.702 619.62 870.672 606.65C870.603 599.554 869.185 592.536 866.492 585.97C865.682 583.75 865.184 581.427 865.012 579.07C863.822 567.15 858.462 552.25 858.462 552.25C858.462 552.25 844.162 509.94 840.582 478.95C838.93 464.2 839.209 449.298 841.412 434.62C841.94 430.889 842.657 427.188 843.562 423.53C843.562 423.53 901.812 386.87 923.812 412.21C925.941 414.685 927.632 417.506 928.812 420.55C930.02 423.555 930.96 426.66 931.622 429.83C938.382 463.49 903.102 476.59 903.102 476.59Z" fill="#4C4C78"/>
<path d="M901.312 215.59C918.096 215.59 931.702 201.984 931.702 185.2C931.702 168.416 918.096 154.81 901.312 154.81C884.528 154.81 870.922 168.416 870.922 185.2C870.922 201.984 884.528 215.59 901.312 215.59Z" fill="#FFB9B9"/>
<path d="M884.632 204.26C884.632 204.26 897.142 239.42 884.632 257.89C872.122 276.36 924.552 270.4 924.552 270.4L944.812 245.97C944.812 245.97 920.972 245.97 919.812 204.26C918.652 162.55 884.632 204.26 884.632 204.26Z" fill="#FFB9B9"/>
<path opacity="0.1" d="M944.812 426.53C940.491 428.026 936.048 429.14 931.532 429.86C924.112 431 915.362 431.05 910.242 426.53C907.242 423.85 899.732 423.53 890.752 424.38C871.842 426.19 846.242 433.25 841.342 434.64C841.87 430.909 842.587 427.208 843.492 423.55C843.492 423.55 901.742 386.89 923.742 412.23H936.452C939.17 414.18 941.427 416.702 943.062 419.62C944.172 424.36 944.812 426.53 944.812 426.53Z" fill="black"/>
<path opacity="0.1" d="M919.782 708.39L915.612 719.71L888.202 711.96L889.762 700.72C894.472 711.14 902.502 712.55 902.502 712.55C911.162 708.05 916.202 706.16 918.902 705.37C919.432 707.2 919.782 708.39 919.782 708.39Z" fill="black"/>
<path d="M921.572 705.41C921.572 705.41 917.402 705.41 902.502 713.16C902.502 713.16 892.372 711.37 888.202 697.07C888.202 697.07 875.692 718.52 867.342 719.71C858.992 720.9 842.912 722.07 853.642 736.4C864.372 750.73 927.532 744.15 927.532 744.15C927.532 744.15 929.322 709.58 921.572 705.41Z" fill="#CBCDDA"/>
<path d="M780.202 191.02C780.202 191.02 781.552 164.13 811.762 171.07L804.012 185.6L780.202 191.02Z" fill="#FFB9B9"/>
<path d="M921.012 253.13C921.012 253.13 891.812 248.36 884.062 242.4C884.062 242.4 878.062 253.72 867.372 247.76C856.682 241.8 831.622 242.4 831.622 242.4C831.622 242.4 810.762 231.08 806.622 205.45C806.622 205.45 802.452 189.96 803.622 185.79C803.622 185.79 788.132 169.7 780.382 191.15C783.382 206.05 785.742 204.86 785.152 216.77L794.682 242.99C794.682 242.99 795.282 251.93 812.562 263.85C829.842 275.77 849.512 294.24 849.512 294.24C849.512 294.24 839.082 299.9 842.962 325.82C847.692 357.5 840.582 402.69 840.582 402.69V431.89C840.582 431.89 900.172 414.61 910.302 423.55C920.432 432.49 944.862 423.55 944.862 423.55C944.862 423.55 941.862 413.42 937.712 388.99C933.562 364.56 938.312 340.72 938.312 340.72C938.312 340.72 953.802 299.6 960.952 282.92C968.102 266.24 955.592 243.59 943.072 235.25C930.552 226.91 925.902 231.92 925.902 231.92C925.902 231.92 947.792 247.77 921.012 253.13Z" fill="#FEBDD5"/>
<path opacity="0.1" d="M868.442 177.76C868.433 179 868.643 180.233 869.062 181.4C869.757 182.728 870.705 183.906 871.852 184.87C876.312 189.23 880.232 194.41 881.802 200.45C882.862 204.54 882.802 208.82 882.742 213.05C882.482 230.16 881.742 248.63 871.202 262.05C867.322 267 862.322 270.93 857.632 275.12C856.974 275.612 856.479 276.292 856.212 277.07C856.082 277.884 856.238 278.718 856.652 279.43C858.832 283.96 863.422 286.74 867.772 289.26C869.772 290.41 871.852 291.6 874.152 291.67C879.572 291.85 883.152 286.12 888.082 283.87C895.262 280.59 903.312 285.15 910.442 288.55C915.602 291.006 921.014 292.894 926.582 294.18C934.212 295.94 942.832 296.37 949.252 291.9C952.964 289.285 955.499 285.317 956.312 280.85C956.832 277.94 956.752 274.56 958.952 272.59C960.092 271.59 961.642 271.15 962.862 270.25C964.772 268.85 965.672 266.5 966.482 264.25L973.822 244.18C974.768 242.059 975.256 239.762 975.252 237.44C974.902 232.61 970.442 229.1 965.972 227.24C961.502 225.38 956.552 224.47 952.612 221.64C945.962 216.86 943.902 207.93 943.302 199.76C942.892 194.149 942.932 188.514 943.422 182.91C944.152 174.6 945.772 165.74 942.072 158.26C938.122 150.26 929.262 146.19 921.072 142.71C917.922 141.37 914.682 140.02 911.262 139.87C907.642 139.71 904.122 140.87 900.702 142.1C895.262 143.99 889.702 146.43 884.132 147.71C880.982 148.43 877.522 147.89 874.482 149.03C863.312 153.23 868.442 168.77 868.442 177.76Z" fill="black"/>
<path d="M868.442 176.57C868.433 177.81 868.643 179.043 869.062 180.21C869.757 181.538 870.705 182.717 871.852 183.68C876.312 188.04 880.232 193.22 881.802 199.26C882.862 203.35 882.802 207.63 882.742 211.86C882.482 228.97 881.742 247.44 871.202 260.86C867.322 265.81 862.322 269.74 857.632 273.93C856.976 274.41 856.479 275.075 856.202 275.84C856.072 276.654 856.228 277.488 856.642 278.2C858.822 282.73 863.412 285.51 867.762 288.03C869.762 289.18 871.842 290.37 874.142 290.44C879.562 290.62 883.142 284.89 888.072 282.64C895.252 279.36 903.302 283.92 910.432 287.32C915.592 289.776 921.004 291.664 926.572 292.95C934.202 294.71 942.822 295.14 949.242 290.67C952.954 288.055 955.489 284.087 956.302 279.62C956.822 276.71 956.742 273.33 958.942 271.36C960.082 270.36 961.632 269.92 962.852 269.02C964.762 267.62 965.662 265.27 966.472 263.02L973.812 242.95C974.758 240.829 975.245 238.532 975.242 236.21C974.892 231.38 970.432 227.87 965.962 226.01C961.492 224.15 956.542 223.24 952.602 220.41C945.952 215.63 943.892 206.7 943.292 198.53C942.882 192.919 942.922 187.284 943.412 181.68C944.142 173.37 945.762 164.51 942.062 157.03C938.112 149.03 929.252 144.96 921.062 141.48C917.912 140.14 914.672 138.79 911.252 138.64C907.632 138.48 904.112 139.64 900.692 140.87C895.252 142.76 889.692 145.2 884.122 146.48C880.972 147.2 877.512 146.66 874.472 147.8C863.312 152.07 868.442 167.58 868.442 176.57Z" fill="#B96B6B"/>
<path opacity="0.05" d="M844.422 339.2C844.422 339.2 849.172 338.07 873.012 334.47C896.852 330.87 938.562 339.24 938.562 339.24" fill="black"/>
<defs>
<linearGradient id="paint0_linear" x1="586.042" y1="621.5" x2="586.042" y2="0" gradientUnits="userSpaceOnUse">
<stop stop-color="#808080" stop-opacity="0.25"/>
<stop offset="0.54" stop-color="#808080" stop-opacity="0.12"/>
<stop offset="1" stop-color="#808080" stop-opacity="0.1"/>
</linearGradient>
<linearGradient id="paint1_linear" x1="-20998.9" y1="18049.9" x2="-20998.9" y2="14615.4" gradientUnits="userSpaceOnUse">
<stop stop-color="#808080" stop-opacity="0.25"/>
<stop offset="0.54" stop-color="#808080" stop-opacity="0.12"/>
<stop offset="1" stop-color="#808080" stop-opacity="0.1"/>
</linearGradient>
<linearGradient id="paint2_linear" x1="373733" y1="488073" x2="373733" y2="113109" gradientUnits="userSpaceOnUse">
<stop stop-color="#808080" stop-opacity="0.25"/>
<stop offset="0.54" stop-color="#808080" stop-opacity="0.12"/>
<stop offset="1" stop-color="#808080" stop-opacity="0.1"/>
</linearGradient>
</defs>
</svg>
