
<?xml version="1.0" encoding="UTF-8"?>
<svg fill="none" viewBox="0 0 1058 836" xmlns="http://www.w3.org/2000/svg">
<path transform="translate(164.3)" d="m819.39 563.23c-41.32 30.7-44.88 91-37.78 142 2.38 17.07 5.37 35.26-1.84 50.91-8.82 19.14-30.7 28.94-51.61 31.61-38.11 4.86-78.19-9.65-104.35-37.79-22.61-24.32-34.61-57.13-57.9-80.8-39-39.61-100.67-45.42-156-40.45-39.15 3.51-82.7 10.08-114.31-13.29-22.24-16.45-33-44.7-35.6-72.24-1.24-13.3-1-27.25-7-39.16-3.59-7.08-9.19-12.94-15.13-18.21-54.24-48.11-137.93-53-189.44-104-34.79-34.45-49.19-85.52-48.4-134.47 0.79-48.95 15.19-96.6 31-143 11.21-32.94 24.7-67.7 53.14-87.74 30.01-21.19 71.65-20.82 105.37-6.06 33.72 14.76 60.54 41.94 82.63 71.38 27.61 36.8 50.85 79.6 90.85 102.33 27.29 15.53 59.16 19.74 89.75 26.53 51.13 11.33 100.2 30.35 148.83 49.8 46.56 18.61 93.31 37.88 134.85 66 29.4 19.87 49.92 47 76.71 69.36 17.46 14.57 38.52 23 54.24 39.78 19.36 20.67 33.91 51.43 20 79-13.2 26.19-46.09 32.21-68.01 48.51z" fill="#50319B" opacity=".1"/>
<path transform="translate(529.09 240.69)" d="m227.52 1.2731c-9.46-1-19-1.91-28.5-0.68-8.6 1.12-16 4.52-23.55 8.67-7.55 4.15-14.91 8.29-23.62 7.94s-16.61-4-25-5.33c-8.07-1.24-14.42 0.56-21 5.26-3.87 2.76-7.6305 4.76-12.46 5.16-4.26 0.35-8.54-0.14-12.81-0.19-7.2259-0.2235-14.318 1.9844-20.14 6.27-5.55 4-10.34 9-16.19 12.55-7.49 4.55-14.58 3.67-21.87-0.8-6.59-4-12.64-9.23-20.72-9.58-2.21-0.1-2.21 3.35 0 3.44 7.64 0.33 13.51 5.89 19.78 9.6 5.57 3.29 11.76 5.11 18.15 3.23 12.89-3.8 20.08-17.82 33.38-20.7 8.7-1.88 17.82 1.29 26.43-1.48 3.7805-1.21 6.7805-3.63 10-5.84 3.443-2.53 7.587-3.9277 11.859-4 8.5 0 16.551 3.67 24.831 5.13 7.587 1.3496 15.406 0.2645 22.339-3.1 8.81-4.05 16.671-9.85 26.281-12 10.77-2.44 21.999-1.24 32.869-0.11999 2.17 0.24 2.151-3.2-0.059-3.43z" fill="#D95C6E"/>
<path transform="translate(532.77 177.23)" d="m2.06 4.12c1.1377 0 2.06-0.92229 2.06-2.06 0-1.1377-0.92229-2.06-2.06-2.06-1.1377 0-2.06 0.92229-2.06 2.06 0 1.1377 0.92229 2.06 2.06 2.06z" fill="#F8F9FA"/>
<path transform="translate(538.27 177.23)" d="m2.06 4.12c1.1377 0 2.06-0.92229 2.06-2.06 0-1.1377-0.92229-2.06-2.06-2.06-1.1377 0-2.06 0.92229-2.06 2.06 0 1.1377 0.92229 2.06 2.06 2.06z" fill="#F8F9FA"/>
<path transform="translate(543.78 177.23)" d="m2.06 4.12c1.1377 0 2.06-0.92229 2.06-2.06 0-1.1377-0.92229-2.06-2.06-2.06-1.1377 0-2.06 0.92229-2.06 2.06 0 1.1377 0.92229 2.06 2.06 2.06z" fill="#F8F9FA"/>
<path transform="translate(0 542.86)" d="m7.1172 21.831s-49.57 77.44 112.93 78.77c0 0 2.39-67.38-50.73-95.14-10.329-5.422-22.288-6.8673-33.612-4.0623-11.323 2.8051-21.225 9.6657-27.829 19.282l-0.76 1.15z" fill="#8266C4"/>
<path transform="translate(7.4872 563.39)" d="m-2.7466e-6 -1.4648e-5s83.23 16.4 112.56 80.07" stroke="#535461" stroke-miterlimit="10"/>
<path transform="translate(33.427 382.69)" d="m93.88 250.35s-53.44-69.06-48.56-137.14c2-28.57-4.71-57.11-20.21-81.21-7.3754-11.411-15.781-22.122-25.11-32" stroke="#535461" stroke-miterlimit="10" stroke-width="2"/>
<path transform="translate(.10046 327.36)" d="m36.127 12.422c3.73 9.56-2.76 44.05-2.76 44.05s-28.13-20.99-31.86-30.55c-0.9835-2.2917-1.4959-4.7579-1.5066-7.2517-0.010712-2.4937 0.48044-4.9642 1.4442-7.2642 0.96378-2.3001 2.3805-4.3827 4.1658-6.1239s3.9026-3.1054 6.2261-4.0114c2.3234-0.90601 4.8053-1.3353 7.2981-1.2623 2.4927 0.073015 4.9453 0.64684 7.2117 1.6873 2.2664 1.0404 4.3003 2.5263 5.9806 4.369s2.9726 4.0046 3.8001 6.3572z" fill="#50319B"/>
<path transform="translate(48.873 358.73)" d="m36.654 22.83c-2.06 10.06-26.26 35.48-26.26 35.48s-12.22-32.9-10.16-43c0.43762-2.4414 1.3594-4.7707 2.711-6.8504 1.3516-2.0797 3.1058-3.868 5.1592-5.2593 2.0534-1.3914 4.3644-2.3578 6.797-2.8423s4.9376-0.47726 7.3673 0.02124c2.4298 0.4985 4.7352 1.4782 6.7805 2.8814 2.0454 1.4032 3.7892 3.2015 5.1288 5.289 1.3396 2.0875 2.248 4.422 2.6715 6.8659 0.4236 2.444 0.3537 4.948-0.2053 7.3645l0.01 0.05z" fill="#50319B"/>
<path transform="translate(79.037 441.73)" d="m40.57 30.824c-6.86 7.64-40.57 17.37-40.57 17.37s6.06-34.57 12.91-42.21c3.314-3.5916 7.909-5.7339 12.791-5.9631 4.8816-0.22922 9.6571 1.473 13.293 4.7383s5.8399 7.831 6.135 12.709c0.295 4.8781-1.3427 9.6761-4.5587 13.356z" fill="#50319B"/>
<path transform="translate(92.827 518.43)" d="m37.06 28.792c-5.47 8.69-37.06 24-37.06 24s0.13001-35.09 5.6-43.78c1.2742-2.1198 2.9587-3.9641 4.9547-5.4247 1.996-1.4606 4.2634-2.5083 6.6694-3.0815 2.406-0.57328 4.9022-0.66068 7.3424-0.25708s4.7753 1.2901 6.8685 2.6075c2.0933 1.3174 3.9026 3.0393 5.322 5.0648 1.4195 2.0255 2.4204 4.314 2.9442 6.7312 0.5239 2.4173 0.5601 4.9147 0.1066 7.3461-0.4536 2.4314-1.3877 4.7478-2.7478 6.8137v-0.02z" fill="#50319B"/>
<path transform="translate(12.228 397.31)" d="m11.379 35.764c9.46 4 44.11-1.58 44.11-1.58s-20.18-28.72-29.64-32.72c-2.2521-0.95011-4.6694-1.4473-7.1137-1.4633-2.4443-0.015923-4.8679 0.44976-7.1322 1.3705-2.2644 0.92069-4.3252 2.2784-6.0649 3.9955-1.7396 1.7172-3.1241 3.7601-4.0742 6.0124-0.95011 2.2521-1.4473 4.6694-1.4632 7.1137-0.015922 2.4443 0.44976 4.8678 1.3705 7.1322 0.92069 2.2644 2.2784 4.3252 3.9955 6.0649 1.7171 1.7396 3.7601 3.124 6.0122 4.0741z" fill="#50319B"/>
<path transform="translate(19.449 483.1)" d="m17.318 37.146c10.22 1 41.61-14.71 41.61-14.71s-27.87-21.32-38.09-22.3c-2.4643-0.30023-4.9638-0.10387-7.351 0.57758-2.3872 0.68145-4.6137 1.8341-6.5482 3.39s-3.5377 3.4836-4.7152 5.6691c-1.1774 2.1856-1.9052 4.5848-2.1403 7.0562s0.027153 4.9648 0.77133 7.3332 1.9552 4.5637 3.5616 6.4565c1.6064 1.8927 3.5756 3.4446 5.7915 4.5639 2.2158 1.1194 4.6335 1.7836 7.1102 1.9535v0.0099z" fill="#50319B"/>
<path transform="translate(47.086 566.58)" d="m14.071 36.622c9.91 2.69 43.5-7.47 43.5-7.47s-23.87-25.73-33.78-28.41c-2.3723-0.69134-4.8587-0.90276-7.3137-0.62195s-4.8294 1.0482-6.9843 2.2574c-2.155 1.2092-4.0472 2.8359-5.5661 4.7849-1.5189 1.949-2.6341 4.1812-3.2802 6.5664-0.64612 2.385-0.81026 4.875-0.48283 7.3242s1.1399 4.8086 2.3898 6.9402 2.9123 3.9926 4.8898 5.4742c1.9776 1.4816 4.2306 2.554 6.6275 3.1547z" fill="#50319B"/>
<path transform="translate(.10046 327.36)" d="m36.127 12.422c3.73 9.56-2.76 44.05-2.76 44.05s-28.13-20.99-31.86-30.55c-0.9835-2.2917-1.4959-4.7579-1.5066-7.2517-0.010712-2.4937 0.48044-4.9642 1.4442-7.2642 0.96378-2.3001 2.3805-4.3827 4.1658-6.1239s3.9026-3.1054 6.2261-4.0114c2.3234-0.90601 4.8053-1.3353 7.2981-1.2623 2.4927 0.073015 4.9453 0.64684 7.2117 1.6873 2.2664 1.0404 4.3003 2.5263 5.9806 4.369s2.9726 4.0046 3.8001 6.3572z" fill="#8266C4" opacity=".25"/>
<path transform="translate(48.873 358.73)" d="m36.654 22.83c-2.06 10.06-26.26 35.48-26.26 35.48s-12.22-32.9-10.16-43c0.43762-2.4414 1.3594-4.7707 2.711-6.8504 1.3516-2.0797 3.1058-3.868 5.1592-5.2593 2.0534-1.3914 4.3644-2.3578 6.797-2.8423s4.9376-0.47726 7.3673 0.02124c2.4298 0.4985 4.7352 1.4782 6.7805 2.8814 2.0454 1.4032 3.7892 3.2015 5.1288 5.289 1.3396 2.0875 2.248 4.422 2.6715 6.8659 0.4236 2.444 0.3537 4.948-0.2053 7.3645l0.01 0.05z" fill="#8266C4" opacity=".25"/>
<path transform="translate(79.037 441.73)" d="m40.57 30.824c-6.86 7.64-40.57 17.37-40.57 17.37s6.06-34.57 12.91-42.21c3.314-3.5916 7.909-5.7339 12.791-5.9631 4.8816-0.22922 9.6571 1.473 13.293 4.7383s5.8399 7.831 6.135 12.709c0.295 4.8781-1.3427 9.6761-4.5587 13.356z" fill="#8266C4" opacity=".25"/>
<path transform="translate(92.827 518.43)" d="m37.06 28.792c-5.47 8.69-37.06 24-37.06 24s0.13001-35.09 5.6-43.78c1.2742-2.1198 2.9587-3.9641 4.9547-5.4247 1.996-1.4606 4.2634-2.5083 6.6694-3.0815 2.406-0.57328 4.9022-0.66068 7.3424-0.25708s4.7753 1.2901 6.8685 2.6075c2.0933 1.3174 3.9026 3.0393 5.322 5.0648 1.4195 2.0255 2.4204 4.314 2.9442 6.7312 0.5239 2.4173 0.5601 4.9147 0.1066 7.3461-0.4536 2.4314-1.3877 4.7478-2.7478 6.8137v-0.02z" fill="#8266C4" opacity=".25"/>
<path transform="translate(12.228 397.31)" d="m11.379 35.764c9.46 4 44.11-1.58 44.11-1.58s-20.18-28.72-29.64-32.72c-2.2521-0.95011-4.6694-1.4473-7.1137-1.4633-2.4443-0.015923-4.8679 0.44976-7.1322 1.3705-2.2644 0.92069-4.3252 2.2784-6.0649 3.9955-1.7396 1.7172-3.1241 3.7601-4.0742 6.0124-0.95011 2.2521-1.4473 4.6694-1.4632 7.1137-0.015922 2.4443 0.44976 4.8678 1.3705 7.1322 0.92069 2.2644 2.2784 4.3252 3.9955 6.0649 1.7171 1.7396 3.7601 3.124 6.0122 4.0741z" fill="#8266C4" opacity=".25"/>
<path transform="translate(19.449 483.1)" d="m17.318 37.146c10.22 1 41.61-14.71 41.61-14.71s-27.87-21.32-38.09-22.3c-2.4643-0.30023-4.9638-0.10387-7.351 0.57758-2.3872 0.68145-4.6137 1.8341-6.5482 3.39s-3.5377 3.4836-4.7152 5.6691c-1.1774 2.1856-1.9052 4.5848-2.1403 7.0562s0.027153 4.9648 0.77133 7.3332 1.9552 4.5637 3.5616 6.4565c1.6064 1.8927 3.5756 3.4446 5.7915 4.5639 2.2158 1.1194 4.6335 1.7836 7.1102 1.9535v0.0099z" fill="#8266C4" opacity=".25"/>
<path transform="translate(47.086 566.58)" d="m14.071 36.622c9.91 2.69 43.5-7.47 43.5-7.47s-23.87-25.73-33.78-28.41c-2.3723-0.69134-4.8587-0.90276-7.3137-0.62195s-4.8294 1.0482-6.9843 2.2574c-2.155 1.2092-4.0472 2.8359-5.5661 4.7849-1.5189 1.949-2.6341 4.1812-3.2802 6.5664-0.64612 2.385-0.81026 4.875-0.48283 7.3242s1.1399 4.8086 2.3898 6.9402 2.9123 3.9926 4.8898 5.4742c1.9776 1.4816 4.2306 2.554 6.6275 3.1547z" fill="#8266C4" opacity=".25"/>
<path transform="translate(57.942 500.36)" d="m405.56 0.083209c-19-0.42-39.41 0.53-54.51 8-28 13.82-24.23 41.85-42.49 61.3-15.42 16.42-44.89 24.95-73.47 30.39-46.56 8.8698-95.39 12.19-141.63 21.72-27.26 5.62-54.32 13.79-73 27.77-18.68 13.98-27.06 34.83-14.43 51.37 11.68 15.29 37.41 23.47 60.84 31.39s48.25 18.31 54.77 34.82c3.63 9.19 0.93 19.1 5.17 28.17 8.36 17.9 39.67 26.35 67.8 30.92 22.47 3.65 45.31 6.34 68.33 8 18.39 1.35 37.2 2.06 55.25-0.57 15.63-2.28 30.1-7 45.09-10.63 95.24-23.19 204.78-3.13 301.92-22.77 17.68-3.55 35.07-8.55 48.47-16.73 10-6.08 17.4-13.68 23.63-21.56 15.86-20 24.55-42.43 25.22-64.92 0.4-13.48-2-27.1 1.69-40.38 3.87-13.82 14.2-26.53 19.7-40.12 10-24.7 3-52-18.77-73.37-7.771-7.8761-17.298-13.798-27.8-17.28-8.8-2.82-18.64-3.9-28.33-5-27-2.93-54.35-5.87-81.59-4.22-19.38 1.18-38.35 4.67-57.79 5.3-27.28 0.89-48.65-5.4-73.38-11.31-28.45-6.74-60.46-9.63-90.69-10.29z" fill="#50319B" opacity=".1"/>
<path transform="translate(120.14 289.22)" d="m-6.1035e-7 6.8v267.47l355.88-69.13-6.8-205.14-349.08 6.8z" fill="#DBACA2"/>
<path transform="translate(111.36 275.9)" d="m677.75 335.48v88.4l-376.28 109.94-3.84-1.99-297.63-154.42v-365.51l368.34-11.9 2.27 202.87-14.74 4.54-5.67-189.75-324.14 11.24-2.26 274.84 282.2 123.54 0.22-0.05 371.53-91.75z" fill="#E8C2B8"/>
<path transform="translate(408.99 611.38)" d="m380.12-4.8828e-6v88.4l-376.28 109.94-3.84-1.99 8.59-104.6 371.53-91.75z" fill="#000" opacity=".1"/>
<path transform="translate(127.71 469.56)" d="m207.77 13.46s-182.18 18.18-199.87 44.51-0.14999 58.63-0.14999 58.63l281.64 122.4 381.94-98.6s-10.2-69.14-41.93-77.07-284.5-62.33-284.5-62.33-102-6.24-137.13 12.46z" fill="#EBECF0"/>
<path transform="translate(135.44 469.28)" d="m1.831e-6 58.496l287.31 99.17s306.45-92.92 349.86-84.17c0 0-214.37-76.73-300-73.39-68.24 2.66-139.69 13.86-139.69 13.86s-189.54 19.04-197.48 44.53z" fill="#F8F9FA"/>
<path transform="translate(260.38 356.45)" d="m317.11 235.13l0.07-0.1v-0.06l0.05-0.1v-0.61-0.18-0.21-0.07-0.15-1.11l-0.08-0.25-0.1-0.28v-0.09l-0.08-0.2v-0.11l-0.08-0.19-0.05-0.12-0.08-0.19-0.06-0.13-0.09-0.19-0.06-0.12-0.11-0.21-0.06-0.11-0.15-0.29-0.18-0.34-0.06-0.11-0.13-0.24-0.07-0.13-0.13-0.22-0.08-0.14-0.13-0.22-0.22-0.33-0.14-0.22-0.09-0.14-0.15-0.24-0.08-0.13-0.2-0.32v-0.06l-0.25-0.38-0.08-0.11-0.18-0.27-0.1-0.14-0.17-0.24-0.1-0.15-0.17-0.24-0.11-0.16-0.18-0.2-0.11-0.15-0.19-0.26-0.1-0.13-0.25-0.34v-0.05l-0.29-0.4-0.1-0.14-0.19-0.26-0.13-0.17-0.18-0.24-0.13-0.17-0.18-0.24-0.13-0.16-0.19-0.25-0.13-0.16-0.2-0.26-0.12-0.15-0.24-0.3-0.08-0.1c-0.9-1.14-1.83-2.28-2.76-3.38-2.623-3.117-5.835-5.688-9.452-7.563s-7.568-3.019-11.628-3.367c-0.83-0.07-1.7-0.16-2.58-0.27h-0.37l-0.65-0.09h-0.31l-1-0.14-0.95-0.15-0.33-0.06-0.67-0.12-0.4-0.08-0.61-0.12-0.43-0.09-0.58-0.13-0.44-0.1-0.58-0.14-0.45-0.11-0.57-0.15-0.45-0.12-0.57-0.16c-3-4.46-7.56-8.43-12-9.2-1.223-0.189-2.473-0.125-3.67 0.19l-0.21-0.23-0.3-0.34-0.4-0.51-0.26-0.34-0.42-0.59-0.21-0.29c-0.207-0.3-0.403-0.606-0.59-0.92-0.59-0.262-1.207-0.46-1.84-0.59 8.849-1.34 17.574-3.397 26.09-6.15 0.413-0.156 0.806-0.361 1.17-0.61l0.18-0.06c7.41-2.7 16.51-29 10.11-32.68s-16.17-34-21.9-49.53c-5.73-15.53-22.24-17.18-22.24-17.18s-23.92-18.53-34.7-16.51-12.47-14.15-13.48-14.82c-0.118-0.0975-0.216-0.2162-0.29-0.35-2.6-4.07-23.27-9.5-34.42-12.18-10.9-7.9-23.9-14.03-34.41-16.56-3.511-0.95-7.194-1.0742-10.761-0.3629s-6.921 2.2388-9.799 4.4629c-22.08 1.12-25.6 17.8-25.6 17.8-0.0757 2.2761 0.3192 4.5434 1.16 6.66-1.1929 0.0161-2.3855-0.0473-3.57-0.19 2.56-4.23 2.64-9.67 4.55-14.32 3.77-9.2 14.17-13.95 24-15.19 5.73-0.72 12-0.72 16.52-4.31 2.326-1.8592 3.915-4.4861 4.48-7.41 0.183-0.6314 0.126-1.3082-0.16-1.9-0.28-0.3838-0.656-0.6873-1.09-0.88001-5.92-3.16-13.05-2.34-19.77-2.49-10.92-0.24-21.56-3.23-32.12-6-4.47-1.17-9.3-2.3-13.62-0.63998-4.08 1.56-6.86 5.28-10.13 8.17-13.4 11.82-35.65 10.11-47.57 23.43-2.76 3.09-4.83 7.28-3.82 11.3 0.41 1.64 1.32 3.15 1.61 4.82 0.58 3.3-1.3 6.46-2.89 9.41-1.59 2.95-3 6.53-1.5 9.53 2.27 4.58 9.2 4.24 12.8 7.87 1.67 1.69 2.48 4.11 4.22 5.72 2.79 2.57 7.08 2.37 10.86 2 1.49-0.14 3.72-0.55 4.54-1.86 2.9238 2.7501 6.4463 4.7839 10.29 5.9411 3.8435 1.1573 7.9033 1.4064 11.86 0.7278 3.9562-0.6785 7.7008-2.2664 10.939-4.6383 3.2382-2.372 5.8815-5.4633 7.7217-9.0306 8.1459-0.55 16.242 1.6394 23 6.22 1.0183 3.0015 2.8875 5.6421 5.38 7.6 2.36 1.85 5.17 4.12 8 6.55-7.17 1.89-13.54 3.1-13.54 3.1s-28.3 9.0996-28.3 15.16c0.1004 1.098 0.4419 2.16 1 3.11-0.7165 1.507-1.1213 3.143-1.19 4.81-7.81-1.32-14.06-3.31-17.29-6.24 0 0-0.92-0.25-2.34-0.53-1.9-2.43-7.48-9.18-10.8-8.91-2.21 0.18-3 5.32-3.28 9.92-0.2907 0.252-0.5463 0.541-0.76 0.86-3.37 5.05 2.7 15.16 6.74 16.85s26.28 1 41.44 12.13c6.72 4.93 18.27 5.88 29 5.42-10.79 7.62-25.9 19.33-28 26.59-1.13 3.85-2.46 8.63-2.38 13.54-6.6 8.73-16.59 27.16 8.11 36 20.36 7.27 75.56 6.34 114.89 4.56 18.3 3.23 33.41 6.48 39.75 9.59 0 0 15.16 2 21.23 5.73s17.18 2.7 17.18 2.7 21.56 3.71 26.28 8.42 12.8-8.09 2.7-14.15c-3.94-2.36-9.81-6.25-15.5-10.51 7.31 0.86 13.76 1.8 17.86 2.76l0.41 0.09h3.11l0.11-0.05h0.07l0.1-0.07h0.05l0.13-0.11 0.08-0.24zm-93.07-32.3s-2.84-0.65-7.08-1.65l-8.42-3.4s14.37-4.52 27.68-10.27c3.81 1.67 7.16 3 8 4.21 0.362 0.401 0.855 0.66 1.39 0.73-5 1.24-11.42 4.43-18.95 11.79-0.913-0.391-1.79-0.863-2.62-1.41zm-101.74-81.2l8.31-3.86c1.81 1.54 3.75 3 5.65 4.42-4.56 0.27-10.69 0.57-17.62 0.76 2.12-0.71 3.66-1.32 3.66-1.32z" fill="url(#a)"/>
<path transform="translate(297.32 462.07)" d="m14.55 9.5667s-7.2601-9.86-11.21-9.56c-3.95 0.3-3.3 16.82-3.3 16.82l14.51-7.26z" fill="#FFD5D8"/>
<path transform="translate(295.74 470.02)" d="m109.47 8.2134s-77.18 6.27-91.69-6.93c0 0-13.52-3.63-16.82 1.32-3.3 4.95 2.64 14.84 6.6 16.49 3.96 1.65 25.73 1 40.57 11.87s53.76 2 53.76 2l16.16-6.27-8.58-18.48z" fill="#D95C6E"/>
<path transform="translate(295.74 470.02)" d="m109.47 8.2134s-77.18 6.27-91.69-6.93c0 0-13.52-3.63-16.82 1.32-3.3 4.95 2.64 14.84 6.6 16.49 3.96 1.65 25.73 1 40.57 11.87s53.76 2 53.76 2l16.16-6.27-8.58-18.48z" fill="#D95C6E" opacity=".05"/>
<path transform="translate(335.01 510.69)" d="m180.69 4.4876s-16.49-11.87-50.46 3c-33.97 14.87-118.73 22.76-118.73 22.76s-28.36 28.36 4 39.91 154.35 2 154.35 2 49.8 3.3 65.3 6.93c9.38 2.2 2-8.42-5.35-17.14-2.566-3.055-5.711-5.5729-9.253-7.4091s-7.412-2.9546-11.387-3.2909c-9.74-0.83-23.25-3.89-29.43-14.05 0 0-11.87-5.94-29.68 11.87l-17.18-6.98s47.16-14.84 48.81-24.74c1.65-9.9-0.99-12.86-0.99-12.86z" fill="#FFD5D8"/>
<path transform="translate(335.01 510.69)" d="m180.69 4.4876s-16.49-11.87-50.46 3c-33.97 14.87-118.73 22.76-118.73 22.76s-28.36 28.36 4 39.91 154.35 2 154.35 2 49.8 3.3 65.3 6.93c8.22 1.92 3.55-6-2.64-13.82-3.087-3.9281-6.92-7.2068-11.28-9.6473-4.359-2.4405-9.158-3.9945-14.12-4.5727-9.5-1.08-21.62-4.39-27.37-13.85 0 0-11.87-5.94-29.68 11.87l-17.19-6.98s47.16-14.84 48.81-24.74c1.65-9.9-0.99-12.86-0.99-12.86z" fill="#000" opacity=".05"/>
<path transform="translate(342.53 452.32)" d="m173.5 16.026s-20.78-33-69.92-4.2901l-63 35s-35 22.1-38.26 33.31c-3.26 11.21-8.25 30.34 26.06 37.6 34.31 7.26 114.12 16.49 130.94 24.74 0 0 14.84 2 20.78 5.61s16.82 2.64 16.82 2.64 21.11 3.63 25.73 8.25 12.53-7.92 2.64-13.85-32.32-21.77-32-28-7.59-17.24-15.21-18.58-17.48 9.8896-17.48 9.8896-12.53 2-20.12-3c0 0-38.92-8.9096-42.88-11.54-3.96-2.63-31-12.86-31-12.86s64-0.66 82.78-17.81c0 0 7.26-5.28 13.19-3.63 0.05 0.05 29.4-11.16 10.93-43.48z" fill="#FFD5D8"/>
<path transform="translate(318.48 404.25)" d="m10.54 2.0832s18.8 13.19 33.31 0c14.51-13.19 6.28 40.57 6.28 40.57s-20.12-26.72-50.13-9.23l10.54-31.34z" fill="#FFD5D8"/>
<path transform="translate(318.48 404.25)" d="m10.54 2.0832s18.8 13.19 33.31 0c14.51-13.19 6.28 40.57 6.28 40.57s-20.12-26.72-50.13-9.23l10.54-31.34z" fill="#000" opacity=".05"/>
<path transform="translate(240.54 379.84)" d="m8.0071 139.62s19.79-16.82 31-17.15c3.34-0.1 7.2-3.5 11-8.22 4.8003-5.964 11.132-10.51 18.317-13.152 7.185-2.6419 14.953-3.2808 22.473-1.8481 6.38 1.1801 14.23 1.1501 23.76-1.2101 34.63-8.58 17.48-30 17.48-30l-10.88-9.2299s-14.84-10.22-20.45-9.56c-5.6099 0.66-20.12 15.5-21.77 13.85s-21.77-16.49-25.07-20.45-29.7-16.82-23.1-20.45 39.9-17.15 33.3-19.79c-6.6-2.64-42.22-6.6-56.07 9.8899-13.85 16.49-6.93 117.75 0.01001 127.32z" fill="#F8F9FA"/>
<path transform="translate(240.54 379.84)" d="m8.0071 139.62s19.79-16.82 31-17.15c3.34-0.1 7.2-3.5 11-8.22 4.8003-5.964 11.132-10.51 18.317-13.152 7.185-2.6419 14.953-3.2808 22.473-1.8481 6.38 1.1801 14.23 1.1501 23.76-1.2101 34.63-8.58 17.48-30 17.48-30l-10.88-9.2299s-14.84-10.22-20.45-9.56c-5.6099 0.66-20.12 15.5-21.77 13.85s-21.77-16.49-25.07-20.45-29.7-16.82-23.1-20.45 39.9-17.15 33.3-19.79c-6.6-2.64-42.22-6.6-56.07 9.8899-13.85 16.49-6.93 117.75 0.01001 127.32z" fill="#000" opacity=".05"/>
<path transform="translate(241.86 377.57)" d="m8.0102 139.58s19.79-16.82 31-17.15c3.34-0.1 7.2-3.5 11-8.22 4.7948-5.957 11.117-10.5 18.293-13.143 7.1753-2.6439 14.934-3.2891 22.447-1.8671 6.38 1.1801 14.23 1.1501 23.76-1.21 34.63-8.58 17.48-30 17.48-30l-10.88-9.23s-14.84-10.22-20.45-9.56c-5.6098 0.66-20.12 15.5-21.77 13.85s-21.77-16.49-25.07-20.45-29.65-16.81-23.07-20.4 39.91-17.15 33.31-19.79c-6.6-2.64-42.22-6.6-56.07 9.89-13.85 16.49-6.91 117.71 0.02002 127.28z" fill="#F8F9FA"/>
<path transform="translate(346.49 388.19)" d="m0.0031825 17.484s5.28-25.07 43.87-15.17c38.59 9.9 57.72 31.33 57.72 31.33l-35 16.16-42.88-14.51s-24.03 0.29-23.71-17.81z" fill="#FFD5D8"/>
<path transform="translate(357.45 390.47)" d="m59.636 8.94s37.11 8 40.61 13.51c0.075 0.1306 0.173 0.246 0.29 0.34 1 0.66 2.64 16.49 13.19 14.51s34 16.16 34 16.16 16.16 1.65 21.77 16.82 15.17 44.86 21.44 48.48-2.64 29.35-9.89 32-33.31 8.91-35.62 5.61-22.43-6.93-21.11-17.48 9.23-20.45 3-26.72-10.22-22.76-19.46-26.06c-9.2395-3.3-25.73-4.29-35.62 2.31s-21.84 6.89-21.84 6.89-20.45-11.87-23.75-20.12c-2.22-5.56-13.28-14.86-20.26-20.33-1.8294-1.436-3.3237-3.2535-4.3789-5.3259-1.0552-2.0725-1.646-4.35-1.7311-6.6741-0.29-8.14-0.55-20.14 0.31-22.08 1.32-3 19.46-20.78 19.46-20.78l39.59 8.94z" fill="#000" opacity=".05"/>
<path transform="translate(358.85 389.88)" d="m59.556 8.9s37.11 8 40.61 13.51c0.075 0.1306 0.173 0.246 0.29 0.34 1 0.66 2.64 16.49 13.19 14.51s34 16.16 34 16.16 16.16 1.65 21.77 16.82 15.17 44.86 21.44 48.48-2.64 29.35-9.89 32-33.31 8.91-35.62 5.61-22.43-6.93-21.11-17.48 9.23-20.45 3-26.72-10.22-22.76-19.46-26.06c-9.2395-3.3-25.73-4.29-35.62 2.31s-22.92 7.75-22.92 7.75-19.29-12.7-22.59-20.94c-2.22-5.56-13.28-14.86-20.26-20.33-1.8294-1.436-3.3237-3.2535-4.3789-5.3259-1.0552-2.0725-1.646-4.35-1.7311-6.6741-0.29-8.14-0.55-20.14 0.31-22.08 1.32-3 19.46-20.78 19.46-20.78l39.51 8.9z" fill="#D95C6E"/>
<path transform="translate(330.44 470.32)" d="m2.5375 8.5449e-6c-0.33 0.33-5.94 8.58 0.66 13.19 1.8261 1.3388 3.9356 2.2399 6.1655 2.6335 2.2298 0.3936 4.5204 0.2692 6.6945-0.3635l-13.52-15.46z" fill="#FFD5D8"/>
<path transform="translate(331.66 384.46)" d="m32.95 13.955s8.91-17.81 28-13.19c19.09 4.62 46.83 21.44 53.43 38.26s-25 37.29-25 37.29l-37.6 17.48s-11.54 4.62-14.84 3-19.13 12.52-19.13 12.52-17.81-17.15-17.81-23.09 27.71-14.91 27.71-14.91 33-6.27 32.65-12.53c0 0 5.61-6.6 2.64-8.58s-34.8-11.38-34.8-11.38-1.15-20.91 4.75-24.87z" fill="#000" opacity=".1"/>
<path transform="translate(330.67 383.47)" d="m32.94 13.955s8.91-17.81 28-13.19c19.09 4.62 46.83 21.44 53.43 38.26s-24.99 37.28-24.99 37.28l-37.6 17.48s-11.54 4.62-14.84 3-19.13 12.52-19.13 12.52-17.81-17.15-17.81-23.09 27.71-14.91 27.71-14.91 33-6.27 32.65-12.53c0 0 5.61-6.6 2.64-8.58s-34.8-11.38-34.8-11.38-1.15-20.9 4.74-24.86z" fill="#D95C6E"/>
<path transform="translate(321.44 403.03)" d="m-1.3428e-5 31.34c5.3496-3.2586 11.373-5.2526 17.61-5.83 1.81-3.49-2.94-7.29-2.94-11.49 0-3.52-1.34-4.86-2.64-7.92-4.72-1.71-1.48-6.1-1.48-6.1l-10.55 31.34z" fill="#000" opacity=".1"/>
<path transform="translate(288.12 394.79)" d="m25.4 50.8c14.028 0 25.4-11.372 25.4-25.4s-11.372-25.4-25.4-25.4-25.4 11.372-25.4 25.4 11.372 25.4 25.4 25.4z" fill="#FFD5D8"/>
<path transform="translate(263.77 359.17)" d="m30.707 71.437c5.67-4.38 13.05-5.8499 20.19-6.4899 4.46-0.4 9-0.54 13.28-1.9 2.4615-0.8586 4.8494-1.9154 7.14-3.16 3.06-1.56 6.22-3.2 8.31-5.93 3.26-4.26 3.16-10.16 5.2-15.13 3.69-9 13.87-13.66 23.53-14.87 5.61-0.71 11.74-0.71 16.18-4.22 2.278-1.8185 3.834-4.3886 4.39-7.25 0.178-0.6186 0.121-1.281-0.16-1.8601-0.276-0.3753-0.644-0.67183-1.07-0.85994-5.8-3.09-12.78-2.29-19.35-2.44-10.69-0.23-21.11-3.17-31.45-5.88-4.38-1.15-9.11-2.25-13.33-0.63001-4 1.53-6.71 5.17-9.92 8-13.12 11.58-34.9 9.9-46.57 22.94-2.7 3-4.73 7.13-3.74 11.06 0.41 1.61 1.29 3.08 1.58 4.72 0.57 3.23-1.27 6.33-2.83 9.21-1.56 2.88-2.92 6.4-1.47 9.33 2.23 4.48 9 4.15 12.53 7.7 1.64 1.65 2.42 3.9999 4.13 5.5999 2.74 2.52 6.93 2.32 10.63 2 2-0.19 5.27-0.85 4.7-3.53-0.48-2.4-3.65-3.43-1.9-6.41z" fill="#85596B"/>
<path transform="translate(285.61 436.18)" d="m0 9.5974s17.32-13 28.2-8.74c10.88 4.26 13.85 6.6 20.78 4s9.89 5.28 9.89 5.28l-43.16 12.46-15.71-13z" fill="#F8F9FA"/>
<path transform="translate(262.24 444.1)" d="m4.8828e-6 24.41s7.92-20.45 17.48-24.41z" fill="#000" opacity=".05"/>
<path transform="translate(252.01 437.5)" d="m-6.1035e-6 24.41s7.92-20.45 17.48-24.41z" fill="#000" opacity=".05"/>
<path transform="translate(437.37 444.11)" d="m9.7656e-6 22.75s28-13.52 46.83-12.2 22.1-10.55 22.1-10.55" fill="#000" opacity=".05"/>
<path transform="translate(310.86 779.28)" d="m5.3743 25.133c-2.33-2.17-4.52-4.73-5.2-7.84s0.65-6.85 3.63-8c3.33-1.28 6.9 1 9.6 3.37s5.8 5 9.33 4.5c-1.8181-1.649-3.178-3.7408-3.9474-6.0716-0.7693-2.3308-0.9218-4.8212-0.4426-7.2284 0.155-0.99378 0.5766-1.9269 1.22-2.7 1.85-2 5.21-1.13 7.42 0.43 7 5 9 14.53 9.05 23.15 0.71-3.11 0.11-6.35 0.13-9.54s0.89-6.72 3.58-8.44c1.6754-0.90044 3.559-1.342 5.46-1.28 3.17-0.12 6.7 0.20002 8.86 2.52 2.69 2.88 2 7.71-0.35 10.88s-5.9 5.16-9.17 7.35c-2.6251 1.5648-4.8639 3.701-6.55 6.25-0.1999 0.3562-0.364 0.7314-0.49 1.12h-19.85c-4.4567-2.2564-8.5875-5.1056-12.28-8.47z" fill="#50319B"/>
<path transform="translate(771.43 699.62)" d="m3.3369 15.646c-1.5467-1.2614-2.6731-2.9634-3.23-4.88-0.42-1.94 0.41001-4.26 2.26-5 2.07-0.79 4.29 0.64004 6 2.1 1.71 1.46 3.5999 3.11 5.7999 2.8-1.131-1.025-1.977-2.3256-2.4555-3.7751-0.4784-1.4494-0.573-2.9981-0.2744-4.495 0.0962-0.61858 0.3589-1.1993 0.76-1.68 1.15-1.23 3.24-0.69998 4.62 0.27002 4.38 3.08 5.6 8.9999 5.63 14.39 0.44-1.93 0.0699-3.95 0.0799-5.93 0.01-1.98 0.5501-4.18 2.2301-5.24 1.0428-0.56214 2.2159-0.83814 3.3999-0.79999 2-0.07 4.16 0.13001 5.51 1.57 1.67 1.79 1.2401 4.79-0.2199 6.76-1.46 1.97-3.67 3.21-5.7 4.57-1.6319 0.9742-3.0231 2.3038-4.07 3.8899-0.1223 0.2197-0.2228 0.4508-0.3 0.69h-12.41c-2.7677-1.395-5.3342-3.1576-7.63-5.24z" fill="#50319B"/>
<defs>
<linearGradient id="a" x2="1" gradientTransform="translate(29.553 258.43) scale(258.43) rotate(-90)" gradientUnits="userSpaceOnUse">
<stop stop-color="#808080" stop-opacity=".25" offset="0"/>
<stop stop-color="#808080" stop-opacity=".12" offset=".54"/>
<stop stop-color="#808080" stop-opacity=".1" offset="1"/>
</linearGradient>
</defs>
</svg>
