
<?xml version="1.0" encoding="UTF-8"?>
<svg fill="none" viewBox="0 0 851 573" xmlns="http://www.w3.org/2000/svg">
<path transform="translate(613.8 32)" d="m47-1.2207e-6l-47 4s25 43 47-4z" fill="#D3C4F3"/>
<path transform="translate(577.17 6)" d="m1.6317-1.2207e-6l37.22 29.81s-48.22 19.19-37.22-29.81z" fill="#D3C4F3"/>
<path transform="translate(.80005 .46999)" d="m678.45 7.859e-6h-652.9c-6.7692-0.0053076-13.264 2.678-18.055 7.4599-4.7913 4.7819-7.4873 11.271-7.4952 18.04v380.5c0.0079524 6.769 2.704 13.258 7.4952 18.04 4.7913 4.782 11.286 7.465 18.055 7.46h262.92v93.77h-24.74c-1.616 0-3.166 0.641-4.31 1.783s-1.787 2.691-1.79 4.307v12.64h191.88v-12.66c-3e-3 -1.616-0.646-3.165-1.79-4.307s-2.694-1.783-4.31-1.783h-31.59v-93.78h266.63c6.764 5e-3 13.254-2.674 18.044-7.449 4.791-4.776 7.49-11.257 7.506-18.021v-380.5c-8e-3 -6.7692-2.704-13.258-7.495-18.04-4.792-4.7819-11.286-7.4652-18.055-7.4599z" fill="url(#c)"/>
<path transform="translate(290.88 414.18)" d="m121.27-7.3242e-6h-121.27v117.02h121.27v-117.02z" fill="#474059"/>
<path transform="translate(290.88 520.82)" d="m121.27 7.3242e-6h-121.27v10.38h121.27v-10.38z" fill="#000" opacity=".1"/>
<path transform="translate(260.56 522)" d="m6 0h176.65c1.591 0 3.117 0.63217 4.243 1.7574 1.125 1.1252 1.757 2.6513 1.757 4.2426v12.48h-188.65v-12.48c0-1.5913 0.63214-3.1174 1.7574-4.2426 1.1252-1.1252 2.6514-1.7574 4.2426-1.7574z" fill="#474059"/>
<path transform="translate(7.27 4.47)" d="m667.03 0h-641.91c-13.873 0-25.12 11.247-25.12 25.12v374.86c0 13.873 11.247 25.12 25.12 25.12h641.91c13.873 0 25.12-11.247 25.12-25.12v-374.86c0-13.873-11.247-25.12-25.12-25.12z" fill="#474059"/>
<path transform="translate(21.84 54.12)" d="m661.55-4.8828e-6h-661.55v347.28h661.55v-347.28z" fill="#fff"/>
<path transform="translate(346.79 30.42)" d="m5.83 11.52c3.2198 0 5.83-2.5788 5.83-5.76s-2.6102-5.76-5.83-5.76-5.83 2.5788-5.83 5.76 2.6102 5.76 5.83 5.76z" fill="#fff"/>
<path transform="translate(291.14 429.86)" d="m120.89-1.4648e-5h-120.89v2.28h120.89v-2.28z" fill="#000" opacity=".1"/>
<path transform="translate(342.77 135.22)" d="m49.971 0c-19.309 15.994-33.896 36.946-42.194 60.605-8.298 23.66-9.9935 49.133-4.9042 73.684s16.771 47.251 33.79 65.662c17.019 18.412 38.733 31.839 62.808 38.839l38.56-132.54-88.06-106.25z" fill="#D6D6E3"/>
<path transform="translate(395.74 103.47)" d="m88.06 1.5072e-4c-32.164-0.047615-63.326 11.188-88.06 31.75l88.06 106.25 72.92-117.17c-21.87-13.65-47.14-20.868-72.92-20.83z" fill="#D6D6E3"/>
<path transform="translate(445.24 241.47)" d="m38.56 0l-38.56 132.53c20.369 5.914 41.828 7.057 62.71 3.338 20.882-3.718 40.627-12.198 57.703-24.78 17.076-12.582 31.023-28.93 40.76-47.773s15.002-39.677 15.387-60.885l-138-2.43z" fill="#8499F0"/>
<path transform="translate(80.8 174.47)" d="m50 0h-50v30h50v-30z" fill="#8499F0"/>
<path transform="translate(80.8 226.47)" d="m50 0h-50v30h50v-30z" fill="#FC6681"/>
<path transform="translate(80.8 278.47)" d="m50 0h-50v30h50v-30z" fill="#D3C4F3"/>
<path transform="translate(157.8 183.47)" d="m94 0h-94v12h94v-12z" fill="#D6D6E3"/>
<path transform="translate(157.8 235.47)" d="m94 0h-94v12h94v-12z" fill="#D6D6E3"/>
<path transform="translate(157.8 287.47)" d="m94 0h-94v12h94v-12z" fill="#D6D6E3"/>
<path transform="translate(21.8 53.47)" d="m662 0h-662v12h662v-12z" fill="#D6D6E3"/>
<path transform="translate(26.8 56.47)" d="m3 6c1.6569 0 3-1.3431 3-3 0-1.6568-1.3431-3-3-3-1.6568 0-3 1.3432-3 3 0 1.6569 1.3431 3 3 3z" fill="#FC6681"/>
<path transform="translate(34.8 56.47)" d="m3 6c1.6569 0 3-1.3431 3-3 0-1.6568-1.3431-3-3-3-1.6568 0-3 1.3432-3 3 0 1.6569 1.3431 3 3 3z" fill="#FFC74C"/>
<path transform="translate(42.8 56.47)" d="m3 6c1.6569 0 3-1.3431 3-3 0-1.6568-1.3431-3-3-3-1.6568 0-3 1.3432-3 3 0 1.6569 1.3431 3 3 3z" fill="#85D459"/>
<path transform="translate(505.8 202.62)" d="m150 127.36c0.012-25.493-6.478-50.567-18.856-72.853-12.378-22.286-30.235-41.046-51.884-54.507l-79.26 127.36 150 2.64v-2.64z" fill="url(#b)"/>
<path transform="translate(511.8 207.83)" d="m138 117.17c0.011-23.453-5.96-46.521-17.347-67.024-11.388-20.502-27.817-37.762-47.733-50.147l-72.92 117.17 138 2.47v-2.47z" fill="#D3C4F3"/>
<path transform="translate(612.55 79.822)" d="m238.25 100.31c0-0.387-0.037-0.7571-0.11-1.1104-0.074-0.3533-0.14-0.76-0.2-1.22-0.147-0.8-0.31-1.5733-0.49-2.32-0.094-0.3733-0.19-0.74-0.29-1.1-1.098-4.1322-3.072-7.9795-5.79-11.28l-0.47-0.54c-0.314-0.3466-0.62-0.68-0.92-1s-0.597-0.6066-0.89-0.86c-0.29-0.27-0.58-0.52-0.85-0.75-0.55-0.46-1.06-0.84-1.52-1.16s-0.65-0.44-0.92-0.6c-0.657-0.3994-1.395-0.6455-2.16-0.72l-4.76-0.48-6.44-0.64-23.26-9.18-0.92 0.33c-0.679-1.9038-1.253-3.8433-1.72-5.81 0.707-0.3105 1.335-0.7752 1.84-1.36 0.549-0.4377 0.982-1.0045 1.26-1.65 0.58-1.37-0.54-4.31-0.31-6 0.37-2.69 1.75-5.29 2.86-7.73 2.39-5.24 4.13-10.92 3.85-16.67s-2.86-11.59-7.64-14.8c-2.47-1.66-5.38-2.55-7.94-4.07-2-1.18-3.76-2.72-5.67-4.05-4.66-3.1632-10.071-5.0439-15.688-5.4529-5.617-0.40901-11.243 0.66806-16.312 3.1229-4.83 2.42-8.95 6-13.51 8.94-4.56 2.94-9.93 5.13-15.26 4.28-0.075 0.2176-0.129 0.442-0.16 0.67l-0.45-0.06c-0.92 2.55 1.33 5.06 3.41 6.8 3.94 3.3 8.4 6.59 13.54 6.71 2 0 4.08-0.38 5.89 0.45 0.394 0.1868 0.764 0.4219 1.1 0.7-1.157 4.6405-1.028 9.5085 0.375 14.081 1.402 4.5722 4.025 8.6757 7.585 11.869l-11.87-4.34s-0.5 0.26-1.26 0.75l-16.49-11.15s-33.05-12.26-42.23 6.74 39.79 9.15 39.79 9.15l10.48 5.85c-0.347 2.1955 0.058 4.4438 1.15 6.38l28.57 17.95c-5.77 1.81-15.26 4.7-16.94 4.7-2.45 0-9.18 2.45-13.47 12.24-4.29 9.79-19.59 57.54-33.05 65.49-13.46 7.95-49 61.21-49 61.21l0.1601 0.42c-0.6334 0.166-1.2534 0.353-1.8601 0.56-8.88 2.94-14.86 9.13-18.45 14.15-0.6087 0.846-0.9867 1.835-1.0965 2.872-0.1099 1.036 0.0521 2.083 0.4699 3.038 0.4178 0.954 1.077 1.784 1.9128 2.406 0.8358 0.623 1.8193 1.017 2.8537 1.144 14 1.8 21.67-4.76 25.35-9.72 0.24-0.32 0.4599-0.64 0.6699-0.94 1.0944 0.477 2.3264 0.534 3.4601 0.16l17.16-14.06s-13.37 13.4-5.5499 25.63l-0.6001 0.85c-13.293 19.289-23.026 40.801-28.74 63.52 0 0-7.35 5.51-8 27.54s-8 57.54-8 57.54-4.8999 42.23-1.8399 55.09c0 0 0.35 0.51 1 1.29-0.23 0.28-0.48 0.57-0.76 0.88-2.67 2.93-7.49 7-13.1 5.78-8.57-1.84-8.57 13.47 3.67 14.69 7.88 0.79 23.38 4.37 33.41 6.82 1.1046 0.271 2.2584 0.273 3.3636 4e-3 1.1053-0.269 2.1295-0.8 2.986-1.549 0.8564-0.748 1.5199-1.692 1.9343-2.752 0.4144-1.059 0.5674-2.202 0.4462-3.333-0.6-5.48-1.6901-12.12-3.6701-16.84-0.12-0.29-0.25-0.58-0.38-0.86 0.36-0.34 0.72-0.69 1.08-1.07 0 0 1e-4 -26.93 4.2801-34.28 0 0 11.63-55.7 11-69.78-0.48-11 30.17-53.91 43.51-72l-0.11-0.69c3.53-4.68 5.7-7.48 5.7-7.48l10.41 66.72s4.9 14.69 11 22.65c0 0 26.32 50.8 29.38 66.72 2.32 12.07 7.1 19.2 9.28 21.95-0.25 0.26-0.52 0.52-0.8 0.78-2.78 2.6-6.9 5.2-11.54 4.21-8.57-1.84-8.57 13.47 3.67 14.69 7.88 0.79 23.38 4.37 33.41 6.82 1.104 0.271 2.258 0.273 3.363 4e-3 1.106-0.269 2.13-0.8 2.986-1.549 0.857-0.748 1.52-1.692 1.935-2.751 0.414-1.06 0.567-2.203 0.446-3.334-0.69-6.37-2.06-14.29-4.7-19-0.227-0.394-0.46-0.764-0.7-1.11 0.934-0.383 1.767-0.979 2.43-1.74 0 0-15.91-38.56-15.91-49 0 0-6.73-39.79-29.38-54.48 0 0 2.14-49.76 8.59-77.45 0.16-0.667 0.323-1.334 0.49-2 6.013-0.956 11.974-2.218 17.86-3.78l0.61-18.36 3.06 14.69 34.28-21.42s-0.3-3.86-0.88-9.78c-0.29-3-0.65-6.43-1.08-10.2-0.34-3-0.73-6.21-1.16-9.48-0.107-0.82-0.217-1.64-0.33-2.46-0.45-3.3-0.94-6.64-1.47-9.9-0.2-1.227-0.407-2.44-0.62-3.64-0.28-1.6-0.57-3.17-0.87-4.69-0.154-0.76-0.307-1.51-0.46-2.25-0.154-0.74-0.31-1.467-0.47-2.18-0.16-0.714-0.324-1.41-0.49-2.09l-0.25-1c-0.167-0.667-0.337-1.314-0.51-1.94-0.717-2.611-1.133-5.295-1.24-8-0.04-1.08-0.04-2.157 0-3.23 0.04-1.074 0.14-2.147 0.3-3.22 0.073-0.534 0.16-1.067 0.26-1.6 0.395-2.131 0.977-4.222 1.74-6.25 0.38-1.02 0.806-2.02 1.28-3 1.11-2.31 2.3-4.82 3.52-7.46 0.613-1.334 1.233-2.684 1.86-4.05 0.626-1.367 1.253-2.767 1.88-4.2 6-13.49 11.84-28.53 13.41-38.41 0.17-1 0.28-2 0.35-2.94 0.077-0.875 0.097-1.753 0.06-2.63z" fill="url(#a)"/>
<path transform="translate(686.22 125.04)" d="m62.31 17.427l-20.19-13.66s-32.06-11.87-41 6.53c-8.94 18.4 38.59 8.91 38.59 8.91l20.19 11.28 2.41-13.06z" fill="#F7BBC3"/>
<path transform="translate(766.43 527.7)" d="m41.817 31.036c-9.74-2.37-24.76-5.85-32.41-6.61-11.87-1.19-11.87-16-3.56-14.25 4.51 1 8.5-1.56 11.2-4.08 0.8412-0.78724 1.6295-1.6291 2.36-2.52 0.9792-1.193 2.3321-2.0209 3.84-2.35 4.45-1 13.72-2.44 19.42 0.63001 1.3151 0.81806 2.3777 1.9846 3.07 3.37 2.56 4.54 3.89 12.22 4.56 18.4 0.1193 1.0989-0.0284 2.2103-0.4305 3.24-0.4021 1.0296-1.0466 1.947-1.8789 2.6744-0.8323 0.7273-1.828 1.243-2.9022 1.5034-1.0743 0.2604-2.1955 0.2577-3.2685-0.0078z" fill="#B77983"/>
<path transform="translate(616.23 533.64)" d="m41.817 31.036c-9.74-2.37-24.76-5.85-32.41-6.61-11.87-1.19-11.87-16-3.56-14.25 5.44 1.17 10.12-2.76 12.71-5.6 0.31-0.35 0.6-0.68 0.85-1 0.9792-1.193 2.3321-2.0209 3.84-2.35 4.45-1 13.72-2.44 19.42 0.63 1.67 0.9 3 2.88 4.07 5.43 1.92 4.58 3 11 3.56 16.34 0.1192 1.0989-0.0285 2.2103-0.4305 3.24-0.4021 1.0296-1.0466 1.947-1.879 2.6744-0.8323 0.7273-1.8278 1.243-2.9021 1.5034-1.0742 0.2604-2.1954 0.2577-3.2684-0.0078z" fill="#B77983"/>
<path transform="translate(634.78 533.62)" d="m28.17 7.3058c-14.18 14.61-26.33-0.27004-28.17-2.73 0.31-0.35 0.60004-0.68 0.85004-1 0.97919-1.193 2.3321-2.0209 3.84-2.35 4.45-1 13.72-2.44 19.42 0.63 1.66 0.92 3 2.9 4.06 5.45z" fill="#000" opacity=".1"/>
<path transform="translate(783.48 527.69)" d="m28.68 5.2358c-6.14 4.2-26.82 3.16-26.82 3.16-0.675-0.72051-1.2966-1.4892-1.86-2.3 0.84118-0.78724 1.6295-1.6291 2.36-2.52 0.9792-1.193 2.3321-2.0209 3.84-2.35 4.45-1 13.72-2.44 19.42 0.63001 1.3128 0.8222 2.372 1.9922 3.06 3.38z" fill="#000" opacity=".1"/>
<path transform="translate(633.54 330.68)" d="m179.7 199.48c-4.16 5.34-27.9 4.16-27.9 4.16s-7.12-7.12-10.09-22.56-28.45-64.72-28.45-64.72c-5.94-7.72-10.69-22-10.69-22l-10.09-64.71s-48.73 64.14-48.14 77.81-10.69 67.68-10.69 67.68c-4.16 7.12-4.1601 33.25-4.1601 33.25-15.44 16-28.5-3-28.5-3-3-12.47 1.78-53.43 1.78-53.43s7.12-34.43 7.7199-55.81c0.6-21.38 7.7701-26.69 7.7701-26.69 5.5466-22.025 14.989-42.88 27.88-61.58 3.59-5.14 6-7.88 6-7.88l96.12 11.28c-1.845 4.081-3.234 8.3537-4.14 12.74-6.25 26.86-8.33 75.13-8.33 75.13 22 14.25 28.5 52.84 28.5 52.84-0.03 10.09 15.41 47.49 15.41 47.49z" fill="#605D82"/>
<g fill="#000" opacity=".05">
<path transform="translate(647.21 360.36)" d="m73.46 7.91l-1.23-7.91s-48.64 64.11-48.09 77.78-10.69 67.68-10.69 67.68c-4.16 7.12-4.16 33.25-4.16 33.25-2.4841 2.818-5.6993 4.895-9.29 6 4.68 1.23 10.36 0.33 16.42-6 0 0 0-26.12 4.16-33.25 0 0 11.28-54 10.69-67.68-0.47-10.67 29.26-52.3 42.19-69.87z" opacity=".05"/>
<path transform="translate(685.56 330.67)" d="m112.84 151.99s-6.53-38.59-28.5-52.84c0 0 2.08-48.26 8.33-75.13 0.906-4.3863 2.2944-8.659 4.14-12.74l-96.18-11.28-0.63001 0.75998 89.69 10.52c-1.8456 4.081-3.234 8.3537-4.14 12.74-6.25 26.86-8.33 75.13-8.33 75.13 22 14.25 28.5 52.84 28.5 52.84 0 10.09 15.44 47.5 15.44 47.5-2.45 3.15-11.71 4-18.89 4.22 5.7 0.15 22.58 0.2 26-4.22-0.03 0-15.43-37.4-15.43-47.5z" opacity=".05"/>
</g>
<path transform="translate(635.32 312.27)" d="m32.484 10.09c-0.7155 1.7568-1.6604 3.4111-2.81 4.92-3.57 4.81-11 11.17-24.59 9.43-0.99969-0.1305-1.9486-0.5176-2.7543-1.1236-0.80572-0.606-1.4408-1.4102-1.8436-2.3344-0.40272-0.9243-0.5593-1.937-0.45453-2.9397 0.10477-1.0028 0.4673-1.9613 1.0524-2.7823 3.49-4.86 9.29-10.87 17.9-13.72 2.4558-0.81557 5.0007-1.3326 7.58-1.54l5.92 10.09z" fill="#F7BBC3"/>
<path transform="translate(736.01 138.92)" d="m57.162 17.41l-47.61-17.41s-13.66 7.12-8.31 17.22l46.31 29.09 9.61-28.9z" fill="#D9D9EA"/>
<path transform="translate(736.01 138.92)" d="m57.162 17.41l-47.61-17.41s-13.66 7.12-8.31 17.22l46.31 29.09 9.61-28.9z" fill="#000" opacity=".1"/>
<path transform="translate(769.25 126.46)" d="m25.55 1.1742s-0.59 27.9 11.87 37.4-36.22 14.84-36.22 14.84 7.72-28.5 0-43.34c-7.72-14.84 24.35-8.9 24.35-8.9z" fill="#F7BBC3"/>
<path transform="translate(679.66 330.7)" d="m102.14 11.26c-1.846 4.081-3.234 8.3537-4.14 12.74-57.42 8.77-97.38-15.12-97.38-15.12-0.22-0.34-0.43-0.69-0.61999-1 3.59-5.14 6-7.88 6-7.88l96.14 11.26z" fill="#000" opacity=".1"/>
<path transform="translate(654.29 312.27)" d="m13.51 10.09c-0.7155 1.7568-1.6604 3.4111-2.81 4.92-5.5-0.91-9.89-11.42-10.7-13.47 2.4557-0.81557 5.0007-1.3326 7.58-1.54l5.93 10.09z" fill="#000" opacity=".1"/>
<path transform="translate(655.91 152.57)" d="m143.68 6.1035e-6l-21.37 7.72-8.91 11.87s-18.4 5.94-20.78 5.94-8.91 2.37-13.06 11.87-19 55.81-32.06 63.53-47.5 59.37-47.5 59.37 5.94 16 13.06 13.66l16.63-13.66s-13.06 13.06-5.34 24.94c0 0 48.68 29.09 115.77 11.28l0.59-17.81 3 14.25 33.18-20.79s-3-38.32-8.34-57.83c-2.223-8.198-1.41-16.924 2.29-24.57 8.62-18 21.92-48 20.3-58.91-1.91-12.89-9.2-18.49-12-20.19-0.637-0.3824-1.351-0.6181-2.09-0.69001l-10.81-1.08-22.56-8.9z" fill="#D9D9EA"/>
<path transform="translate(688.86 212.23)" d="m74.22 9.7656e-6s-11.88 55.24-24.94 64.12-48.09 37.4-49.28 42.15" fill="#000" opacity=".05"/>
<path transform="translate(683.52 210.47)" d="m74.21 0s-11.87 55.2-24.93 64.1-48.09 37.4-49.28 42.15" fill="#D9D9EA"/>
<path transform="translate(769.01 161.18)" d="m2.1973e-5 10.685s41-13.66 52.84-10.09z" fill="#000" opacity=".1"/>
<g fill="#000" opacity=".05">
<path transform="translate(798.88 162.1)" d="m27.92 80.25c8.62-18 21.92-48 20.3-58.91-1.91-12.89-9.2-18.49-12-20.19-0.6367-0.38238-1.3508-0.6181-2.09-0.69l-4.62-0.45999c0.4824 0.11593 0.9444 0.30476 1.37 0.56 2.78 1.7 10.07 7.29 12 20.19 1.62 10.94-11.68 40.94-20.3 58.91-3.6996 7.6464-4.5128 16.372-2.29 24.57 5.36 19.5 8.34 57.83 8.34 57.83l-28.63 17.89 0.7301 3.48 33.19-20.79s-3-38.32-8.34-57.83c-2.2048-8.2012-1.3738-16.923 2.34-24.56z" opacity=".05"/>
<path transform="translate(797.59 152.57)" d="m19.22 8.31l5.14 0.51998-22.36-8.83-2 0.71999 19.22 7.59z" opacity=".05"/>
</g>
<path transform="translate(757.73 259.73)" d="m-7.3242e-6 8.31s18.4-10.09 24.34-7.72c5.94 2.37 27.9-0.59 27.9-0.59" fill="#000" opacity=".05"/>
<path transform="translate(769.31 128.86)" d="m23.493 6.1909c-0.68-6 2.08-5 2.08-5s-32.08-5.98-24.38 8.8601c1.9549 4.0915 3.0767 8.5309 3.3 13.06h0.29999c8.9 0 14.1-9.9601 18.7-16.92z" fill="#000" opacity=".05"/>
<path transform="translate(748.53 98.54)" d="m25.53 51.06c14.1 0 25.53-11.43 25.53-25.53s-11.43-25.53-25.53-25.53-25.53 11.43-25.53 25.53 11.43 25.53 25.53 25.53z" fill="#F7BBC3"/>
<path transform="translate(725.84 87.828)" d="m76.075 43.792c2.32-5.08 4-10.59 3.73-16.17s-2.78-11.24-7.41-14.36c-2.4-1.61-5.22-2.48-7.7-3.95-1.94-1.15-3.65-2.64-5.5-3.93-4.5247-3.0754-9.7803-4.9037-15.237-5.3004-5.4565-0.39678-10.921 0.65193-15.843 3.0404-4.69 2.35-8.68 5.85-13.1 8.67-4.42 2.82-9.63 5-14.81 4.15-0.89 2.47 1.29 4.91 3.31 6.6 3.82 3.2 8.15 6.4 13.13 6.51 1.93 0 4-0.37 5.71 0.44 1.1813 0.6496 2.1842 1.5804 2.92 2.71 2.396 3.1852 4.4254 6.6303 6.05 10.27 0.67 1.49 1.34 3.11 2.71 4 2.29 1.47 5.27 0.25 8 0.14 4.23-0.16 8 2.5 11.16 5.34s6.11 6.1 10.06 7.6c3 1.12 8.85 1.08 10.35-2.44 0.57-1.33-0.52-4.18-0.3-5.8 0.35-2.67 1.65-5.15 2.77-7.52z" fill="#000" opacity=".1"/>
<path transform="translate(726.44 87.238)" d="m76.075 43.792c2.32-5.08 4-10.59 3.73-16.17s-2.7799-11.24-7.4099-14.36c-2.4-1.61-5.22-2.48-7.7-3.95-1.94-1.15-3.65-2.64-5.5-3.93-4.5247-3.0754-9.7802-4.9037-15.237-5.3004-5.4565-0.39677-10.921 0.65194-15.843 3.0404-4.69 2.35-8.68 5.85-13.1 8.67-4.42 2.82-9.63 5-14.81 4.15-0.89 2.47 1.29 4.91 3.31 6.6 3.82 3.2 8.15 6.4 13.13 6.51 1.93 0 4-0.37 5.71 0.44 1.1813 0.6496 2.1842 1.5804 2.92 2.71 2.4092 3.1802 4.4522 6.6219 6.09 10.26 0.67 1.49 1.34 3.11 2.71 4 2.29 1.47 5.27 0.25 8 0.14 4.23-0.16 8 2.5 11.16 5.34s6.11 6.1 10.06 7.6c3 1.12 8.85 1.08 10.35-2.44 0.57-1.33-0.52-4.18-0.3-5.8 0.31-2.63 1.6499-5.15 2.7299-7.51z" fill="#A1616A"/>
<defs>
<linearGradient id="c" x2="1" gradientTransform="translate(80 544) scale(544) rotate(-90)" gradientUnits="userSpaceOnUse">
<stop stop-color="#808080" stop-opacity=".25" offset="0"/>
<stop stop-color="#808080" stop-opacity=".12" offset=".54"/>
<stop stop-color="#808080" stop-opacity=".1" offset="1"/>
</linearGradient>
<linearGradient id="b" x2="1" gradientTransform="translate(111150 60730.8) scale(19500 16900) rotate(-90)" gradientUnits="userSpaceOnUse">
<stop stop-color="#808080" stop-opacity=".25" offset="0"/>
<stop stop-color="#808080" stop-opacity=".12" offset=".54"/>
<stop stop-color="#808080" stop-opacity=".1" offset="1"/>
</linearGradient>
<linearGradient id="a" x2="1" gradientTransform="translate(169337 348091) scale(117333 242518) rotate(-90)" gradientUnits="userSpaceOnUse">
<stop stop-color="#808080" stop-opacity=".25" offset="0"/>
<stop stop-color="#808080" stop-opacity=".12" offset=".54"/>
<stop stop-color="#808080" stop-opacity=".1" offset="1"/>
</linearGradient>
</defs>
</svg>
