
<?xml version="1.0" encoding="UTF-8"?>
<svg viewBox="0 0 966 801" xmlns="http://www.w3.org/2000/svg">
<path d="m901.88 442.5c-37.09 60-30.139 141.74-13.849 206.19 5.45 21.58 11.73 44.36 7.07 68.51-5.7 29.53-26.48 52.72-47.51 66-38.34 24.15-82.12 23.48-114-1.77-27.53-21.81-45.661-59.85-73.771-80.49-47-34.55-111.54-13.61-167.58 18.68-39.63 22.79-83.25 51.79-119.88 35.37-25.77-11.53-41.84-44.06-49.34-79.46-3.62-17.09-5.81-35.76-14.11-48.78-4.94-7.74-11.73-12.92-18.77-17.17-64.25-38.74-151.18-6.35-213.14-50.22-41.85-29.62-65.64-90.8-73.46-156.22-7.82-65.42-1.39-135.42 6.66-204.34 5.73-49 13.48-101.42 39.2-141.27 27.21-42.15 70.1-61 107.38-57 37.28 4 69.65 27.62 97.55 56.49 34.87 36.08 66.32 82.16 111.45 93.8 30.74 7.93 64.31-1.25 97-6.44 54.58-8.68 108.4-6.19 161.84-2.93 51.16 3.12 102.63 7 150.3 25 33.73 12.75 59.62 39.29 91.1 56.55 20.52 11.25 43.67 12.68 62.79 27.68 23.55 18.48 43.93 52.59 34.5 95.71-8.99 41.02-41.75 64.27-61.43 96.11z" fill="#EEEBF5"  />
<path transform="translate(664.49 100.14)" d="m-1.709e-5 206.74s101-84.63 123.46-127.3 51.05-79.44 51.05-79.44" stroke="#535461" stroke-miterlimit="10" stroke-width="2"/>
<path transform="translate(782.03 185.68)" d="m43.69 9.85l-43.69-9.85s10.31 46.08 43.69 9.85z" fill="#EEEBF5" />
<path transform="translate(752.36 148.48)" d="m6.6073 1.831e-6l25.14 37.65s-49.15 3.55-25.14-37.65z" fill="#EEEBF5" />
<path transform="translate(802.98 153.14)" d="m39.93 7l-39.93-7s25.08 38.15 39.93 7z" fill="#EEEBF5" />
<path transform="translate(780 126.48)" d="m3.8186 1.831e-6l19.67 25.76s-34.82 3.3-19.67-25.76z" fill="#EEEBF5" />
<path transform="translate(823.63 121.36)" d="m-2.4414e-6 -3.0518e-6s34 1.62 38 4.87-5.07 22.3-18 19.19-20-24.06-20-24.06z" fill="#EEEBF5" />
<path transform="translate(797.38 90.965)" d="m12.658-2.4414e-6s13.89 25.31 13.37 30.13-21.17 10.23-25.34-8c-4.17-18.23 11.97-22.13 11.97-22.13z" fill="#EEEBF5" />
<path transform="translate(832.36 113.62) scale(.99624) rotate(-72.474)" d="m9.49 18.98c5.2412 0 9.49-4.2488 9.49-9.49 0-5.2412-4.2488-9.49-9.49-9.49-5.2412 0-9.49 4.2488-9.49 9.49 0 5.2412 4.2488 9.49 9.49 9.49z" fill="#FFD037"/>
<path transform="translate(817.56 103.89) scale(.99624) rotate(-72.474)" d="m9.49 18.98c5.2412 0 9.49-4.2488 9.49-9.49 0-5.2412-4.2488-9.49-9.49-9.49s-9.49 4.2488-9.49 9.49c0 5.2412 4.2489 9.49 9.49 9.49z" fill="#FFD037"/>
<path transform="translate(102.09 397.34)" d="m247.37 241.28s16.21-48.22-86.55-106.35c0 0-104.34-30.43-93.67-134.93 0 0-120.28 88.12-38.89 200.37 81.39 112.25 151.64 87.75 151.64 87.75l67.47-46.84z" fill="#EEEBF5" />
<path transform="translate(155.5 397.34)" d="m162.64 263.06s-50.14-54.19-98.2-75.14c-9.6006-4.321-18.422-10.197-26.11-17.39-30.64-28-44-70.25-36.1-111l11.55-59.53" stroke="#535461" stroke-miterlimit="10" stroke-width="2"/>
<path transform="translate(193.07 33.195)" d="M570.61 0H7.32422e-06V662.53H570.61V0Z" fill="url(#b)"/>
<path transform="translate(199.72 40.905)" d="M557.32 0H0V647.09H557.32V0Z" fill="#F7F7FD"/>
<path transform="translate(233.38 113.84)" d="M140.89 0H4.88281e-06V11.22H140.89V0Z" fill="#E2E2EC"/>
<path transform="translate(233.38 141.28)" d="M240.63 0H4.88281e-06V11.22H240.63V0Z" fill="#E2E2EC"/>
<path transform="translate(630.36 103.12)" d="m99.99-2.7466e-6h-99.99v86.28h99.99v-86.28z" fill="#fff"/>
<path transform="translate(629.82 102.62)" d="m100 1v85.28h-99v-85.28h99zm1-1h-101v87.28h101v-87.28z" fill="#E2E2EC"/>
<path transform="translate(529.37 103.12)" d="m99.99-2.7466e-6h-99.99v86.28h99.99v-86.28z" fill="#fff"/>
<path transform="translate(528.82 102.62)" d="m100 1v85.28h-99v-85.28h99zm1-1h-101v87.28h101v-87.28z" fill="#E2E2EC"/>
<path transform="translate(630.36 190.4)" d="m99.99 3.6621e-6h-99.99v86.28h99.99v-86.28z" fill="#fff"/>
<path transform="translate(629.82 189.9)" d="M100 1V86.28H1V1H100ZM101 0H0V87.28H101V0Z" fill="#E2E2EC"/>
<path transform="translate(529.37 190.4)" d="m99.99 3.6621e-6h-99.99v86.28h99.99v-86.28z" fill="#fff"/>
<path transform="translate(528.82 189.9)" d="M100 1V86.28H1V1H100ZM101 0H0V87.28H101V0Z" fill="#E2E2EC"/>
<path transform="translate(428.38 190.4)" d="m99.99 3.6621e-6h-99.99v86.28h99.99v-86.28z" fill="#fff"/>
<path transform="translate(427.87 189.9)" d="m100 1v85.28h-99v-85.28h99zm1-1h-101v87.28h101v-87.28z" fill="#E2E2EC"/>
<path transform="translate(327.39 190.4)" d="m99.99 3.6621e-6h-99.99v86.28h99.99v-86.28z" fill="#fff"/>
<path transform="translate(326.88 189.9)" d="m100 1v85.28h-99v-85.28h99zm1-1h-101v87.28h101v-87.28z" fill="#E2E2EC"/>
<path transform="translate(226.4 190.4)" d="m99.99 3.6621e-6h-99.99v86.28h99.99v-86.28z" fill="#fff"/>
<path transform="translate(225.89 189.9)" d="m100 1v85.28h-99v-85.28h99zm1-1h-101v87.28h101v-87.28z" fill="#E2E2EC"/>
<path transform="translate(630.36 277.68)" d="m99.99-7.3242e-6h-99.99v86.28h99.99v-86.28z" fill="#fff"/>
<path transform="translate(629.82 277.18)" d="m100 1v85.28h-99v-85.28h99zm1-1h-101v87.28h101v-87.28z" fill="#E2E2EC"/>
<path transform="translate(529.37 277.68)" d="m99.99-7.3242e-6h-99.99v86.28h99.99v-86.28z" fill="#fff"/>
<path transform="translate(528.82 277.18)" d="m100 1v85.28h-99v-85.28h99zm1-1h-101v87.28h101v-87.28z" fill="#E2E2EC"/>
<path transform="translate(428.38 277.68)" d="m99.99-7.3242e-6h-99.99v86.28h99.99v-86.28z" fill="#fff"/>
<path transform="translate(427.87 277.18)" d="m100 1v85.28h-99v-85.28h99zm1-1h-101v87.28h101v-87.28z" fill="#E2E2EC"/>
<path transform="translate(327.39 277.68)" d="m99.99-7.3242e-6h-99.99v86.28h99.99v-86.28z" fill="#fff"/>
<path transform="translate(326.88 277.18)" d="m100 1v85.28h-99v-85.28h99zm1-1h-101v87.28h101v-87.28z" fill="#E2E2EC"/>
<path transform="translate(226.4 277.68)" d="m99.99-7.3242e-6h-99.99v86.28h99.99v-86.28z" fill="#fff"/>
<path transform="translate(225.89 277.18)" d="m100 1v85.28h-99v-85.28h99zm1-1h-101v87.28h101v-87.28z" fill="#E2E2EC"/>
<path transform="translate(630.36 364.96)" d="m99.99-8.5449e-6h-99.99v86.28h99.99v-86.28z" fill="#fff"/>
<path transform="translate(629.82 364.46)" d="m100 0.99999v85.28h-99v-85.28h99zm1-1h-101v87.28h101v-87.28z" fill="#E2E2EC"/>
<path transform="translate(529.37 364.96)" d="m99.99-8.5449e-6h-99.99v86.28h99.99v-86.28z" fill="#fff"/>
<path transform="translate(528.82 364.46)" d="m100 0.99999v85.28h-99v-85.28h99zm1-1h-101v87.28h101v-87.28z" fill="#E2E2EC"/>
<path transform="translate(428.38 364.96)" d="m99.99-8.5449e-6h-99.99v86.28h99.99v-86.28z" fill="#fff"/>
<path transform="translate(427.87 364.46)" d="m100 0.99999v85.28h-99v-85.28h99zm1-1h-101v87.28h101v-87.28z" fill="#E2E2EC"/>
<path transform="translate(327.39 364.96)" d="m99.99-8.5449e-6h-99.99v86.28h99.99v-86.28z" fill="#fff"/>
<path transform="translate(326.88 364.46)" d="m100 0.99999v85.28h-99v-85.28h99zm1-1h-101v87.28h101v-87.28z" fill="#E2E2EC"/>
<path transform="translate(226.4 364.96)" d="m99.99-8.5449e-6h-99.99v86.28h99.99v-86.28z" fill="#fff"/>
<path transform="translate(225.89 364.46)" d="m100 0.99999v85.28h-99v-85.28h99zm1-1h-101v87.28h101v-87.28z" fill="#E2E2EC"/>
<path transform="translate(630.36 452.22)" d="m99.99 1.0986e-5h-99.99v86.28h99.99v-86.28z" fill="#fff"/>
<path transform="translate(629.82 451.74)" d="m100 0.99999v85.27h-99v-85.27h99zm1-1h-101v87.27h101v-87.27z" fill="#E2E2EC"/>
<path transform="translate(529.37 452.22)" d="m99.99 1.0986e-5h-99.99v86.28h99.99v-86.28z" fill="#fff"/>
<path transform="translate(528.82 451.74)" d="m100 0.99999v85.27h-99v-85.27h99zm1-1h-101v87.27h101v-87.27z" fill="#E2E2EC"/>
<path transform="translate(428.38 452.22)" d="m99.99 1.0986e-5h-99.99v86.28h99.99v-86.28z" fill="#fff"/>
<path transform="translate(427.87 451.74)" d="m100 0.99999v85.27h-99v-85.27h99zm1-1h-101v87.27h101v-87.27z" fill="#E2E2EC"/>
<path transform="translate(327.39 452.22)" d="m99.99 1.0986e-5h-99.99v86.28h99.99v-86.28z" fill="#fff"/>
<path transform="translate(326.88 451.74)" d="m100 0.99999v85.27h-99v-85.27h99zm1-1h-101v87.27h101v-87.27z" fill="#E2E2EC"/>
<path transform="translate(226.4 452.22)" d="m99.99 1.0986e-5h-99.99v86.28h99.99v-86.28z" fill="#fff"/>
<path transform="translate(225.89 451.74)" d="m100 0.99999v85.27h-99v-85.27h99zm1-1h-101v87.27h101v-87.27z" fill="#E2E2EC"/>
<path transform="translate(630.36 539.5)" d="m99.99 9.7656e-6h-99.99v86.28h99.99v-86.28z" fill="#fff"/>
<path transform="translate(629.82 539)" d="m100 0.99998v85.28h-99v-85.28h99zm1-1h-101v87.28h101v-87.28z" fill="#E2E2EC"/>
<path transform="translate(529.37 539.5)" d="m99.99 9.7656e-6h-99.99v86.28h99.99v-86.28z" fill="#fff"/>
<path transform="translate(528.82 539)" d="m100 0.99998v85.28h-99v-85.28h99zm1-1h-101v87.28h101v-87.28z" fill="#E2E2EC"/>
<path transform="translate(428.38 539.5)" d="m99.99 9.7656e-6h-99.99v86.28h99.99v-86.28z" fill="#fff"/>
<path transform="translate(427.87 539)" d="m100 0.99998v85.28h-99v-85.28h99zm1-1h-101v87.28h101v-87.28z" fill="#E2E2EC"/>
<path transform="translate(327.39 539.5)" d="m99.99 9.7656e-6h-99.99v86.28h99.99v-86.28z" fill="#fff"/>
<path transform="translate(326.88 539)" d="m100 0.99998v85.28h-99v-85.28h99zm1-1h-101v87.28h101v-87.28z" fill="#E2E2EC"/>
<path transform="translate(226.4 539.5)" d="m99.99 9.7656e-6h-99.99v86.28h99.99v-86.28z" fill="#fff"/>
<path transform="translate(225.89 539)" d="m100 0.99998v85.28h-99v-85.28h99zm1-1h-101v87.28h101v-87.28z" fill="#E2E2EC"/>
<path transform="translate(374.54 679.74)" d="m61.884 25.143c2.86-2.17 5.55-4.73 6.38-7.85 0.426-1.6511 0.2005-3.4028-0.6298-4.8921s-2.2017-2.6022-3.8301-3.1079c-4.09-1.28-8.4601 1-11.78 3.37s-7.11 5-11.45 4.51c4.49-3.25 6.63-8.52 5.39-13.31-0.2126-1.032-0.736-1.9743-1.5-2.7-2.27-2-6.39-1.13-9.11 0.42999-8.65 5-11.06 14.55-11.11 23.18-0.87-3.11-0.1401-6.35-0.1601-9.55s-1.09-6.73-4.39-8.45c-2.1118-0.91565-4.3991-1.356-6.7-1.29-3.89-0.12-8.22 0.20002-10.87 2.52-3.3 2.88-2.44 7.72 0.43 10.89 2.87 3.17 7.24 5.16 11.25 7.35 3.06 1.67 6.1601 3.62 8.0001 6.26 0.2412 0.3497 0.4424 0.7254 0.5999 1.12h24.37c5.3681-2.1907 10.444-5.0391 15.11-8.48z" fill="#EEEBF5" />
<path transform="translate(233.89 197.82)" d="m5.7 11.4c3.148 0 5.7-2.552 5.7-5.7s-2.552-5.7-5.7-5.7c-3.148 0-5.7 2.552-5.7 5.7s2.552 5.7 5.7 5.7z" fill="#FC6681"/>
<path transform="translate(248.13 197.82)" d="m5.7 11.4c3.148 0 5.7-2.552 5.7-5.7s-2.552-5.7-5.7-5.7-5.7 2.552-5.7 5.7 2.552 5.7 5.7 5.7z" fill="#FFD037"/>
<path transform="translate(435.17 282.32)" d="m5.7 11.4c3.148 0 5.7-2.552 5.7-5.7s-2.552-5.7-5.7-5.7c-3.148 0-5.7 2.552-5.7 5.7s2.552 5.7 5.7 5.7z" fill="#74E4A2"/>
<path transform="translate(449.42 282.32)" d="m5.7 11.4c3.148 0 5.7-2.552 5.7-5.7s-2.552-5.7-5.7-5.7c-3.148 0-5.7 2.552-5.7 5.7s2.552 5.7 5.7 5.7z" fill="#74E4A2"/>
<path transform="translate(739.94 445.62)" d="m5.7 11.4c3.148 0 5.7-2.552 5.7-5.7 0-3.148-2.552-5.7-5.7-5.7-3.148 0-5.7 2.552-5.7 5.7 0 3.148 2.552 5.7 5.7 5.7z" fill="#74E4A2"/>
<path transform="translate(742.79 438.98)" d="m5.7 11.4c3.148 0 5.7-2.552 5.7-5.7 0-3.148-2.552-5.7-5.7-5.7s-5.7 2.552-5.7 5.7c0 3.148 2.552 5.7 5.7 5.7z" fill="#EEEBF5" />
<path transform="translate(745.64 433.28)" d="m5.7 11.4c3.148 0 5.7-2.552 5.7-5.7s-2.552-5.7-5.7-5.7c-3.148 0-5.7 2.552-5.7 5.7s2.552 5.7 5.7 5.7z" fill="#EEEBF5" />
<path transform="translate(639.3 197.82)" d="m5.7 11.4c3.148 0 5.7-2.552 5.7-5.7s-2.552-5.7-5.7-5.7-5.7 2.552-5.7 5.7 2.552 5.7 5.7 5.7z" fill="#EEEBF5" />
<path transform="translate(653.54 197.82)" d="m5.7 11.4c3.148 0 5.7-2.552 5.7-5.7s-2.552-5.7-5.7-5.7-5.7 2.552-5.7 5.7 2.552 5.7 5.7 5.7z" fill="#EEEBF5" />
<path transform="translate(667.79 197.82)" d="m5.7 11.4c3.148 0 5.7-2.552 5.7-5.7s-2.552-5.7-5.7-5.7-5.7 2.552-5.7 5.7 2.552 5.7 5.7 5.7z" fill="#EEEBF5" />
<path transform="translate(682.03 197.82)" d="m5.7 11.4c3.148 0 5.7-2.552 5.7-5.7s-2.552-5.7-5.7-5.7-5.7 2.552-5.7 5.7 2.5519 5.7 5.7 5.7z" fill="#EEEBF5" />
<path transform="translate(639.3 374.42)" d="m5.7 11.4c3.148 0 5.7-2.552 5.7-5.7 0-3.148-2.552-5.7-5.7-5.7s-5.7 2.552-5.7 5.7c0 3.148 2.552 5.7 5.7 5.7z" fill="#EEEBF5" />
<path transform="translate(653.54 374.42)" d="m5.7 11.4c3.148 0 5.7-2.552 5.7-5.7 0-3.148-2.552-5.7-5.7-5.7s-5.7 2.552-5.7 5.7c0 3.148 2.552 5.7 5.7 5.7z" fill="#EEEBF5" />
<path transform="translate(667.79 374.42)" d="m5.7 11.4c3.148 0 5.7-2.552 5.7-5.7 0-3.148-2.552-5.7-5.7-5.7s-5.7 2.552-5.7 5.7c0 3.148 2.552 5.7 5.7 5.7z" fill="#EEEBF5" />
<path transform="translate(682.03 374.42)" d="m5.7 11.4c3.148 0 5.7-2.552 5.7-5.7 0-3.148-2.552-5.7-5.7-5.7s-5.7 2.552-5.7 5.7c0 3.148 2.5519 5.7 5.7 5.7z" fill="#EEEBF5" />
<path transform="translate(334.53 282.32)" d="m5.7 11.4c3.148 0 5.7-2.552 5.7-5.7s-2.552-5.7-5.7-5.7-5.7 2.552-5.7 5.7 2.552 5.7 5.7 5.7z" fill="#FFD037"/>
<path transform="translate(233.89 368.72)" d="m5.7 11.4c3.148 0 5.7-2.552 5.7-5.7 0-3.148-2.552-5.7-5.7-5.7-3.148 0-5.7 2.552-5.7 5.7 0 3.148 2.552 5.7 5.7 5.7z" fill="#FC6681"/>
<path transform="translate(737.34 145.39)" d="m3.3866 320.23c6.25 3.69 16 6.09 28.35-1.84l-0.12 17.56c0.88 12 15.77 55.91 15.77 55.91l10.5 36.1c7.5236 25.503 11.409 51.941 11.54 78.53 0 8.81 0.82 17.89 3.35 24.72 5.59 15.11-2.2 34.58-5.58 41.83-5.6894 1.922-11.474 3.551-17.33 4.88-0.5268 0.121-1.0446 0.278-1.55 0.47l-0.07-0.1s-15.76 6.25-22.76 5.39c-5.22-0.64-8.49 5.87-4.4 10.66-3.86 1-7.82 1.71-10.49 1.38-7-0.86-10.51 11.18 2.63 14.62 13.14 3.44 87.59 0 87.59 0 2.094-1.048 3.78-2.761 4.794-4.872s1.297-4.499 0.806-6.788c5.72-0.22 9.29-0.39 9.29-0.39s13.14-6 0-22.37l-0.7 0.53-2.81-8.27v-11.17s16.64-80 11.39-89.46-7.88-57.63-7.88-57.63l1.78-52.47c4.75-9.8 7.18-25.16 8.41-37.17 1.787-5.73 2.914-11.645 3.36-17.63 0.21-2.82 0.38-5.78 0.49-8.85 0.044-6.734-1.059-13.426-3.26-19.79 5-7.2 13.13-18.33 19.84-24.91 10.51-10.32 7.88-22.37 7.88-22.37l-4.38-29.25-10.51-49.89c1.32-13.84-1.57-21.81-4.76-26.31 0.76-4.47 1.47-8.94 2-13.43 2.329-19.525 1.291-39.306-3.07-58.48-1.52-6.69-3.59-13.55-8.28-18.62-5.31-5.74-13.93-9.24-15.91-16.76-0.49-1.87-0.51-3.86-1.22-5.66-1.92-4.92-8-6.71-13.32-7.35-9.48-1.15-23.19-2-32.3 1.7-6.36 2.6-15.12 9.76-18.6 17.44-2 3.53-2.93 7.24-2.08 10.73 0.3352 1.2859 0.8432 2.5205 1.51 3.67-1.3572 3.6784-2.048 7.5692-2.04 11.49 0.0316 6.7397 2.0918 13.314 5.9123 18.866s9.2243 9.8258 15.508 12.264c0.21 0.66 0.4 1.31 0.56 1.95 0.398 1.5408 0.6853 3.1082 0.86 4.69-0.17 3-0.36 6.09-0.5 9.14-0.1 0.42-0.2066 0.8333-0.32 1.24-7.5328 3.3351-14.877 7.0809-22 11.22 5.26 7.74-0.88 40.43-0.88 40.43-13.14 7.74-26.28 27.53-12.26 48.17s6.13 43 6.13 43l-2.19 33.63v0.06l-0.44 6.73h0.17l-0.17 2.55 0.38 0.07v2.74c-6.15 2.26-15.14 6.82-20.5 15.25-2.5346 4.147-5.6193 7.931-9.17 11.25-0.81571 0.706-1.4506 1.597-1.8517 2.598s-0.55688 2.084-0.4541 3.158c0.10278 1.074 0.46105 2.107 1.0449 3.015 0.58381 0.907 1.3762 1.661 2.311 2.199zm105.76-89.36c-0.528-5.818 0.548-11.67 3.11-16.92 2.06 0.04 4.123 0.063 6.19 0.07 0.21 1.45 0.46 2.83 0.76 4.09 1.78 7.58-5.33 11.21-10.07 12.75l0.01 0.01z" fill="url(#a)"/>
<path transform="translate(778.21 702.96)" d="m70 6.7l3.37 10.11-11 11-36.24 8.43-26.13-2.53 1.69-9.27c0.4992-1.993 1.5379-3.8098 3.0021-5.2511 1.4642-1.4413 3.2972-2.4512 5.2978-2.9189 10.74-2.52 31.22-8.28 35.52-16.27l24.49 6.7z" fill="#DB8B8B"/>
<path transform="translate(778.21 702.96)" d="m70 6.7l3.37 10.11-11 11-36.24 8.43-26.13-2.53 1.69-9.27c0.4992-1.993 1.5379-3.8098 3.0021-5.2511 1.4642-1.4413 3.2972-2.4512 5.2978-2.9189 10.74-2.52 31.22-8.28 35.52-16.27l24.49 6.7z" fill="#000" />
<path transform="translate(758.77 717.24)" d="m27.916 16.85l5.06-6.74-5.06-7.81s-15.17 6.12-21.91 5.28c-6.74-0.84-10.11 11 2.53 14.33 12.64 3.33 84.28 0 84.28 0s12.64-5.9 0-21.91l-11 8.43s-18.54 10.11-27.81 8.43l-26.09-0.01z" fill="#2E3037"/>
<path transform="translate(763.92 714.66)" d="m-2.4414e-5 33.74l26.13 2.53 36.24-8.43 11-11-0.89-2.68-1.26-3.76-1.26-3.66-24.44-6.74c-1.2486 2.038-2.962 3.7514-5 5-7.94 5.43-22.2 9.35-30.57 11.31-0.33921 0.0833-0.67314 0.1868-1 0.31-1.7726 0.5955-3.3667 1.6277-4.6354 3.0013s-2.1714 3.0445-2.6246 4.8587l-1.69 9.26z" fill="#DB8B8B"/>
<path transform="translate(763.92 728.82)" d="m-2.4414e-5 19.58l26.13 2.53 36.24-8.43 11-11-0.89-2.68-10.06 7.74s-18.54 10.11-27.81 8.43h-26.18l5.06-6.74-4.54-7c-1.7726 0.59553-3.3667 1.6277-4.6354 3.0013-1.2688 1.3736-2.1714 3.0445-2.6246 4.8587l-1.69 9.29z" fill="#000" />
<path transform="translate(744.44 729.04)" d="m27.916 16.85l5.06-6.74-5.06-7.81s-15.17 6.12-21.91 5.28c-6.74-0.84-10.11 11 2.53 14.33 12.64 3.33 84.28 0 84.28 0s12.64-5.9 0-21.91l-11 8.43s-18.54 10.11-27.81 8.43l-26.09-0.01z" fill="#2E3037"/>
<path transform="translate(793.42 212.4)" d="m-2.4414e-5 44.66s40.46 4.21 34.56-12.64c-1.6498-4.7784-2.0795-9.8933-1.25-14.88 1.0495-6.1825 3.4948-12.044 7.15-17.14l-37.93 5.9c2.2727 3.8006 4.0028 7.9002 5.14 12.18 4.52 17.87-7.67 26.58-7.67 26.58z" fill="#DB8B8B"/>
<path transform="translate(813.6 449.22)" d="m48.93 7.3242e-6s-0.84 36.24-9.27 53.94l-1.69 51.41s2.53 47.2 7.59 56.47-11 87.65-11 87.65v13.49s-27 10.11-34.56-1.69l7.59-100.3-3.37-139.06 44.71-21.91z" fill="#474463"/>
<path transform="translate(813.6 449.22)" d="m48.93 7.3242e-6s-0.84 36.24-9.27 53.94l-1.69 51.41s2.53 47.2 7.59 56.47-11 87.65-11 87.65v13.49s-27 10.11-34.56-1.69l7.59-100.3-3.37-139.06 44.71-21.91z" fill="#000" />
<path transform="translate(841.47 332.92)" d="m37.92 9.7656e-6l5.06 13.49 4.21 28.66c0.5689 3.9925 0.177 8.063-1.1431 11.874-1.3201 3.8106-3.5302 7.2513-6.4469 10.036-10.11 10.11-23.6 31.18-23.6 31.18l-16-48s16-2.53 13.49-13.49-1.7-31.26-1.7-31.26l26.13-2.49z" fill="#FFCCA5"/>
<path transform="translate(841.47 332.92)" d="m37.92 9.7656e-6l5.06 13.49 4.21 28.66c0.5689 3.9925 0.177 8.063-1.1431 11.874-1.3201 3.8106-3.5302 7.2513-6.4469 10.036-10.11 10.11-23.6 31.18-23.6 31.18l-16-48s16-2.53 13.49-13.49-1.7-31.26-1.7-31.26l26.13-2.49z" fill="#000" opacity=".05"/>
<path transform="translate(804.48 714.66)" d="m-2.6856e-5 5.01c10.81 17 27.64 7.37 30.62 5.45l-1.22-3.72-24.44-6.74c-1.2361 2.037-2.9355 3.7536-4.96 5.01z" fill="#000" />
<path transform="translate(770.67 388.5)" d="m-2.4414e-5 93.59c0.84 11.8 15.17 54.78 15.17 54.78l10.11 35.37c7.2446 25.009 10.984 50.903 11.11 76.94 0 8.63 0.79 17.53 3.23 24.22 6.74 18.54-6.74 43.83-6.74 43.83 11.8 21.07 32 6.74 32 6.74v-13.48s16-73.33 11.8-87.65-5.9-53.1-5.9-53.1v-70c13.501-13.453 21.711-31.314 23.13-50.32 0.2-2.76 0.36-5.66 0.47-8.67 0.68-19-12.32-41.31-17.4-49.25-1.22-1.92-2-3-2-3l-74.42 29.52-0.16998 0.07v9.25l-0.39001 54.75z" fill="#474463"/>
<path transform="translate(795.95 212.4)" d="m4.8828e-6 5.89c2.2727 3.8006 4.0028 7.9003 5.14 12.18 4.12 1.5632 8.5115 2.2853 12.915 2.1239 4.4037-0.1615 8.7303-1.2032 12.725-3.0639 1.0509-6.179 3.4962-12.037 7.15-17.13l-37.93 5.89z" fill="#000" />
<path transform="translate(779.94 165.18)" d="m32.87 65.74c18.154 0 32.87-14.716 32.87-32.87s-14.716-32.87-32.87-32.87-32.87 14.716-32.87 32.87 14.716 32.87 32.87 32.87z" fill="#DB8B8B"/>
<path transform="translate(770.67 388.54)" d="m-2.4414e-5 38.77l0.36005 0.07c35.34 7.27 79.71-29.57 79.71-29.57-1.189-2.0047-2.2156-4.1014-3.07-6.27-1.22-1.92-2-3-2-3l-74.42 29.52-0.19 2.95-0.39001 6.3z" fill="#000" />
<path transform="translate(761.51 236.5)" d="m18.43 19.71s47.2-28.66 62.37-16.86l21.07 27s13.49 4.21 11 31.18l10.07 48.87-30.34 7.59s-17.7 16.86-3.37 41.3c0 0-44.67 37.08-80.07 29.5l2.53-39.61s7.59-21.91-5.9-42.14c-13.49-20.23-0.83996-39.61 11.8-47.2 0-0.01 5.89-32.04 0.84-39.63z" fill="#FFCCA5"/>
<path transform="translate(740.27 428.16)" d="m37.145 0s-17.7 3.37-26.13 16.86c-2.4323 4.0463-5.399 7.7463-8.82 11-0.76957 0.698-1.366 1.5657-1.742 2.5343-0.37599 0.9686-0.52123 2.0114-0.42419 3.0458 0.09704 1.0344 0.43371 2.0321 0.98328 2.9138 0.54957 0.8818 1.297 1.6234 2.1829 2.1661 6.69 4 17.6 6.49 31.38-4.83 23.64-19.36 2.57-33.69 2.57-33.69z" fill="#DB8B8B"/>
<path transform="translate(774.93 271.6)" d="m28.61 0.63275s16.86-1.69 21.07 42.14c4.21 43.83 11 53.94 11 53.94s4.21 22.76-5.9 36.24-29.5 42.14-29.5 42.14-21.07 5.9-25.28-15.17l26.13-48.88s4.21-16.86-5.9-28.66-17.75-90.18 8.38-81.75z" fill="#000" />
<path transform="translate(773.21 269.07)" d="m28.61 0.63275s16.86-1.69 21.07 42.14c4.21 43.83 11 53.94 11 53.94s4.21 22.76-5.9 36.24-29.5 42.14-29.5 42.14-21.07 5.9-25.28-15.17l26.13-48.88s4.21-16.86-5.9-28.66-17.72-90.18 8.38-81.75z" fill="#FFCCA5"/>
<path transform="translate(787.78 301.3)" d="m0.15905-6.1035e-6s-1.68 26.1 5.88 40.46c7.56 14.36 7.59 32.87 0 43" fill="#000" />
<path transform="translate(783.73 254.96)" d="m-2.6856e-5 14.33s6.74-6.74 26.13-7.59c19.39-0.85 27.81-6.74 27.81-6.74" fill="#000" />
<path transform="translate(780.3 154.62)" d="m50.318 0.96984c5.12 0.63 11 2.39 12.82 7.2 0.68 1.77 0.7001 3.72 1.1701 5.55 1.91 7.36 10.2 10.79 15.31 16.42 4.51 5 6.5 11.69 8 18.24 4.2081 18.783 5.2223 38.14 3 57.26-1.64 14-5 27.74-5.94 41.78s0.7799 28.81 8.4499 40.61c3.3 5.07 7.6601 9.53 10 15.11-4.8301 3.92-11.5 4.48-17.73 4.69-7.2467 0.247-14.497 0.247-21.75 0-3.8-0.13-7.77-0.38-11.05-2.3-2.4287-1.553-4.4241-3.697-5.8-6.23-4.15-7-5.19-15.5-5-23.66s1.47-16.28 1.62-24.45c0.08-4.45-0.27-9.18-2.83-12.82-1.85-2.63-4.66-4.4-7.06-6.53-9-8-12.12-20.82-12.42-32.87-0.3-12.05 1.69-24.12 0.67-36.13-0.4-4.7-2.1601-10.35-6.7801-11.26-1.46-0.29-2.9999 0-4.3999-0.56-3.71-1.43-3.3501-6.66-4.4101-10.49-1.19-4.3001-4.86-7.62-5.89-12-2.43-10.2 10.55-22.37 19.06-25.92 8.65-3.62 21.84-2.76 30.96-1.64z" fill="#000" />
<path transform="translate(781.14 152.93)" d="m50.318 0.97729c5.12 0.63 11 2.39 12.82 7.2 0.68 1.77 0.7 3.72 1.17 5.55 1.91 7.36 10.2 10.79 15.31 16.42 4.51 5 6.5 11.69 8 18.24 4.208 18.783 5.2222 38.14 3 57.26-1.64 14-5 27.74-5.94 41.78s0.78 28.81 8.45 40.61c3.3 5.07 7.66 9.53 10 15.11-4.83 3.92-11.5 4.48-17.73 4.69-7.2467 0.247-14.497 0.247-21.75 0-3.8-0.13-7.7701-0.38-11.05-2.3-2.4286-1.553-4.4241-3.696-5.8-6.23-4.15-7-5.19-15.5-5-23.66s1.47-16.28 1.62-24.45c0.08-4.45-0.2699-9.18-2.8299-12.82-1.85-2.63-4.66-4.4-7.06-6.53-9-8-12.12-20.82-12.42-32.87-0.3-12.05 1.6901-24.12 0.6701-36.13-0.4-4.7-2.16-10.35-6.78-11.26-1.46-0.29-3.0001 0-4.4001-0.56-3.71-1.43-3.3499-6.66-4.4099-10.49-1.19-4.3-4.86-7.62-5.89-12-2.43-10.2 10.55-22.37 19.06-25.92 8.65-3.63 21.84-2.77 30.96-1.64z" fill="#472727"/>
<defs>
<linearGradient id="b" x2="1" gradientTransform="translate(-45.95 662.52) scale(662.52) rotate(-90)" gradientUnits="userSpaceOnUse">
<stop stop-color="#808080" stop- offset="0"/>
<stop stop-color="#808080" stop-opacity=".12" offset=".54"/>
<stop stop-color="#808080" stop- offset="1"/>
</linearGradient>
<linearGradient id="a" x2="1" gradientTransform="translate(-235059 493701) scale(94536.5 -374398) rotate(90)" gradientUnits="userSpaceOnUse">
<stop stop-color="#808080" stop- offset="0"/>
<stop stop-color="#808080" stop-opacity=".12" offset=".54"/>
<stop stop-color="#808080" stop- offset="1"/>
</linearGradient>
</defs>
</svg>
