<svg width="476" height="442" viewBox="0 0 476 442" fill="none" xmlns="http://www.w3.org/2000/svg">
<path d="M305.967 361C305.947 359.968 306.03 360.12 305.717 360.12C305.784 360.418 305.867 360.712 305.967 361Z" fill="#E89387"/>
<path d="M277.93 320.63C278.079 320.749 278.191 320.908 278.253 321.089C278.314 321.27 278.323 321.464 278.278 321.65C277.643 324.127 276.985 328 279.633 329.575C281.948 330.957 286.255 329.457 288.295 327.562C288.434 327.435 288.608 327.354 288.795 327.327C290.039 323.331 292.043 319.612 294.698 316.375C294.743 314.625 294.928 313.19 294.928 313.19C293.222 313.957 291.346 314.267 289.485 314.087C285.013 312.957 281.915 306.75 285.063 300.037C285.816 298.069 286.963 296.275 288.434 294.765C289.904 293.255 291.667 292.06 293.615 291.255C294.451 290.977 295.336 290.883 296.212 290.981C297.087 291.078 297.931 291.363 298.685 291.817C302.915 294.4 300.33 301.447 300.33 301.447C302.798 300.1 304.185 299.887 304.83 300.332L304.563 285.92C304.447 285.837 304.353 285.728 304.287 285.603C304.222 285.477 304.187 285.337 304.185 285.195C302.96 253.577 303.34 252.822 301.568 249.897C300.752 248.569 299.635 247.452 298.307 246.636C296.978 245.821 295.476 245.33 293.923 245.205C293.648 245.265 250.158 253.637 243.218 257.017L240.793 258.375C237.12 260.67 234.116 263.89 232.081 267.712C230.047 271.534 229.053 275.825 229.2 280.152V404.635C255.933 401.02 281.954 393.328 306.355 381.825L306.043 365.09C304.86 363.664 304.066 361.956 303.738 360.132L288.313 360.225C287.368 360.225 287.283 359.002 287.34 359.252C286.895 355.22 286.52 351.177 286.385 347.122C274.635 350.67 257.745 337.68 262.793 320.467C263.18 319.15 264.185 316.097 265.43 315.467C266.715 314.795 267.79 315.735 277.93 320.63Z" fill="#E89387"/>
<path d="M301.25 306.613C304.787 316.068 303.265 314.325 305.097 314.95L304.88 303.285C304.621 304.11 304.149 304.852 303.512 305.436C302.874 306.02 302.094 306.426 301.25 306.613Z" fill="#E89387"/>
<path d="M304.83 300.333C304.173 299.888 302.785 300.1 300.33 301.448C304.595 289.823 291.732 285.803 285.062 300.038C281.92 306.748 285.008 312.958 289.485 314.088C291.346 314.268 293.223 313.958 294.928 313.19C294.928 313.19 294.743 314.628 294.698 316.375C294.65 318.258 294.698 322.273 296.573 322.588C299.39 323.058 304.793 320.238 304.793 318.123C303.939 314.198 302.761 310.352 301.27 306.623C304.22 306.318 306.28 301.31 304.83 300.333Z" fill="#CC6666"/>
<path d="M234.5 6.22498C230.945 3.92347 226.777 2.7521 222.543 2.865C218.31 2.9779 214.21 4.36977 210.783 6.85748C181.16 28.4 159.725 65.9325 147.198 100.945C156.67 104.25 213.968 121.9 300.013 99.3825C287.023 63.42 266.868 25.935 234.5 6.22498Z" fill="#B52F4F"/>
<path d="M123.835 275.25C123.378 298.12 122.458 359.283 133.123 379.545C144.555 401.27 195.46 413.12 227.255 406.045V293.93C218.898 294.77 166.83 298.827 123.835 275.25Z" fill="#74263D"/>
<path d="M247.148 127.433C247.218 127.561 247.26 127.703 247.271 127.849C247.282 127.995 247.262 128.142 247.212 128.28C247.162 128.418 247.083 128.543 246.98 128.648C246.878 128.753 246.754 128.834 246.618 128.887C215.135 140.657 215.83 187.307 247.3 198.33C247.46 198.382 247.603 198.476 247.714 198.603C247.824 198.73 247.898 198.884 247.928 199.05C271.263 206.737 295.015 188.55 295.015 163.105C295.015 137.25 270.57 119.09 247.148 127.433ZM276.185 139.107C275.892 139.667 275.429 140.12 274.864 140.401C274.298 140.683 273.658 140.778 273.034 140.674C272.411 140.571 271.837 140.273 271.393 139.823C270.949 139.373 270.658 138.795 270.562 138.17C270.467 137.546 270.57 136.907 270.859 136.345C271.147 135.783 271.606 135.326 272.17 135.04C272.733 134.754 273.372 134.653 273.996 134.752C274.62 134.851 275.197 135.144 275.645 135.59C276.17 135.994 276.519 136.586 276.619 137.241C276.72 137.896 276.564 138.564 276.185 139.107ZM283.225 184.452C282.025 186.01 280.475 183.297 280.843 182.835C287.96 173.605 288.985 154.585 280.13 142.515C279.38 141.503 282.108 139.99 282.843 140.99C291.635 152.983 292.653 172.197 283.225 184.452Z" fill="#F191E2"/>
<path d="M465.947 298.07C460.625 293.747 453.831 291.66 447 292.25C444.287 285.628 439.845 279.855 434.139 275.536C428.433 271.216 421.673 268.507 414.562 267.692C413.848 262.964 411.805 258.536 408.672 254.923C405.539 251.31 401.445 248.662 396.865 247.285C397.475 210.827 347.762 200.312 333.05 232.95C332.55 234.082 334.215 235.072 334.73 233.932C349.022 202.212 396.23 213.665 394.917 248.002C394.919 248.215 394.989 248.421 395.118 248.59C395.246 248.759 395.426 248.882 395.63 248.94C400.098 250.161 404.107 252.675 407.152 256.165C410.198 259.655 412.145 263.967 412.75 268.56C412.76 268.815 412.867 269.057 413.047 269.237C413.228 269.417 413.47 269.523 413.725 269.532C420.708 270.22 427.366 272.824 432.963 277.056C438.56 281.289 442.879 286.985 445.442 293.517C445.503 293.721 445.627 293.9 445.796 294.029C445.965 294.157 446.17 294.229 446.382 294.232C472.02 291.417 483.672 324.27 463.117 338.38C458.152 341.771 452.119 343.23 446.152 342.482C444.902 342.33 444.925 344.275 446.152 344.425C472.272 347.602 486.077 314.462 465.947 298.07Z" fill="#C659AE"/>
<path d="M424.705 349.395C426.427 346.705 427.356 343.583 427.384 340.389C427.412 337.195 426.539 334.057 424.864 331.337C423.19 328.616 420.782 326.424 417.918 325.01C415.053 323.596 411.848 323.019 408.67 323.345C412.88 301.58 394.688 289.618 382.008 296.148C380.895 296.72 381.88 298.398 382.99 297.828C394.565 291.863 411.385 303.653 406.525 324.188C406.488 324.352 406.492 324.524 406.539 324.686C406.586 324.848 406.673 324.996 406.792 325.116C406.912 325.235 407.059 325.323 407.221 325.37C407.384 325.417 407.555 325.422 407.72 325.385C410.784 324.862 413.935 325.295 416.745 326.623C419.555 327.952 421.888 330.113 423.428 332.813C424.968 335.513 425.64 338.622 425.353 341.717C425.067 344.812 423.835 347.744 421.825 350.115C421.233 350.805 421.78 352.053 422.77 351.74C424.734 351.101 426.841 351.044 428.836 351.578C430.831 352.112 432.629 353.213 434.011 354.747C435.393 356.282 436.301 358.184 436.625 360.224C436.948 362.264 436.673 364.353 435.833 366.24C435.333 367.373 436.998 368.365 437.51 367.225C438.466 365.2 438.863 362.956 438.659 360.726C438.456 358.496 437.66 356.361 436.354 354.542C435.048 352.723 433.279 351.287 431.231 350.382C429.182 349.477 426.929 349.136 424.705 349.395Z" fill="#C659AE"/>
<path d="M411.56 331.735C411.302 331.735 411.055 331.837 410.872 332.02C410.69 332.202 410.588 332.45 410.588 332.708C410.588 332.965 410.69 333.213 410.872 333.395C411.055 333.578 411.302 333.68 411.56 333.68C415.56 333.36 416.738 337.875 417.235 341.827C417.248 342.077 417.356 342.313 417.537 342.485C417.718 342.657 417.959 342.753 418.209 342.753C418.459 342.753 418.699 342.657 418.881 342.485C419.062 342.313 419.17 342.077 419.183 341.827C419.074 339.348 418.376 336.93 417.145 334.775C416.557 333.828 415.734 333.049 414.755 332.516C413.775 331.983 412.675 331.714 411.56 331.735ZM464.903 321.578C465.892 317.737 465.385 313.665 463.486 310.184C461.586 306.703 458.435 304.073 454.67 302.828C454.425 302.771 454.168 302.811 453.952 302.94C453.736 303.068 453.578 303.275 453.511 303.517C453.444 303.759 453.473 304.018 453.592 304.239C453.711 304.461 453.911 304.628 454.15 304.705C457.423 305.804 460.158 308.101 461.805 311.135C463.452 314.169 463.889 317.714 463.028 321.058C462.959 321.306 462.991 321.572 463.118 321.797C463.245 322.021 463.456 322.186 463.705 322.255C463.954 322.324 464.219 322.291 464.444 322.164C464.669 322.037 464.834 321.826 464.903 321.578ZM366.42 224.73C365.17 224.79 365.17 226.73 366.42 226.675C369.479 226.605 372.456 227.67 374.776 229.666C377.095 231.662 378.593 234.447 378.98 237.483C379.093 238.718 381.038 238.733 380.923 237.483C380.529 233.932 378.824 230.656 376.141 228.297C373.459 225.938 369.992 224.666 366.42 224.73ZM339.628 200.515C344.458 193.183 351.201 187.311 359.128 183.535C360.258 182.998 359.273 181.32 358.148 181.858C349.925 185.796 342.935 191.908 337.935 199.533C337.25 200.583 338.943 201.558 339.628 200.515ZM354.168 199.883C358.113 196.452 362.721 193.867 367.705 192.288C368.895 191.913 368.388 190.038 367.19 190.413C361.887 192.092 356.986 194.845 352.793 198.5C351.848 199.33 353.225 200.703 354.168 199.883ZM116.128 255.903C109.995 254.046 103.486 253.813 97.237 255.225C90.9875 256.637 85.2113 259.646 80.4727 263.958C75.734 268.27 72.1952 273.738 70.2018 279.827C68.2084 285.916 67.8288 292.418 69.1 298.698C64.5592 301.008 60.7248 304.5 58 308.805C14.2 295.32 -18.445 348.935 12.81 381.788C10.3758 386.144 9.08568 391.047 9.06001 396.038C9.06001 396.295 9.16247 396.543 9.34485 396.725C9.52723 396.908 9.77458 397.01 10.0325 397.01C10.2904 397.01 10.5378 396.908 10.7202 396.725C10.9025 396.543 11.005 396.295 11.005 396.038C11.0234 391.144 12.3464 386.344 14.8375 382.133C14.9412 381.946 14.9824 381.731 14.9549 381.519C14.9275 381.307 14.8329 381.109 14.685 380.955C-16.2475 349.49 15.685 297.035 58.165 310.873C58.3717 310.927 58.5906 310.913 58.7886 310.832C58.9866 310.752 59.1529 310.609 59.2625 310.425C61.9574 305.919 65.9269 302.312 70.67 300.06C70.8519 299.949 70.9934 299.782 71.0739 299.585C71.1544 299.387 71.1697 299.169 71.1175 298.963C69.7962 292.977 70.0643 286.749 71.8952 280.899C73.7261 275.049 77.056 269.78 81.554 265.615C86.0521 261.45 91.5616 258.535 97.5352 257.16C103.509 255.784 109.738 255.995 115.605 257.773C115.847 257.825 116.101 257.783 116.313 257.655C116.526 257.527 116.681 257.323 116.748 257.084C116.814 256.845 116.787 256.59 116.672 256.37C116.557 256.15 116.362 255.983 116.128 255.903ZM106.583 319.05C86.8125 314.91 74.3125 326.21 74.865 340.083C71.5127 339.827 68.1464 340.341 65.0231 341.586C61.8999 342.83 59.1025 344.772 56.8446 347.263C54.5866 349.754 52.9279 352.728 51.9951 355.958C51.0623 359.188 50.8801 362.589 51.4625 365.9C51.6675 367.13 53.5425 366.61 53.3375 365.383C52.8344 362.351 53.0319 359.245 53.9149 356.302C54.7978 353.358 56.3427 350.656 58.4313 348.402C60.5199 346.149 63.0967 344.403 65.9643 343.299C68.8319 342.194 71.9142 341.761 74.975 342.032C75.225 342.002 74.89 342.838 75.9025 345.873C76.295 347.055 78.175 346.548 77.7775 345.355C76.5885 341.805 76.4787 337.983 77.4622 334.371C78.4456 330.759 80.4781 327.519 83.3025 325.063C92.03 317.528 109.868 319.43 113.01 325.28C113.603 326.383 115.283 325.403 114.69 324.3C113.805 322.885 112.62 321.682 111.219 320.774C109.819 319.867 108.236 319.279 106.583 319.05Z" fill="#C659AE"/>
<path d="M24.6675 324.705C21.309 326.205 18.4816 328.684 16.5555 331.818C14.6293 334.951 13.6942 338.594 13.8725 342.268C13.9525 343.518 15.895 343.518 15.8175 342.268C15.6451 338.934 16.4941 335.627 18.2511 332.789C20.008 329.951 22.5893 327.717 25.65 326.385C26.7975 325.898 25.8075 324.22 24.6675 324.705ZM84.0725 311.213C84.3225 312.438 86.2025 311.92 85.9475 310.695C85.6753 309.437 85.7515 308.128 86.1677 306.91C86.5839 305.692 87.3244 304.611 88.3095 303.782C89.2947 302.954 90.4871 302.409 91.7585 302.208C93.0299 302.007 94.3321 302.156 95.525 302.64C96.3975 302.965 96.945 301.89 96.6225 301.213C89.9625 287.008 101.692 274.233 112.907 277.753C114.102 278.13 114.617 276.253 113.425 275.878C101.675 272.19 88.3875 284.51 94.175 300.315C92.726 300.094 91.2451 300.232 89.8614 300.715C88.4777 301.198 87.2333 302.013 86.2369 303.088C85.2404 304.162 84.5222 305.465 84.145 306.881C83.7677 308.297 83.7428 309.784 84.0725 311.213ZM78.6975 236.478C88.3393 234.184 98.402 234.341 107.967 236.935C108.214 236.996 108.474 236.959 108.694 236.831C108.913 236.703 109.073 236.494 109.14 236.249C109.208 236.004 109.176 235.743 109.053 235.521C108.931 235.298 108.726 235.133 108.482 235.06C98.5783 232.38 88.1606 232.223 78.18 234.603C76.9625 234.893 77.48 236.768 78.6975 236.478ZM67.9375 251.138C74.2993 247.508 81.5576 245.751 88.875 246.07C90.125 246.125 90.125 244.18 88.875 244.125C81.2123 243.806 73.6149 245.654 66.955 249.458C66.7322 249.588 66.5703 249.801 66.5049 250.051C66.4395 250.301 66.4759 250.566 66.6062 250.789C66.7365 251.012 66.95 251.173 67.1996 251.239C67.4493 251.304 67.7147 251.268 67.9375 251.138ZM175.4 409.173C160.78 402.338 144.11 411.195 141.307 424.5C133.585 421.735 123.64 426.81 120.83 439.94C120.58 441.16 122.442 441.69 122.705 440.458C125.3 428.338 134.095 423.828 140.99 426.433C140.561 429.502 141.289 432.621 143.032 435.183C143.76 436.183 145.447 435.218 144.712 434.203C136.585 423.003 155.01 401.755 174.42 410.84C175.547 411.378 176.535 409.703 175.4 409.173ZM192.88 411.918C190.788 411.392 188.578 411.618 186.636 412.556C184.694 413.494 183.143 415.085 182.254 417.05C181.366 419.015 181.196 421.23 181.775 423.308C182.353 425.386 183.644 427.194 185.42 428.418C186.445 429.14 187.42 427.458 186.4 426.738C185.018 425.76 184.022 424.33 183.584 422.694C183.146 421.059 183.294 419.322 184.002 417.785C184.71 416.247 185.934 415.006 187.462 414.277C188.989 413.547 190.724 413.375 192.365 413.79C193.58 414.09 194.098 412.215 192.88 411.918Z" fill="#C659AE"/>
<path d="M156.222 415.653C154.569 416.787 153.191 418.278 152.189 420.015C151.187 421.751 150.587 423.691 150.432 425.69C150.432 425.948 150.535 426.195 150.717 426.378C150.9 426.56 151.147 426.663 151.405 426.663C151.663 426.663 151.91 426.56 152.093 426.378C152.275 426.195 152.377 425.948 152.377 425.69C152.518 424.028 153.023 422.416 153.857 420.971C154.691 419.526 155.833 418.283 157.202 417.33C157.42 417.195 157.577 416.982 157.642 416.735C157.708 416.487 157.675 416.224 157.552 416C157.421 415.779 157.208 415.618 156.959 415.553C156.71 415.488 156.445 415.524 156.222 415.653Z" fill="#C659AE"/>
<path d="M153.25 348.42L109.36 349.465L119.918 354.338C121.585 354.503 116.485 354.693 164.623 351.95L153.25 348.42ZM105.728 349.925C103.978 354.863 83.9975 411.723 83.9075 411.973L98.2775 422.748C99.395 419.468 94.715 434.145 119.233 356.173C119.073 356.11 120.52 356.75 105.728 349.925Z" fill="#B52F4F"/>
<path d="M374.575 245.773C371.452 243.853 372.207 244.365 329.242 242.773C326.335 168.073 300.202 40.4225 233.882 3.59502C230.29 1.63387 226.232 0.68733 222.143 0.856889C218.054 1.02645 214.088 2.30571 210.67 4.55752C206.047 7.78248 201.703 11.3893 197.682 15.34C157.25 53.5 136.932 113.335 128.595 168.528C121.922 212.703 120.277 301.328 122.962 338.585C123.052 339.835 124.997 339.835 124.907 338.585C122.332 303.358 124.282 228.638 127.112 197.163C133.23 129.078 156.44 46.3775 210.777 6.85752C214.205 4.36873 218.306 2.97623 222.541 2.86333C226.775 2.75043 230.945 3.92242 234.5 6.22502C300.14 46.195 323.06 166.248 327.305 242.708L316.645 242.313C315.395 242.268 315.395 244.213 316.645 244.258C372.367 246.3 371.045 245.923 373.507 247.398C374.758 248.157 375.79 249.229 376.5 250.508C377.21 251.787 377.575 253.229 377.557 254.693C377.557 255.298 376.08 372.55 376.077 372.693C376.064 373.897 375.79 375.085 375.275 376.174C374.76 377.263 374.016 378.228 373.094 379.003C372.172 379.779 371.094 380.346 369.932 380.667C368.771 380.987 367.554 381.053 366.365 380.86L325.827 377.218C324.577 377.105 324.577 379.053 325.827 379.163L366.577 382.825C368.008 382.987 369.457 382.848 370.83 382.416C372.203 381.983 373.471 381.268 374.551 380.315C375.63 379.363 376.498 378.195 377.098 376.886C377.698 375.577 378.018 374.157 378.035 372.718C378.035 372.468 379.515 254.913 379.517 254.66C379.522 252.88 379.07 251.128 378.205 249.572C377.34 248.016 376.09 246.708 374.575 245.773Z" fill="#1D1D1B"/>
<path d="M303.135 248.733C302.132 247.155 300.772 245.835 299.166 244.88C297.559 243.925 295.75 243.36 293.885 243.233C292.397 243.189 290.912 243.364 289.475 243.753C246.803 253.533 244.185 253.265 238.09 257.825C234.991 260.14 232.425 263.094 230.565 266.486C228.705 269.878 227.595 273.63 227.31 277.488C227.183 279.318 227.248 407.47 227.248 407.47C227.248 407.728 227.35 407.975 227.532 408.158C227.715 408.34 227.962 408.443 228.22 408.443C228.478 408.443 228.725 408.34 228.908 408.158C229.09 407.975 229.193 407.728 229.193 407.47V280.145C229.051 275.818 230.048 271.53 232.082 267.709C234.116 263.888 237.117 260.667 240.785 258.368C245.74 255.23 245.035 255.943 289.563 245.728C290.508 245.471 291.471 245.288 292.445 245.18C294.249 245.061 296.051 245.437 297.658 246.267C299.264 247.097 300.613 248.35 301.56 249.89C304.328 254.463 303.273 284.973 304.56 285.913C304.698 286.031 304.867 286.107 305.048 286.132C305.228 286.157 305.411 286.129 305.576 286.053C305.741 285.977 305.881 285.854 305.979 285.701C306.076 285.548 306.128 285.369 306.128 285.188C304.843 252.71 305.313 252.173 303.135 248.733ZM311.295 246.73C311.218 245.48 309.275 245.48 309.353 246.73L311.648 284.045C311.723 285.295 313.67 285.295 313.593 284.045C313.443 281.62 311.5 250 311.295 246.73Z" fill="#1D1D1B"/>
<path d="M388.687 367.813L376.65 352.19C376.15 351.671 375.475 351.355 374.756 351.302C374.037 351.249 373.324 351.462 372.752 351.903L366.817 356.48C363.593 352.945 359.513 350.3 354.97 348.8C356.12 349.57 357.342 350.64 357.37 351.725C360.296 353.286 362.96 355.294 365.265 357.678L353.612 366.663C351.687 363.93 347.3 357.47 347.277 354.128C346.577 353.72 346.105 353.415 346.105 353.415C346.105 353.415 347.515 356.915 346.14 357.665C347.701 361.286 349.687 364.708 352.055 367.86L347.19 371.61C346.624 372.045 346.238 372.672 346.102 373.372C345.967 374.072 346.092 374.798 346.455 375.413L358.147 390.19C358.345 390.525 358.608 390.817 358.92 391.049C359.232 391.281 359.587 391.448 359.965 391.541C360.343 391.635 360.735 391.651 361.119 391.591C361.503 391.531 361.872 391.394 362.202 391.19L388.115 372.323C388.485 372.093 388.799 371.783 389.035 371.417C389.27 371.05 389.42 370.636 389.475 370.204C389.53 369.772 389.488 369.333 389.352 368.919C389.215 368.506 388.988 368.127 388.687 367.813Z" fill="#E7B3E8"/>
<path d="M357.777 348.44C358.427 347.233 356.707 343.958 346.778 343.69C345.915 347.544 343.638 350.934 340.397 353.19C345.067 360.38 348.077 358.353 346.092 353.44C351.707 357.068 353.252 356.29 353.555 355.833C354.705 354.11 352.407 351.525 352.407 351.525C352.407 351.525 355.752 353.915 356.712 353.058C358.755 351.238 355.505 348.925 353.052 347.733C353.592 347.96 357.157 349.59 357.777 348.44ZM278.333 312.723C280.315 314.168 278.832 317.765 277.31 319.818C276.977 320.273 276.617 319.983 277.832 320.553C277.868 320.575 277.9 320.601 277.93 320.63C278.972 319.178 283.778 312.323 282.125 311.413C280.877 310.723 279.25 311.89 278.333 312.723ZM276.843 314.273C275.694 314.705 274.639 315.353 273.735 316.183C272.735 316.983 271.53 315.573 272.417 314.77C273.762 313.545 276.193 311.798 277.88 312.463C279.715 305.463 276.032 305.808 272.557 311.463C273.572 306.463 270.807 303.01 266.057 315.163L266.28 315.27C267.658 315.585 268.971 316.139 270.157 316.908L275.53 319.448C275.505 319.342 275.502 319.232 275.521 319.125C275.539 319.018 275.579 318.916 275.637 318.825C276.817 317.205 278.128 314.073 276.843 314.273Z" fill="#CC6666"/>
<path d="M318.675 359.25H318.153C316.42 360.33 315.118 360.073 305.715 360.118C306.077 361.903 307.005 363.525 308.362 364.741C309.719 365.957 311.433 366.703 313.248 366.867C313.496 366.936 313.707 367.101 313.835 367.325C313.962 367.549 313.995 367.815 313.926 368.064C313.858 368.312 313.693 368.524 313.469 368.651C313.244 368.778 312.979 368.811 312.73 368.742C310.503 368.463 308.426 367.474 306.805 365.922C305.184 364.37 304.106 362.337 303.73 360.125L288.305 360.217C288.055 360.209 287.817 360.107 287.639 359.933C287.46 359.758 287.354 359.522 287.34 359.273C283.658 359.468 270.34 361.022 265.09 373.272C258.965 387.562 282.185 406.698 282.185 406.698C282.185 406.698 293.665 406.447 296.983 404.145C296.983 404.145 281.418 383.99 286.01 376.335C289.653 370.267 294.495 369.265 299.775 371.897C297.84 369.79 295.865 367.707 293.745 365.795C292.812 364.955 294.193 363.585 295.118 364.42C311.605 379.29 333.045 412.92 332.895 414.185C335.562 414.395 343.103 414.67 346.228 411.545L318.675 359.25Z" fill="#C659AE"/>
<path d="M286.385 347.122C286.6 353.567 287.407 359.532 287.347 359.28C287.361 359.53 287.468 359.765 287.646 359.94C287.825 360.115 288.063 360.217 288.312 360.225L303.737 360.132C304.107 362.347 305.184 364.383 306.806 365.936C308.428 367.49 310.509 368.476 312.737 368.75C312.986 368.819 313.252 368.786 313.476 368.658C313.701 368.531 313.865 368.32 313.934 368.071C314.002 367.823 313.969 367.557 313.842 367.333C313.715 367.108 313.504 366.944 313.255 366.875C311.441 366.709 309.728 365.963 308.371 364.747C307.015 363.531 306.086 361.91 305.722 360.125L315.03 360.067C316.001 360.143 316.973 359.928 317.821 359.451C318.67 358.973 319.358 358.254 319.797 357.385C320.675 355.43 320.342 355.36 315.65 338.202C323.09 343.586 330.796 348.592 338.737 353.202C338.987 353.37 339.282 353.457 339.582 353.451C339.883 353.446 340.174 353.349 340.417 353.172C343.725 350.865 346.028 347.384 346.857 343.437C346.903 343.272 346.904 343.096 346.861 342.93C346.817 342.763 346.729 342.612 346.607 342.49C338.402 335.692 314.292 317.142 304.002 314.625C304.445 316.11 304.657 317.125 304.602 316.875C304.932 317.045 317.735 321.28 344.82 343.53C344.048 346.701 342.178 349.496 339.542 351.42C331.497 347.282 310.542 332.305 303.355 327.025C302.342 326.275 301.372 327.972 302.372 328.705C302.622 328.887 310.84 334.8 313.15 336.432C313.375 337.25 318 354.015 318.187 354.837C318.344 355.479 318.255 356.157 317.94 356.737C317.624 357.317 317.104 357.76 316.48 357.977C315.875 358.185 317.075 358.092 289.187 358.272C287.77 345.145 287.1 331.847 294.027 320.59C295.305 318.525 294.575 320.615 294.692 316.372C294.508 316.52 294.34 316.688 294.192 316.872C291.822 320.03 289.992 323.558 288.777 327.315C287.38 328.383 285.814 329.208 284.142 329.755C279.55 331.005 276.41 328.905 278.272 321.637C278.322 321.431 278.306 321.214 278.226 321.017C278.146 320.821 278.007 320.654 277.827 320.54C276.607 319.967 276.96 320.29 277.305 319.805C281.46 314.187 278.58 309.152 272.412 314.757C272.242 314.936 272.147 315.173 272.146 315.42C272.145 315.666 272.238 315.904 272.406 316.084C272.574 316.265 272.805 316.374 273.051 316.39C273.297 316.406 273.54 316.327 273.73 316.17C274.535 315.48 275.418 314.886 276.36 314.4C277.032 314.17 277.595 313.945 277.185 315.82C276.88 316.801 276.415 317.726 275.807 318.555C275.557 318.895 275.45 319.055 275.517 319.447C267.5 315.657 266.655 314.805 265.425 315.447C264.195 316.09 263.175 319.162 262.787 320.447C257.732 337.712 274.73 350.637 286.385 347.122ZM267.31 337.585C265.256 334.616 264.074 331.131 263.897 327.525C263.72 323.919 264.556 320.336 266.31 317.18C266.212 317.237 266.385 317.222 266.56 317.29C267.357 317.605 268.112 318.097 268.89 318.465L276.22 321.93C275.502 325.225 275.41 329.337 278.652 331.255C280.152 331.911 281.797 332.163 283.424 331.988C285.051 331.812 286.605 331.215 287.93 330.255C286.759 335.118 286.223 340.112 286.337 345.112C279.73 347.357 271.327 343.25 267.31 337.585ZM247.3 198.33C215.722 187.272 215.215 140.63 246.617 128.887C247.775 128.457 247.247 126.585 246.102 127.012C212.602 139.53 213.537 188.56 246.785 200.205C247.98 200.622 248.432 198.725 247.3 198.33ZM170.28 351.675C154.802 346.87 153.802 346.545 153.485 346.492C153.167 346.44 130.055 347.032 105.147 347.62C104.941 347.643 104.745 347.721 104.579 347.847C104.414 347.973 104.286 348.142 104.21 348.335C104.122 348.585 82.135 411.15 81.8225 412.06C81.51 412.97 81.37 412.492 98.3425 425.215C98.7125 425.49 96.945 425.67 118.61 421.867C118.773 421.823 118.921 421.737 119.04 421.618C119.16 421.499 119.246 421.35 119.29 421.187C119.79 419.622 135.605 369.022 135.752 368.535L170.595 369.66C170.852 369.657 171.098 369.554 171.28 369.372C171.462 369.19 171.565 368.945 171.567 368.687C170.955 351.647 171.265 351.98 170.28 351.675ZM153.237 348.425L164.61 351.955C111.532 354.982 124.11 354.342 119.905 354.342L109.347 349.47L153.237 348.425ZM98.2775 422.75L83.9075 411.975C84 411.712 103.98 354.825 105.727 349.927C124.86 358.757 117.502 355.485 119.227 356.177C98.17 423.152 99.585 418.917 98.2775 422.75ZM117.552 420.09L100.25 423.142C123.25 349.892 120.5 358.615 121.175 356.657L133.895 367.85C116.137 424.912 118.302 417.58 117.552 420.087V420.09ZM135.38 366.59L123.642 356.25C123.892 356.235 168.19 353.707 169.085 353.642C169.24 357.985 169.585 367.345 169.585 367.682L135.38 366.59ZM332.9 414.197C333.055 412.892 311.65 379.355 295.122 364.432C294.197 363.597 292.815 364.967 293.75 365.807C301.65 372.932 317.125 391.082 331.105 414.6C331.214 414.769 331.372 414.9 331.557 414.976C331.743 415.052 331.947 415.069 332.143 415.025C332.339 414.981 332.516 414.878 332.652 414.73C332.787 414.582 332.874 414.396 332.9 414.197ZM344.352 415.427C340.295 416.44 336.127 416.944 331.945 416.927C331.945 416.927 322.247 415.907 321.227 417.177C320.207 418.447 322.248 424.575 344.958 422.025C351.603 421.272 348.862 414.265 344.352 415.427ZM294.597 407C290.54 408.014 286.372 408.518 282.19 408.5C282.19 408.5 272.492 407.482 271.472 408.75C270.452 410.017 272.492 416.15 295.202 413.595C301.847 412.85 299.102 405.845 294.597 407ZM298.672 291.817C302.902 294.4 300.317 301.447 300.317 301.447C305.485 298.63 305.955 300.742 304.78 303.56C304.512 304.333 304.046 305.022 303.427 305.558C302.809 306.093 302.061 306.457 301.257 306.612C301.257 306.612 301.482 307.212 301.817 308.14C314.722 309.347 315.895 302.41 316.122 300.567C316.372 298.525 310.51 298.397 310.51 298.397C318.51 294.052 317.235 289.055 310.26 291.382C310.26 291.382 316.385 288.32 314.727 286.15C313.07 283.98 303.627 284.62 298.65 286.4C297.495 286.769 296.439 287.398 295.565 288.239C294.691 289.08 294.021 290.11 293.607 291.25C294.443 290.974 295.328 290.882 296.202 290.98C297.076 291.078 297.919 291.364 298.672 291.817ZM292.935 296.562C294.06 297.125 293.467 297.872 294.237 298.312C294.46 298.441 294.725 298.477 294.974 298.412C295.223 298.347 295.436 298.186 295.567 297.965C296.055 297.032 294.877 294.945 293.45 294.68C293.2 294.612 292.934 294.645 292.709 294.774C292.484 294.902 292.32 295.114 292.251 295.364C292.183 295.613 292.217 295.88 292.345 296.105C292.473 296.33 292.685 296.494 292.935 296.562ZM290.177 301.947C291.635 301.947 291.635 299.26 290.177 299.26C288.72 299.26 288.722 301.947 290.177 301.947ZM284.61 308.235C288.042 309.46 293.967 306.405 292.36 304.792C291.26 303.687 289.402 307.187 285.86 306.542C285.212 306.422 284.225 306.015 283.94 307.042C283.879 307.289 283.915 307.55 284.039 307.771C284.164 307.993 284.368 308.158 284.61 308.235ZM373.59 355.232L372.545 373.662L349.845 373.24C349.596 373.253 349.361 373.36 349.189 373.541C349.018 373.722 348.922 373.962 348.922 374.211C348.922 374.461 349.018 374.7 349.189 374.881C349.361 375.062 349.596 375.17 349.845 375.182L373.46 375.625C373.716 375.618 373.959 375.513 374.14 375.332C374.321 375.152 374.426 374.908 374.432 374.652L375.535 355.232C375.605 353.997 373.662 353.985 373.59 355.232Z" fill="#1D1D1B"/>
</svg>
