<svg width="476" height="438" viewBox="0 0 476 438" fill="none" xmlns="http://www.w3.org/2000/svg">
<path d="M238.55 437.35C369.414 437.35 475.5 432.143 475.5 425.72C475.5 419.297 369.414 414.09 238.55 414.09C107.686 414.09 1.60001 419.297 1.60001 425.72C1.60001 432.143 107.686 437.35 238.55 437.35Z" fill="#6584BF"/>
<path d="M94.63 424.89C95.4971 424.89 96.2 424.187 96.2 423.32C96.2 422.453 95.4971 421.75 94.63 421.75C93.7629 421.75 93.06 422.453 93.06 423.32C93.06 424.187 93.7629 424.89 94.63 424.89Z" fill="#1D1D1B"/>
<path d="M58.9775 423.422C59.2886 423.422 59.5929 423.514 59.8518 423.686C60.1107 423.859 60.3127 424.104 60.4321 424.391C60.5515 424.679 60.583 424.995 60.5226 425.3C60.4622 425.605 60.3126 425.886 60.0928 426.106C59.873 426.326 59.5928 426.476 59.2877 426.537C58.9826 426.598 58.6663 426.567 58.3788 426.448C58.0913 426.329 57.8456 426.128 57.6727 425.869C57.4998 425.61 57.4075 425.306 57.4075 424.995C57.4072 424.789 57.4475 424.584 57.5263 424.393C57.605 424.203 57.7206 424.029 57.8665 423.883C58.0123 423.737 58.1855 423.621 58.3761 423.542C58.5668 423.463 58.7711 423.422 58.9775 423.422Z" fill="#1D1D1B"/>
<path d="M83.5075 431.705C84.3746 431.705 85.0775 431.002 85.0775 430.135C85.0775 429.268 84.3746 428.565 83.5075 428.565C82.6404 428.565 81.9375 429.268 81.9375 430.135C81.9375 431.002 82.6404 431.705 83.5075 431.705Z" fill="#1D1D1B"/>
<path d="M167.79 424.89C168.657 424.89 169.36 424.187 169.36 423.32C169.36 422.453 168.657 421.75 167.79 421.75C166.923 421.75 166.22 422.453 166.22 423.32C166.22 424.187 166.923 424.89 167.79 424.89Z" fill="#1D1D1B"/>
<path d="M119.69 424.89C120.557 424.89 121.26 424.187 121.26 423.32C121.26 422.453 120.557 421.75 119.69 421.75C118.823 421.75 118.12 422.453 118.12 423.32C118.12 424.187 118.823 424.89 119.69 424.89Z" fill="#1D1D1B"/>
<path d="M147.908 431.457C148.775 431.457 149.478 430.755 149.478 429.887C149.478 429.02 148.775 428.318 147.908 428.318C147.04 428.318 146.338 429.02 146.338 429.887C146.338 430.755 147.04 431.457 147.908 431.457Z" fill="#1D1D1B"/>
<path d="M263.508 423.138C264.375 423.138 265.078 422.435 265.078 421.568C265.078 420.7 264.375 419.998 263.508 419.998C262.64 419.998 261.938 420.7 261.938 421.568C261.938 422.435 262.64 423.138 263.508 423.138Z" fill="#1D1D1B"/>
<path d="M241.522 427C241.834 427 242.138 427.092 242.396 427.265C242.655 427.438 242.857 427.684 242.975 427.971C243.094 428.259 243.125 428.575 243.065 428.88C243.004 429.185 242.854 429.466 242.634 429.685C242.413 429.905 242.133 430.055 241.828 430.115C241.523 430.175 241.206 430.144 240.919 430.025C240.632 429.905 240.386 429.703 240.214 429.444C240.041 429.185 239.949 428.881 239.95 428.57C239.95 428.364 239.991 428.159 240.07 427.969C240.149 427.778 240.265 427.605 240.411 427.459C240.557 427.313 240.73 427.198 240.921 427.119C241.112 427.04 241.316 427 241.522 427ZM285.22 8.62502C280.912 6.76752 282.887 7.29002 209.502 7.29002L210.1 2.94252C210.139 2.63192 210.107 2.31649 210.005 2.02037C209.904 1.72425 209.736 1.45528 209.514 1.23404C209.293 1.0128 209.023 0.845156 208.727 0.74393C208.431 0.642705 208.116 0.610582 207.805 0.65002H87.7C87.3454 0.689076 87.0027 0.801247 86.6937 0.979447C86.3846 1.15765 86.1159 1.398 85.9045 1.68533C85.693 1.97266 85.5435 2.30072 85.4652 2.64878C85.387 2.99685 85.3818 3.35735 85.45 3.70752L86.135 7.29002C61.6075 7.26252 37.05 7.04002 12.52 7.29002C10.8597 7.22672 9.20527 7.5212 7.66881 8.15348C6.13235 8.78577 4.74984 9.74108 3.61502 10.9546C2.4802 12.1682 1.61962 13.6115 1.09165 15.1869C0.563678 16.7622 0.380657 18.4327 0.555 20.085C0.5875 20.4425 23.355 194.913 23.4625 195.388C24.1907 200.194 26.6321 204.576 30.3365 207.724C34.0409 210.873 38.7587 212.576 43.62 212.52C46.62 212.548 76.9075 212.52 76.9075 212.52C72.0275 242.77 63.565 272.288 55.7 301.865C48.51 328.953 26.68 411.575 22.89 425.785C22.8401 426.033 22.8859 426.29 23.0183 426.506C23.1507 426.721 23.3597 426.879 23.6034 426.946C23.8471 427.014 24.1073 426.986 24.3316 426.87C24.5559 426.753 24.7278 426.556 24.8125 426.318C66.1925 271.5 74 243.315 78.925 212.52H86.3875L87.23 216.96C87.3294 217.484 87.6084 217.958 88.0191 218.298C88.4297 218.639 88.9463 218.826 89.48 218.828H206.455C207.011 218.827 207.548 218.627 207.967 218.262C208.387 217.897 208.66 217.393 208.737 216.843L209.32 212.52H234C241.6 260.083 263.815 329.88 287.887 419.673C287.975 419.907 288.147 420.1 288.37 420.214C288.593 420.327 288.85 420.353 289.092 420.286C289.333 420.22 289.54 420.065 289.672 419.852C289.805 419.64 289.853 419.386 289.807 419.14C268.775 340.538 243.907 261.473 236.012 212.508C268.985 212.508 267 212.593 269.055 212.313C273.728 211.61 278.007 209.29 281.145 205.756C284.283 202.222 286.081 197.699 286.225 192.975C288.132 160.49 294.712 30.9225 294.96 26.1475C295.357 18.775 292.437 11.75 285.22 8.62502ZM293.06 24.4075C293.06 24.8025 284.31 191.908 284.285 192.313C283.767 202.293 276.757 210.3 266.387 210.523C259.862 210.66 266.137 210.523 209.607 210.523L210.107 206.835C210.146 206.524 210.113 206.209 210.012 205.913C209.91 205.617 209.741 205.348 209.52 205.127C209.298 204.906 209.029 204.739 208.732 204.638C208.436 204.537 208.12 204.505 207.81 204.545H87.7C87.3454 204.584 87.0027 204.696 86.6937 204.874C86.3846 205.053 86.1159 205.293 85.9045 205.58C85.693 205.868 85.5435 206.196 85.4652 206.544C85.387 206.892 85.3818 207.252 85.45 207.603L86.005 210.56C53.415 210.963 44.555 210.523 44.2425 210.523C39.7198 210.699 35.2915 209.197 31.8097 206.305C28.3279 203.413 26.0387 199.336 25.3825 194.858C21.75 166.965 6.1025 50.75 2.585 20.4625C2.3673 19.0226 2.47493 17.5521 2.89999 16.1592C3.32505 14.7663 4.05674 13.4863 5.04132 12.4133C6.0259 11.3402 7.23836 10.5013 8.58963 9.95826C9.94091 9.4152 11.3967 9.18173 12.85 9.27502C15.9125 9.25002 86.505 9.27502 86.505 9.27502L87.2175 13.0525C87.3173 13.5766 87.5965 14.0497 88.0071 14.3904C88.4176 14.7312 88.934 14.9184 89.4675 14.92H206.44C206.996 14.9201 207.534 14.7192 207.953 14.3545C208.373 13.9898 208.647 13.4857 208.725 12.935L209.225 9.27502C209.225 9.27502 277.077 9.22252 278.737 9.27502C280.678 9.30687 282.593 9.72606 284.369 10.508C286.146 11.2899 287.748 12.4188 289.082 13.8284C290.416 15.238 291.455 16.8999 292.138 18.7166C292.821 20.5333 293.135 22.4681 293.06 24.4075Z" fill="#1D1D1B"/>
<path d="M158.018 56.4401H205.96C206.225 56.4401 206.48 56.3347 206.667 56.1472C206.855 55.9596 206.96 55.7053 206.96 55.4401C206.96 55.1749 206.855 54.9205 206.667 54.733C206.48 54.5454 206.225 54.4401 205.96 54.4401H158.018C157.752 54.4401 157.498 54.5454 157.31 54.733C157.123 54.9205 157.017 55.1749 157.017 55.4401C157.017 55.7053 157.123 55.9596 157.31 56.1472C157.498 56.3347 157.752 56.4401 158.018 56.4401ZM159.75 64.6951C159.485 64.6951 159.23 64.8004 159.043 64.988C158.855 65.1755 158.75 65.4299 158.75 65.6951C158.75 65.9603 158.855 66.2146 159.043 66.4022C159.23 66.5897 159.485 66.6951 159.75 66.6951C175.375 66.6551 191.052 66.9276 206.652 65.8776C207.925 65.7876 207.937 63.8001 206.652 63.8776C191.06 64.9276 175.382 64.6751 159.75 64.6951ZM206.842 72.5001C191.272 73.3726 175.092 75.4076 159.575 73.4351C158.302 73.2776 158.325 75.2651 159.575 75.4351C175.11 77.3951 191.28 75.2926 206.842 74.5001C208.115 74.4276 208.127 72.4351 206.842 72.5001ZM158.018 100.28H205.96C206.225 100.28 206.48 100.175 206.667 99.9872C206.855 99.7996 206.96 99.5453 206.96 99.2801C206.96 99.0148 206.855 98.7605 206.667 98.573C206.48 98.3854 206.225 98.2801 205.96 98.2801H158.018C157.752 98.2801 157.498 98.3854 157.31 98.573C157.123 98.7605 157.017 99.0148 157.017 99.2801C157.017 99.5453 157.123 99.7996 157.31 99.9872C157.498 100.175 157.752 100.28 158.018 100.28ZM159.75 110.523C175.375 110.503 191.052 110.755 206.652 109.705C207.925 109.613 207.937 107.628 206.652 107.705C191.052 108.758 175.375 108.485 159.75 108.523C159.485 108.523 159.23 108.628 159.043 108.815C158.855 109.003 158.75 109.257 158.75 109.523C158.75 109.788 158.855 110.042 159.043 110.23C159.23 110.417 159.485 110.523 159.75 110.523ZM206.842 116.335C191.267 117.133 175.092 119.243 159.575 117.27C158.302 117.115 158.325 119.1 159.575 119.27C175.11 121.23 191.28 119.128 206.842 118.335C208.115 118.27 208.127 116.27 206.842 116.335ZM234.735 177.115C112.517 180.688 81.06 181.945 44 179.205C42.715 179.113 42.7275 181.1 44 181.205C92.525 184.785 131 182.06 234.735 179.115C236.02 179.063 236.02 177.078 234.735 177.115ZM234.735 185.083C112.517 188.655 81.06 189.913 44 187.173C42.715 187.083 42.7275 189.068 44 189.173C92.525 192.753 131 190.028 234.735 187.083C236.02 187.043 236.02 185.045 234.735 185.083ZM158.018 143.448H205.96C206.225 143.448 206.48 143.342 206.667 143.155C206.855 142.967 206.96 142.713 206.96 142.448C206.96 142.182 206.855 141.928 206.667 141.74C206.48 141.553 206.225 141.448 205.96 141.448H158.018C157.752 141.448 157.498 141.553 157.31 141.74C157.123 141.928 157.017 142.182 157.017 142.448C157.017 142.713 157.123 142.967 157.31 143.155C157.498 143.342 157.752 143.448 158.018 143.448ZM159.75 153.703C175.375 153.683 191.052 153.935 206.652 152.885C207.925 152.793 207.937 150.808 206.652 150.885C191.052 151.938 175.375 151.665 159.75 151.703C159.485 151.703 159.23 151.808 159.043 151.995C158.855 152.183 158.75 152.437 158.75 152.703C158.75 152.968 158.855 153.222 159.043 153.41C159.23 153.597 159.485 153.703 159.75 153.703ZM159.562 162.435C175.1 164.378 191.267 162.293 206.83 161.503C208.102 161.438 208.115 159.438 206.83 159.503C191.255 160.308 175.08 162.41 159.562 160.438C158.302 160.283 158.302 162.28 159.562 162.435Z" fill="#1D1D1B"/>
<path d="M215.953 117.425C216.453 120.645 216.94 123.85 217.433 127.07C226.453 124.227 235.468 121.38 244.48 118.53C243.87 116.09 243.273 113.663 242.663 111.223C233.761 113.284 224.858 115.352 215.953 117.425ZM336.75 116.583C335.575 116.21 334.395 115.855 333.21 115.518C328.361 116.735 323.699 118.599 319.348 121.06C324.132 125.884 329.529 130.06 335.4 133.48C336.879 130.661 338.72 128.048 340.878 125.708C338.578 123.174 337.134 119.982 336.75 116.583ZM416.045 244.565C424.076 242.469 431.445 238.369 437.46 232.65C436.045 229.498 434.618 226.355 433.21 223.203L406.488 242.37C407.711 243.601 409.257 244.461 410.949 244.849C412.64 245.238 414.407 245.139 416.045 244.565Z" fill="#6781DA"/>
<path d="M404.455 241.385C437.975 217.385 432.6 221.063 433.177 220.803C390.102 133.803 393.505 140.08 390.595 136.155C385.939 129.901 380.012 124.704 373.202 120.905C373.221 121.055 373.206 121.207 373.159 121.35C373.112 121.494 373.033 121.625 372.93 121.735C367.606 127.23 361.521 131.932 354.862 135.7C354.633 135.832 354.361 135.867 354.106 135.799C353.851 135.73 353.633 135.564 353.5 135.335C351.977 132.327 350.081 129.524 347.857 126.99C347.737 127.117 347.611 127.239 347.48 127.355C351.153 131.69 350.827 140.105 351.595 146.913C352.54 155.285 353.28 163.785 355.032 172.04C355.89 176.103 358.108 180.852 357.77 185.057C357.058 188.579 355.783 191.962 353.995 195.078C352.945 197.44 347.077 211.52 344.17 211.132C341.482 210.767 337.395 201.28 336.33 199.397C331.782 191.362 330.107 191.245 332.202 176.57C333.629 166.982 335.618 157.487 338.16 148.133C339.887 141.67 340.795 134.05 343.003 127.535C342.757 127.373 342.518 127.2 342.287 127.018C340.069 129.54 338.182 132.335 336.67 135.335C336.533 135.56 336.315 135.723 336.061 135.791C335.806 135.859 335.536 135.827 335.305 135.7C328.79 132.016 322.826 127.433 317.59 122.085C312.137 125.432 307.303 129.696 303.3 134.688C292.617 148.09 274.845 149.275 263.987 141.215C256.272 135.851 250.094 128.562 246.065 120.073C245.925 120.123 216.762 129.323 216.85 129.323C219.392 141.743 224.895 160.323 236.1 171.113C250.765 185.233 279.175 188.245 292.687 185.248C293.632 195.578 295.23 205.948 296.687 216.123C297.675 222.943 299.56 245.14 300.372 250.49C300.622 250.428 390.152 250.478 389.9 250.478C389.99 247.778 391.522 199.523 392.197 178.083C392.237 176.798 394.235 176.798 394.197 178.083C394.107 181.108 393.082 213.435 392.667 226.583C395.495 232.397 399.34 237.659 404.022 242.118C404.025 241.968 404.066 241.823 404.142 241.694C404.218 241.566 404.326 241.459 404.455 241.385Z" fill="#6781DA"/>
<path d="M349.035 125.433C351.299 127.829 353.217 130.529 354.735 133.455C360.673 130.001 366.124 125.771 370.945 120.878C370.594 120.303 370.231 119.736 369.855 119.178C366.105 117.404 362.169 116.055 358.12 115.155C356.345 115.655 354.581 116.178 352.828 116.725C351.817 119.731 350.548 122.645 349.035 125.433Z" fill="#6781DA"/>
<path d="M320 75.83C320 75.83 310.5 51.87 316.143 38.1925C316.531 37.2657 317.195 36.4808 318.044 35.9444C318.894 35.408 319.888 35.146 320.892 35.1941C321.895 35.2421 322.86 35.5979 323.654 36.213C324.449 36.8281 325.035 37.6729 325.333 38.6325L328.083 47.4975C328.083 47.4975 333.288 35.9325 336.753 37.6725C340.218 39.4125 339.648 46.3425 339.648 46.3425C339.648 46.3425 361.035 37.6725 367.98 46.925C374.925 56.1775 365.67 76.985 365.67 76.985C365.67 76.985 363.075 59.3475 345.723 58.1925C328.37 57.0375 320 75.83 320 75.83Z" fill="#C17E48"/>
<path d="M367.038 71.3775C364.881 66.8058 361.462 62.9463 357.183 60.2542C352.905 57.5622 347.946 56.1499 342.891 56.1841C337.836 56.2182 332.897 57.6974 328.655 60.447C324.414 63.1967 321.047 67.1021 318.952 71.7025C318.018 71.3038 317.002 71.1345 315.99 71.2089C314.977 71.2832 313.996 71.5991 313.13 72.1301C312.265 72.661 311.539 73.3916 311.013 74.2607C310.488 75.1297 310.178 76.112 310.11 77.1254C310.042 78.1387 310.217 79.1536 310.622 80.0852C311.026 81.0168 311.648 81.8379 312.435 82.4799C313.222 83.122 314.151 83.5661 315.145 83.7754C316.139 83.9846 317.168 83.9528 318.148 83.6825C319.366 88.1982 321.862 92.266 325.336 95.397C328.81 98.5281 333.115 100.589 337.733 101.333V116.868H351.605V100.515C355.515 99.3655 359.066 97.2342 361.92 94.3241C364.773 91.4141 366.835 87.8221 367.907 83.89C368.825 83.9756 369.75 83.8606 370.619 83.5531C371.487 83.2455 372.279 82.7527 372.938 82.1089C373.597 81.465 374.109 80.6855 374.437 79.8243C374.765 78.9632 374.901 78.041 374.837 77.1217C374.773 76.2024 374.51 75.3081 374.066 74.5006C373.622 73.6931 373.008 72.9918 372.266 72.4454C371.524 71.899 370.672 71.5204 369.769 71.336C368.866 71.1516 367.934 71.1658 367.038 71.3775Z" fill="#FFCEB6"/>
<path d="M358.5 89.4175C349.067 89.4175 349.842 83.0575 342.29 83.0575C334.695 83.0575 335.585 89.4175 326.08 89.4175C323.833 89.4213 321.607 88.9847 319.527 88.1325C328.507 106.645 358.092 106.34 366.482 87.445C364.025 88.7517 361.283 89.4294 358.5 89.4175Z" fill="#C17E48"/>
<path d="M330.205 74.675C330.551 74.675 330.889 74.7776 331.177 74.9699C331.465 75.1622 331.689 75.4356 331.822 75.7553C331.954 76.0751 331.989 76.427 331.921 76.7664C331.854 77.1059 331.687 77.4177 331.442 77.6625C331.198 77.9072 330.886 78.0739 330.546 78.1414C330.207 78.2089 329.855 78.1743 329.535 78.0418C329.216 77.9093 328.942 77.685 328.75 77.3973C328.558 77.1095 328.455 76.7711 328.455 76.425C328.453 76.1947 328.497 75.9664 328.585 75.7534C328.672 75.5403 328.801 75.3467 328.964 75.1839C329.127 75.021 329.32 74.8922 329.533 74.8048C329.746 74.7175 329.975 74.6734 330.205 74.675ZM356.227 74.675C356.574 74.675 356.912 74.7776 357.2 74.9699C357.488 75.1622 357.712 75.4356 357.844 75.7553C357.977 76.0751 358.011 76.427 357.944 76.7664C357.876 77.1059 357.71 77.4177 357.465 77.6625C357.22 77.9072 356.908 78.0739 356.569 78.1414C356.229 78.2089 355.878 78.1743 355.558 78.0418C355.238 77.9093 354.965 77.685 354.772 77.3973C354.58 77.1095 354.477 76.7711 354.477 76.425C354.477 75.9609 354.662 75.5158 354.99 75.1876C355.318 74.8594 355.763 74.675 356.227 74.675ZM335.68 67.355C333.465 66.8394 331.143 67.0566 329.063 67.9741C326.982 68.8915 325.255 70.4596 324.142 72.4425C324.029 72.6702 324.007 72.9326 324.08 73.1761C324.153 73.4197 324.317 73.6262 324.537 73.7537C324.757 73.8811 325.017 73.9199 325.265 73.862C325.513 73.8042 325.729 73.6542 325.87 73.4425C326.757 71.8365 328.141 70.5619 329.815 69.8107C331.488 69.0596 333.361 68.8724 335.15 69.2775C336.395 69.5725 336.927 67.6525 335.68 67.355ZM351.282 69.275C353.072 68.8687 354.945 69.0552 356.619 69.8065C358.293 70.5578 359.677 71.8331 360.562 73.44C360.705 73.6473 360.921 73.793 361.167 73.8482C361.412 73.9033 361.67 73.8639 361.887 73.7376C362.105 73.6114 362.267 73.4077 362.341 73.1671C362.416 72.9266 362.396 72.667 362.287 72.44C361.175 70.4571 359.448 68.889 357.367 67.9716C355.287 67.0541 352.965 66.8369 350.75 67.3525C349.517 67.6525 350.035 69.5725 351.282 69.275ZM337.017 70.9225C337.05 74.725 338.575 81.5275 343.572 81.255C347.737 81.02 348.647 74.6875 348.842 71.505C348.92 70.22 346.935 70.2325 346.842 71.505C346.712 73.5425 346.195 78.9025 343.572 79.255C339.937 79.755 339.03 73.3625 339.017 70.91C339.017 70.7787 338.99 70.6488 338.939 70.5278C338.888 70.4068 338.814 70.297 338.72 70.2047C338.627 70.1125 338.516 70.0395 338.394 69.99C338.273 69.9405 338.143 69.9154 338.011 69.9163C337.88 69.9171 337.75 69.9438 337.629 69.9948C337.508 70.0458 337.398 70.1201 337.306 70.2136C337.214 70.307 337.141 70.4177 337.091 70.5394C337.042 70.661 337.017 70.7912 337.017 70.9225ZM337.72 88.21L348.945 88.3925C348.945 88.3925 348.477 93.0275 342.585 92.87C336.692 92.7125 337.72 88.21 337.72 88.21Z" fill="#1D1D1B"/>
<path d="M390.815 251.715H300.482C301.672 279.377 304.885 326.452 307.687 351.6C310.097 373.24 309.83 403.747 323.092 405.55C334.972 407.172 336.427 381.69 338.887 370.262C343.917 346.75 348.28 318.372 351.527 294.545C351.945 291.455 353.54 286.705 352.955 283.592C352.955 283.592 374.877 402.475 396.122 402.475C417.367 402.475 390.815 251.715 390.815 251.715Z" fill="#6C458F"/>
<path d="M318.94 409.173C321.849 409.598 324.814 409.412 327.647 408.628C328.251 408.439 328.887 408.378 329.516 408.449C330.144 408.52 330.751 408.721 331.297 409.04C331.843 409.359 332.317 409.788 332.687 410.3C333.058 410.813 333.318 411.397 333.45 412.015C334.28 415.973 334.865 420.893 333.125 422.398C330.283 424.898 307.765 431.665 295.045 429.575C294.353 429.465 293.725 429.105 293.281 428.563C292.836 428.021 292.606 427.335 292.633 426.635C292.66 425.935 292.943 425.269 293.428 424.763C293.913 424.257 294.566 423.946 295.265 423.89C300.172 423.528 310.958 421.64 313.955 412.223C314.299 411.212 314.986 410.354 315.896 409.797C316.807 409.239 317.884 409.019 318.94 409.173ZM404.91 407.343C402.086 408.17 399.12 408.4 396.203 408.018C395.579 407.913 394.941 407.94 394.329 408.097C393.717 408.254 393.144 408.537 392.648 408.928C392.151 409.319 391.742 409.809 391.446 410.367C391.15 410.926 390.975 411.54 390.93 412.17C390.66 416.208 390.775 421.153 392.697 422.42C395.862 424.485 419.095 428.068 431.397 424.225C432.081 424.016 432.662 423.559 433.027 422.945C433.392 422.331 433.515 421.603 433.372 420.903C433.231 420.232 432.853 419.636 432.307 419.222C431.76 418.809 431.083 418.606 430.4 418.653C425.493 418.975 414.54 418.613 410.257 409.695C409.782 408.74 408.986 407.981 408.009 407.551C407.032 407.122 405.936 407.048 404.91 407.343Z" fill="#1D1D1B"/>
<path d="M234.175 106.888C236.045 104.615 235.955 100.683 236.045 97.9326C236.053 94.658 235.581 91.3999 234.642 88.2626C233.598 83.4476 231.709 78.8558 229.063 74.7001C228.115 73.3776 223.812 66.8476 221.755 69.0926C220.535 70.4301 222.47 74.2601 222.858 75.6876C223.313 77.3751 224.053 79.0876 224.358 80.7476C223.59 78.4776 218.763 77.2701 216.815 78.3476C214.798 79.4269 213.211 81.1627 212.315 83.2676C208.447 82.2551 209.148 91.7801 209.72 93.6376C210.653 96.6376 213.393 99.8401 216.858 97.9326C215.95 98.4326 217.908 105.07 218.44 106.045C221.048 111.4 231.098 110.63 234.175 106.888ZM437.33 244.5C432.62 242.343 427.595 242.215 424.418 247.25C422.055 250.988 422.12 256.53 422.168 260.8C422.21 263.708 421.918 268.833 423.468 271.428C425.66 275.09 426.968 269.73 427.468 267.705C427.855 266.16 428.44 261.54 430.518 261.475C433.788 261.385 434.865 273.415 435.32 275.778C435.617 277.32 435.93 285.028 438.748 282.643C441.565 280.258 438.733 274.285 439.773 271.378C441.64 266.128 444.377 276.583 446.117 277.608C450.79 280.385 447.235 269.25 447.507 266.953C451.1 266.018 451.36 274.598 455.8 273.39C456.707 270.328 454.55 266.693 453.515 263.798C452.167 260.109 450.325 256.62 448.038 253.428C445.255 249.618 441.578 246.552 437.33 244.5Z" fill="#FFCEB6"/>
<path d="M131.007 163.63C138.405 163.63 144.402 157.633 144.402 150.235C144.402 142.837 138.405 136.84 131.007 136.84C123.61 136.84 117.612 142.837 117.612 150.235C117.612 157.633 123.61 163.63 131.007 163.63Z" fill="#6584BF"/>
<path d="M83.25 70.2225C85.82 66.1475 89.935 63.2 92.0375 58.7875C93.0313 56.3952 93.4278 53.7968 93.1926 51.2169C92.9574 48.6371 92.0976 46.1532 90.6875 43.98C88.6445 40.2516 85.7164 37.0824 82.1609 34.7514C78.6054 32.4205 74.5314 30.9991 70.2975 30.6125C50.7975 28.795 36.615 41.02 44.7675 59.58C47.2475 65.225 52.075 69.86 55.955 74.805C58.0403 78.2468 59.8124 81.8689 61.25 85.6275H77.695C77.6925 86 79.91 75.5325 83.25 70.2225Z" fill="#5B52C0"/>
<path d="M80.1575 63.15C80.0162 62.6504 79.7446 62.1975 79.3704 61.8376C78.9962 61.4778 78.533 61.224 78.0283 61.1023C77.5236 60.9807 76.9957 60.9955 76.4986 61.1454C76.0016 61.2952 75.5534 61.5746 75.2 61.955C74.4545 62.7335 73.9112 63.6829 73.6175 64.72C73.2025 65.9275 72.8375 67.1475 72.54 68.3925C71.5654 68.3446 70.6191 68.0495 69.79 67.535C70.4609 66.7823 70.964 65.8955 71.2657 64.9334C71.5674 63.9713 71.6609 62.956 71.54 61.955C71.5477 61.2972 71.3232 60.6579 70.9061 60.1493C70.4889 59.6408 69.9057 59.2957 69.2591 59.1748C68.6126 59.0538 67.9441 59.1648 67.3713 59.4881C66.7985 59.8114 66.358 60.3264 66.1275 60.9425C65.8292 62.0158 65.7514 63.1385 65.8988 64.2427C66.0462 65.347 66.4157 66.4099 66.985 67.3675C65.9375 68.0829 64.6523 68.3618 63.4025 68.145C62.575 65.13 61.9025 61.9175 59.4575 60.5275C59.0421 60.2694 58.555 60.1512 58.0675 60.19C54.8175 60.53 56.1775 67.7875 61.78 69.7675C63.0022 74.4012 63.9934 79.0928 64.75 83.825C64.8177 84.0608 64.9697 84.2635 65.177 84.3945C65.3844 84.5256 65.6328 84.5758 65.8748 84.5357C66.1168 84.4956 66.3356 84.3679 66.4896 84.1769C66.6436 83.9859 66.7221 83.745 66.71 83.5C65.98 79.0262 65.0491 74.5875 63.92 70.1975C65.4795 70.2624 67.0154 69.8 68.28 68.885C69.3992 69.7185 70.7313 70.2186 72.1225 70.3275C71.3264 74.6704 71.296 79.1191 72.0325 83.4725C72.0772 83.734 72.2241 83.9671 72.4407 84.1204C72.6573 84.2737 72.9259 84.3347 73.1875 84.29C73.4491 84.2452 73.6821 84.0984 73.8355 83.8818C73.9888 83.6652 74.0498 83.3965 74.005 83.135C73.2921 78.8996 73.3403 74.5709 74.1475 70.3525C78.8425 69.95 81.1825 66.25 80.1575 63.15ZM58.3425 62.2275C59.9275 63.02 60.5925 65.4775 61.04 67.2125C60.1922 66.6916 59.4965 65.9567 59.023 65.0816C58.5494 64.2065 58.3147 63.2221 58.3425 62.2275ZM68.4775 65.9775C67.831 64.6861 67.6348 63.2157 67.92 61.8C68.0069 61.6193 68.1383 61.4638 68.3019 61.3479C68.4654 61.232 68.6558 61.1596 68.855 61.1375C69.3 61.1375 69.49 61.81 69.555 62.2525C69.6294 62.9137 69.5725 63.5832 69.3876 64.2224C69.2027 64.8616 68.8934 65.4581 68.4775 65.9775ZM74.6025 68.3275C74.8525 67.3275 75.1475 66.355 75.485 65.3825C75.85 64.365 76.3675 63.0325 77.46 63.0325C78.8675 63.0325 79.18 67.5325 74.6025 68.3275ZM61.82 89.6775H76.5C76.6989 89.6775 76.8897 89.5985 77.0303 89.4578C77.171 89.3171 77.25 89.1264 77.25 88.9275C77.25 88.7286 77.171 88.5378 77.0303 88.3971C76.8897 88.2565 76.6989 88.1775 76.5 88.1775H61.82C61.6211 88.1775 61.4303 88.2565 61.2897 88.3971C61.149 88.5378 61.07 88.7286 61.07 88.9275C61.07 89.1264 61.149 89.3171 61.2897 89.4578C61.4303 89.5985 61.6211 89.6775 61.82 89.6775ZM61.82 93.6625H76.5C76.6989 93.6625 76.8897 93.5835 77.0303 93.4428C77.171 93.3022 77.25 93.1114 77.25 92.9125C77.25 92.7136 77.171 92.5228 77.0303 92.3821C76.8897 92.2415 76.6989 92.1625 76.5 92.1625H61.82C61.6211 92.1625 61.4303 92.2415 61.2897 92.3821C61.149 92.5228 61.07 92.7136 61.07 92.9125C61.07 93.1114 61.149 93.3022 61.2897 93.4428C61.4303 93.5835 61.6211 93.6625 61.82 93.6625ZM248.35 23.07C248.377 23.5645 248.281 24.0579 248.071 24.5063C247.86 24.9546 247.542 25.344 247.145 25.6396C246.748 25.9352 246.283 26.1278 245.793 26.2003C245.304 26.2728 244.803 26.2228 244.337 26.055C243.891 25.8634 243.492 25.5761 243.169 25.2133C242.846 24.8506 242.606 24.4212 242.468 23.9556C242.329 23.49 242.294 22.9996 242.366 22.5191C242.437 22.0386 242.614 21.5797 242.882 21.175C243.282 20.6867 243.822 20.3328 244.429 20.161C245.036 19.9893 245.681 20.008 246.277 20.2146C246.874 20.4213 247.392 20.8058 247.763 21.3165C248.133 21.8271 248.338 22.4391 248.35 23.07C248.4 24.3425 250.397 24.3625 250.35 23.07C250.354 21.9011 249.949 20.7677 249.206 19.8654C248.463 18.9631 247.428 18.3485 246.28 18.1277C245.132 17.9069 243.944 18.0938 242.919 18.656C241.894 19.2183 241.098 20.1207 240.667 21.2075C240.404 21.9236 240.301 22.6886 240.365 23.4488C240.43 24.209 240.66 24.9459 241.039 25.6077C241.419 26.2694 241.939 26.84 242.563 27.2792C243.187 27.7184 243.899 28.0157 244.65 28.15C245.37 28.256 246.105 28.2027 246.802 27.9939C247.5 27.7851 248.143 27.4258 248.687 26.9415C249.23 26.4571 249.661 25.8593 249.948 25.1904C250.236 24.5215 250.373 23.7977 250.35 23.07C250.35 22.8048 250.245 22.5504 250.057 22.3629C249.87 22.1753 249.615 22.07 249.35 22.07C249.085 22.07 248.83 22.1753 248.643 22.3629C248.455 22.5504 248.35 22.8048 248.35 23.07Z" fill="#1D1D1B"/>
<path d="M268.607 23.07C268.646 23.6116 268.57 24.1552 268.384 24.6654C268.198 25.1757 267.908 25.6411 267.53 26.0316C267.153 26.4221 266.698 26.7288 266.194 26.9318C265.691 27.1348 265.15 27.2296 264.607 27.21C264.019 27.2026 263.44 27.0681 262.909 26.8156C262.378 26.5632 261.908 26.1989 261.53 25.7477C261.153 25.2965 260.878 24.7691 260.724 24.2016C260.57 23.6341 260.54 23.04 260.637 22.46C260.758 21.4346 261.271 20.4956 262.068 19.8395C262.866 19.1834 263.886 18.861 264.915 18.9398C265.945 19.0186 266.904 19.4924 267.592 20.2622C268.28 21.032 268.644 22.0381 268.607 23.07Z" fill="#AB9CD6"/>
<path d="M265.39 18.1C264.258 17.8897 263.088 18.0872 262.087 18.6574C261.087 19.2277 260.321 20.1337 259.925 21.215C259.662 21.9312 259.559 22.6965 259.623 23.4568C259.688 24.2172 259.918 24.9542 260.298 25.616C260.678 26.2778 261.198 26.8483 261.822 27.2874C262.446 27.7265 263.159 28.0235 263.91 28.1575C264.614 28.2557 265.332 28.2024 266.014 28.0014C266.696 27.8004 267.327 27.4561 267.866 26.9916C268.404 26.5272 268.838 25.9532 269.137 25.3079C269.436 24.6627 269.594 23.9611 269.6 23.25C269.631 22.0298 269.223 20.8391 268.45 19.8942C267.678 18.9492 266.592 18.3126 265.39 18.1ZM263.597 26.055C263.151 25.8636 262.752 25.5762 262.429 25.2134C262.106 24.8505 261.866 24.4211 261.728 23.9554C261.589 23.4897 261.555 22.9992 261.627 22.5187C261.699 22.0382 261.876 21.5795 262.145 21.175C262.544 20.6863 263.084 20.3319 263.691 20.1599C264.298 19.9879 264.943 20.0066 265.54 20.2133C266.136 20.42 266.654 20.8049 267.024 21.3158C267.395 21.8267 267.599 22.4391 267.61 23.07C267.637 23.5645 267.541 24.0579 267.331 24.5063C267.12 24.9547 266.802 25.344 266.405 25.6396C266.008 25.9352 265.543 26.1278 265.053 26.2003C264.564 26.2728 264.063 26.2229 263.597 26.055ZM79.095 104.577C75.9658 103.042 72.5103 102.291 69.0262 102.388C65.5421 102.485 62.1338 103.428 59.095 105.135C55.3612 107.64 52.5247 111.272 50.9988 115.501C49.4729 119.731 49.3373 124.337 50.6118 128.649C51.8863 132.961 54.5042 136.753 58.0842 139.473C61.6642 142.194 66.0193 143.7 70.515 143.772C92.3975 143.337 97.135 113.342 79.095 104.577ZM73.6425 141.5C68.8369 142.382 63.8774 141.326 59.8484 138.562C55.8194 135.798 53.0488 131.551 52.1425 126.75C51.3109 123.11 51.5772 119.306 52.9077 115.818C54.2382 112.329 56.5733 109.314 59.6175 107.152C62.4341 105.372 65.6767 104.378 69.0075 104.276C72.3384 104.174 75.6357 104.966 78.5564 106.571C81.4771 108.175 83.9143 110.533 85.6143 113.399C87.3143 116.266 88.2149 119.535 88.2225 122.867C88.165 131.857 82.8825 139.927 73.6425 141.5Z" fill="#1D1D1B"/>
<path d="M58.73 121.202C60.0127 121.202 61.0525 120.163 61.0525 118.88C61.0525 117.597 60.0127 116.557 58.73 116.557C57.4473 116.557 56.4075 117.597 56.4075 118.88C56.4075 120.163 57.4473 121.202 58.73 121.202Z" fill="#1D1D1B"/>
<path d="M80.975 121.528C82.2577 121.528 83.2975 120.488 83.2975 119.205C83.2975 117.922 82.2577 116.883 80.975 116.883C79.6923 116.883 78.6525 117.922 78.6525 119.205C78.6525 120.488 79.6923 121.528 80.975 121.528Z" fill="#1D1D1B"/>
<path d="M77 126.848C76.9406 128.658 76.1796 130.375 74.8778 131.635C73.576 132.894 71.8354 133.599 70.0238 133.599C68.2122 133.599 66.4715 132.894 65.1697 131.635C63.8679 130.375 63.1069 128.658 63.0475 126.848C62.9825 125.575 60.9825 125.563 61.0475 126.848C61.0276 128.038 61.2449 129.22 61.6867 130.326C62.1285 131.431 62.786 132.438 63.6208 133.287C64.4556 134.136 65.451 134.81 66.549 135.27C67.6471 135.73 68.8257 135.967 70.0163 135.967C71.2068 135.967 72.3855 135.73 73.4835 135.27C74.5815 134.81 75.5769 134.136 76.4117 133.287C77.2465 132.438 77.904 131.431 78.3458 130.326C78.7876 129.22 79.0049 128.038 78.985 126.848C79.055 125.563 77.0575 125.563 77 126.848Z" fill="#1D1D1B"/>
<path d="M117.835 74.375L133.772 41.1625C137.565 45.8563 140.436 51.2247 142.235 56.985C142.767 58.4 146.557 71.1825 147.712 71.0525L117.835 74.375Z" fill="#5B52C0"/>
<path d="M114.6 104.27L132.45 86.42L150.297 104.27L132.447 122.12L114.6 104.27Z" fill="#AB9CD6"/>
<path d="M253.125 68.2625C253.445 68.5441 253.849 68.7119 254.274 68.74C254.699 68.768 255.121 68.6546 255.475 68.4175C262.39 63.75 273.975 58.8325 274.255 48.575C274.342 46.1351 273.634 43.7331 272.239 41.7297C270.844 39.7263 268.836 38.2298 266.518 37.465C264.773 37.0251 262.943 37.0474 261.209 37.5296C259.476 38.0118 257.897 38.9373 256.63 40.215C256.446 40.4303 256.216 40.602 255.958 40.7177C255.699 40.8334 255.418 40.8902 255.135 40.8839C254.851 40.8777 254.573 40.8087 254.32 40.6817C254.066 40.5548 253.845 40.3732 253.67 40.15C252.384 38.2254 250.494 36.7827 248.299 36.0486C246.103 35.3145 243.726 35.3306 241.54 36.0943C239.355 36.8581 237.485 38.3262 236.225 40.2681C234.965 42.2099 234.385 44.5155 234.578 46.8225C234.645 49.3075 235.263 51.7467 236.387 53.964C237.511 56.1813 239.113 58.1216 241.078 59.645C244.52 62.475 249.628 65.2325 253.125 68.2625Z" fill="#5B52C0"/>
<path d="M335.25 135.818C335.479 135.949 335.751 135.985 336.007 135.916C336.262 135.848 336.48 135.681 336.613 135.453C338.127 132.453 340.016 129.658 342.232 127.133C342.458 127.322 342.696 127.496 342.945 127.653C340.74 134.168 339.83 141.788 338.102 148.25C335.777 156.94 330.265 180.218 331.445 189.145C331.965 193.105 334.34 196.075 336.273 199.515C337.338 201.398 341.428 210.885 344.113 211.248C347.033 211.638 352.887 197.555 353.937 195.193C355.718 192.074 356.993 188.693 357.715 185.175C358.04 180.97 355.832 176.22 354.965 172.158C353.215 163.908 352.465 155.408 351.527 147.03C350.745 140.098 351.102 131.818 347.412 127.47C347.544 127.356 347.67 127.235 347.79 127.108C350.021 129.636 351.918 132.441 353.435 135.453C353.571 135.677 353.789 135.841 354.043 135.909C354.297 135.977 354.567 135.944 354.797 135.818C361.458 132.054 367.543 127.351 372.863 121.853C373.015 121.695 373.113 121.492 373.14 121.275C373.168 121.057 373.125 120.836 373.018 120.645C371.018 117.413 367.67 111.675 363.207 112C359.282 112.456 355.436 113.438 351.773 114.92C347.288 114.396 342.757 114.396 338.272 114.92C334.617 113.426 330.774 112.444 326.85 112C322.372 111.675 319.052 117.4 317.04 120.645C316.932 120.836 316.889 121.057 316.917 121.275C316.945 121.492 317.042 121.695 317.195 121.853C322.512 127.349 328.593 132.053 335.25 135.818ZM370.9 120.995C366.071 125.879 360.621 130.107 354.69 133.57C353.164 130.652 351.25 127.954 349 125.55C350.517 122.772 351.789 119.867 352.803 116.868C354.746 116.244 356.702 115.661 358.67 115.118C365.143 113.33 367.263 115.133 370.905 121L370.9 120.995ZM336.7 116.685C337.07 120.088 338.522 123.282 340.842 125.798C338.685 128.138 336.843 130.751 335.365 133.57C329.43 130.117 323.979 125.893 319.155 121.008C324.5 112.458 327 113.615 336.705 116.685H336.7ZM244.313 109.86C244.28 109.733 244.222 109.613 244.142 109.509C244.063 109.404 243.963 109.317 243.849 109.251C243.735 109.186 243.609 109.144 243.479 109.128C243.349 109.112 243.216 109.122 243.09 109.158C233.565 111.386 224.044 113.601 214.527 115.803C214.276 115.877 214.063 116.045 213.932 116.272C213.801 116.499 213.763 116.768 213.825 117.023C214.423 120.918 215.025 124.816 215.63 128.718C215.7 128.971 215.868 129.187 216.096 129.318C216.325 129.449 216.595 129.485 216.85 129.418C226.532 126.354 236.209 123.296 245.882 120.243C246.133 120.167 246.345 119.998 246.475 119.772C246.605 119.545 246.643 119.277 246.582 119.023C245.83 115.973 245.05 112.925 244.313 109.86ZM242.625 111.313C243.235 113.753 243.832 116.18 244.44 118.62C235.42 121.463 226.405 124.31 217.395 127.16C216.895 123.94 216.407 120.735 215.915 117.518C224.818 115.466 233.722 113.398 242.625 111.313ZM439.473 232.5C434.053 220.678 434.502 220.903 433.812 220.793C433.227 220.585 435.038 219.543 404.403 241.48C404.274 241.56 404.165 241.668 404.084 241.795C404.002 241.922 403.949 242.066 403.929 242.216C403.909 242.366 403.923 242.519 403.969 242.663C404.015 242.807 404.092 242.939 404.195 243.05C405.174 244.293 406.41 245.31 407.819 246.029C409.228 246.749 410.777 247.154 412.357 247.218C421.497 246.718 432.692 240.255 439.302 233.718C439.462 233.563 439.566 233.359 439.597 233.138C439.627 232.917 439.584 232.693 439.473 232.5ZM416.008 244.673C414.369 245.246 412.601 245.344 410.909 244.956C409.216 244.568 407.668 243.71 406.443 242.48L433.165 223.31C434.58 226.465 436.008 229.605 437.415 232.76C431.4 238.478 424.031 242.575 416 244.668L416.008 244.673ZM392.125 178.205C391.462 199.645 389.92 247.913 389.828 250.6H300.457C300.192 250.6 299.938 250.705 299.75 250.893C299.563 251.08 299.457 251.335 299.457 251.6C299.457 251.865 299.563 252.12 299.75 252.307C299.938 252.495 300.192 252.6 300.457 252.6H390.79C391.053 252.594 391.304 252.487 391.491 252.301C391.677 252.115 391.784 251.863 391.79 251.6C392.465 230.158 394.023 181.23 394.113 178.205C394.163 176.92 392.165 176.92 392.125 178.205ZM228.672 82.4476C227.528 83.3741 226.758 84.6842 226.505 86.1351C226.272 84.8376 225.96 83.6351 225.74 82.7476C225.44 81.4976 223.52 82.0326 223.818 83.2801C224.17 84.7576 225.765 92.4801 222.962 92.4026C219.742 89.1851 219.197 83.7076 219.462 79.3601C219.54 78.0751 217.543 78.0876 217.463 79.3601C216.935 84.0099 218.016 88.7001 220.525 92.6501C220.483 92.7533 220.461 92.8636 220.46 92.9751C220.355 95.1926 219.162 96.9201 216.812 96.6201C215.54 96.4651 215.562 98.4651 216.812 98.6201C217.458 98.6997 218.114 98.65 218.74 98.4738C219.367 98.2976 219.952 97.9985 220.462 97.5939C220.972 97.1892 221.396 96.6872 221.71 96.117C222.024 95.5467 222.221 94.9198 222.29 94.2726C224.04 94.2726 224.302 94.2201 224.977 93.7526C226.252 92.8801 225.227 91.9101 225.457 99.9301C225.495 101.215 227.495 101.215 227.457 99.9301C227.215 95.6472 227.556 91.3512 228.47 87.1601C228.77 85.9526 229.613 82.3701 231.638 85.0451C231.964 85.9304 232.14 86.8642 232.158 87.8076C232.74 91.3776 233.105 94.9851 233.44 98.5926C233.558 99.8651 235.557 99.8651 235.44 98.5926C235.175 96.2176 235.082 78.2226 228.672 82.4476ZM357.847 425.175C358.159 425.175 358.463 425.266 358.722 425.439C358.981 425.612 359.183 425.857 359.302 426.145C359.422 426.432 359.453 426.748 359.392 427.054C359.332 427.359 359.182 427.639 358.962 427.859C358.742 428.08 358.461 428.229 358.156 428.29C357.851 428.351 357.535 428.319 357.247 428.2C356.96 428.081 356.714 427.879 356.541 427.62C356.369 427.361 356.277 427.056 356.278 426.745C356.278 426.329 356.444 425.93 356.738 425.636C357.032 425.341 357.431 425.176 357.847 425.175Z" fill="#1D1D1B"/>
<path d="M361.938 151.87C361.814 151.883 361.696 151.926 361.592 151.993C361.488 152.061 361.402 152.153 361.34 152.26C360.308 152.76 360.643 153.26 361.978 172.08C361.981 172.296 362.053 172.506 362.183 172.679C362.313 172.851 362.495 172.978 362.703 173.04C372.803 175.22 372.14 175.505 374.085 175.517C375.275 175.517 375.19 175.3 382.963 171.442C383.114 171.357 383.24 171.233 383.328 171.083C383.416 170.932 383.462 170.761 383.463 170.587C383.515 166.407 383.58 162.24 383.633 158.062C383.901 156.752 383.793 155.393 383.323 154.141C382.852 152.89 382.037 151.796 380.972 150.987C378.662 149.962 374.938 150.677 372.473 150.78C368.941 150.914 365.422 151.278 361.938 151.87ZM374.37 173.572C373.578 173.49 376.918 174.137 363.91 171.287L363.16 160.515C366.337 162.535 371.38 159.74 377.66 160.217C378.973 160.442 380.315 160.446 381.63 160.23C381.605 162.02 381.58 163.812 381.565 165.59C381.327 167.044 381.284 168.524 381.435 169.99C380.826 170.263 380.232 170.57 379.657 170.91C377.827 171.656 376.059 172.546 374.37 173.572ZM380.808 153.415C381.638 154.287 382.158 157.57 380.938 158.307C380.055 158.852 378.018 158.205 377.045 158.152C368.5 157.75 362.265 162.75 362.75 153.75C366.734 153.108 370.76 152.757 374.795 152.7C376.305 152.675 379.6 152.145 380.808 153.415Z" fill="#1D1D1B"/>
</svg>
