<svg width="250" height="250" viewBox="0 0 500 500" fill="none" xmlns="http://www.w3.org/2000/svg">
<path d="M289.343 21.2C288.203 21.3923 287.14 21.9009 286.275 22.6677C285.41 23.4346 284.778 24.4289 284.45 25.5375C283.05 30.9575 290.07 35.5375 294.95 31.98C300.655 27.7975 296 20.0775 289.343 21.2ZM294.005 29.8325C291.105 32.525 286.005 29.9125 286.583 26.405C286.737 25.6864 287.096 25.0276 287.615 24.5079C288.135 23.9881 288.794 23.6295 289.513 23.475C293.295 22.5 297.32 26.75 294 29.8325H294.005Z" fill="#1D1D1B"/>
<path d="M290.693 25.6375C290.426 25.6375 290.164 25.7166 289.942 25.865C289.72 26.0133 289.547 26.2242 289.445 26.4708C289.343 26.7175 289.316 26.989 289.368 27.2508C289.421 27.5127 289.549 27.7532 289.738 27.942C289.927 28.1308 290.167 28.2594 290.429 28.3115C290.691 28.3636 290.962 28.3369 291.209 28.2347C291.456 28.1325 291.667 27.9595 291.815 27.7375C291.963 27.5155 292.043 27.2545 292.043 26.9875C292.043 26.8101 292.008 26.6344 291.94 26.4704C291.873 26.3065 291.773 26.1575 291.648 26.0321C291.522 25.9067 291.373 25.8073 291.21 25.7395C291.046 25.6718 290.87 25.6371 290.693 25.6375Z" fill="#1D1D1B"/>
<path d="M270.117 133.392C268.651 133.198 267.159 133.458 265.844 134.135C264.529 134.813 263.453 135.878 262.76 137.185C262.067 138.493 261.791 139.981 261.968 141.45C262.146 142.919 262.769 144.298 263.753 145.403C264.737 146.508 266.036 147.285 267.475 147.63C268.914 147.975 270.424 147.871 271.802 147.333C273.181 146.795 274.362 145.848 275.186 144.62C276.011 143.391 276.439 141.939 276.415 140.46C276.496 138.693 275.883 136.964 274.706 135.643C273.529 134.322 271.882 133.515 270.117 133.392Z" fill="#B0A0DD"/>
<path d="M405.018 141C405.39 142.66 404.55 142.725 402.558 143.872C398.013 146.482 397.933 146.707 397.398 146.347C396.863 145.987 396.315 145.622 395.775 145.265V147.94C395.775 148.166 395.685 148.383 395.525 148.543C395.365 148.703 395.149 148.792 394.923 148.792C394.696 148.792 394.48 148.703 394.32 148.543C394.16 148.383 394.07 148.166 394.07 147.94V143.69C394.071 143.541 394.111 143.394 394.186 143.265C394.26 143.136 394.367 143.028 394.496 142.952C394.625 142.877 394.771 142.836 394.92 142.834C395.069 142.831 395.217 142.868 395.348 142.94C396.188 143.495 397.01 144.05 397.848 144.605C399.665 143.552 401.473 142.515 403.293 141.462C403.128 140.664 402.731 139.932 402.152 139.357C401.783 138.972 401.384 138.615 400.96 138.29C400.77 138.164 400.637 137.969 400.591 137.746C400.544 137.524 400.587 137.291 400.71 137.1C399.596 138.305 398.239 139.261 396.729 139.903C395.219 140.546 393.589 140.861 391.948 140.827C390.307 140.794 388.692 140.413 387.209 139.71C385.726 139.007 384.409 137.997 383.345 136.747C383.24 136.828 383.137 136.911 383.038 136.997C383.06 137.154 383.038 137.313 382.972 137.457C382.906 137.601 382.801 137.722 382.668 137.807C381.524 138.533 380.693 139.659 380.338 140.965L385.785 144.107L388.285 142.442C388.416 142.367 388.564 142.327 388.715 142.328C388.866 142.328 389.014 142.369 389.144 142.445C389.274 142.521 389.382 142.63 389.457 142.762C389.531 142.893 389.569 143.042 389.568 143.192V147.442C389.556 147.661 389.461 147.866 389.302 148.017C389.143 148.167 388.933 148.251 388.714 148.251C388.495 148.251 388.285 148.167 388.126 148.017C387.967 147.866 387.872 147.661 387.86 147.442V144.767C386.308 145.79 386.013 146.207 385.36 145.85C379.125 142.287 378.875 142.297 378.648 141.752C377.903 142.842 377.228 143.977 376.628 145.152C378.562 147.338 380.939 149.088 383.599 150.287C386.26 151.486 389.145 152.108 392.064 152.11C394.982 152.113 397.869 151.497 400.531 150.302C403.194 149.107 405.574 147.362 407.513 145.18C406.891 143.672 406.05 142.263 405.018 141Z" fill="#3C3AB6"/>
<path d="M290.562 266.81L367.492 267.797C368.243 267.804 368.986 267.645 369.667 267.33C370.348 267.015 370.951 266.553 371.432 265.977L393.77 239.045C394.358 238.328 394.736 237.462 394.863 236.543C394.99 235.625 394.861 234.689 394.49 233.839C394.12 232.989 393.522 232.258 392.762 231.726C392.002 231.194 391.111 230.882 390.185 230.825L310.395 225.825L290.562 266.81ZM203.14 221.702C211.503 231.105 218.84 241.373 225.025 252.332C226.286 254.233 227.277 256.301 227.967 258.475C228.136 258.395 228.326 258.37 228.51 258.405C241.735 247.655 260.227 230.537 277.652 230.265C277.543 230.103 277.485 229.911 277.488 229.715C277.491 229.519 277.553 229.329 277.667 229.17C278.888 227.293 280.34 225.578 281.99 224.065L207.65 219.407C206.763 219.362 205.88 219.551 205.089 219.953C204.298 220.356 203.626 220.959 203.14 221.702Z" fill="#F0CDF1"/>
<path d="M300.035 141.235C300.122 139.466 299.51 137.733 298.332 136.411C297.153 135.089 295.502 134.283 293.735 134.167C292.268 133.974 290.777 134.233 289.462 134.912C288.147 135.59 287.071 136.655 286.379 137.962C285.686 139.27 285.411 140.758 285.589 142.227C285.766 143.695 286.389 145.075 287.374 146.179C288.359 147.284 289.657 148.061 291.096 148.405C292.535 148.75 294.045 148.647 295.423 148.108C296.802 147.57 297.982 146.623 298.806 145.394C299.631 144.166 300.06 142.714 300.035 141.235ZM152.285 186.41C142.41 175.75 115.975 169 90.6425 178.035C91.5066 180.662 92.4411 183.265 93.445 185.842C107.84 176.652 135.928 180.697 152.285 186.41Z" fill="#3C3AB6"/>
<path d="M285.25 233.725C267.885 227.275 244.812 247.937 231.5 258.91C232.88 259.383 234.143 260.145 235.205 261.145C236.267 262.145 237.103 263.361 237.658 264.71C237.795 264.969 237.826 265.272 237.745 265.554C237.665 265.836 237.478 266.076 237.224 266.223C236.97 266.37 236.669 266.413 236.384 266.343C236.099 266.273 235.852 266.096 235.695 265.847C235.28 265.3 235.135 265.197 235.168 264.682C235.06 264.454 234.932 264.236 234.785 264.03C234.205 263.183 233.463 262.459 232.601 261.901C231.739 261.343 230.775 260.962 229.765 260.78C232.515 263.38 233.242 267.727 233.447 271.49C233.532 272.952 231.258 272.937 231.173 271.49C231.335 267.97 230.098 264.529 227.733 261.917C227.545 262.054 227.32 262.131 227.087 262.136C226.855 262.141 226.627 262.075 226.433 261.946C226.239 261.818 226.09 261.633 226.004 261.417C225.919 261.201 225.902 260.964 225.955 260.737C225.955 260.737 225.998 260.357 225.998 260.085C225.905 259.952 225.846 259.799 225.826 259.638C225.806 259.477 225.826 259.314 225.882 259.162C225.445 257.715 224.798 256.34 223.963 255.08C207.393 225.287 182.713 198.98 149.438 187.892C134.87 183.165 111.298 179.562 97.0675 186.412C91.9237 188.841 87.757 192.944 85.25 198.05C104.304 201.267 122.299 209.037 137.705 220.7C170.765 245.33 173.398 288.157 180.82 325.157C185.07 346.357 188.515 386.84 205.532 403.31C210.035 402.323 214.055 399.805 216.908 396.185C216.098 396 215.5 395.005 216.313 394.337C219.838 391.342 222.406 387.378 223.7 382.937C224.994 378.496 224.957 373.773 223.592 369.352C223.137 367.96 225.343 367.352 225.783 368.74C226.512 371.051 226.895 373.457 226.92 375.88C227.779 371.832 227.919 367.664 227.333 363.567C221.273 350.102 230.455 339.66 243.813 333.532C242.648 328.434 239.936 323.82 236.048 320.322C223.02 324.43 208.967 323.857 196.318 318.702C193.888 317.809 191.538 316.71 189.295 315.417C189.041 315.262 188.857 315.013 188.785 314.724C188.712 314.435 188.756 314.129 188.906 313.872C189.057 313.614 189.303 313.427 189.591 313.349C189.878 313.271 190.185 313.309 190.445 313.455C191.535 314.084 192.655 314.658 193.803 315.175C206.405 321.176 220.765 322.37 234.185 318.532C255.228 311.867 291.805 287.972 297.763 265.635C301.855 249.082 294.935 237.32 285.25 233.725Z" fill="#3C3AB6"/>
<path d="M403.722 123.965C403.719 123.791 403.675 123.62 403.595 123.465C402.523 121.397 400.91 119.658 398.929 118.434C396.948 117.209 394.672 116.544 392.343 116.509C390.014 116.474 387.719 117.071 385.702 118.236C383.685 119.401 382.021 121.09 380.887 123.125C378.512 124.35 377.783 131.58 379.948 131.955C381.685 132.285 383.402 127.495 382.67 124.497C384.01 122.194 386.083 120.407 388.558 119.42C390.999 118.583 393.659 118.646 396.058 119.598C398.456 120.55 400.436 122.327 401.64 124.61C401.678 124.67 401.721 124.726 401.767 124.78C401.396 126.076 401.351 127.445 401.635 128.763C401.92 130.081 402.525 131.309 403.397 132.337C406.06 134.322 406.407 126.192 403.722 123.965Z" fill="#AC47F5"/>
<path d="M357.837 62.8999C357.724 62.9629 357.598 62.9996 357.468 63.0073C357.339 63.0149 357.209 62.9933 357.089 62.9441C356.969 62.8949 356.862 62.8193 356.775 62.723C356.688 62.6266 356.624 62.5119 356.587 62.3874C356.114 59.5839 354.668 57.0368 352.503 55.1935C350.338 53.3503 347.593 52.3288 344.75 52.3085C341.907 52.2882 339.148 53.2704 336.957 55.0826C334.766 56.8947 333.283 59.4209 332.77 62.2174C332.707 62.4345 332.562 62.6185 332.365 62.7301C332.169 62.8417 331.936 62.8721 331.717 62.8149C331.445 62.7309 331.157 62.7092 330.874 62.7515C330.592 62.7938 330.323 62.899 330.087 63.0594C329.85 63.2197 329.653 63.431 329.51 63.6778C329.366 63.9245 329.28 64.2004 329.258 64.4849C329.238 64.7867 329.292 65.0887 329.416 65.3647C329.54 65.6406 329.729 65.8822 329.967 66.0685C330.205 66.2547 330.485 66.38 330.783 66.4334C331.081 66.4868 331.387 66.4667 331.675 66.3749C331.894 66.3184 332.126 66.3492 332.322 66.4607C332.519 66.5722 332.664 66.7557 332.728 66.9724C335.538 79.8649 353.898 79.1124 356.575 66.8174C356.605 66.709 356.656 66.6076 356.725 66.5189C356.794 66.4302 356.88 66.3559 356.977 66.3004C357.075 66.2449 357.183 66.2093 357.294 66.1955C357.406 66.1816 357.519 66.19 357.627 66.22C357.863 66.3455 358.121 66.4233 358.387 66.449C358.653 66.4747 358.921 66.4478 359.177 66.3698C359.432 66.2918 359.669 66.1642 359.876 65.9944C360.082 65.8245 360.252 65.6157 360.378 65.3799C360.526 65.0269 360.565 64.6373 360.489 64.2619C360.413 63.8865 360.226 63.5426 359.952 63.275C359.678 63.0074 359.33 62.8285 358.953 62.7616C358.575 62.6947 358.187 62.7429 357.837 62.8999Z" fill="#9B6868"/>
<path d="M322.095 141.235C322.182 139.466 321.57 137.733 320.392 136.411C319.213 135.089 317.562 134.283 315.795 134.167C314.328 133.974 312.837 134.233 311.522 134.912C310.207 135.59 309.131 136.655 308.439 137.962C307.747 139.27 307.471 140.758 307.649 142.227C307.827 143.695 308.45 145.075 309.434 146.179C310.419 147.284 311.718 148.061 313.156 148.405C314.595 148.75 316.105 148.647 317.483 148.108C318.862 147.57 320.042 146.623 320.866 145.394C321.691 144.166 322.12 142.714 322.095 141.235Z" fill="#472580"/>
<path d="M95.33 162.4C94.905 163.912 94.83 161.597 95.5275 174.15C97.6896 173.568 99.8769 173.085 102.083 172.7C98.6275 170.227 96.2195 166.554 95.33 162.4ZM160.228 86.2824C158.859 84.6361 157.402 83.0655 155.863 81.5774C151.483 89.0624 143.155 91.3799 142.41 99.1949C142.49 99.4449 144.095 104.627 144.388 105.992C159.278 111.477 162.163 133.632 150.118 142.835C146.792 145.323 142.77 146.706 138.618 146.787C141.065 148.6 141.02 151.627 140.168 154.565C139.6 156.869 138.559 159.028 137.109 160.907C135.66 162.785 133.835 164.34 131.75 165.472C129.633 166.542 127.217 166.87 124.891 166.403C122.565 165.936 120.463 164.702 118.923 162.897C119.319 164.437 119.291 166.056 118.841 167.581C118.39 169.106 117.535 170.48 116.365 171.557C127.928 171.527 139.27 174.723 149.115 180.787C148.73 176.99 148.365 173.207 147.978 169.41C148.205 171.73 167.43 160.41 168.978 158.845C174.263 153.29 177.717 146.247 178.873 138.667C182.013 119.75 172.053 100.467 160.228 86.2824ZM300.75 262.28C306.145 258.213 309.94 252.38 311.473 245.8C311.528 245.61 311.632 245.437 311.774 245.299C311.916 245.161 312.091 245.062 312.282 245.012C312.474 244.961 312.675 244.962 312.867 245.012C313.058 245.062 313.233 245.162 313.375 245.3C314.436 246.474 315.865 247.251 317.428 247.502C318.005 247.472 318.558 247.263 319.012 246.905C319.465 246.547 319.796 246.057 319.96 245.502C321.083 242.602 318.838 239.785 317.145 237.652C314.962 236.234 312.35 235.626 309.765 235.932C309.479 236.001 309.177 235.955 308.924 235.806C308.67 235.656 308.485 235.414 308.406 235.131C308.327 234.848 308.361 234.545 308.5 234.286C308.64 234.027 308.875 233.832 309.155 233.742C312.44 233.232 315.796 233.995 318.538 235.875C320.443 236.625 323.19 237.467 324.125 235.007C324.351 233.913 324.283 232.778 323.925 231.718C323.568 230.659 322.936 229.714 322.093 228.98C321.198 227.93 320.223 226.95 319.178 226.05C317.438 225.3 315.565 224.911 313.67 224.906C311.776 224.902 309.901 225.281 308.158 226.022C307.897 226.164 307.592 226.201 307.305 226.127C307.018 226.053 306.77 225.872 306.61 225.622C306.456 225.363 306.411 225.052 306.485 224.76C306.559 224.467 306.746 224.215 307.005 224.06C309.358 223.026 311.921 222.559 314.488 222.695C308.813 219.237 302.024 218.1 295.533 219.519C289.041 220.938 283.347 224.805 279.633 230.315C293.305 231.167 303.555 243.982 300.75 262.28Z" fill="#FFCEB6"/>
<path d="M299.592 419.462C294.517 419.462 292.91 425.875 292.042 429.785C291.317 433.118 290.72 436.474 290.25 439.852C297.003 436.143 303.413 431.842 309.405 427C307.23 423.677 303.57 419.462 299.592 419.462ZM194.972 438.95C194.161 437.639 193.038 436.55 191.702 435.78C190.971 435.437 190.171 435.265 189.363 435.274C188.556 435.284 187.76 435.477 187.038 435.837C184.135 437.458 181.797 439.929 180.34 442.917C176.749 450.164 174.692 458.074 174.298 466.152C184.034 466.88 193.81 466.887 203.547 466.175C203.074 462.997 202.437 459.845 201.64 456.732C200.097 450.645 198.637 444.172 194.972 438.95Z" fill="#B48DF2"/>
<path d="M326.312 391.08C323.042 386.112 317.112 385.665 311.225 386.672C286.922 390.812 265.495 406.48 240.667 410.775C229.902 412.637 217.903 412.852 209.085 406.397C188.88 391.68 185.53 348.682 180.818 325.187C173.408 288.187 170.763 245.357 137.703 220.73C116.173 204.7 87.55 193.932 60.5625 197.892C49.8675 199.472 39.205 203.642 31.825 211.545C6.825 238.295 15.7275 294.795 23.4475 326.922C31.965 362.342 48.0475 397.58 73.915 423.742C76.7375 418.407 81.505 416.895 84.82 418.07C88.035 419.207 89.3 422.462 90.4525 425.377C92.5535 430.734 94.3071 436.22 95.7025 441.802C104.62 447.75 114.268 452.522 124.408 456C139.831 461.243 155.834 464.592 172.065 465.975C174.26 438.402 188.155 424.837 197.162 438.147C200.96 443.78 202.452 450.69 204.13 457.172C204.854 460.084 205.412 463.035 205.8 466.01C222.532 464.599 239.011 461.034 254.83 455.402C266.157 451.487 277.179 446.739 287.805 441.197C288.09 438.925 288.418 436.662 288.805 434.415C289.728 429.297 290.805 422.14 294.848 418.915C295.889 418.087 297.126 417.541 298.439 417.329C299.753 417.118 301.099 417.248 302.348 417.707C306.017 419.346 309.088 422.084 311.135 425.542C316.468 420.707 324.815 410.74 327.26 401.792C327.274 398.2 326.957 394.614 326.312 391.08Z" fill="#B48DF2"/>
<path d="M82.66 419.96C81.0885 420.101 79.5906 420.691 78.345 421.659C77.0994 422.628 76.1587 423.934 75.635 425.422C80.9576 430.692 86.7128 435.505 92.84 439.812C91.5713 435.115 90.0431 430.491 88.2625 425.962C87.25 423.372 86 420 82.66 419.96Z" fill="#B48DF2"/>
<path d="M401.768 124.767C401.26 123.883 400.654 123.057 399.963 122.307C398.567 120.743 396.735 119.631 394.703 119.114C392.671 118.597 390.531 118.7 388.558 119.407C386.066 120.367 383.985 122.161 382.67 124.485C382.943 125.739 382.92 127.04 382.602 128.284C382.283 129.528 381.679 130.681 380.838 131.65C381.378 134.193 382.758 136.48 384.755 138.145C386.751 139.809 389.249 140.755 391.848 140.829C394.447 140.904 396.995 140.104 399.084 138.556C401.173 137.009 402.681 134.805 403.368 132.297C402.506 131.269 401.909 130.044 401.63 128.732C401.351 127.419 401.398 126.058 401.768 124.767Z" fill="#FFCEB6"/>
<path d="M238.442 78.4849C237.418 78.8457 236.295 78.8046 235.3 78.3699C229.7 86.9174 230.02 85.8824 230.578 86.8874C232.46 90.1904 234.452 93.4297 236.55 96.5999C238.43 92.6574 242.237 86.6874 242.237 86.1774C242.227 85.9249 242.5 86.7274 238.442 78.4849ZM236.97 76.4374C237.413 76.4382 237.85 76.3387 238.249 76.1465C238.647 75.9542 238.997 75.6742 239.272 75.3274C237.873 75.4958 236.458 75.4714 235.065 75.2549C235.272 75.584 235.551 75.8616 235.881 76.0665C236.211 76.2714 236.583 76.3983 236.97 76.4374Z" fill="#472580"/>
<path d="M224.557 63.22C224.847 63.1438 225.156 63.1844 225.416 63.333C225.677 63.4817 225.868 63.7265 225.95 64.015C228.672 76.475 246.615 76.0149 249.255 63.8649C249.337 63.576 249.529 63.3307 249.79 63.182C250.051 63.0333 250.36 62.993 250.65 63.07C251.06 63.2956 251.542 63.3505 251.992 63.2227C252.441 63.0949 252.823 62.7948 253.053 62.3874C253.178 62.0892 253.213 61.7601 253.151 61.4422C253.089 61.1244 252.933 60.8324 252.704 60.6034C252.475 60.3744 252.183 60.2189 251.865 60.1569C251.547 60.0948 251.218 60.129 250.92 60.2549C250.769 60.3403 250.601 60.3903 250.428 60.4012C250.255 60.4121 250.082 60.3836 249.922 60.3179C249.762 60.2522 249.618 60.1509 249.503 60.0218C249.387 59.8927 249.303 59.7391 249.255 59.5725C245.913 46.1975 228.935 46.6725 226.02 59.3025C226.02 59.33 226.02 59.3575 225.993 59.4C225.911 59.6889 225.72 59.9343 225.459 60.0834C225.199 60.2326 224.89 60.2735 224.6 60.1975C224.365 60.1237 224.116 60.1045 223.873 60.1413C223.629 60.178 223.397 60.2697 223.194 60.4094C222.991 60.5492 222.823 60.7333 222.702 60.9478C222.581 61.1623 222.51 61.4016 222.495 61.6475C222.483 61.9023 222.533 62.1563 222.64 62.3877C222.748 62.619 222.91 62.8207 223.113 62.9754C223.316 63.1301 223.554 63.2332 223.805 63.2758C224.057 63.3184 224.315 63.2992 224.557 63.22Z" fill="#FFCEB6"/>
<path d="M166.327 111.052C167.984 111.052 169.328 109.709 169.328 108.052C169.328 106.396 167.984 105.052 166.327 105.052C164.671 105.052 163.327 106.396 163.327 108.052C163.327 109.709 164.671 111.052 166.327 111.052Z" fill="#1D1D1B"/>
<path d="M158.165 93.3074C158.37 93.0902 158.485 92.8026 158.485 92.5036C158.485 92.2047 158.37 91.9171 158.165 91.6999C157.951 91.4887 157.662 91.3704 157.361 91.3704C157.06 91.3704 156.772 91.4887 156.558 91.6999C154.246 94.3387 152.938 97.7075 152.863 101.215C152.781 101.801 152.854 102.398 153.075 102.947C153.157 103.088 153.267 103.21 153.398 103.307C153.529 103.404 153.677 103.474 153.835 103.513C153.994 103.552 154.158 103.558 154.319 103.532C154.479 103.506 154.633 103.448 154.771 103.362C154.909 103.276 155.028 103.162 155.122 103.029C155.215 102.896 155.281 102.745 155.315 102.586C155.349 102.427 155.351 102.262 155.321 102.102C155.29 101.942 155.228 101.79 155.138 101.655C155.085 98.5947 156.163 95.6227 158.165 93.3074ZM155.165 102.057C155.165 102.212 155.15 102.185 155.15 102.027L155.165 102.057ZM165.973 131.445C167.381 132.852 169.197 133.779 171.163 134.093C173.129 134.408 175.143 134.093 176.92 133.195C177.055 133.123 177.174 133.025 177.27 132.907C177.367 132.788 177.438 132.651 177.48 132.505C177.522 132.358 177.534 132.204 177.515 132.053C177.497 131.901 177.447 131.755 177.371 131.623C177.294 131.491 177.192 131.375 177.07 131.284C176.947 131.192 176.808 131.126 176.66 131.09C176.511 131.053 176.357 131.047 176.207 131.072C176.056 131.096 175.912 131.151 175.783 131.232C174.443 131.888 172.93 132.105 171.46 131.853C169.99 131.6 168.637 130.89 167.593 129.825C167.378 129.61 167.086 129.489 166.782 129.489C166.479 129.489 166.187 129.61 165.973 129.825C165.758 130.04 165.637 130.331 165.637 130.635C165.637 130.939 165.758 131.23 165.973 131.445Z" fill="#1D1D1B"/>
<path d="M448.25 306.972C446.587 306.902 277.903 298.995 274.233 298.822C278.36 295.629 282.261 292.151 285.905 288.415C287.093 288.465 445.297 295.865 447.667 295.915C447.969 295.915 448.258 295.795 448.472 295.582C448.685 295.368 448.805 295.079 448.805 294.777C448.805 294.476 448.685 294.186 448.472 293.973C448.258 293.76 447.969 293.64 447.667 293.64C446.205 293.57 289.035 286.275 287.983 286.217C294.01 279.55 298.248 273.615 300.17 265.287C301.478 265.287 310.065 258.727 313.195 248.08C314.348 249.054 315.772 249.65 317.275 249.787C318.152 249.734 319.004 249.479 319.764 249.04C320.525 248.601 321.173 247.992 321.658 247.26C322.143 246.527 322.451 245.693 322.558 244.821C322.665 243.95 322.568 243.065 322.275 242.237C325.958 242.721 329.651 243.147 333.353 243.515C329.373 247.348 325.358 251.155 321.31 254.935C318.008 254.735 314.695 254.48 311.397 254.185C309.947 254.057 309.947 256.332 311.397 256.46C313.942 256.687 316.503 256.872 319.063 257.045C317.94 258.082 316.827 259.147 315.705 260.187C314.625 261.187 316.23 262.787 317.313 261.792C318.948 260.292 320.54 258.765 322.147 257.257C328.032 257.612 333.923 257.782 339.808 257.825C339.04 258.65 338.245 259.46 337.49 260.285C336.49 261.367 338.1 262.972 339.098 261.892C340.348 260.527 341.627 259.19 342.907 257.855C346.207 257.855 349.512 257.807 352.82 257.712C353.122 257.712 353.411 257.593 353.624 257.379C353.838 257.166 353.957 256.877 353.957 256.575C353.957 256.273 353.838 255.984 353.624 255.771C353.411 255.557 353.122 255.437 352.82 255.437C350.245 255.507 347.672 255.537 345.085 255.55C348.533 251.966 352.05 248.449 355.633 245C357.57 245.07 366.585 245.212 366.585 245.212C366.623 245.456 366.754 245.675 366.95 245.824C367.146 245.973 367.393 246.039 367.637 246.01C367.912 246.004 368.179 245.916 368.403 245.756C368.627 245.597 368.798 245.373 368.893 245.115C368.988 244.857 369.003 244.576 368.936 244.31C368.869 244.043 368.723 243.803 368.517 243.62C367.537 242.555 365.745 242.925 364.45 242.91C362.29 242.88 360.127 242.81 357.967 242.752C360.941 239.919 363.955 237.137 367.01 234.407C368.105 233.425 366.51 231.832 365.405 232.8C361.793 236.028 358.247 239.322 354.767 242.682C354.47 242.667 349.9 242.617 338.485 241.682C340.335 239.877 342.212 238.085 344.045 236.265C344.245 236.049 344.354 235.764 344.348 235.47C344.342 235.176 344.223 234.896 344.015 234.688C343.807 234.48 343.526 234.36 343.232 234.355C342.938 234.349 342.653 234.458 342.438 234.657C340.15 236.932 337.803 239.157 335.485 241.427C335.235 241.4 330.08 241.042 321.31 239.847C321.13 239.514 320.939 239.187 320.737 238.867C321.609 239.018 322.505 238.94 323.337 238.639C324.169 238.339 324.909 237.827 325.483 237.154C326.057 236.481 326.446 235.67 326.612 234.801C326.778 233.932 326.714 233.035 326.428 232.197C325.325 227.36 316.678 219.005 305.678 217.155V214.107C313.883 214.487 438.83 220.357 438.957 220.357C439.259 220.357 439.549 220.238 439.762 220.024C439.975 219.811 440.095 219.522 440.095 219.22C440.095 218.918 439.975 218.629 439.762 218.416C439.549 218.202 439.259 218.082 438.957 218.082C436.752 217.982 313.018 212.187 305.678 211.845C305.678 203.015 305.678 187.14 305.663 183.257C316.853 183.685 428.162 186.172 429.642 186.145C429.941 186.136 430.226 186.014 430.437 185.802C430.649 185.591 430.771 185.306 430.78 185.007C433.217 155.257 440.897 52.4299 438.927 22.3924C438.922 22.0924 438.801 21.806 438.589 21.5938C438.376 21.3816 438.09 21.2601 437.79 21.2549C435.627 21.1699 158.93 12.5049 157.877 12.5524C157.578 12.5588 157.292 12.6807 157.08 12.8927C156.868 13.1046 156.746 13.3903 156.74 13.6899C156.74 16.0249 156.652 38.1099 156.562 62.9824C152.547 56.8424 142.99 54.4299 137.563 59.4049C137.137 56.8459 135.939 54.4784 134.128 52.621C132.317 50.7635 129.981 49.505 127.434 49.0149C124.886 48.5249 122.25 48.8266 119.879 49.8796C117.508 50.9326 115.517 52.6863 114.172 54.9049C111.328 53.2161 108.055 52.3893 104.75 52.5249C103.848 52.5843 102.98 52.8885 102.239 53.4048C101.497 53.9211 100.911 54.63 100.542 55.4549C80.7925 56.9824 62.62 75.7624 64.7925 108.722C66.1475 129.472 74.115 133.407 77.5425 145.01C78.5683 148.573 78.8718 152.306 78.4352 155.988C77.9986 159.67 76.8306 163.228 75 166.452C74.03 168.145 72.825 170.092 73.52 171.912C75.52 177.105 91.75 174.722 95.3475 162.4C96.2346 166.557 98.6417 170.234 102.097 172.71C97.6164 173.508 93.2107 174.683 88.9275 176.222C88.6415 176.308 88.3995 176.5 88.2515 176.76C88.1035 177.019 88.0609 177.325 88.1325 177.615C89.1277 180.82 90.3003 183.967 91.645 187.042C87.8459 189.777 84.8292 193.46 82.895 197.722C83.295 197.78 84.895 197.992 85.3 198.05C93.0825 182.282 112.33 181.335 129.765 183.517C171.745 188.742 203.378 217.967 224.015 255.085C224.515 256.002 226.462 259.387 226.015 260.742C225.962 260.969 225.979 261.206 226.064 261.422C226.15 261.638 226.299 261.823 226.493 261.951C226.687 262.08 226.915 262.146 227.147 262.141C227.38 262.136 227.605 262.059 227.792 261.922C230.167 264.531 231.411 267.976 231.25 271.5C231.335 272.952 233.61 272.965 233.525 271.5C233.303 267.825 232.642 263.405 229.84 260.792C234.74 261.722 235.172 267.207 237.195 266.325C237.449 266.221 237.656 266.027 237.776 265.781C237.897 265.534 237.922 265.252 237.848 264.987C237.309 263.58 236.468 262.307 235.385 261.258C234.302 260.209 233.002 259.411 231.577 258.917C245.077 247.75 267.892 227.29 285.327 233.732C299.362 238.982 305.078 260.715 290.72 279.592C279.945 293.72 260.47 307.037 244.86 314.36C237.596 318.193 229.586 320.4 221.385 320.83C210.62 321.21 199.952 318.685 190.5 313.52C190.241 313.384 189.939 313.354 189.658 313.434C189.377 313.514 189.137 313.7 188.989 313.952C188.841 314.204 188.795 314.503 188.861 314.788C188.927 315.073 189.101 315.322 189.345 315.482C197.02 319.634 205.466 322.165 214.16 322.92C221.571 323.661 229.055 322.797 236.103 320.387C248.766 315.64 260.684 309.103 271.495 300.977C274.678 301.12 448.23 309.252 448.327 309.255C449.725 309.275 449.725 307.03 448.25 306.972ZM336.353 243.765C341.673 244.252 345.995 244.572 352.518 244.86C348.929 248.363 345.407 251.933 341.953 255.567C336.138 255.552 330.308 255.367 324.49 255.067C328.475 251.344 332.429 247.577 336.353 243.765ZM123.44 180.63C112.762 179.865 102.19 180.56 93.44 185.842C92.44 183.267 91.52 180.665 90.6375 178.035C95.5009 176.325 100.527 175.119 105.638 174.437C127.355 171.51 145.485 179.042 152.292 186.41C142.968 183.232 133.269 181.289 123.44 180.63ZM277.668 229.17C277.554 229.329 277.491 229.519 277.489 229.715C277.486 229.911 277.543 230.103 277.652 230.265C261.137 230.515 243.29 246.162 230.558 256.727C227.675 259.127 228.99 258.14 227.967 258.477C227.268 256.307 226.278 254.24 225.025 252.335C209.05 224.295 185.942 199.71 156.202 187.885C156.173 187.745 156.12 187.611 156.047 187.487C148.595 176.51 129.798 171.765 116.403 171.56C117.572 170.483 118.428 169.108 118.878 167.583C119.329 166.059 119.358 164.44 118.962 162.9C120.502 164.705 122.604 165.939 124.929 166.406C127.255 166.873 129.671 166.545 131.787 165.475C133.87 164.342 135.693 162.786 137.14 160.908C138.587 159.03 139.625 156.87 140.19 154.567C141.055 151.567 141.085 148.67 138.643 146.79C155.873 146.315 162.392 127.1 154.17 114.07C151.936 110.345 148.496 107.496 144.42 105.995C143.29 102.035 143.648 103.087 142.445 99.1974C143.195 91.3874 151.4 89.2249 155.895 81.5799C156.915 82.6274 157.562 83.245 158.802 84.63L159.067 14.8324C183.92 14.2274 428.405 23.8324 436.717 23.5824C438.39 50.7699 432.392 134.422 430.317 161.782C428.342 161.722 229.43 155.387 173.183 153.62C172.683 154.38 172.156 155.122 171.602 155.845C225.412 157.565 427.135 164.005 430.162 164.03C428.375 186.682 428.56 183.405 428.555 183.88C394.832 184.457 186.152 175.235 158.47 174.63C158.47 172.462 158.49 168.845 158.502 165.32C157.937 165.632 157.372 165.937 156.815 166.232C156.42 169.277 156.208 172.343 156.18 175.412C156.24 175.662 156.045 176.75 157.317 176.835C159.237 176.935 254.523 181.227 265.173 181.67L267.827 210.01C257.98 209.555 192.89 206.527 192.767 206.525C192.487 206.549 192.226 206.678 192.035 206.884C191.845 207.091 191.738 207.362 191.736 207.643C191.734 207.924 191.837 208.196 192.025 208.406C192.213 208.615 192.473 208.747 192.752 208.775C194.89 208.865 256.898 211.775 268.043 212.287L268.615 218.387C268.618 218.636 268.701 218.877 268.852 219.074C269.003 219.271 269.214 219.415 269.452 219.482C274.714 220.316 280.003 220.969 285.318 221.442C282.279 223.483 279.678 226.111 277.668 229.17ZM267.472 181.75C279.458 182.233 291.449 182.707 303.447 183.172C303.495 190.827 303.447 210.922 303.447 216.867C298.417 216.402 293.353 217.299 288.788 219.462C282.771 219.025 276.774 218.336 270.815 217.397C270.657 215.75 268.352 191.21 267.472 181.75ZM279.673 230.31C283.387 224.801 289.081 220.935 295.571 219.515C302.062 218.095 308.85 219.232 314.525 222.687C311.959 222.552 309.398 223.02 307.045 224.052C306.791 224.208 306.607 224.457 306.535 224.746C306.462 225.035 306.506 225.341 306.656 225.598C306.807 225.856 307.053 226.043 307.341 226.121C307.628 226.199 307.935 226.161 308.195 226.015C309.938 225.274 311.814 224.894 313.708 224.899C315.602 224.904 317.476 225.293 319.215 226.042C321.735 228.292 325.363 231.857 324.165 235.002C323.228 237.462 320.483 236.622 318.578 235.87C315.835 233.99 312.479 233.227 309.193 233.735C308.912 233.825 308.678 234.019 308.538 234.278C308.398 234.537 308.364 234.84 308.443 235.124C308.522 235.407 308.708 235.649 308.961 235.798C309.215 235.948 309.516 235.993 309.802 235.925C312.356 235.646 314.93 236.216 317.127 237.547C318.877 239.297 321.035 242.815 320 245.495C319.838 246.05 319.507 246.541 319.053 246.9C318.599 247.258 318.045 247.466 317.468 247.495C315.902 247.251 314.47 246.472 313.415 245.29C313.272 245.154 313.096 245.057 312.905 245.008C312.714 244.958 312.513 244.959 312.322 245.009C312.131 245.059 311.956 245.157 311.813 245.294C311.671 245.43 311.566 245.601 311.507 245.79C309.966 252.365 306.173 258.195 300.788 262.27C303.275 246 294.95 231.25 279.673 230.3V230.31Z" fill="#1D1D1B"/>
<path d="M269.903 150.057C272.285 149.813 274.495 148.702 276.113 146.935C277.73 145.169 278.643 142.87 278.678 140.475C278.755 138.405 278.117 136.371 276.872 134.716C275.626 133.061 273.848 131.886 271.838 131.387C270.042 130.881 268.137 130.91 266.357 131.469C264.577 132.029 262.999 133.095 261.816 134.538C260.633 135.981 259.896 137.737 259.695 139.592C259.495 141.447 259.84 143.32 260.688 144.982C261.586 146.614 262.928 147.957 264.56 148.855C266.191 149.754 268.044 150.17 269.903 150.057ZM270.118 133.392C271.884 133.509 273.535 134.315 274.713 135.637C275.891 136.959 276.502 138.691 276.415 140.46C276.439 141.939 276.011 143.391 275.186 144.62C274.362 145.848 273.181 146.795 271.802 147.333C270.424 147.871 268.914 147.975 267.475 147.63C266.036 147.285 264.737 146.508 263.753 145.403C262.769 144.298 262.146 142.919 261.968 141.45C261.791 139.981 262.067 138.493 262.76 137.185C263.453 135.878 264.529 134.813 265.844 134.135C267.159 133.458 268.651 133.198 270.118 133.392ZM293.523 150.825C295.905 150.58 298.114 149.469 299.732 147.702C301.349 145.936 302.261 143.637 302.295 141.242C302.375 139.172 301.739 137.137 300.493 135.481C299.246 133.826 297.467 132.651 295.455 132.155C293.659 131.651 291.756 131.681 289.977 132.241C288.198 132.801 286.621 133.867 285.439 135.31C284.256 136.752 283.519 138.507 283.318 140.361C283.118 142.215 283.461 144.088 284.308 145.75C285.205 147.382 286.548 148.725 288.179 149.623C289.811 150.522 291.664 150.938 293.523 150.825ZM293.735 134.167C295.502 134.283 297.153 135.089 298.332 136.411C299.51 137.734 300.122 139.466 300.035 141.235C300.06 142.714 299.631 144.166 298.806 145.394C297.982 146.623 296.802 147.57 295.423 148.108C294.045 148.647 292.535 148.75 291.096 148.405C289.657 148.061 288.359 147.284 287.374 146.179C286.39 145.075 285.766 143.696 285.589 142.227C285.411 140.758 285.686 139.27 286.379 137.962C287.071 136.655 288.147 135.59 289.462 134.912C290.777 134.234 292.268 133.974 293.735 134.167ZM315.59 150.825C317.973 150.581 320.183 149.47 321.801 147.703C323.418 145.937 324.331 143.638 324.365 141.242C324.443 139.172 323.805 137.139 322.559 135.484C321.313 133.829 319.536 132.653 317.525 132.155C315.729 131.648 313.824 131.676 312.044 132.236C310.264 132.795 308.686 133.862 307.503 135.305C306.32 136.748 305.583 138.504 305.383 140.36C305.183 142.215 305.529 144.088 306.378 145.75C307.274 147.382 308.616 148.725 310.247 149.624C311.879 150.523 313.731 150.939 315.59 150.825ZM315.795 134.167C317.562 134.283 319.213 135.089 320.392 136.411C321.57 137.734 322.182 139.466 322.095 141.235C322.12 142.714 321.691 144.166 320.866 145.394C320.042 146.623 318.862 147.57 317.483 148.108C316.105 148.647 314.595 148.75 313.156 148.405C311.717 148.061 310.419 147.284 309.434 146.179C308.45 145.075 307.826 143.696 307.649 142.227C307.471 140.758 307.746 139.27 308.439 137.962C309.131 136.655 310.207 135.59 311.522 134.912C312.837 134.234 314.328 133.974 315.795 134.167ZM253.905 233.597C254.232 233.805 254.405 233.775 255.555 233.682C255.857 233.682 256.146 233.563 256.359 233.349C256.573 233.136 256.693 232.847 256.693 232.545C256.693 232.243 256.573 231.954 256.359 231.741C256.146 231.527 255.857 231.407 255.555 231.407C251.575 231.21 247.593 230.995 243.61 230.797C244.393 230.03 245.148 229.232 245.943 228.48C246.142 228.264 246.251 227.979 246.245 227.685C246.24 227.391 246.12 227.111 245.912 226.903C245.704 226.694 245.424 226.575 245.13 226.57C244.836 226.564 244.551 226.673 244.335 226.872C243.98 227.227 243.61 227.582 243.255 227.94L243.24 227.967C242.33 228.85 241.45 229.76 240.553 230.655C232.944 230.27 225.342 229.882 217.745 229.49C216.28 229.417 216.28 231.692 217.745 231.765C224.627 232.12 231.509 232.471 238.393 232.817C235.726 235.517 233.1 238.257 230.515 241.035C228.58 240.922 226.651 240.803 224.728 240.68C223.263 240.595 223.278 242.87 224.728 242.955C225.978 243.025 227.228 243.112 228.495 243.182C228.41 243.282 228.31 243.367 228.225 243.467C227.245 244.547 228.838 246.155 229.833 245.072C230.358 244.49 230.913 243.935 231.453 243.352L241.393 243.95C242.858 244.035 242.843 241.76 241.393 241.675L233.5 241.205C236.125 238.415 238.792 235.665 241.5 232.955C245.588 233.172 249.75 233.385 253.905 233.597ZM371.815 401.09C370.987 352.34 349.565 319.427 301.243 321.717C286.993 322.372 265.118 325.677 250.835 330.76C242.498 333.727 233.765 337.892 228.753 345.137C226.493 348.487 225.364 352.471 225.53 356.508C225.696 360.544 227.148 364.422 229.675 367.575C230.585 368.712 232.138 367.147 231.283 365.967C224.435 356.515 226.313 344.252 244.863 335.625C257.613 329.665 275.493 326.642 289.525 325.045C303.12 323.51 316.94 323.067 330.01 327.795C357.667 337.755 367.792 366.17 369.297 395.795C369.861 407.153 369.279 418.539 367.562 429.78C367.312 431.215 369.498 431.827 369.753 430.39C371.28 420.701 371.97 410.898 371.815 401.09Z" fill="#1D1D1B"/>
<path d="M327.13 385.627C327.36 383.954 327.934 382.346 328.815 380.904C329.696 379.462 330.866 378.218 332.25 377.25C332.379 377.175 332.492 377.076 332.582 376.958C332.673 376.84 332.739 376.705 332.778 376.561C332.816 376.417 332.826 376.267 332.806 376.12C332.787 375.972 332.738 375.83 332.664 375.701C332.589 375.572 332.49 375.459 332.372 375.369C332.254 375.278 332.119 375.212 331.975 375.173C331.831 375.135 331.681 375.125 331.534 375.145C331.386 375.164 331.244 375.213 331.115 375.287C327.969 377.44 325.797 380.745 325.07 384.487L325.028 384.515C324.913 383.281 324.976 382.037 325.213 380.82C325.637 378.323 326.592 375.946 328.015 373.85C328.84 372.63 326.863 371.49 326.053 372.7C324.249 375.387 323.14 378.479 322.825 381.7C322.575 384.03 322.575 388.052 325.667 388.38C329.135 400.077 324.815 414.342 331.755 442.557C331.845 442.838 332.039 443.072 332.298 443.212C332.557 443.352 332.86 443.386 333.144 443.307C333.427 443.228 333.669 443.042 333.818 442.789C333.968 442.535 334.013 442.234 333.945 441.947C326.673 412.4 332.035 398.687 327.13 385.627ZM223.59 369.382C224.96 373.802 225.001 378.526 223.706 382.968C222.412 387.41 219.84 391.374 216.31 394.365C215.185 395.31 216.81 396.88 217.917 395.972C221.726 392.689 224.498 388.37 225.896 383.541C227.295 378.712 227.259 373.58 225.795 368.77C225.34 367.39 223.137 368 223.59 369.382ZM311.152 425.5C309.107 422.04 306.036 419.302 302.365 417.665C301.116 417.206 299.77 417.076 298.457 417.288C297.143 417.5 295.906 418.046 294.865 418.875C292.992 420.556 291.627 422.728 290.925 425.145C288.698 431.62 285.64 450.765 287.143 469.382C287.152 469.652 287.257 469.909 287.439 470.108C287.62 470.308 287.866 470.437 288.133 470.473C288.401 470.508 288.672 470.448 288.899 470.303C289.126 470.158 289.295 469.937 289.375 469.68C289.752 468.722 290.16 467.965 289.307 467.477C288.441 454.836 289.367 442.135 292.057 429.752C292.912 425.842 294.52 419.43 299.61 419.43C303.57 419.43 307.24 423.637 309.42 426.965C313.295 433.306 315.379 440.579 315.45 448.01C315.507 449.475 317.782 449.475 317.725 448.01C317.647 440.045 315.373 432.255 311.152 425.5ZM204.13 457.165C202.455 450.695 200.972 443.772 197.162 438.14C192.072 430.602 185.707 431.817 180.497 438.552C171.45 450.215 171.302 471.852 172.03 486.352C172.1 487.802 174.375 487.817 174.305 486.352C173.61 472.657 173.495 455.025 180.34 442.917C181.797 439.929 184.135 437.458 187.038 435.837C190.45 434.28 192.867 435.947 194.972 438.95C198.642 444.17 200.112 450.645 201.677 456.717C204.415 467.285 204.117 473.882 205.972 483.217C206.255 484.652 208.445 484.04 208.162 482.605C206.472 474.13 206.337 465.69 204.13 457.165ZM90.4525 425.377C89.2975 422.462 88.035 419.207 84.82 418.07C83.3188 417.65 81.7312 417.65 80.2297 418.068C78.7282 418.487 77.37 419.309 76.3025 420.445C74.0439 423.077 72.4364 426.204 71.61 429.572C67.765 441.572 67.1825 454.8 66.6625 467.24C66.605 468.705 68.88 468.705 68.9375 467.24C69.4375 455.24 70.7 419.84 82.645 420.002C85.9575 420.045 87.21 423.402 88.2475 426.017C93.9394 440.497 97.0702 455.855 97.5 471.407C97.5 471.709 97.6198 471.998 97.8332 472.212C98.0465 472.425 98.3358 472.545 98.6375 472.545C98.9392 472.545 99.2285 472.425 99.4418 472.212C99.6552 471.998 99.775 471.709 99.775 471.407C99.342 455.642 96.1881 440.069 90.4525 425.377ZM396.805 117.395C399.606 118.557 401.946 120.612 403.46 123.24C403.921 122.695 404.231 122.039 404.359 121.338C404.488 120.636 404.43 119.913 404.193 119.24C403.838 118.398 403.184 117.718 402.357 117.329C401.531 116.94 400.59 116.871 399.715 117.135C399.749 116.455 399.574 115.781 399.215 115.202C398.563 114.35 397.068 113.972 395.078 115.542C395.179 115.161 395.192 114.762 395.115 114.375C395.039 113.988 394.874 113.623 394.635 113.31C393.418 112.202 390.315 113.56 388.993 114.875C389.035 114.766 389.055 114.649 389.048 114.532C389.042 114.415 389.011 114.301 388.957 114.197C388.903 114.094 388.827 114.003 388.735 113.931C388.643 113.859 388.536 113.807 388.423 113.78C386.655 113.28 381.25 117.34 381.208 122.595C382.81 120.064 385.238 118.164 388.08 117.216C390.922 116.268 394.004 116.332 396.805 117.395ZM384.967 127.435C384.967 127.651 385.032 127.863 385.152 128.043C385.272 128.223 385.443 128.364 385.643 128.447C385.844 128.529 386.064 128.551 386.276 128.509C386.489 128.467 386.684 128.362 386.837 128.209C386.99 128.056 387.094 127.861 387.136 127.649C387.179 127.436 387.157 127.216 387.074 127.016C386.991 126.816 386.851 126.645 386.671 126.524C386.491 126.404 386.279 126.34 386.063 126.34C385.772 126.34 385.494 126.455 385.288 126.661C385.083 126.866 384.967 127.144 384.967 127.435ZM398.192 128.09C398.192 127.799 398.077 127.521 397.872 127.316C397.666 127.11 397.388 126.995 397.098 126.995C396.881 126.995 396.669 127.059 396.489 127.179C396.309 127.3 396.169 127.471 396.086 127.671C396.003 127.871 395.981 128.091 396.024 128.304C396.066 128.516 396.17 128.711 396.323 128.864C396.476 129.017 396.671 129.122 396.884 129.164C397.096 129.206 397.316 129.184 397.517 129.102C397.717 129.019 397.888 128.878 398.008 128.698C398.128 128.518 398.192 128.306 398.192 128.09ZM393.94 131.53C393.685 131.388 393.386 131.349 393.104 131.42C392.821 131.492 392.576 131.669 392.42 131.915C392.43 131.902 392.44 131.887 392.448 131.872C392.322 132.029 392.145 132.134 391.948 132.17L391.89 132.185C391.544 132.21 391.196 132.2 390.853 132.155C390.52 132.116 390.194 132.032 389.885 131.905C389.843 131.89 389.815 131.862 389.77 131.847C389.641 131.773 389.499 131.724 389.351 131.705C389.204 131.685 389.054 131.695 388.91 131.733C388.766 131.772 388.631 131.838 388.513 131.929C388.395 132.019 388.296 132.132 388.221 132.261C388.147 132.39 388.098 132.532 388.079 132.68C388.059 132.827 388.069 132.977 388.107 133.121C388.146 133.265 388.212 133.4 388.303 133.518C388.393 133.636 388.506 133.735 388.635 133.81C389.08 134.039 389.553 134.207 390.043 134.31C394.048 135.12 395.403 132.3 393.94 131.53ZM379.038 142.18C380.353 143.057 380.815 143.225 385.407 145.85C386.045 146.202 386.323 145.805 387.908 144.767V147.442C387.908 147.668 387.997 147.885 388.157 148.045C388.317 148.205 388.534 148.295 388.76 148.295C388.986 148.295 389.203 148.205 389.363 148.045C389.523 147.885 389.613 147.668 389.613 147.442V143.192C389.611 143.043 389.572 142.897 389.497 142.767C389.422 142.638 389.315 142.53 389.187 142.455C389.058 142.379 388.912 142.338 388.762 142.336C388.613 142.334 388.466 142.371 388.335 142.442C387.495 142.997 386.67 143.552 385.835 144.107L380.39 140.965C380.748 139.659 381.58 138.534 382.723 137.807C383.6 137.21 382.793 135.717 381.855 136.327C380.441 137.246 379.363 138.599 378.782 140.182C378.557 140.882 378.443 141.832 379.038 142.18ZM401.848 136.835C400.935 136.222 400.085 137.717 400.993 138.312C402.129 139.052 402.958 140.179 403.325 141.485L397.88 144.627C397.04 144.072 396.215 143.517 395.38 142.962C395.25 142.887 395.101 142.847 394.95 142.847C394.8 142.848 394.652 142.888 394.521 142.964C394.391 143.041 394.284 143.15 394.21 143.281C394.136 143.413 394.098 143.562 394.1 143.712V147.962C394.1 148.188 394.19 148.405 394.35 148.565C394.51 148.725 394.726 148.815 394.953 148.815C395.179 148.815 395.395 148.725 395.555 148.565C395.715 148.405 395.805 148.188 395.805 147.962V145.287C397.368 146.315 397.653 146.725 398.305 146.37C399.74 145.545 403.95 143.14 404.603 142.742C404.858 142.546 405.041 142.271 405.123 141.96C405.205 141.649 405.182 141.319 405.058 141.022C404.515 139.291 403.378 137.808 401.848 136.835Z" fill="#1D1D1B"/>
<path d="M384.838 107.807C385.818 94.2399 386.205 52.9324 386.205 39.4449C386.243 37.7649 389.263 37.9224 298.768 36.1949C298.468 36.2013 298.182 36.3232 297.97 36.5352C297.758 36.7471 297.636 37.0328 297.63 37.3324L295.073 110.477C295.075 110.778 295.196 111.066 295.409 111.279C295.621 111.492 295.909 111.612 296.21 111.615C298.6 111.72 361.875 114.415 373.988 114.93C360.505 130.842 373.565 156.205 394.238 154.302C400.124 153.576 405.557 150.767 409.552 146.382C413.548 141.998 415.842 136.329 416.02 130.4C416.293 115.102 400.175 103.31 384.838 107.807ZM363.728 112.2L323.148 110.437C322.665 99.9574 324.398 86.0475 332.185 79.0175C331.945 79.5059 331.818 80.0426 331.816 80.587C331.813 81.1314 331.934 81.6692 332.17 82.1599C333.25 84.1599 335.555 83.4099 337.333 82.3574C338.278 86.4924 341.283 86.6449 342.808 84.6774C343.426 83.7152 343.747 82.5915 343.73 81.4474C343.737 81.2937 343.713 81.1402 343.659 80.996C343.606 80.8519 343.523 80.7202 343.417 80.6089C343.311 80.4976 343.183 80.4089 343.041 80.3484C342.9 80.2879 342.748 80.2566 342.594 80.2566C342.44 80.2566 342.288 80.2879 342.146 80.3484C342.005 80.4089 341.877 80.4976 341.771 80.6089C341.665 80.7202 341.582 80.8519 341.528 80.996C341.474 81.1402 341.45 81.2937 341.458 81.4474C341.47 82.0517 341.343 82.6507 341.085 83.1974C341.023 83.3163 340.932 83.4177 340.821 83.4924C340.709 83.567 340.581 83.6126 340.448 83.6249C340.071 83.306 339.803 82.8779 339.68 82.3999C339.454 81.7477 339.369 81.055 339.43 80.3674C339.429 80.1683 339.375 79.9731 339.274 79.8011C339.174 79.6292 339.03 79.4865 338.858 79.3874C338.685 79.2883 338.489 79.2361 338.29 79.2361C338.091 79.2361 337.895 79.2883 337.723 79.3874C336.706 80.2321 335.508 80.831 334.223 81.1374C333.765 81.1199 334.223 79.9149 334.593 79.3874C335.065 78.6674 336.013 77.3874 335.913 76.4849C336.283 76.2999 336.663 76.1299 337.065 75.9849C339.296 77.3375 341.851 78.0608 344.46 78.078C347.069 78.0952 349.634 77.4056 351.883 76.0824C352.501 76.3679 353.099 76.6962 353.673 77.0649C353.446 77.0558 353.222 77.114 353.029 77.2323C352.836 77.3506 352.683 77.5236 352.588 77.7294C352.494 77.9351 352.462 78.1643 352.498 78.3878C352.534 78.6114 352.636 78.8192 352.79 78.9849C353.139 79.4639 353.354 80.0267 353.415 80.6159C353.475 81.2052 353.379 81.8001 353.135 82.3399C352.262 81.9419 351.508 81.3243 350.945 80.5474C350.783 80.3934 350.579 80.2898 350.359 80.2492C350.139 80.2086 349.912 80.2328 349.706 80.3189C349.499 80.4049 349.322 80.5491 349.196 80.734C349.07 80.9188 349 81.1362 348.995 81.3599C349.045 81.9899 349.158 83.3599 348.525 83.4499C348.08 83.5049 347.168 81.7399 346.99 81.3174C346.906 81.0332 346.713 80.7933 346.455 80.649C346.196 80.5046 345.89 80.4673 345.604 80.5451C345.318 80.6228 345.074 80.8094 344.924 81.0649C344.773 81.3204 344.729 81.6246 344.8 81.9124C345.44 83.4624 346.635 85.8524 348.653 85.6949C349.122 85.6497 349.573 85.4867 349.964 85.221C350.354 84.9554 350.671 84.5956 350.885 84.1749C351.208 83.5324 350.77 83.6399 351.868 84.2174C355.433 86.0374 356.853 80.59 354.768 77.8175C360.998 82.645 363.018 91.3624 363.728 99.1749C364.008 103.512 364.008 107.863 363.728 112.2ZM329.25 64.5124C329.272 64.2269 329.357 63.9498 329.499 63.7014C329.642 63.453 329.838 63.2396 330.073 63.0768C330.309 62.9141 330.578 62.8061 330.861 62.7608C331.144 62.7155 331.433 62.734 331.708 62.8149C331.926 62.8721 332.159 62.8417 332.355 62.7301C332.552 62.6185 332.697 62.4345 332.76 62.2174C333.276 59.4233 334.76 56.9002 336.95 55.0905C339.141 53.2808 341.899 52.3001 344.74 52.3204C347.581 52.3407 350.325 53.3606 352.489 55.2014C354.654 57.0422 356.101 59.5863 356.578 62.3874C356.614 62.5122 356.678 62.6272 356.764 62.7238C356.851 62.8205 356.959 62.8962 357.079 62.9455C357.199 62.9948 357.329 63.0163 357.458 63.0084C357.588 63.0005 357.714 62.9634 357.828 62.8999C358.178 62.7482 358.567 62.7048 358.943 62.7754C359.318 62.846 359.664 63.0273 359.936 63.296C360.208 63.5647 360.394 63.9087 360.469 64.2836C360.544 64.6585 360.505 65.0472 360.358 65.3999C360.232 65.6355 360.061 65.8441 359.855 66.0137C359.649 66.1832 359.411 66.3106 359.156 66.3883C358.901 66.4661 358.632 66.4928 358.367 66.4669C358.101 66.441 357.843 66.3631 357.608 66.2374C357.388 66.1768 357.154 66.2057 356.956 66.3178C356.758 66.4298 356.613 66.6158 356.553 66.8349C353.84 79.3349 335.483 79.6874 332.708 66.9924C332.646 66.7752 332.501 66.5909 332.305 66.4792C332.108 66.3674 331.876 66.3372 331.658 66.3949C331.371 66.4845 331.066 66.503 330.771 66.449C330.475 66.395 330.197 66.2701 329.96 66.085C329.723 65.8999 329.535 65.6601 329.411 65.3862C329.288 65.1123 329.232 64.8125 329.25 64.5124ZM366.105 100.845C365.083 85.0299 360.025 80.9074 360.605 80.9074C361.698 80.6799 363.528 76.3499 361.33 72.9074C361.701 73.215 362.139 73.432 362.608 73.5413C363.078 73.6507 363.566 73.6495 364.035 73.5377C364.504 73.4259 364.941 73.2067 365.31 72.8973C365.68 72.5879 365.972 72.1968 366.165 71.7549C366.479 71.3449 366.693 70.8674 366.79 70.3603C366.886 69.8531 366.864 69.3304 366.723 68.8336C366.583 68.3368 366.328 67.8796 365.98 67.4984C365.632 67.1171 365.2 66.8224 364.718 66.6374C365.413 65.5559 365.845 64.3263 365.979 63.0475C366.112 61.7686 365.944 60.4763 365.488 59.2743C365.031 58.0723 364.298 56.9942 363.349 56.1268C362.4 55.2594 361.261 54.6268 360.023 54.2799C360.178 52.7036 359.852 51.1172 359.09 49.7289C358.328 48.3405 357.163 47.215 355.75 46.4999C353.884 45.5216 351.847 44.913 349.75 44.7074C347.42 44.7188 345.092 44.5718 342.783 44.2674C340.782 43.7125 338.652 43.8581 336.746 44.6803C334.84 45.5024 333.272 46.9516 332.303 48.7874C331.678 49.9549 331.69 52.6574 330.383 53.0549C328.226 53.529 326.263 54.6446 324.753 56.2549C324.03 57.0805 323.645 58.1489 323.677 59.2458C323.708 60.3428 324.153 61.3873 324.923 62.1699C323.576 63.2603 322.584 64.7275 322.075 66.3841C321.566 68.0407 321.563 69.8114 322.065 71.4699C323.428 74.7115 325.699 77.4897 328.605 79.4699C321.983 87.3674 320.428 100.052 320.855 110.35L297.37 109.332C300 34.2499 299.903 38.6149 299.908 38.4999C301.908 38.5274 383.93 40.4999 383.93 40.4999C383.885 49.8974 383.513 94.9599 382.503 108.635C380.145 109.621 377.977 111.009 376.095 112.737L366.013 112.302C366.351 108.492 366.384 104.661 366.113 100.845H366.105ZM413.755 130.392C413.564 135.175 411.88 139.779 408.94 143.556C406 147.333 401.95 150.094 397.36 151.452C380.658 155.88 366.11 138.37 372.148 122.402C373.733 118.333 376.555 114.864 380.216 112.484C383.877 110.104 388.193 108.932 392.555 109.135C403.43 109.62 414 118.33 413.763 130.392H413.755Z" fill="#1D1D1B"/>
<path d="M338.96 63.3974C339.177 63.3974 339.388 63.3332 339.568 63.2129C339.748 63.0926 339.889 62.9215 339.972 62.7215C340.055 62.5214 340.076 62.3012 340.034 62.0888C339.992 61.8764 339.887 61.6813 339.734 61.5281C339.581 61.375 339.386 61.2707 339.174 61.2285C338.961 61.1862 338.741 61.2079 338.541 61.2908C338.341 61.3736 338.17 61.514 338.05 61.6941C337.929 61.8741 337.865 62.0858 337.865 62.3024C337.865 62.5928 337.98 62.8714 338.186 63.0767C338.391 63.2821 338.67 63.3974 338.96 63.3974ZM350.187 62.3949C350.187 62.6853 350.303 62.9639 350.508 63.1692C350.714 63.3746 350.992 63.4899 351.282 63.4899C351.573 63.4899 351.851 63.3746 352.057 63.1692C352.262 62.9639 352.377 62.6853 352.377 62.3949C352.346 62.1266 352.217 61.8791 352.015 61.6996C351.813 61.52 351.553 61.4208 351.282 61.4208C351.012 61.4208 350.752 61.52 350.55 61.6996C350.348 61.8791 350.219 62.1266 350.187 62.3949ZM196.985 33.6699C196.686 33.6799 196.403 33.8029 196.192 34.0141C195.981 34.2253 195.857 34.5089 195.847 34.8074C195.805 37.2274 193.288 107.955 193.288 107.955C193.291 108.255 193.412 108.542 193.625 108.755C193.837 108.967 194.125 109.089 194.425 109.092C208.397 109.657 280.785 112.792 281.037 112.775C283.345 112.617 283.537 110.26 284.42 36.9549C284.457 35.2149 287.39 35.4049 196.985 33.6699ZM229.705 73.1874C230.406 73.6526 231.148 74.0526 231.922 74.3824C232.305 75.3197 232.843 76.1853 233.515 76.9424C232.265 78.8324 231.04 80.7374 229.802 82.6299C227.945 85.4649 227.282 85.6299 228.622 88.0324C230.856 91.9574 233.231 95.7908 235.748 99.5324C235.864 99.7196 236.032 99.8692 236.232 99.9635C236.431 100.058 236.653 100.093 236.872 100.064C237.09 100.036 237.296 99.9453 237.465 99.8031C237.633 99.6609 237.758 99.4732 237.822 99.2624C239.576 95.5327 241.533 91.9014 243.682 88.3849C245.042 85.8399 244.587 85.7924 243.197 82.9674C242.275 81.0899 241.35 79.2174 240.425 77.3499C241.245 76.6846 241.808 75.7548 242.017 74.7199C243.109 74.3781 244.155 73.9055 245.132 73.3124C253.23 77.2774 255.86 87.2449 256.677 96.2624C256.955 100.634 256.948 105.019 256.657 109.39L216.107 107.64C215.512 95.1124 218.123 78.0799 229.705 73.1874ZM235.3 78.3699C236.295 78.8046 237.418 78.8457 238.442 78.4849C239.267 80.1199 241.392 84.4499 241.635 84.9474C241.79 85.2749 242.232 85.8199 242.237 86.1774C242.237 86.6774 238.44 92.6349 236.55 96.5999C234.452 93.4295 232.46 90.1902 230.578 86.8874C230.033 85.9349 229.608 87.0574 235.3 78.3699ZM235.065 75.2499C236.456 75.4801 237.874 75.5046 239.272 75.3224C239.007 75.68 238.659 75.9678 238.258 76.1612C237.857 76.3545 237.415 76.4476 236.97 76.4324C236.582 76.3972 236.208 76.272 235.877 76.0667C235.547 75.8614 235.269 75.5817 235.065 75.2499ZM225.95 63.9999C225.868 63.7118 225.676 63.4674 225.416 63.3188C225.155 63.1703 224.847 63.1294 224.557 63.2049C224.316 63.2839 224.06 63.3033 223.81 63.2615C223.56 63.2197 223.323 63.1178 223.121 62.9648C222.919 62.8117 222.757 62.6119 222.649 62.3825C222.54 62.153 222.489 61.9008 222.5 61.6474C222.518 61.4027 222.59 61.165 222.712 60.952C222.834 60.739 223.002 60.5562 223.204 60.417C223.406 60.2778 223.637 60.1857 223.88 60.1477C224.122 60.1097 224.37 60.1267 224.605 60.1974C224.895 60.2735 225.204 60.2326 225.464 60.0834C225.725 59.9343 225.916 59.6888 225.998 59.3999C226.01 59.3684 226.019 59.3357 226.025 59.3024C226.541 56.5791 228 54.1245 230.145 52.3689C232.29 50.6133 234.984 49.6688 237.756 49.701C240.527 49.7332 243.199 50.74 245.303 52.545C247.406 54.35 248.807 56.8379 249.26 59.5724C249.308 59.7385 249.394 59.8915 249.509 60.02C249.625 60.1486 249.768 60.2494 249.928 60.315C250.088 60.3806 250.261 60.4093 250.433 60.3989C250.606 60.3885 250.774 60.3393 250.925 60.2549C251.223 60.1289 251.552 60.0948 251.87 60.1568C252.188 60.2189 252.48 60.3744 252.709 60.6034C252.938 60.8323 253.093 61.1244 253.156 61.4422C253.218 61.76 253.183 62.0891 253.057 62.3874C252.828 62.7947 252.446 63.0949 251.997 63.2227C251.547 63.3505 251.065 63.2956 250.655 63.0699C250.365 62.991 250.055 63.0303 249.793 63.1793C249.532 63.3283 249.34 63.5748 249.26 63.8649C246.623 75.9999 228.615 76.6049 225.95 64.0149V63.9999ZM280.25 110.415L258.95 109.5C259.29 105.659 259.329 101.797 259.067 97.9499C258.422 88.0674 255.817 76.8249 247.18 71.8299C249.078 70.1355 250.463 67.9436 251.18 65.5024C252.089 65.5995 253.003 65.3754 253.764 64.869C254.524 64.3625 255.084 63.6057 255.345 62.7299C255.487 62.1209 255.483 61.487 255.333 60.88C255.183 60.2729 254.891 59.71 254.482 59.237C254.073 58.7641 253.558 58.3946 252.979 58.1588C252.4 57.9229 251.773 57.8274 251.15 57.8799C251.095 57.6799 251.052 57.4674 250.98 57.2699C252.437 51.9274 250.337 46.0824 243.445 42.6799C242.754 42.261 241.943 42.085 241.14 42.1799C240.357 42.3499 239.705 43.2599 240.075 43.9699C234.942 42.1474 229.017 40.5624 224.447 44.0274C224.104 44.2489 223.833 44.565 223.665 44.9374C223.579 45.2637 223.595 45.6082 223.709 45.9255C223.823 46.2429 224.031 46.5181 224.305 46.7149C224.862 47.0941 225.491 47.3553 226.152 47.4824C224.503 47.4199 222.876 47.8783 221.502 48.7924C219.668 49.5139 217.959 50.5214 216.44 51.7774C215.958 52.2178 215.61 52.7841 215.433 53.4123C215.256 54.0405 215.259 54.7055 215.44 55.3324C216.238 57.4374 219.238 58.3749 221.555 58.8324C220.955 59.3291 220.523 59.9996 220.32 60.7517C220.116 61.5037 220.151 62.3004 220.419 63.0318C220.687 63.7633 221.176 64.3937 221.817 64.8361C222.458 65.2786 223.221 65.5114 224 65.5024C224.664 67.838 225.941 69.9535 227.698 71.6299C215.948 77.5424 213.21 94.4324 213.805 107.55C203.348 107.1 195.84 106.775 195.605 106.767C195.675 104.735 198.105 38.5424 198.123 35.9249C200.123 35.9524 282.16 37.9249 282.16 37.9249C281.622 80.5349 281.33 105.042 280.25 110.415Z" fill="#1D1D1B"/>
<path d="M230.43 61.0724C230.659 61.0751 230.882 61.0052 231.068 60.8727C231.255 60.7402 231.394 60.552 231.467 60.3352C231.539 60.1184 231.541 59.8842 231.472 59.6662C231.403 59.4483 231.267 59.2579 231.082 59.1224C230.876 58.9535 230.614 58.8686 230.348 58.8848C230.082 58.9011 229.832 59.0172 229.647 59.2099C229.497 59.3644 229.396 59.5595 229.356 59.7712C229.316 59.9828 229.339 60.2015 229.423 60.4001C229.506 60.5986 229.646 60.7682 229.825 60.8878C230.004 61.0074 230.215 61.0716 230.43 61.0724ZM243.27 60.3674C243.27 60.6579 243.385 60.9364 243.591 61.1417C243.796 61.3471 244.075 61.4624 244.365 61.4624C244.655 61.4624 244.934 61.3471 245.139 61.1417C245.345 60.9364 245.46 60.6579 245.46 60.3674C245.424 60.1025 245.293 59.8595 245.092 59.6836C244.891 59.5077 244.632 59.4108 244.365 59.4108C244.098 59.4108 243.839 59.5077 243.638 59.6836C243.437 59.8595 243.306 60.1025 243.27 60.3674ZM343.618 87.2499C343.296 92.3391 343.212 97.4405 343.367 102.537C343.367 102.839 343.487 103.128 343.701 103.342C343.914 103.555 344.203 103.675 344.505 103.675C344.807 103.675 345.096 103.555 345.309 103.342C345.523 103.128 345.642 102.839 345.642 102.537C345.488 97.4405 345.572 92.3391 345.892 87.2499C346 85.7849 343.713 85.7849 343.618 87.2499ZM348.382 92.0999C349.51 92.9649 351.02 91.2624 349.957 90.3074C348.75 89.2299 346.78 90.8724 348.382 92.0999ZM347.527 95.3124C347.005 96.4199 348.61 97.4474 349.575 96.5499C350.87 95.3474 348.372 93.5199 347.527 95.3124ZM349.73 57.7874C350.216 57.7417 350.702 57.8692 351.103 58.1473C351.503 58.4255 351.793 58.8364 351.92 59.3074C351.94 59.3795 351.973 59.447 352.019 59.5061C352.064 59.5652 352.121 59.6148 352.186 59.6519C352.251 59.689 352.322 59.7131 352.396 59.7226C352.47 59.7321 352.545 59.727 352.617 59.7074C352.69 59.6879 352.757 59.6544 352.816 59.6087C352.875 59.5631 352.925 59.5063 352.962 59.4415C352.999 59.3768 353.023 59.3053 353.033 59.2313C353.042 59.1572 353.037 59.082 353.017 59.0099C352.763 58.3438 352.32 57.7661 351.743 57.3471C351.166 56.9281 350.48 56.6858 349.767 56.6499C349.622 56.6535 349.483 56.7126 349.38 56.815C349.277 56.9175 349.217 57.0556 349.212 57.201C349.207 57.3464 349.258 57.4882 349.354 57.5972C349.451 57.7062 349.585 57.7743 349.73 57.7874ZM336.33 59.4074C336.461 59.4801 336.615 59.5001 336.76 59.4634C336.906 59.4267 337.032 59.3361 337.112 59.2099C337.439 58.7872 337.864 58.4518 338.352 58.2336C338.839 58.0155 339.373 57.9215 339.905 57.9599C340.255 57.9349 340.305 56.9949 339.762 56.9224C337.265 56.5974 335.327 58.8674 336.33 59.4074ZM339.815 66.4399C339.727 66.3786 339.644 66.3118 339.565 66.2399C338.485 65.2599 336.862 66.8674 337.957 67.8474C339.367 69.1876 341.141 70.0799 343.058 70.4114C344.974 70.7429 346.945 70.4988 348.722 69.7099C348.174 70.388 347.429 70.8796 346.59 71.1174C345.09 71.5624 346.002 73.9074 347.257 73.2799C348.629 72.828 349.824 71.9582 350.676 70.7925C351.528 69.6268 351.993 68.2237 352.007 66.7799C352.001 66.5574 351.93 66.3416 351.803 66.1584C351.677 65.9751 351.501 65.8322 351.295 65.7467C351.09 65.6612 350.864 65.6368 350.645 65.6764C350.426 65.716 350.223 65.8179 350.06 65.9699C349.431 66.6753 348.669 67.2494 347.818 67.6592C346.967 68.0691 346.043 68.3067 345.099 68.3582C344.156 68.4098 343.211 68.2744 342.32 67.9598C341.429 67.6452 340.609 67.1575 339.907 66.5249C339.884 66.4892 339.853 66.4599 339.815 66.4399ZM229.89 56.3424C230.087 56.4523 230.318 56.4811 230.536 56.4227C230.754 56.3644 230.94 56.2235 231.055 56.0299C231.572 54.9949 232.555 55.6499 233.117 55.3349C233.261 55.2485 233.375 55.1224 233.448 54.9719C233.521 54.8215 233.548 54.6531 233.527 54.4873C233.506 54.3215 233.437 54.1655 233.329 54.0381C233.221 53.9108 233.078 53.8176 232.917 53.7699C230.525 53.2499 228.585 55.6574 229.89 56.3424ZM242.63 55.1424C242.995 55.1103 243.362 55.1704 243.697 55.3172C244.033 55.464 244.326 55.6928 244.55 55.9824C245.17 56.7324 246.562 55.7549 245.742 54.7874C245.362 54.3365 244.88 53.9817 244.337 53.7519C243.794 53.5221 243.204 53.4238 242.615 53.4649C242.501 53.4598 242.387 53.478 242.28 53.5183C242.174 53.5587 242.076 53.6203 241.994 53.6995C241.912 53.7788 241.847 53.8739 241.803 53.9791C241.759 54.0844 241.736 54.1975 241.737 54.3116C241.738 54.4257 241.763 54.5384 241.809 54.6428C241.855 54.7473 241.921 54.8412 242.005 54.919C242.089 54.9967 242.187 55.0566 242.294 55.0951C242.402 55.1335 242.516 55.1496 242.63 55.1424ZM232.462 64.3924C232.47 64.6521 232.563 64.902 232.728 65.103C232.892 65.3039 233.119 65.4444 233.372 65.5024C233.454 66.0762 233.649 66.6279 233.947 67.1249C234.246 67.6219 234.64 68.054 235.108 68.3959C235.576 68.7378 236.108 68.9824 236.672 69.1154C237.236 69.2483 237.821 69.2669 238.392 69.1699C241.247 68.6699 241 64.0624 239.43 63.4199C238.96 63.2099 239.027 63.2774 233.6 63.2274C233.297 63.2377 233.009 63.3646 232.797 63.5816C232.586 63.7987 232.466 64.0891 232.462 64.3924ZM420.985 242.842C409.007 236.71 396.5 247.842 390.257 257.372C387.882 261 385.257 265.547 385.48 270.03C385.812 276.78 393.338 282.732 405.73 279.612C417.255 276.742 426.822 266.43 427.557 254.815C427.88 252.379 427.416 249.905 426.234 247.751C425.052 245.598 423.213 243.878 420.985 242.842ZM400.695 249.17C404.075 246.42 410.695 241.905 414.803 243.382C414.715 244.52 413.137 245.53 412.455 246.425C412.036 247.247 411.556 248.036 411.017 248.785C409.797 249.98 406.988 250.047 406.31 252.425C403.653 252.112 400.995 251.515 398.293 251.302C398.69 251.317 400.325 249.47 400.695 249.17ZM395.875 277.85C393.999 277.606 392.236 276.814 390.809 275.571C389.382 274.329 388.354 272.692 387.855 270.867C386.855 265.437 392.643 257.337 396.245 253.367C399.583 253.543 402.902 253.985 406.17 254.69C406.365 255.47 406.762 256.185 407.322 256.762C407.882 257.339 408.584 257.758 409.358 257.976C410.132 258.194 410.95 258.203 411.728 258.004C412.507 257.804 413.219 257.401 413.792 256.837C421.725 259.65 422.775 261.337 423.857 261.145C419.357 272.66 406.313 279.942 395.875 277.85ZM425.322 253.85C425.301 255.705 425.02 257.548 424.485 259.325C424.414 259.244 424.33 259.176 424.235 259.125C421.229 257.453 418.09 256.031 414.85 254.875C415.041 254.236 415.083 253.561 414.972 252.903C414.861 252.245 414.6 251.621 414.21 251.08C413.413 250.012 412.787 250.282 413.43 249.002C414.596 247.069 416.092 245.356 417.85 243.94C423.472 246.042 425.357 249.325 425.322 253.85Z" fill="#1D1D1B"/>
<path d="M458.143 200.282C461.013 199.325 464.945 200.262 471.68 196.385C473.855 195.12 477.195 193.135 476.755 190.172C476.272 186.972 472.66 186.19 470.005 186.83C465.537 188.111 461.444 190.452 458.075 193.655C458.047 193.102 458.004 192.547 457.948 191.992C459.888 187.052 466.417 183.91 469.507 176.35C470.717 173.38 472.11 167.85 467.832 166.552C463.332 165.187 460.78 170.222 459.142 173.45C457.904 175.889 456.798 178.392 455.83 180.95C455.473 179.785 455.08 178.632 454.65 177.495C452.055 170.717 446.702 166.442 444.282 168.095C442.26 169.492 443.388 174.665 444.468 177.197C446.747 181.742 449.936 185.768 453.838 189.027C454.03 189.204 454.275 189.312 454.535 189.335C454.794 189.358 455.055 189.295 455.275 189.155C455.745 192.452 455.625 191.59 455.36 192.752C451.503 190.242 447.347 188.226 442.988 186.752C442.272 186.366 441.478 186.146 440.666 186.108C439.853 186.071 439.043 186.218 438.295 186.537C437.733 186.923 437.281 187.449 436.985 188.063C436.689 188.677 436.558 189.357 436.605 190.037C436.992 195.972 448.772 201.955 455.915 198.397C455.915 198.582 455.915 198.767 455.9 198.952C455.175 199.459 454.62 200.173 454.308 201C453.953 201.895 454.778 202.45 455.53 202.35C455.632 202.774 455.666 203.211 455.63 203.645C456.38 203.617 457.13 203.572 457.88 203.545C458.015 202.43 458.1 201.362 458.143 200.282Z" fill="#B0A0DD"/>
<path d="M484.29 208.542C484.18 206.771 483.953 205.009 483.61 203.267C483.543 203.027 483.4 202.815 483.202 202.664C483.004 202.512 482.762 202.429 482.513 202.427C476.455 202.7 431.283 204.66 429.093 204.76C428.495 204.76 428.093 204.985 427.995 205.585C425.375 220.542 427.058 236.362 440.398 243.865C449.466 248.333 459.902 249.157 469.56 246.167C483.303 240.702 485.67 223.325 484.29 208.542Z" fill="#7D4274"/>
<path d="M133.368 106.105C136.09 105.134 139.013 104.865 141.868 105.322C139.389 96.0945 136.062 87.1154 131.93 78.4999C126.267 66.9999 120.357 58.9549 109.505 55.3799C108.546 54.9502 107.507 54.7268 106.457 54.7243C105.406 54.7217 104.366 54.94 103.405 55.3649C109.888 58.5201 115.612 63.0401 120.185 68.6149C128.413 79.4142 133.026 92.5329 133.368 106.105Z" fill="#AC47F5"/>
<path d="M121.365 123C120.416 126.885 120.82 130.978 122.511 134.603C124.202 138.228 127.078 141.168 130.665 142.937C133.993 144.461 137.709 144.921 141.308 144.254C144.906 143.588 148.212 141.827 150.772 139.212C156.657 132.84 156.688 122.305 152.208 115.212C142.75 100.662 124.973 108.132 121.365 123Z" fill="#AC47F5"/>
</svg>
