<svg width="17" height="14" viewBox="0 0 17 14" version="1.1" xmlns="http://www.w3.org/2000/svg" xmlns:xlink="http://www.w3.org/1999/xlink">
<g id="Canvas" fill="none">
<g id="60543">
<g id="Group">
<g id="gmail">
<g id="Vector">
<path d="M 15.3 0L 1.7 0C 0.765 0 0 0.7875 0 1.75L 0 12.25C 0 13.2125 0.765 14 1.7 14L 15.3 14C 16.235 14 17 13.2125 17 12.25L 17 1.75C 17 0.7875 16.235 0 15.3 0ZM 15.3 12.25L 13.6 12.25L 13.6 4.55L 8.5 7.875L 3.4 4.55L 3.4 12.25L 1.7 12.25L 1.7 1.75L 2.72 1.75L 8.5 5.425L 14.28 1.75L 15.3 1.75L 15.3 12.25Z" fill="currentColor"/>
</g>
</g>
</g>
</g>
</g>
</svg>

