<svg width="42" height="45" viewBox="0 0 42 45" version="1.1" xmlns="http://www.w3.org/2000/svg" xmlns:xlink="http://www.w3.org/1999/xlink">
<g id="Canvas" fill="none">
<g id="Group">
<g id="Group_2">
<g id="Vector">
<path fill-rule="evenodd" clip-rule="evenodd" d="M 25.564 40.076C 25.839 39.469 25.992 38.796 25.992 38.085L 26.042 3.245C 26.042 3.11239 25.9893 2.98521 25.8956 2.89145C 25.8018 2.79768 25.6746 2.745 25.542 2.745L 1.52588e-07 2.745L 1.52588e-07 0.5C 1.52588e-07 0.367392 0.0526782 0.240215 0.146446 0.146447C 0.240215 0.0526784 0.367392 0 0.5 0L 29.16 0C 29.2926 0 29.4198 0.0526784 29.5136 0.146447C 29.6073 0.240215 29.66 0.367392 29.66 0.5L 29.61 35.34C 29.61 37.743 27.853 39.733 25.564 40.076Z" transform="translate(12.34 0)" fill="#179570"/>
</g>
<g id="Vector_2">
<path fill-rule="evenodd" clip-rule="evenodd" d="M 29.667 35.338C 29.667 37.981 27.537 40.124 24.909 40.124C 22.281 40.124 20.151 37.981 20.151 35.337L 20.151 31.549C 20.1514 31.415 20.1254 31.2822 20.0744 31.1582C 20.0235 31.0342 19.9486 30.9215 19.854 30.8265C 19.7595 30.7315 19.6471 30.6561 19.5234 30.6045C 19.3997 30.5529 19.267 30.5263 19.133 30.526L 1.25885e-07 30.526L 1.25885e-07 0.5C 1.25885e-07 0.367392 0.0526786 0.240215 0.146447 0.146447C 0.240215 0.0526787 0.367392 1.41144e-07 0.5 1.41144e-07L 29.217 1.41144e-07C 29.3496 1.41144e-07 29.4768 0.0526787 29.5706 0.146447C 29.6643 0.240215 29.717 0.367392 29.717 0.5L 29.667 35.337L 29.667 35.338Z" transform="translate(6.768 4.202)" fill="#74E4A2"/>
</g>
<g id="Vector_3">
<path d="M 2.465 1.65307C 4.392 0.17107 6.659 -0.43393 8.915 0.54907C 10.972 1.44507 12.409 3.33207 12.675 5.32407C 12.675 5.32607 10.989 5.34407 10.985 5.32407C 10.8476 4.58335 10.532 3.88719 10.0654 3.29571C 9.59888 2.70422 8.99536 2.23518 8.307 1.92907C 6.641 1.17907 4.991 1.59907 3.521 2.65407L 4.649 3.79607C 4.70841 3.85123 4.74925 3.92345 4.7659 4.00279C 4.78256 4.08213 4.77421 4.16468 4.742 4.23907C 4.70736 4.31474 4.65151 4.37873 4.58122 4.42329C 4.51093 4.46784 4.42922 4.49104 4.346 4.49007L 0.626 4.49007C 0.297 4.49007 0.0310005 4.23807 0.0310005 3.92707L 0.0310005 0.406071C 0.0310005 0.241071 0.137 0.0940707 0.297 0.0310707C 0.37517 0.000335207 0.460406 -0.00780542 0.54298 0.00757785C 0.625555 0.0229611 0.702142 0.0612485 0.764 0.118071L 2.464 1.65407L 2.465 1.65307ZM 11.973 11.8661C 12.096 11.9821 12.28 12.0161 12.44 11.9531C 12.5167 11.9246 12.5831 11.8737 12.6306 11.807C 12.678 11.7403 12.7043 11.6609 12.706 11.5791L 12.706 8.05607C 12.706 7.74507 12.44 7.49307 12.111 7.49307L 8.391 7.49307C 8.30767 7.49219 8.22588 7.51553 8.15558 7.56027C 8.08528 7.60501 8.02949 7.66921 7.995 7.74507C 7.96302 7.81934 7.95479 7.90168 7.97144 7.98081C 7.98809 8.05994 8.0288 8.13199 8.088 8.18707L 9.535 9.55707C 8.065 10.6131 6.096 10.8051 4.431 10.0551C 2.985 9.40407 1.969 8.10507 1.69 6.65907C 1.689 6.65107 3.12805e-07 6.65907 3.12805e-07 6.65907C 3.12805e-07 8.18707 1.794 10.5511 3.823 11.4341C 6.078 12.4171 8.728 12.1001 10.655 10.6181L 11.973 11.8661L 11.973 11.8661Z" transform="translate(15.147 14.8539)" fill="white"/>
</g>
<g id="Vector_4">
<path fill-rule="evenodd" clip-rule="evenodd" d="M 4.732 7.524C 2.12 7.524 0 5.394 0 2.764L 0 0.930001C 0 0.416001 0.414 9.76563e-07 0.926 9.76563e-07L 24.009 9.76563e-07C 24.52 9.76563e-07 24.934 0.416001 24.934 0.930001L 24.934 2.712C 24.924 4.14835 25.3666 5.55137 26.199 6.722C 26.2529 6.79792 26.2849 6.88719 26.2914 6.98005C 26.298 7.07292 26.279 7.16581 26.2364 7.24857C 26.1937 7.33134 26.1292 7.40081 26.0498 7.44938C 25.9703 7.49795 25.8791 7.52376 25.786 7.524L 4.732 7.524Z" transform="translate(0 36.776)" fill="#179570"/>
</g>
</g>
</g>
</g>
</svg>

