<svg width="56" height="50" viewBox="0 0 56 50" version="1.1" xmlns="http://www.w3.org/2000/svg" xmlns:xlink="http://www.w3.org/1999/xlink">
<g id="Canvas" fill="none">
<g id="149754">
<g id="Group">
<g id="Vector">
<path d="M 16.5857 15.586L 11.9998 20.172L 11.9998 2C 11.9998 0.896 11.1038 0 9.99975 0C 8.89575 0 7.99975 0.896 7.99975 2L 7.99975 20.172L 3.41375 15.586C 2.63275 14.805 1.36675 14.805 0.58575 15.586C -0.19525 16.367 -0.19525 17.633 0.58575 18.414L 8.58475 26.413C 8.67775 26.507 8.78075 26.59 8.89175 26.664C 8.93875 26.696 8.99075 26.717 9.03975 26.745C 9.10475 26.781 9.16675 26.82 9.23575 26.848C 9.30075 26.875 9.36875 26.89 9.43575 26.91C 9.49375 26.927 9.54875 26.95 9.60875 26.961C 9.73775 26.986 9.86875 27 9.99975 27C 10.1308 27 10.2618 26.986 10.3918 26.96C 10.4518 26.948 10.5068 26.926 10.5648 26.909C 10.6318 26.889 10.6997 26.874 10.7647 26.847C 10.8337 26.819 10.8958 26.78 10.9608 26.744C 11.0108 26.717 11.0617 26.695 11.1087 26.663C 11.2187 26.589 11.3218 26.506 11.4158 26.412L 19.4148 18.413C 20.1958 17.632 20.1958 16.366 19.4148 15.585C 18.6338 14.804 17.3667 14.805 16.5857 15.586Z" transform="translate(19.0003 23)" fill="#179570"/>
</g>
<g id="Vector_2">
<path d="M 47.835 15.986C 47.698 15.967 45.378 15.651 43.151 15.988C 43.1 15.996 43.049 16 42.999 16C 42.513 16 42.087 15.646 42.012 15.15C 41.929 14.604 42.304 14.094 42.85 14.011C 44.381 13.778 45.912 13.815 46.933 13.887C 46.262 6.135 39.83 0 32.085 0C 27.388 0 22.667 2.379 19.8 6.129C 21.754 7.781 23 10.246 23 13C 23 13.553 22.553 14 22 14C 21.447 14 21 13.553 21 13C 21 10.538 19.719 8.373 17.791 7.124C 17.564 6.977 17.329 6.847 17.089 6.728C 17.02 6.694 16.95 6.659 16.879 6.627C 16.607 6.503 16.329 6.393 16.044 6.306C 16.009 6.296 15.973 6.289 15.938 6.279C 15.679 6.204 15.416 6.147 15.149 6.102C 15.071 6.089 14.994 6.077 14.916 6.066C 14.614 6.027 14.309 6 14 6C 10.141 6 7 9.141 7 13C 7 13.082 7.006 13.163 7.012 13.244L 7.024 13.454L 7.015 13.614C 7.008 13.744 7 13.873 7 14L 7 14.63L 6.433 14.901C 2.705 16.688 0 21 0 25.154C 0 31.135 4.865 36 10.845 36L 25 36L 25 25C 25 22.791 26.791 21 29 21C 31.209 21 33 22.791 33 25L 33 36L 35.353 36C 35.412 36 35.469 35.995 35.527 35.991L 35.725 35.98L 35.996 35.991C 36.053 35.995 36.11 36 36.169 36L 45.972 36C 51.501 36 56 31.501 56 25.972C 56 21.161 52.49 16.872 47.835 15.986Z" fill="#74E4A2"/>
</g>
</g>
</g>
</g>
</svg>

