<svg width="47" height="46" viewBox="0 0 47 46" version="1.1" xmlns="http://www.w3.org/2000/svg" xmlns:xlink="http://www.w3.org/1999/xlink">
<g id="Canvas" fill="none">
<g id="Group">
<g id="Artboard 2">
<path id="2" fill-rule="evenodd" clip-rule="evenodd" d="M 43.1484 28.0824C 41.7472 27.3894 40.1691 27 38.5 27C 32.701 27 28 31.701 28 37.5C 28 39.4032 28.5064 41.1881 29.3917 42.7274C 27.0815 43.5513 24.5932 44 22 44C 9.84974 44 0 34.1503 0 22C 0 9.84974 9.84974 0 22 0C 34.1503 0 44 9.84974 44 22C 44 24.11 43.703 26.1507 43.1484 28.0824Z" fill="#FFD1F1"/>
<path id="1" fill-rule="evenodd" clip-rule="evenodd" d="M 23.0042 31.7274C 20.694 32.5513 18.2056 33 15.6125 33C 9.50875 33 3.98557 30.5143 -1.16038e-07 26.5C 3.98557 22.4857 9.50875 20 15.6125 20C 18.2056 20 20.694 20.4487 23.0042 21.2726C 22.1189 22.8119 21.6125 24.5968 21.6125 26.5C 21.6125 28.4032 22.1189 30.1881 23.0042 31.7274ZM 15.6125 16C 11.1942 16 7.6125 12.4183 7.6125 8C 7.6125 3.58172 11.1942 0 15.6125 0C 20.0308 0 23.6125 3.58172 23.6125 8C 23.6125 12.4183 20.0308 16 15.6125 16ZM 32.1125 35C 27.4181 35 23.6125 31.1944 23.6125 26.5C 23.6125 21.8056 27.4181 18 32.1125 18C 36.8069 18 40.6125 21.8056 40.6125 26.5C 40.6125 31.1944 36.8069 35 32.1125 35ZM 36.3931 22.1405L 30.315 28.3215L 28.6667 26.4672C 27.9456 25.8491 26.8124 26.5702 27.3275 27.4974L 29.2848 30.794C 29.5939 31.206 30.315 31.6181 31.0361 30.794C 31.3452 30.3819 37.2172 23.0676 37.2172 23.0676C 37.9383 22.2435 37.0112 21.5223 36.3931 22.1405Z" transform="translate(6.3875 11)" fill="#D782D9"/>
</g>
</g>
</g>
</svg>
