<svg width="48" height="48" viewBox="0 0 48 48" version="1.1" xmlns="http://www.w3.org/2000/svg" xmlns:xlink="http://www.w3.org/1999/xlink">
<g id="Canvas" fill="none">
<g id="Group">
<path id="Vector" d="M 24.999 9.89898L 24.999 21.589L 33.829 12.759C 33.145 11.7255 32.8692 10.4748 33.0551 9.24948C 33.241 8.02416 33.8753 6.91155 34.8351 6.12743C 35.7948 5.34331 37.0116 4.94357 38.2493 5.00574C 39.4871 5.06792 40.6577 5.58757 41.534 6.46391C 42.4104 7.34026 42.93 8.51084 42.9922 9.74862C 43.0544 10.9864 42.6546 12.2032 41.8705 13.1629C 41.0864 14.1227 39.9738 14.757 38.7485 14.9429C 37.5232 15.1288 36.2725 14.853 35.239 14.169L 26.409 22.999L 38.099 22.999C 38.3468 21.7849 39.0366 20.7062 40.0346 19.9718C 41.0326 19.2374 42.2677 18.8998 43.5005 19.0243C 44.7333 19.1488 45.8759 19.7267 46.7069 20.6458C 47.5379 21.565 47.998 22.7599 47.998 23.999C 47.998 25.2381 47.5379 26.433 46.7069 27.3521C 45.8759 28.2713 44.7333 28.8491 43.5005 28.9737C 42.2677 29.0982 41.0326 28.7606 40.0346 28.0262C 39.0366 27.2918 38.3468 26.213 38.099 24.999L 26.409 24.999L 35.239 33.829C 36.2725 33.145 37.5232 32.8692 38.7485 33.0551C 39.9738 33.241 41.0864 33.8753 41.8705 34.8351C 42.6546 35.7948 43.0544 37.0116 42.9922 38.2493C 42.93 39.4871 42.4104 40.6577 41.534 41.534C 40.6577 42.4104 39.4871 42.93 38.2493 42.9922C 37.0116 43.0544 35.7948 42.6546 34.8351 41.8705C 33.8753 41.0864 33.241 39.9738 33.0551 38.7485C 32.8692 37.5232 33.145 36.2725 33.829 35.239L 24.999 26.409L 24.999 38.099C 26.213 38.3468 27.2918 39.0366 28.0262 40.0346C 28.7606 41.0326 29.0982 42.2677 28.9737 43.5005C 28.8491 44.7333 28.2713 45.8759 27.3521 46.7069C 26.433 47.5379 25.2381 47.998 23.999 47.998C 22.7599 47.998 21.565 47.5379 20.6458 46.7069C 19.7267 45.8759 19.1488 44.7333 19.0243 43.5005C 18.8998 42.2677 19.2374 41.0326 19.9718 40.0346C 20.7062 39.0366 21.7849 38.3468 22.999 38.099L 22.999 26.409L 14.169 35.239C 14.853 36.2725 15.1288 37.5232 14.9429 38.7485C 14.757 39.9738 14.1227 41.0864 13.1629 41.8705C 12.2032 42.6546 10.9864 43.0544 9.74862 42.9922C 8.51084 42.93 7.34026 42.4104 6.46391 41.534C 5.58757 40.6577 5.06792 39.4871 5.00574 38.2493C 4.94357 37.0116 5.34331 35.7948 6.12743 34.8351C 6.91155 33.8753 8.02416 33.241 9.24948 33.0551C 10.4748 32.8692 11.7255 33.145 12.759 33.829L 21.589 24.999L 9.89898 24.999C 9.65116 26.213 8.96139 27.2918 7.96339 28.0262C 6.96539 28.7606 5.73026 29.0982 4.49746 28.9737C 3.26465 28.8491 2.12201 28.2713 1.29104 27.3521C 0.46008 26.433 0 25.2381 0 23.999C 0 22.7599 0.46008 21.565 1.29104 20.6458C 2.12201 19.7267 3.26465 19.1488 4.49746 19.0243C 5.73026 18.8998 6.96539 19.2374 7.96339 19.9718C 8.96139 20.7062 9.65116 21.7849 9.89898 22.999L 21.589 22.999L 12.759 14.169C 11.7255 14.853 10.4748 15.1288 9.24948 14.9429C 8.02416 14.757 6.91155 14.1227 6.12743 13.1629C 5.34331 12.2032 4.94357 10.9864 5.00574 9.74862C 5.06792 8.51084 5.58757 7.34026 6.46391 6.46391C 7.34026 5.58757 8.51084 5.06792 9.74862 5.00574C 10.9864 4.94357 12.2032 5.34331 13.1629 6.12743C 14.1227 6.91155 14.757 8.02416 14.9429 9.24948C 15.1288 10.4748 14.853 11.7255 14.169 12.759L 22.999 21.589L 22.999 9.89898C 21.7849 9.65116 20.7062 8.96139 19.9718 7.96339C 19.2374 6.96539 18.8998 5.73026 19.0243 4.49746C 19.1488 3.26465 19.7267 2.12201 20.6458 1.29104C 21.565 0.46008 22.7599 0 23.999 0C 25.2381 0 26.433 0.46008 27.3521 1.29104C 28.2713 2.12201 28.8491 3.26465 28.9737 4.49746C 29.0982 5.73026 28.7606 6.96539 28.0262 7.96339C 27.2918 8.96139 26.213 9.65116 24.999 9.89898L 24.999 9.89898Z" fill="#FFC6EF"/>
<path id="Vector_2" d="M 6 12C 9.31371 12 12 9.31371 12 6C 12 2.68629 9.31371 0 6 0C 2.68629 0 0 2.68629 0 6C 0 9.31371 2.68629 12 6 12Z" transform="translate(17.999 17.999)" fill="#D782D9"/>
</g>
</g>
</svg>
