<svg width="60" height="60" viewBox="0 0 60 60" version="1.1" xmlns="http://www.w3.org/2000/svg" xmlns:xlink="http://www.w3.org/1999/xlink">
<g id="Canvas" fill="none">
<g id="database">
<g id="Group">
<path id="Vector" d="M 0 -2.13623e-07L 0 8.201C 0 8.363 0.043 8.516 0.117 8.652C 1.298 13.547 11.864 17.201 25 17.201C 38.106 17.201 48.655 13.562 49.875 8.685C 49.955 8.542 50 8.377 50 8.201L 50 0.00199869C 45.865 2.912 37.345 5.201 25 5.201C 12.654 5.201 4.134 2.911 0 -2.13623e-07Z" transform="translate(0 42.799)" fill="#D782D9"/>
<path id="Vector_2" d="M 0.893 12.444C 0.893 12.64 0.845001 12.824 0.760001 12.985C 0.621001 13.571 0.359998 14.141 -1.5564e-06 14.692C 4.305 13.178 7.167 11.083 7.767 8.685C 7.848 8.541 7.893 8.375 7.893 8.2L 7.893 -1.67847e-06L 0.893 3.291L 0.893 12.444Z" transform="translate(52.107 37.51)" fill="#FFD1F1"/>
<path id="Vector_3" d="M 27.606 5.069C 26.737 5.097 25.867 5.111 25 5.111C 24.131 5.111 23.258 5.097 22.386 5.069C 15.045 4.868 9.195 3.831 4.983 2.352C 3.004 1.685 1.309 0.899 0 -6.10352e-08L 0 7.111L 0 7.611L 0 8.111L 0 9.4C 2.846 12.371 12.394 15.111 25 15.111C 37.606 15.111 47.154 12.371 50 9.4L 50 8.111L 50 7.611L 50 7.111L 50 -6.10352e-08C 48.682 0.905 46.972 1.697 44.975 2.367C 40.765 3.839 34.927 4.87 27.606 5.069Z" transform="translate(0 30.889)" fill="#D782D9"/>
<path id="Vector_4" d="M 0 3.401L 0 11.872L 0 12.405L 0 12.938L 0 13.147C 3.873 12.116 6.673 10.785 8 9.399L 8 8.111L 8 7.611L 8 7.111L 8 9.30786e-07C 6.682 0.905001 4.972 1.697 2.975 2.367L 0 3.401Z" transform="translate(52 25.599)" fill="#FFD1F1"/>
<path id="Vector_5" d="M 0 9.15527e-08L 0 7.111L 0 7.611L 0 8.111L 0 9.4C 2.638 12.154 11.033 14.71 22.286 15.068C 22.401 15.072 22.519 15.073 22.635 15.076C 22.961 15.085 23.286 15.094 23.617 15.099C 24.074 15.106 24.534 15.11 25 15.11C 25.466 15.11 25.926 15.106 26.383 15.099C 26.713 15.094 27.039 15.085 27.365 15.076C 27.481 15.073 27.599 15.071 27.714 15.068C 38.967 14.709 47.362 12.153 50 9.399L 50 8.111L 50 7.611L 50 7.111L 50 9.15527e-08C 45.133 3.344 34.844 5.111 25 5.111C 15.156 5.111 4.867 3.343 0 9.15527e-08Z" transform="translate(0 18.979)" fill="#D782D9"/>
<path id="Vector_6" d="M 25 -3.8147e-08C 9.923 -3.8147e-08 1.303 4.22 0.146 8.51C 0.062 8.657 0 8.818 0 9L 0 9.5L 0 11.306C 2.836 14.267 12.316 17 25 17C 37.684 17 47.164 14.267 50 11.306L 50 9.5L 50 9C 50 8.832 49.944 8.681 49.865 8.542C 48.743 4.241 40.115 -3.8147e-08 25 -3.8147e-08Z" transform="translate(0 5.28999)" fill="#D782D9"/>
<path id="Vector_7" d="M 0 10.813L 0 11.412L 0 12.012L 0 13.154C 3.879 12.123 6.671 10.787 8 9.4L 8 8.111L 8 7.611L 8 7.111L 8 -2.74658e-07C 6.068 1.327 3.273 2.402 0 3.22L 0 10.813Z" transform="translate(52 13.688)" fill="#FFD1F1"/>
<path id="Vector_8" d="M 46.185 8.542C 45.063 4.241 36.435 0 21.32 0C 11.193 0 3.996 1.907 3.05176e-07 4.457C 3.48 3.725 7.588 3.29 12.32 3.29C 28.04 3.29 37.012 8.03 38.18 12.837C 38.262 12.992 38.32 13.161 38.32 13.349L 38.32 13.908L 38.32 15.05C 42.2 14.021 44.994 12.691 46.32 11.306L 46.32 9.5L 46.32 9C 46.32 8.832 46.264 8.681 46.185 8.542Z" transform="translate(13.68 0)" fill="#FFD1F1"/>
</g>
</g>
</g>
</svg>
