<svg width="26" height="26" viewBox="0 0 26 26" fill="none" xmlns="http://www.w3.org/2000/svg">
<path d="M12.75 25.5C5.70837 25.5 0 19.7916 0 12.75C0 5.70837 5.70837 0 12.75 0C19.7916 0 25.5 5.70837 25.5 12.75C25.5 19.7916 19.7916 25.5 12.75 25.5Z" fill="#FFD1F1"/>
<path fill-rule="evenodd" clip-rule="evenodd" d="M10.4805 9.117L10.479 9.111L6.84899 12.741L10.479 16.368C10.8795 16.7698 10.8785 17.4202 10.4767 17.8208C10.0749 18.2213 9.42453 18.2203 9.02398 17.8185L4.67399 13.4685C4.27363 13.0679 4.27363 12.4186 4.67399 12.018L9.02849 7.665C9.42944 7.26404 10.0795 7.26404 10.4805 7.665C10.8814 8.06596 10.8814 8.71604 10.4805 9.117ZM20.9745 12.042L20.9775 12.0405C21.3768 12.4409 21.3768 13.089 20.9775 13.4895L16.6215 17.8425C16.2181 18.2256 15.5828 18.2174 15.1895 17.824C14.7961 17.4306 14.7879 16.7954 15.171 16.392L18.798 12.7665L15.171 9.1365C14.7874 8.73349 14.795 8.09824 15.188 7.70444C15.581 7.31065 16.2162 7.3018 16.62 7.6845L20.9745 12.042Z" fill="#D782D9"/>
</svg>
