<svg width="50" height="48" viewBox="0 0 50 48" fill="none" xmlns="http://www.w3.org/2000/svg">
<path d="M44.6429 2.57141H5.35714C3.3847 2.57141 1.78572 4.17039 1.78572 6.14284V20.4286C1.78572 22.401 3.3847 24 5.35714 24H44.6429C46.6153 24 48.2143 22.401 48.2143 20.4286V6.14284C48.2143 4.17039 46.6153 2.57141 44.6429 2.57141Z" stroke="#D782D9" stroke-width="3.57143" stroke-linecap="round" stroke-linejoin="round"/>
<path d="M12.5 15.0714C13.4862 15.0714 14.2857 14.2719 14.2857 13.2857C14.2857 12.2995 13.4862 11.5 12.5 11.5C11.5138 11.5 10.7143 12.2995 10.7143 13.2857C10.7143 14.2719 11.5138 15.0714 12.5 15.0714Z" stroke="#D782D9" stroke-width="3.57143" stroke-linecap="round" stroke-linejoin="round"/>
<path d="M26.7857 13.2857H39.2857" stroke="#D782D9" stroke-width="3.57143" stroke-linecap="round" stroke-linejoin="round"/>
<path d="M5.35714 24C4.40994 24 3.50154 24.3763 2.83176 25.046C2.16199 25.7158 1.78572 26.6242 1.78572 27.5714V41.8571C1.78572 42.8043 2.16199 43.7128 2.83176 44.3825C3.50154 45.0523 4.40994 45.4286 5.35714 45.4286H44.6429C45.5901 45.4286 46.4985 45.0523 47.1682 44.3825C47.838 43.7128 48.2143 42.8043 48.2143 41.8571V27.5714C48.2143 26.6242 47.838 25.7158 47.1682 25.046C46.4985 24.3763 45.5901 24 44.6429 24" stroke="#D782D9" stroke-width="3.57143" stroke-linecap="round" stroke-linejoin="round"/>
<path d="M12.5 36.5C13.4862 36.5 14.2857 35.7005 14.2857 34.7142C14.2857 33.728 13.4862 32.9285 12.5 32.9285C11.5138 32.9285 10.7143 33.728 10.7143 34.7142C10.7143 35.7005 11.5138 36.5 12.5 36.5Z" stroke="#D782D9" stroke-width="3.57143" stroke-linecap="round" stroke-linejoin="round"/>
<path d="M26.7857 34.7143H39.2857" stroke="#D782D9" stroke-width="3.57143" stroke-linecap="round" stroke-linejoin="round"/>
</svg>
