<svg width="14" height="18" viewBox="0 0 14 18" version="1.1" xmlns="http://www.w3.org/2000/svg" xmlns:xlink="http://www.w3.org/1999/xlink">
<g id="Canvas" fill="none">
<g id="waiver">
<g id="Group">
<g id="Artboard 4">
<path id="Fill 1" fill-rule="evenodd" clip-rule="evenodd" d="M 6.12 1.2368e-06L 1.5 1.2368e-06C 0.67 1.2368e-06 0 0.670001 0 1.5L 0 16.5C 0 17.33 0.67 18 1.5 18L 12.5 18C 13.33 18 14 17.33 14 16.5L 14 7.88C 14.0004 7.35456 13.8973 6.83418 13.6965 6.3486C 13.4958 5.86302 13.2013 5.42175 12.83 5.05L 8.95 1.17C 8.57825 0.798664 8.13698 0.504208 7.6514 0.303455C 7.16582 0.102703 6.64544 -0.000411943 6.12 1.2368e-06" fill="#FFD1F1"/>
<path id="Fill 4" fill-rule="evenodd" clip-rule="evenodd" d="M 5.83 4.94L 1.95 1.06C 1.413 0.529797 0.736976 0.162316 0 -5.96046e-10L 0 5.39C 0 6.22 0.67 6.89 1.5 6.89L 6.9 6.89C 6.73486 6.15191 6.36385 5.47577 5.83 4.94" transform="translate(7 0.110001)" fill="#D782D9"/>
</g>
</g>
</g>
</g>
</svg>
