
<svg width="262" height="266" viewBox="0 0 262 266" fill="none" xmlns="http://www.w3.org/2000/svg">
<path d="M48.5 58.2H0.5V262.5H48.5V58.2Z" fill="#07639B"/>
<path d="M261.5 202.8C261.5 182.1 252.3 163.3 236.8 152.6L193.6 122.4C190 119.9 189 118 188.9 115.1C188.9 110.9 193.5 106.3 201.4 106.3H255.1V58.3H201.4C167.4 58.3 140.9 83.8 140.9 115.1C140.9 133.2 149.1 149.8 166 161.7L209.2 191.9C211.2 193.3 213.4 197.3 213.4 202.8C213.4 211.1 207.3 217.8 199.7 217.8V218H122.8C115.3 218 109.1 211.9 109.1 204.3V107.4H138.1V59.4H109.1V0H61.1V204.3C61.1 238.3 88.8 266 122.8 266H200V265.8C233.9 265.7 261.5 237.4 261.5 202.8Z" fill="#07639B"/>
<path d="M24.5 49.2C37.7548 49.2 48.5 38.4548 48.5 25.2C48.5 11.9452 37.7548 1.20001 24.5 1.20001C11.2452 1.20001 0.5 11.9452 0.5 25.2C0.5 38.4548 11.2452 49.2 24.5 49.2Z" fill="#BBA653"/>
</svg>
