<svg viewBox="0 0 320 320" fill="none" xmlns="http://www.w3.org/2000/svg">
<path d="M193.94 160L296.5 57.44L317.65 36.29C320.77 33.17 320.77 28.1 317.65 24.98L295.02 2.35C291.9 -0.769998 286.83 -0.769998 283.71 2.35L160 126.06L36.29 2.34C33.17 -0.78 28.1 -0.78 24.98 2.34L2.34 24.97C-0.78 28.09 -0.78 33.16 2.34 36.28L126.06 160L2.34 283.71C-0.78 286.83 -0.78 291.9 2.34 295.02L24.97 317.65C28.09 320.77 33.16 320.77 36.28 317.65L160 193.94L262.56 296.5L283.71 317.65C286.83 320.77 291.9 320.77 295.02 317.65L317.65 295.02C320.77 291.9 320.77 286.83 317.65 283.71L193.94 160Z" fill="#8898aa"/>
</svg>
