<svg width="30" height="30" viewBox="0 0 30 30" fill="none" xmlns="http://www.w3.org/2000/svg">
<circle cx="15" cy="15" r="15" fill="#FFBBC5"/>
<path d="M17.6536 15L21.6337 11.0199C22.1221 10.5315 22.1221 9.73966 21.6337 9.25085L20.7491 8.36631C20.2607 7.8779 19.4689 7.8779 18.9801 8.36631L15 12.3464L11.0199 8.36631C10.5315 7.8779 9.73966 7.8779 9.25085 8.36631L8.36631 9.25085C7.8779 9.73926 7.8779 10.5311 8.36631 11.0199L12.3464 15L8.36631 18.9801C7.8779 19.4685 7.8779 20.2603 8.36631 20.7491L9.25085 21.6337C9.73926 22.1221 10.5315 22.1221 11.0199 21.6337L15 17.6536L18.9801 21.6337C19.4685 22.1221 20.2607 22.1221 20.7491 21.6337L21.6337 20.7491C22.1221 20.2607 22.1221 19.4689 21.6337 18.9801L17.6536 15Z" fill="#E33F56"/>
</svg>
