<svg viewBox="0 0 20 20" fill="none" xmlns="http://www.w3.org/2000/svg">
<path d="M10 20C15.5228 20 20 15.5228 20 10C20 4.47715 15.5228 0 10 0C4.47715 0 0 4.47715 0 10C0 15.5228 4.47715 20 10 20Z" fill="#FFBBC5"/>
<path fill-rule="evenodd" clip-rule="evenodd" d="M9 6.84848C9 5.93939 9.4 5.33333 10 5.33333C10.6 5.33333 11 5.93939 11 6.84848V10.4848C11 11.3939 10.6 12 10 12C9.4 12 9 11.3939 9 10.4848V6.84848ZM10 14.6667C9.41667 14.6667 9 14.25 9 13.6667C9 13.0833 9.41667 12.6667 10 12.6667C10.5833 12.6667 11 13.0833 11 13.6667C11 14.25 10.5833 14.6667 10 14.6667Z" fill="#E33F56"/>
</svg>
