<svg width="400" height="400" viewBox="0 0 400 400" fill="none" xmlns="http://www.w3.org/2000/svg">
<path d="M376.83 108.056L360.74 192.234C358.49 190.92 356.151 189.765 353.74 188.778C354.714 181.632 354.362 177.664 352.848 175.412C353.069 175.038 353.222 174.629 353.3 174.202C353.491 173.199 353.275 172.161 352.701 171.316C352.127 170.472 351.24 169.89 350.237 169.699C349.234 169.508 348.196 169.723 347.351 170.298C346.507 170.872 345.925 171.759 345.734 172.762C345.714 172.878 345.694 173 345.68 173.114C342.7 174.452 340.746 179.016 338.778 184.492L338.738 184.892C326.608 183.447 314.334 185.928 303.718 191.972C302.9 177.51 307.95 158.526 303.494 152.172C303.721 151.799 303.877 151.386 303.954 150.956C304.06 150.405 304.043 149.837 303.907 149.293C303.77 148.749 303.516 148.241 303.162 147.805C302.808 147.37 302.364 147.017 301.859 146.771C301.355 146.525 300.803 146.392 300.242 146.382C299.681 146.372 299.124 146.485 298.611 146.712C298.098 146.94 297.641 147.277 297.272 147.7C296.903 148.123 296.631 148.621 296.475 149.16C296.319 149.699 296.282 150.265 296.368 150.82C286.268 156.878 284.62 194.642 271.47 192.52C258.232 190.376 277.852 136.596 268.028 124.448C268.33 124.014 268.535 123.52 268.628 123C268.723 122.503 268.719 121.993 268.617 121.498C268.514 121.002 268.316 120.532 268.031 120.114C267.747 119.696 267.384 119.337 266.961 119.06C266.539 118.782 266.066 118.59 265.569 118.495C265.072 118.4 264.562 118.404 264.067 118.506C263.571 118.609 263.101 118.807 262.683 119.091C262.265 119.376 261.906 119.739 261.629 120.162C261.351 120.584 261.159 121.057 261.064 121.554C260.995 121.906 260.977 122.265 261.01 122.622C246.44 129.99 245.636 208.678 224.638 205.156C204.018 201.7 226.848 139.436 216.748 127.084C216.822 126.889 216.879 126.689 216.918 126.484C217.013 125.987 217.009 125.476 216.906 124.98C216.804 124.484 216.605 124.014 216.32 123.595C216.036 123.176 215.672 122.818 215.249 122.54C214.826 122.262 214.352 122.07 213.855 121.975C213.358 121.88 212.847 121.884 212.351 121.987C211.855 122.089 211.385 122.288 210.966 122.573C210.547 122.857 210.189 123.221 209.911 123.644C209.633 124.067 209.441 124.541 209.346 125.038C209.313 125.221 209.292 125.406 209.284 125.592C195 131.868 187.088 183.282 178.752 182.174L199.4 74.138L376.83 108.056ZM246.452 92.63C246.606 91.825 246.518 90.9923 246.198 90.2374C245.879 89.4825 245.343 88.8393 244.658 88.389C243.973 87.9387 243.17 87.7016 242.351 87.7078C241.531 87.7139 240.732 87.9629 240.054 88.4233C239.376 88.8838 238.849 89.535 238.541 90.2945C238.233 91.0541 238.158 91.8879 238.324 92.6906C238.489 93.4933 238.89 94.2287 239.474 94.8039C240.058 95.3791 240.799 95.7682 241.604 95.922C242.683 96.1244 243.798 95.8919 244.706 95.2752C245.615 94.6585 246.242 93.7076 246.452 92.63ZM229.112 89.31C229.266 88.505 229.178 87.6723 228.858 86.9174C228.539 86.1625 228.003 85.5193 227.318 85.069C226.633 84.6187 225.83 84.3816 225.011 84.3878C224.191 84.3939 223.392 84.6429 222.714 85.1033C222.036 85.5638 221.509 86.215 221.201 86.9745C220.893 87.7341 220.818 88.5679 220.984 89.3706C221.149 90.1733 221.55 90.9087 222.134 91.4839C222.718 92.0591 223.459 92.4482 224.264 92.602C225.343 92.8083 226.461 92.5773 227.37 91.9599C228.279 91.3426 228.906 90.3894 229.112 89.31ZM211.776 86C211.929 85.1953 211.84 84.3633 211.521 83.6092C211.201 82.855 210.665 82.2126 209.98 81.7631C209.295 81.3135 208.493 81.0771 207.674 81.0837C206.855 81.0902 206.056 81.3395 205.379 81.8C204.701 82.2605 204.175 82.9114 203.868 83.6706C203.56 84.4298 203.485 85.2631 203.651 86.0652C203.817 86.8673 204.217 87.6022 204.801 88.1769C205.384 88.7516 206.125 89.1403 206.93 89.294C208.009 89.498 209.125 89.2658 210.034 88.6484C210.942 88.0309 211.569 87.0786 211.776 86Z" fill="white"/>
<path d="M372.4 201.224C383.115 211.939 389.134 226.471 389.134 241.624C389.134 256.777 383.115 271.309 372.4 282.024C361.685 292.739 347.153 298.758 332 298.758C316.847 298.758 302.315 292.739 291.6 282.024L332 241.624L372.4 201.224Z" fill="#FFC077"/>
<path d="M372.4 201.224L332 241.62L291.6 201.22C299.578 193.251 309.734 187.818 320.791 185.603C331.847 183.389 343.312 184.492 353.744 188.774C356.155 189.761 358.494 190.916 360.744 192.23C365.002 194.712 368.92 197.735 372.4 201.224Z" fill="#DF60D2"/>
<path d="M352.858 175.412C354.372 177.664 354.724 181.632 353.75 188.778C348.951 186.804 343.904 185.496 338.75 184.89L338.79 184.49C340.758 179.014 342.712 174.45 345.692 173.112C345.608 173.987 345.826 174.865 346.309 175.599C346.793 176.333 347.513 176.88 348.35 177.148C349.188 177.417 350.091 177.39 350.912 177.074C351.732 176.758 352.42 176.171 352.86 175.41L352.858 175.412Z" fill="white"/>
<path d="M350.248 169.7C351.251 169.891 352.137 170.473 352.711 171.317C353.286 172.161 353.501 173.199 353.31 174.202C353.232 174.629 353.079 175.038 352.858 175.412C351.907 174.092 350.486 173.187 348.888 172.884C347.827 172.585 346.695 172.666 345.688 173.114C345.702 173 345.722 172.878 345.744 172.762C345.838 172.265 346.029 171.791 346.306 171.368C346.584 170.945 346.942 170.58 347.36 170.296C347.779 170.011 348.249 169.812 348.745 169.71C349.24 169.608 349.751 169.604 350.248 169.7Z" fill="#DF60D2"/>
<path d="M352.858 175.412C352.418 176.173 351.73 176.76 350.91 177.076C350.089 177.392 349.186 177.419 348.348 177.15C347.511 176.882 346.791 176.335 346.307 175.601C345.824 174.867 345.606 173.989 345.69 173.114C346.697 172.666 347.829 172.585 348.89 172.884C350.487 173.188 351.908 174.093 352.858 175.412Z" fill="#DF60D2"/>
<path d="M332 241.62L291.6 282.02C286.292 276.716 282.081 270.418 279.208 263.486C276.335 256.554 274.856 249.124 274.856 241.62C274.856 234.116 276.335 226.686 279.208 219.754C282.081 212.822 286.292 206.524 291.6 201.22L332 241.62Z" fill="#69D6F9"/>
<path d="M300.902 146.456C301.399 146.55 301.873 146.741 302.296 147.019C302.719 147.296 303.083 147.654 303.368 148.073C303.652 148.491 303.851 148.961 303.953 149.457C304.056 149.952 304.059 150.463 303.964 150.96C303.887 151.39 303.731 151.803 303.504 152.176C302.813 151.145 301.749 150.423 300.536 150.162C299.834 149.989 299.105 149.959 298.391 150.072C297.677 150.186 296.993 150.442 296.38 150.824C296.285 150.215 296.338 149.592 296.534 149.008C296.73 148.423 297.064 147.895 297.507 147.466C297.951 147.038 298.491 146.723 299.081 146.547C299.672 146.371 300.297 146.34 300.902 146.456Z" fill="#DF60D2"/>
<path d="M303.504 152.176C307.96 158.524 302.904 177.508 303.728 191.976C296.34 196.19 289.985 201.998 285.124 208.977C280.264 215.956 277.02 223.931 275.63 232.322L240.05 225.522L172.916 212.69L178.082 185.654L178.752 182.18C187.088 183.288 194.998 131.874 209.302 125.6C209.263 126.518 209.553 127.42 210.12 128.143C210.687 128.866 211.494 129.362 212.394 129.542C213.295 129.723 214.231 129.575 215.033 129.126C215.834 128.677 216.449 127.956 216.766 127.094C226.866 139.446 204.036 201.71 224.656 205.166C245.656 208.688 246.456 130 261.028 122.632C261.1 123.42 261.414 124.166 261.925 124.769C262.437 125.372 263.122 125.802 263.887 126.002C264.652 126.201 265.46 126.16 266.201 125.884C266.942 125.608 267.58 125.11 268.028 124.458C277.852 136.606 258.228 190.386 271.47 192.53C284.62 194.652 286.27 156.888 296.37 150.83C296.49 151.617 296.851 152.347 297.403 152.919C297.955 153.492 298.672 153.879 299.453 154.028C300.235 154.176 301.044 154.078 301.767 153.748C302.491 153.417 303.094 152.87 303.494 152.182L303.504 152.176Z" fill="white"/>
<path d="M300.536 150.162C301.749 150.423 302.813 151.145 303.504 152.176C303.104 152.864 302.501 153.411 301.777 153.742C301.053 154.072 300.245 154.17 299.463 154.022C298.682 153.873 297.965 153.486 297.413 152.913C296.861 152.341 296.5 151.611 296.38 150.824C296.993 150.442 297.677 150.186 298.391 150.073C299.105 149.959 299.834 149.989 300.536 150.162Z" fill="#DF60D2"/>
<path d="M265.584 118.496C266.587 118.689 267.473 119.272 268.048 120.117C268.622 120.962 268.838 122 268.648 123.004C268.551 123.525 268.343 124.019 268.038 124.452C267.094 123.25 265.742 122.437 264.238 122.166C263.144 121.95 262.01 122.112 261.02 122.626C260.987 122.269 261.005 121.91 261.074 121.558C261.168 121.06 261.36 120.586 261.638 120.163C261.916 119.74 262.274 119.375 262.693 119.091C263.112 118.806 263.583 118.607 264.079 118.505C264.575 118.403 265.087 118.4 265.584 118.496Z" fill="#DF60D2"/>
<path d="M268.038 124.452C267.59 125.104 266.952 125.602 266.211 125.878C265.47 126.154 264.662 126.195 263.897 125.996C263.132 125.796 262.447 125.366 261.935 124.763C261.423 124.16 261.11 123.413 261.038 122.626C262.027 122.112 263.162 121.95 264.256 122.166C265.753 122.441 267.098 123.254 268.038 124.452Z" fill="#DF60D2"/>
<path d="M243.16 87.774C243.966 87.9272 244.709 88.3161 245.294 88.8915C245.879 89.4669 246.281 90.203 246.447 91.0066C246.614 91.8102 246.539 92.6452 246.231 93.4059C245.923 94.1666 245.396 94.8188 244.717 95.2801C244.038 95.7413 243.238 95.9908 242.417 95.997C241.596 96.0032 240.792 95.7658 240.107 95.3148C239.421 94.8639 238.884 94.2197 238.565 93.4637C238.245 92.7078 238.157 91.874 238.312 91.068C238.521 89.99 239.149 89.0387 240.057 88.4215C240.965 87.8044 242.081 87.5716 243.16 87.774Z" fill="#FFC077"/>
<path d="M225.818 84.462C226.623 84.6155 227.365 85.0043 227.949 85.5793C228.533 86.1544 228.934 86.8897 229.1 87.6924C229.266 88.4951 229.191 89.3291 228.883 90.0889C228.575 90.8486 228.049 91.5 227.371 91.9606C226.693 92.4212 225.893 92.6704 225.074 92.6766C224.254 92.6828 223.451 92.4458 222.766 91.9955C222.081 91.5452 221.545 90.9019 221.225 90.1469C220.906 89.3919 220.818 88.5591 220.972 87.754C221.178 86.675 221.805 85.7222 222.714 85.1049C223.622 84.4876 224.739 84.2564 225.818 84.462Z" fill="#FFC077"/>
<path d="M212.372 263.374L224.696 328.702L214.908 330.548L202.59 265.22L212.372 263.374Z" fill="#69D6F9"/>
<path d="M213.872 121.976C214.876 122.169 215.762 122.752 216.336 123.598C216.911 124.443 217.126 125.482 216.936 126.486C216.897 126.691 216.84 126.891 216.766 127.086C215.893 125.984 214.634 125.256 213.244 125.05C211.905 124.842 210.535 125.03 209.302 125.592C209.31 125.406 209.331 125.221 209.364 125.038C209.556 124.034 210.139 123.148 210.984 122.574C211.83 122 212.868 121.785 213.872 121.976Z" fill="#DF60D2"/>
<path d="M213.244 125.052C214.634 125.258 215.893 125.986 216.766 127.088C216.449 127.95 215.834 128.671 215.033 129.12C214.231 129.569 213.295 129.717 212.394 129.536C211.493 129.356 210.687 128.86 210.12 128.137C209.552 127.414 209.262 126.512 209.302 125.594C210.535 125.032 211.905 124.844 213.244 125.052Z" fill="#DF60D2"/>
<path d="M195.906 229.806L205.692 227.96L212.376 263.392L202.592 265.238L195.906 229.806Z" fill="#FFC077"/>
<path d="M208.484 81.15C209.289 81.3035 210.031 81.6923 210.615 82.2673C211.199 82.8424 211.6 83.5777 211.766 84.3804C211.932 85.1831 211.857 86.0171 211.549 86.7768C211.241 87.5366 210.715 88.188 210.037 88.6486C209.359 89.1092 208.559 89.3584 207.74 89.3646C206.92 89.3708 206.117 89.1338 205.432 88.6835C204.747 88.2332 204.211 87.5898 203.891 86.8349C203.572 86.0799 203.484 85.2471 203.638 84.442C203.846 83.3638 204.473 82.4119 205.381 81.7949C206.289 81.1779 207.405 80.946 208.484 81.15Z" fill="#FFC077"/>
<path d="M191.834 306.522L197.004 333.922V333.928L187.222 335.768L182.05 308.366L191.834 306.522Z" fill="#69D6F9"/>
<path d="M168.22 235.024L178.008 233.178L191.846 306.53L182.06 308.376L168.22 235.024Z" fill="#FFC077"/>
<path d="M160.018 289.85L169.314 339.148L159.53 340.994L150.228 291.696L160.01 289.85H160.018Z" fill="#69D6F9"/>
<path d="M150.31 238.388L160.018 289.85H160.01L150.228 291.696L140.52 240.234L150.31 238.388Z" fill="#FFC077"/>
<path d="M147.152 79.974C150.119 91.2188 149.275 103.13 144.752 113.844C136.964 131.947 134.905 152 138.85 171.308L139.06 172.324C139.591 174.838 139.141 177.46 137.803 179.653C136.464 181.847 134.338 183.446 131.86 184.124L130.202 184.556L130.182 184.482L110.28 108.524C108.834 116.284 104.452 116.244 100.74 113.512C103.162 108.036 102.668 99.18 97.63 100.498C92.256 101.898 95.928 109.97 100.74 113.512C98.854 117.786 95.19 120.002 90.54 113.696L110.438 189.664L110.458 189.732L109.174 190.07C108.371 190.269 107.547 190.372 106.72 190.374C104.577 190.369 102.491 189.682 100.765 188.412C99.0388 187.142 97.7621 185.355 97.12 183.31C91.1052 164.205 79.3827 147.402 63.53 135.16C56.8888 130.004 51.572 123.34 48.0204 115.719C44.4688 108.098 42.7846 99.7411 43.1074 91.3397C43.4302 82.9383 45.7507 74.7347 49.8766 67.4091C54.0025 60.0835 59.815 53.8467 66.8323 49.2157C73.8495 44.5846 81.8695 41.6928 90.2274 40.7798C98.5853 39.8668 107.04 40.9589 114.892 43.9657C122.744 46.9724 129.766 51.8072 135.376 58.0693C140.986 64.3314 145.023 71.8404 147.152 79.974Z" fill="#FFC077"/>
<path d="M142.048 197.27C142.219 197.914 142.261 198.585 142.172 199.245C142.083 199.905 141.864 200.541 141.528 201.116C141.192 201.691 140.745 202.194 140.214 202.595C139.682 202.997 139.077 203.289 138.432 203.456L113.288 210.04C112.644 210.208 111.973 210.248 111.313 210.157C110.654 210.066 110.018 209.846 109.444 209.51C108.869 209.173 108.367 208.727 107.965 208.196C107.563 207.665 107.27 207.06 107.102 206.416C106.99 205.997 106.934 205.566 106.934 205.132C106.935 204.012 107.308 202.923 107.993 202.037C108.677 201.15 109.636 200.515 110.72 200.23L135.862 193.646C136.961 193.359 138.124 193.447 139.168 193.896C139.873 194.202 140.499 194.665 140.998 195.25C141.497 195.835 141.856 196.526 142.048 197.27Z" fill="#69D6F9"/>
<path d="M129.764 335.22L139.55 333.376L141.626 344.384L131.84 346.228L129.764 335.22Z" fill="#69D6F9"/>
<path d="M139.554 203.246C139.772 204.087 139.883 204.953 139.884 205.822C139.881 208.062 139.136 210.239 137.767 212.011C136.397 213.784 134.479 215.054 132.312 215.622L123.828 217.84C122.54 218.179 121.197 218.26 119.878 218.079C118.558 217.899 117.287 217.46 116.137 216.787C114.988 216.115 113.982 215.222 113.178 214.16C112.373 213.099 111.786 211.889 111.45 210.6L139.554 203.246Z" fill="#69D6F9"/>
<path d="M122.618 243.614L139.546 333.368L129.764 335.214L112.828 245.46L122.618 243.614Z" fill="#FFC077"/>
<path d="M139.466 187.378C139.573 187.798 139.627 188.23 139.628 188.664C139.628 189.786 139.257 190.876 138.572 191.764C137.887 192.652 136.927 193.288 135.842 193.572L110.7 200.156C109.934 200.359 109.131 200.378 108.357 200.211C107.582 200.044 106.858 199.696 106.244 199.196C105.655 198.719 105.179 198.116 104.851 197.432C104.524 196.749 104.352 196 104.35 195.242C104.351 194.122 104.724 193.033 105.409 192.147C106.093 191.26 107.052 190.625 108.136 190.34L109.178 190.07L110.462 189.732L130.202 184.566L131.86 184.134L133.278 183.762C134.578 183.423 135.959 183.613 137.119 184.291C138.28 184.969 139.123 186.079 139.466 187.378Z" fill="#69D6F9"/>
<path d="M130.176 184.492L130.196 184.566L110.456 189.732L110.436 189.664L90.5378 113.696C95.1898 120.002 98.8538 117.786 100.738 113.512C104.45 116.244 108.832 116.284 110.278 108.524L130.176 184.492Z" fill="#FFC077"/>
<path d="M97.6299 100.498C102.668 99.18 103.162 108.036 100.74 113.512C95.9279 109.97 92.2559 101.904 97.6299 100.498Z" fill="#FFC077"/>
<path d="M87.97 275.354C89.186 281.809 87.7888 288.483 84.0856 293.908C80.3824 299.333 74.6763 303.065 68.222 304.284L66.938 297.462C70.2611 296.836 73.3375 295.277 75.8083 292.968C78.2791 290.66 80.0423 287.696 80.8921 284.423C81.7419 281.15 81.6433 277.702 80.6078 274.483C79.5724 271.264 77.6427 268.406 75.044 266.242L79.708 261.11C84.0143 264.77 86.9314 269.799 87.97 275.354Z" fill="#69D6F9"/>
<path d="M79.708 261.11L75.044 266.242C72.0924 263.776 68.4221 262.331 64.5816 262.124C60.7411 261.916 56.9365 262.956 53.736 265.089C50.5356 267.223 48.1112 270.334 46.825 273.959C45.5389 277.583 45.4599 281.527 46.6 285.2L46.49 285.234L39.758 286.506C39.5762 285.855 39.4227 285.196 39.298 284.532C38.3463 279.495 38.9811 274.287 41.115 269.626C43.2489 264.966 46.7767 261.082 51.2115 258.511C55.6463 255.941 60.7697 254.81 65.8746 255.274C70.9795 255.739 75.8143 257.777 79.712 261.106L79.708 261.11Z" fill="#FFC077"/>
<path d="M73.5899 345.814L75.6659 356.814L57.1219 360.316L55.0459 349.308L73.5899 345.814Z" fill="#DF60D2"/>
<path d="M70.5 329.412L72.5759 340.412L54.0239 343.914L51.95 332.908L70.5 329.412Z" fill="#DF60D2"/>
<path d="M69.6559 217.464C69.836 218.428 69.7264 219.423 69.3411 220.325C68.9557 221.226 68.3118 221.993 67.4907 222.529C66.6696 223.065 65.7082 223.345 64.7278 223.335C63.7474 223.324 62.7921 223.024 61.9826 222.471C61.173 221.918 60.5455 221.137 60.1793 220.228C59.8131 219.318 59.7246 218.321 59.9251 217.361C60.1256 216.401 60.6059 215.522 61.3056 214.836C62.0052 214.149 62.8927 213.685 63.8559 213.502C64.4969 213.381 65.1555 213.387 65.794 213.521C66.4325 213.655 67.0385 213.913 67.5771 214.281C68.1158 214.649 68.5766 215.119 68.9333 215.666C69.29 216.212 69.5356 216.823 69.6559 217.464Z" fill="#FFC077"/>
<path d="M67.404 313.012L69.48 324.01L50.928 327.512L48.854 316.506L67.404 313.012Z" fill="#DF60D2"/>
<path d="M66.9379 297.462L68.2219 304.284C62.1119 305.436 55.7923 304.247 50.5182 300.954C45.2442 297.661 41.4017 292.505 39.7539 286.51L46.4859 285.238L46.5959 285.204C47.8896 289.389 50.678 292.951 54.4296 295.212C58.1812 297.472 62.6336 298.273 66.9379 297.462Z" fill="#DF60D2"/>
<path d="M48.8859 221.378C49.0676 222.342 48.9595 223.338 48.5753 224.24C48.1911 225.142 47.548 225.91 46.7274 226.447C45.9068 226.984 44.9454 227.266 43.9647 227.257C42.9841 227.247 42.0282 226.948 41.2179 226.395C40.4076 225.843 39.7792 225.062 39.4122 224.153C39.0452 223.244 38.956 222.246 39.1559 221.286C39.3558 220.326 39.8359 219.446 40.5354 218.759C41.2349 218.072 42.1225 217.607 43.0859 217.424C43.7264 217.303 44.3845 217.309 45.0227 217.442C45.6609 217.575 46.2666 217.832 46.8052 218.199C47.3438 218.566 47.8048 219.036 48.1618 219.582C48.5188 220.127 48.7649 220.737 48.8859 221.378Z" fill="#FFC077"/>
<path d="M28.1178 225.3C28.2979 226.264 28.1884 227.259 27.803 228.161C27.4176 229.062 26.7737 229.829 25.9526 230.365C25.1315 230.901 24.1701 231.181 23.1897 231.171C22.2093 231.16 21.2541 230.86 20.4445 230.307C19.6349 229.754 19.0074 228.973 18.6412 228.064C18.275 227.154 18.1866 226.157 18.387 225.197C18.5875 224.237 19.0679 223.358 19.7675 222.672C20.4671 221.985 21.3546 221.521 22.3178 221.338C22.9589 221.216 23.6177 221.222 24.2564 221.356C24.8951 221.489 25.5012 221.747 26.04 222.115C26.5788 222.484 27.0396 222.954 27.3962 223.501C27.7527 224.047 27.998 224.659 28.1178 225.3Z" fill="#FFC077"/>
<path d="M131.854 184.134C134.332 183.456 136.458 181.857 137.796 179.663C139.135 177.47 139.585 174.848 139.054 172.334L138.844 171.318C134.899 152.01 136.958 131.957 144.746 113.854C148.568 104.752 149.767 94.7615 148.207 85.0132C146.648 75.2649 142.391 66.1476 135.92 58.6925C129.448 51.2373 121.019 45.7417 111.587 42.8274C102.155 39.913 92.0951 39.6961 82.5459 42.2012C72.9968 44.7063 64.3391 49.8334 57.5522 57.0027C50.7652 64.172 46.1197 73.0974 44.1412 82.7693C42.1627 92.4413 42.93 102.474 46.3564 111.733C49.7828 120.991 55.7315 129.106 63.5299 135.16C79.3788 147.403 91.0977 164.207 97.1099 183.31C97.752 185.355 99.0287 187.142 100.755 188.412C102.481 189.682 104.567 190.369 106.71 190.374C107.537 190.372 108.361 190.269 109.164 190.07" stroke="#DF60D2" stroke-width="1.352" stroke-linecap="round" stroke-linejoin="round"/>
<path d="M106.238 199.2C105.649 198.723 105.173 198.12 104.845 197.436C104.518 196.753 104.347 196.004 104.344 195.246C104.346 194.126 104.718 193.037 105.403 192.151C106.087 191.264 107.046 190.629 108.13 190.344L109.172 190.074L110.456 189.736L130.196 184.57L131.854 184.138L133.272 183.766C133.917 183.596 134.588 183.555 135.249 183.645C135.909 183.735 136.545 183.954 137.121 184.289C137.697 184.625 138.201 185.071 138.604 185.602C139.008 186.132 139.302 186.737 139.472 187.382C139.579 187.802 139.633 188.234 139.634 188.668C139.634 189.79 139.263 190.88 138.578 191.768C137.893 192.656 136.933 193.292 135.848 193.576L110.7 200.156C109.934 200.359 109.131 200.378 108.357 200.211C107.582 200.044 106.858 199.696 106.244 199.196" stroke="#DF60D2" stroke-width="1.352" stroke-linecap="round" stroke-linejoin="round"/>
<path d="M110.28 108.524L130.176 184.492" stroke="#DF60D2" stroke-width="1.352" stroke-linecap="round" stroke-linejoin="round"/>
<path d="M100.74 113.512C104.452 116.244 108.834 116.284 110.28 108.524" stroke="#DF60D2" stroke-width="1.352" stroke-linecap="round" stroke-linejoin="round"/>
<path d="M100.74 113.512C103.162 108.036 102.668 99.18 97.6299 100.498C92.2559 101.904 95.9279 109.97 100.74 113.512Z" stroke="#DF60D2" stroke-width="1.352" stroke-linecap="round" stroke-linejoin="round"/>
<path d="M110.436 189.664L90.5378 113.696C95.1898 120.002 98.8538 117.786 100.738 113.512" stroke="#DF60D2" stroke-width="1.352" stroke-linecap="round" stroke-linejoin="round"/>
<path d="M139.168 193.896C140.135 194.317 140.947 195.029 141.49 195.932C142.034 196.836 142.283 197.886 142.202 198.938C142.121 199.989 141.714 200.99 141.039 201.799C140.363 202.609 139.452 203.188 138.432 203.456L113.288 210.04C112.644 210.208 111.973 210.248 111.313 210.157C110.654 210.066 110.018 209.846 109.444 209.51C108.869 209.173 108.367 208.727 107.965 208.196C107.563 207.665 107.27 207.06 107.102 206.416C106.99 205.997 106.934 205.566 106.934 205.132C106.935 204.012 107.308 202.923 107.993 202.037C108.677 201.15 109.636 200.515 110.72 200.23L135.862 193.646C136.961 193.359 138.124 193.447 139.168 193.896Z" stroke="#DF60D2" stroke-width="1.352" stroke-linecap="round" stroke-linejoin="round"/>
<path d="M132.312 215.624L123.828 217.842C122.54 218.181 121.197 218.262 119.878 218.081C118.558 217.901 117.287 217.462 116.137 216.789C114.988 216.117 113.982 215.224 113.178 214.162C112.373 213.101 111.786 211.891 111.45 210.602L139.554 203.246C139.772 204.087 139.883 204.953 139.884 205.822C139.881 208.063 139.137 210.239 137.767 212.013C136.397 213.786 134.479 215.056 132.312 215.624Z" stroke="#DF60D2" stroke-width="1.352" stroke-linecap="round" stroke-linejoin="round"/>
<path d="M360.74 192.24C373.405 199.633 382.704 211.656 386.677 225.772C390.649 239.889 388.984 254.997 382.032 267.91C375.081 280.823 363.387 290.532 349.416 294.989C335.444 299.446 320.288 298.304 307.143 291.803C293.998 285.302 283.891 273.95 278.954 260.141C274.016 246.332 274.635 231.145 280.678 217.783C286.722 204.421 297.718 193.928 311.348 188.517C324.978 183.106 340.177 183.2 353.74 188.778C356.151 189.765 358.49 190.92 360.74 192.234" stroke="#DF60D2" stroke-width="1.352" stroke-linecap="round" stroke-linejoin="round"/>
<path d="M138.878 193.044L139.006 193.018L178.082 185.648" stroke="#DF60D2" stroke-width="1.352" stroke-linecap="round" stroke-linejoin="round"/>
<path d="M240.05 225.516L261.96 341.69L40.4299 383.484L9.12793 217.518L106.238 199.196H106.244" stroke="#DF60D2" stroke-width="1.352" stroke-linecap="round" stroke-linejoin="round"/>
<path d="M36.9819 237.874L168.738 213.016" stroke="#DF60D2" stroke-width="1.352" stroke-linecap="round" stroke-linejoin="round"/>
<path d="M28.1178 225.3C28.2979 226.264 28.1884 227.259 27.803 228.161C27.4176 229.062 26.7737 229.829 25.9526 230.365C25.1315 230.901 24.1701 231.181 23.1897 231.171C22.2093 231.16 21.2541 230.86 20.4445 230.307C19.6349 229.754 19.0074 228.973 18.6412 228.064C18.275 227.154 18.1866 226.157 18.387 225.197C18.5875 224.237 19.0679 223.358 19.7675 222.672C20.4671 221.985 21.3546 221.521 22.3178 221.338C22.9589 221.216 23.6177 221.222 24.2564 221.356C24.8951 221.489 25.5012 221.747 26.04 222.115C26.5788 222.484 27.0396 222.954 27.3962 223.501C27.7527 224.047 27.998 224.659 28.1178 225.3Z" stroke="#DF60D2" stroke-width="1.352" stroke-linecap="round" stroke-linejoin="round"/>
<path d="M48.8859 221.378C49.0676 222.342 48.9595 223.338 48.5753 224.24C48.1911 225.142 47.548 225.91 46.7274 226.447C45.9068 226.984 44.9454 227.266 43.9647 227.257C42.9841 227.247 42.0282 226.948 41.2179 226.395C40.4076 225.843 39.7792 225.062 39.4122 224.153C39.0452 223.244 38.956 222.246 39.1559 221.286C39.3558 220.326 39.8359 219.446 40.5354 218.759C41.2349 218.072 42.1225 217.607 43.0859 217.424C43.7264 217.303 44.3845 217.309 45.0227 217.442C45.6609 217.575 46.2666 217.832 46.8052 218.199C47.3438 218.566 47.8048 219.036 48.1618 219.582C48.5188 220.127 48.7649 220.737 48.8859 221.378Z" stroke="#DF60D2" stroke-width="1.352" stroke-linecap="round" stroke-linejoin="round"/>
<path d="M69.6559 217.464C69.836 218.428 69.7264 219.423 69.3411 220.325C68.9557 221.226 68.3118 221.993 67.4907 222.529C66.6696 223.065 65.7082 223.345 64.7278 223.335C63.7474 223.324 62.7921 223.024 61.9826 222.471C61.173 221.918 60.5455 221.137 60.1793 220.228C59.8131 219.318 59.7246 218.321 59.9251 217.361C60.1256 216.401 60.6059 215.522 61.3056 214.836C62.0052 214.149 62.8927 213.685 63.8559 213.502C64.4969 213.381 65.1555 213.387 65.794 213.521C66.4325 213.655 67.0385 213.913 67.5771 214.281C68.1158 214.649 68.5766 215.119 68.9333 215.666C69.29 216.212 69.5356 216.823 69.6559 217.464Z" stroke="#DF60D2" stroke-width="1.352" stroke-linecap="round" stroke-linejoin="round"/>
<path d="M275.63 232.316L240.05 225.516L172.916 212.684L178.082 185.648L178.752 182.174L199.398 74.138L376.83 108.056L360.74 192.234V192.24" stroke="#DF60D2" stroke-width="1.352" stroke-linecap="round" stroke-linejoin="round"/>
<path d="M215.428 96.908L356.596 123.89" stroke="#DF60D2" stroke-width="1.352" stroke-linecap="round" stroke-linejoin="round"/>
<path d="M211.776 86C211.622 86.8046 211.233 87.5456 210.658 88.1292C210.084 88.7128 209.349 89.1128 208.546 89.2788C207.744 89.4447 206.911 89.369 206.152 89.0613C205.392 88.7536 204.742 88.2277 204.281 87.5501C203.821 86.8725 203.572 86.0736 203.566 85.2545C203.559 84.4353 203.796 83.6327 204.246 82.9481C204.696 82.2635 205.338 81.7276 206.093 81.4083C206.847 81.089 207.679 81.0005 208.484 81.154C209.018 81.256 209.527 81.4622 209.982 81.761C210.437 82.0597 210.828 82.4451 211.134 82.8951C211.439 83.3451 211.653 83.8509 211.764 84.3837C211.874 84.9164 211.878 85.4657 211.776 86Z" stroke="#DF60D2" stroke-width="1.352" stroke-linecap="round" stroke-linejoin="round"/>
<path d="M229.112 89.31C228.958 90.115 228.569 90.8564 227.994 91.4403C227.419 92.0243 226.684 92.4246 225.881 92.5906C225.079 92.7567 224.245 92.6811 223.485 92.3733C222.726 92.0655 222.074 91.5394 221.614 90.8616C221.153 90.1837 220.904 89.3844 220.898 88.5649C220.891 87.7453 221.128 86.9423 221.578 86.2573C222.028 85.5723 222.671 85.0362 223.426 84.7166C224.18 84.3971 225.013 84.3084 225.818 84.462C226.353 84.5632 226.863 84.7691 227.318 85.0677C227.773 85.3663 228.165 85.7519 228.471 86.2023C228.777 86.6527 228.991 87.159 229.101 87.6923C229.211 88.2256 229.215 88.7753 229.112 89.31Z" stroke="#DF60D2" stroke-width="1.352" stroke-linecap="round" stroke-linejoin="round"/>
<path d="M246.452 92.63C246.297 93.4344 245.906 94.1747 245.331 94.7574C244.755 95.3401 244.019 95.739 243.217 95.9038C242.414 96.0686 241.581 95.9918 240.822 95.6832C240.063 95.3746 239.413 94.848 238.953 94.1699C238.493 93.4918 238.245 92.6926 238.239 91.8734C238.233 91.0542 238.471 90.2517 238.921 89.5672C239.371 88.8828 240.014 88.3471 240.769 88.028C241.523 87.7088 242.355 87.6204 243.16 87.774C244.24 87.9823 245.193 88.6106 245.81 89.5211C246.428 90.4315 246.658 91.5496 246.452 92.63Z" stroke="#DF60D2" stroke-width="1.352" stroke-linecap="round" stroke-linejoin="round"/>
<path d="M352.858 175.412C354.372 177.664 354.724 181.632 353.75 188.778" stroke="#DF60D2" stroke-width="1.352" stroke-linecap="round" stroke-linejoin="round"/>
<path d="M338.788 184.492C340.756 179.016 342.71 174.452 345.69 173.114" stroke="#DF60D2" stroke-width="1.352" stroke-linecap="round" stroke-linejoin="round"/>
<path d="M303.504 152.176C307.96 158.524 302.904 177.508 303.728 191.976" stroke="#DF60D2" stroke-width="1.352" stroke-linecap="round" stroke-linejoin="round"/>
<path d="M268.038 124.452C277.862 136.6 258.238 190.38 271.48 192.524C284.63 194.646 286.28 156.882 296.38 150.824" stroke="#DF60D2" stroke-width="1.352" stroke-linecap="round" stroke-linejoin="round"/>
<path d="M216.766 127.088C226.866 139.44 204.036 201.704 224.656 205.16C245.656 208.682 246.456 129.994 261.028 122.626" stroke="#DF60D2" stroke-width="1.352" stroke-linecap="round" stroke-linejoin="round"/>
<path d="M178.752 182.174C187.088 183.282 194.998 131.868 209.302 125.594" stroke="#DF60D2" stroke-width="1.352" stroke-linecap="round" stroke-linejoin="round"/>
<path d="M79.7079 261.11C82.6549 263.625 84.9708 266.796 86.4692 270.369C87.9677 273.942 88.6069 277.817 88.3356 281.681C88.0642 285.546 86.8899 289.293 84.9069 292.622C82.924 295.95 80.1877 298.767 76.9182 300.845C73.6486 302.924 69.937 304.206 66.0817 304.59C62.2263 304.973 58.3349 304.446 54.7201 303.052C51.1054 301.657 47.8683 299.434 45.2689 296.562C42.6696 293.689 40.7806 290.246 39.7539 286.51C39.5721 285.859 39.4186 285.2 39.2939 284.536C38.3421 279.499 38.977 274.291 41.1109 269.63C43.2448 264.97 46.7725 261.086 51.2074 258.515C55.6422 255.945 60.7655 254.814 65.8704 255.278C70.9753 255.743 75.8102 257.781 79.7079 261.11Z" stroke="#DF60D2" stroke-width="1.352" stroke-linecap="round" stroke-linejoin="round"/>
<path d="M75.0439 266.242C78.1585 268.836 80.2968 272.412 81.1065 276.384C81.9163 280.355 81.3492 284.484 79.4987 288.09C77.6482 291.695 74.6246 294.563 70.9261 296.221C67.2276 297.879 63.0748 298.227 59.1518 297.209C55.2288 296.191 51.7696 293.867 49.3441 290.62C46.9187 287.372 45.6715 283.396 45.8083 279.345C45.945 275.295 47.4573 271.411 50.0962 268.335C52.7351 265.259 56.3432 263.173 60.3259 262.422C62.9089 261.927 65.5696 262.013 68.1152 262.674C70.6608 263.335 73.0275 264.554 75.0439 266.242Z" stroke="#DF60D2" stroke-width="1.352" stroke-linecap="round" stroke-linejoin="round"/>
<path d="M66.938 297.462L68.222 304.284" stroke="#DF60D2" stroke-width="1.352" stroke-linecap="round" stroke-linejoin="round"/>
<path d="M75.0439 266.242L79.7079 261.11" stroke="#DF60D2" stroke-width="1.352" stroke-linecap="round" stroke-linejoin="round"/>
<path d="M46.4859 285.238L39.7539 286.51L39.6719 286.524" stroke="#DF60D2" stroke-width="1.352" stroke-linecap="round" stroke-linejoin="round"/>
<path d="M224.696 328.702L245.106 324.85L226.508 226.252" stroke="#DF60D2" stroke-width="1.352" stroke-linecap="round" stroke-linejoin="round"/>
<path d="M197.004 333.922L214.908 330.548" stroke="#DF60D2" stroke-width="1.352" stroke-linecap="round" stroke-linejoin="round"/>
<path d="M187.222 335.768L197.004 333.928" stroke="#DF60D2" stroke-width="1.352" stroke-linecap="round" stroke-linejoin="round"/>
<path d="M169.314 339.148L187.222 335.774" stroke="#DF60D2" stroke-width="1.352" stroke-linecap="round" stroke-linejoin="round"/>
<path d="M141.622 344.374L159.53 340.994" stroke="#DF60D2" stroke-width="1.352" stroke-linecap="round" stroke-linejoin="round"/>
<path d="M113.316 349.714L131.84 346.22" stroke="#DF60D2" stroke-width="1.352" stroke-linecap="round" stroke-linejoin="round"/>
<path d="M69.48 324.01L50.928 327.512L48.854 316.506L67.404 313.012L69.48 324.01Z" stroke="#DF60D2" stroke-width="1.352" stroke-linecap="round" stroke-linejoin="round"/>
<path d="M72.5759 340.412L54.0239 343.914L51.95 332.908L70.5 329.412L72.5759 340.412Z" stroke="#DF60D2" stroke-width="1.352" stroke-linecap="round" stroke-linejoin="round"/>
<path d="M75.6659 356.814L57.1219 360.316L55.0459 349.308L73.5899 345.814L75.6659 356.814Z" stroke="#DF60D2" stroke-width="1.352" stroke-linecap="round" stroke-linejoin="round"/>
<path d="M141.622 344.374L131.84 346.22L129.764 335.214L112.828 245.46L122.618 243.614L139.546 333.368L141.622 344.374Z" stroke="#DF60D2" stroke-width="1.352" stroke-linecap="round" stroke-linejoin="round"/>
<path d="M169.314 339.148L159.53 340.994L150.228 291.696L140.52 240.234L150.31 238.388L160.018 289.85L169.314 339.148Z" stroke="#DF60D2" stroke-width="1.352" stroke-linecap="round" stroke-linejoin="round"/>
<path d="M197.004 333.928L187.222 335.774V335.768L182.05 308.366L168.212 235.014L177.994 233.168L191.834 306.522L197.004 333.922V333.928Z" stroke="#DF60D2" stroke-width="1.352" stroke-linecap="round" stroke-linejoin="round"/>
<path d="M224.696 328.702L214.908 330.548L202.59 265.22L195.902 229.788L205.686 227.942L212.372 263.374L224.696 328.702Z" stroke="#DF60D2" stroke-width="1.352" stroke-linecap="round" stroke-linejoin="round"/>
<path d="M129.764 335.214L139.546 333.368" stroke="#DF60D2" stroke-width="1.352" stroke-linecap="round" stroke-linejoin="round"/>
<path d="M150.228 291.696L160.01 289.85" stroke="#DF60D2" stroke-width="1.352" stroke-linecap="round" stroke-linejoin="round"/>
<path d="M182.05 308.366L191.834 306.522" stroke="#DF60D2" stroke-width="1.352" stroke-linecap="round" stroke-linejoin="round"/>
<path d="M202.59 265.22L212.372 263.374" stroke="#DF60D2" stroke-width="1.352" stroke-linecap="round" stroke-linejoin="round"/>
<path d="M372.396 201.224L332 241.62L291.606 282.014" stroke="#DF60D2" stroke-width="1.352" stroke-linecap="round" stroke-linejoin="round"/>
<path d="M291.606 201.224L332 241.62" stroke="#DF60D2" stroke-width="1.352" stroke-linecap="round" stroke-linejoin="round"/>
<path d="M79.2479 33.38L74.3599 15.26" stroke="#DF60D2" stroke-width="1.352" stroke-linecap="round" stroke-linejoin="round"/>
<path d="M100.43 33.38L102.404 17.134" stroke="#DF60D2" stroke-width="1.352" stroke-linecap="round" stroke-linejoin="round"/>
<path d="M60.5479 45.846L49.7859 33.38" stroke="#DF60D2" stroke-width="1.352" stroke-linecap="round" stroke-linejoin="round"/>
</svg>
