<svg width="382" height="379" viewBox="0 0 382 379" fill="none" xmlns="http://www.w3.org/2000/svg">
<path d="M47.9658 252.196H84.8278V268.842H47.9658V252.196Z" fill="#1D616F"/>
<path d="M47.9658 276.224H84.8278V292.87H47.9658V276.224Z" fill="#1D616F"/>
<path d="M47.9658 300.252H84.8278V346.232H47.9658V300.252Z" fill="#1D616F"/>
<path d="M315.908 68.438C318.035 68.438 320.115 69.0688 321.884 70.2507C323.652 71.4326 325.031 73.1124 325.845 75.0778C326.659 77.0432 326.872 79.2059 326.457 81.2924C326.042 83.3788 325.018 85.2954 323.513 86.7996C322.009 88.3039 320.093 89.3283 318.006 89.7433C315.92 90.1583 313.757 89.9453 311.792 89.1312C309.826 88.3171 308.146 86.9385 306.965 85.1697C305.783 83.4009 305.152 81.3213 305.152 79.194C305.153 76.3416 306.286 73.6064 308.303 71.5895C310.32 69.5726 313.055 68.439 315.908 68.438Z" fill="#1D616F"/>
<path d="M315.908 118.896C318.036 118.895 320.117 119.526 321.886 120.707C323.656 121.889 325.036 123.569 325.851 125.535C326.666 127.5 326.88 129.664 326.466 131.751C326.051 133.839 325.027 135.756 323.523 137.262C322.019 138.767 320.102 139.793 318.015 140.208C315.928 140.624 313.764 140.412 311.798 139.598C309.831 138.785 308.15 137.406 306.967 135.637C305.784 133.868 305.153 131.788 305.152 129.66C305.151 126.806 306.284 124.069 308.301 122.051C310.318 120.032 313.054 118.898 315.908 118.896Z" fill="#1D616F"/>
<path d="M15.104 91.294C15.104 93.98 15.6331 96.6398 16.661 99.1214C17.6889 101.603 19.1955 103.858 21.0948 105.757C22.9942 107.656 25.249 109.163 27.7306 110.191C30.2122 111.219 32.8719 111.748 35.558 111.748C38.2441 111.748 40.9038 111.219 43.3854 110.191C45.867 109.163 48.1218 107.656 50.0212 105.757C51.9205 103.858 53.4271 101.603 54.455 99.1214C55.4829 96.6398 56.012 93.98 56.012 91.294C56.012 88.6079 55.4829 85.9482 54.455 83.4666C53.4271 80.985 51.9205 78.7301 50.0212 76.8308C48.1218 74.9315 45.867 73.4248 43.3854 72.3969C40.9038 71.369 38.2441 70.84 35.558 70.84C32.8719 70.84 30.2122 71.369 27.7306 72.3969C25.249 73.4248 22.9942 74.9315 21.0948 76.8308C19.1955 78.7301 17.6889 80.985 16.661 83.4666C15.6331 85.9482 15.104 88.6079 15.104 91.294Z" fill="#1D616F"/>
<path d="M219.778 49.096C219.778 50.073 220.166 51.0101 220.857 51.701C221.548 52.3919 222.485 52.78 223.462 52.78C224.439 52.78 225.376 52.3919 226.067 51.701C226.758 51.0101 227.146 50.073 227.146 49.096C227.146 48.1189 226.758 47.1819 226.067 46.491C225.376 45.8001 224.439 45.412 223.462 45.412C222.485 45.412 221.548 45.8001 220.857 46.491C220.166 47.1819 219.778 48.1189 219.778 49.096Z" fill="#1D616F"/>
<path d="M78.4558 68.438C78.4558 68.9218 78.5511 69.4009 78.7362 69.8478C78.9214 70.2948 79.1927 70.7009 79.5348 71.043C79.8769 71.3851 80.283 71.6565 80.73 71.8416C81.177 72.0267 81.656 72.122 82.1398 72.122C82.6236 72.122 83.1027 72.0267 83.5496 71.8416C83.9966 71.6565 84.4027 71.3851 84.7448 71.043C85.0869 70.7009 85.3582 70.2948 85.5434 69.8478C85.7285 69.4009 85.8238 68.9218 85.8238 68.438C85.8238 67.9542 85.7285 67.4752 85.5434 67.0282C85.3582 66.5813 85.0869 66.1751 84.7448 65.833C84.4027 65.491 83.9966 65.2196 83.5496 65.0345C83.1027 64.8493 82.6236 64.754 82.1398 64.754C81.656 64.754 81.177 64.8493 80.73 65.0345C80.283 65.2196 79.8769 65.491 79.5348 65.833C79.1927 66.1751 78.9214 66.5813 78.7362 67.0282C78.5511 67.4752 78.4558 67.9542 78.4558 68.438Z" fill="#1D616F"/>
<path d="M53.5999 209.952C55.0442 209.952 56.4559 210.381 57.6565 211.184C58.8572 211.987 59.7928 213.127 60.345 214.462C60.8973 215.797 61.0414 217.265 60.7591 218.681C60.4768 220.098 59.7808 221.399 58.7591 222.419C57.7374 223.44 56.4359 224.135 55.0193 224.416C53.6026 224.697 52.1344 224.552 50.8003 223.999C49.4662 223.446 48.3262 222.509 47.5244 221.308C46.7226 220.106 46.2951 218.694 46.2959 217.25C46.2956 216.291 46.4844 215.341 46.8515 214.456C47.2185 213.57 47.7566 212.765 48.435 212.087C49.1133 211.409 49.9187 210.872 50.8049 210.505C51.6912 210.139 52.6409 209.951 53.5999 209.952Z" fill="#FFC077"/>
<path d="M294.598 33.022C294.598 34.9592 295.367 36.817 296.737 38.1867C298.107 39.5565 299.965 40.326 301.902 40.326C303.839 40.326 305.697 39.5565 307.067 38.1867C308.436 36.817 309.206 34.9592 309.206 33.022C309.206 31.0849 308.436 29.2271 307.067 27.8573C305.697 26.4875 303.839 25.718 301.902 25.718C299.965 25.718 298.107 26.4875 296.737 27.8573C295.367 29.2271 294.598 31.0849 294.598 33.022Z" fill="#FFC077"/>
<path d="M162.526 1.68799C163.97 1.6868 165.383 2.11397 166.584 2.91547C167.786 3.71696 168.723 4.85681 169.277 6.19087C169.831 7.52493 169.977 8.9933 169.697 10.4103C169.416 11.8273 168.722 13.1293 167.701 14.1517C166.681 15.1741 165.38 15.871 163.964 16.1542C162.547 16.4374 161.079 16.2943 159.744 15.7429C158.408 15.1915 157.267 14.2565 156.463 13.0563C155.659 11.8561 155.229 10.4445 155.228 8.99999C155.226 8.04043 155.413 7.08992 155.779 6.20287C156.145 5.31582 156.683 4.50964 157.36 3.83047C158.038 3.15131 158.843 2.61249 159.73 2.24485C160.616 1.87722 161.566 1.68799 162.526 1.68799Z" fill="#FFC077"/>
<path d="M14.2478 33.022C14.2478 34.9592 15.0173 36.817 16.3871 38.1867C17.7569 39.5565 19.6147 40.326 21.5518 40.326C23.4889 40.326 25.3467 39.5565 26.7165 38.1867C28.0863 36.817 28.8558 34.9592 28.8558 33.022C28.8558 31.0849 28.0863 29.2271 26.7165 27.8573C25.3467 26.4875 23.4889 25.718 21.5518 25.718C19.6147 25.718 17.7569 26.4875 16.3871 27.8573C15.0173 29.2271 14.2478 31.0849 14.2478 33.022Z" fill="#FFC077"/>
<path d="M280.034 225.472L270.978 226.816C268.984 226.819 267.062 226.072 265.594 224.723C264.126 223.373 263.22 221.521 263.056 219.534V219.442C262.714 217.509 263.081 215.519 264.09 213.835C265.099 212.152 266.681 210.889 268.546 210.278L277.546 208.942C276.998 209.112 272.134 210.742 273.308 218.542C273.457 220.296 274.208 221.944 275.434 223.207C276.66 224.47 278.285 225.271 280.034 225.472Z" fill="#69D6F9"/>
<path d="M342.832 60.632V171.032C342.831 171.712 342.56 172.363 342.08 172.844C341.599 173.324 340.948 173.595 340.268 173.596H291.554C290.874 173.595 290.223 173.324 289.743 172.844C289.263 172.363 288.992 171.711 288.992 171.032V60.632C288.993 59.9527 289.263 59.3014 289.743 58.8208C290.224 58.3403 290.875 58.0696 291.554 58.068H340.268C340.947 58.0696 341.599 58.3402 342.079 58.8207C342.56 59.3012 342.83 59.9525 342.832 60.632ZM326.67 79.2C326.671 77.0718 326.04 74.9911 324.859 73.2212C323.677 71.4512 321.997 70.0715 320.031 69.2564C318.065 68.4413 315.901 68.2275 313.814 68.6421C311.727 69.0567 309.809 70.0809 308.304 71.5854C306.798 73.0899 305.773 75.0069 305.357 77.0941C304.942 79.1813 305.154 81.345 305.968 83.3114C306.782 85.2778 308.161 86.9586 309.93 88.1414C311.699 89.3241 313.78 89.9556 315.908 89.956C318.761 89.9565 321.498 88.8237 323.516 86.8066C325.535 84.7895 326.669 82.0534 326.67 79.2ZM326.67 129.666C326.671 127.538 326.04 125.457 324.859 123.687C323.677 121.917 321.997 120.537 320.031 119.722C318.065 118.907 315.901 118.694 313.814 119.108C311.727 119.523 309.809 120.547 308.304 122.051C306.798 123.556 305.773 125.473 305.357 127.56C304.942 129.647 305.154 131.811 305.968 133.777C306.782 135.744 308.161 137.425 309.93 138.607C311.699 139.79 313.78 140.422 315.908 140.422C318.762 140.422 321.5 139.288 323.518 137.27C325.536 135.252 326.67 132.514 326.67 129.66V129.666Z" fill="#69D6F9"/>
<path d="M94.516 244.868V355.258C94.5155 355.937 94.2455 356.589 93.7652 357.07C93.2849 357.55 92.6335 357.821 91.954 357.822H43.24C42.5603 357.821 41.9088 357.55 41.4282 357.07C40.9476 356.589 40.6771 355.938 40.676 355.258V244.868C40.676 244.188 40.9462 243.536 41.427 243.055C41.9078 242.574 42.56 242.304 43.24 242.304H91.954C92.2906 242.304 92.624 242.37 92.9349 242.499C93.2459 242.628 93.5284 242.817 93.7663 243.055C94.0043 243.293 94.1929 243.576 94.3216 243.887C94.4502 244.198 94.5163 244.531 94.516 244.868ZM84.826 346.232V300.252H47.966V346.232H84.826ZM84.826 292.872V276.224H47.966V292.872H84.826ZM84.826 268.842V252.2H47.966V268.846L84.826 268.842Z" fill="#69D6F9"/>
<path d="M203.456 36.6V147C203.456 147.681 203.187 148.334 202.706 148.816C202.225 149.299 201.573 149.57 200.892 149.572H152.178C151.497 149.57 150.845 149.298 150.365 148.816C149.885 148.334 149.615 147.681 149.616 147V36.6C149.616 35.9205 149.887 35.269 150.367 34.7883C150.847 34.3076 151.498 34.0371 152.178 34.036H200.892C201.572 34.0365 202.224 34.3068 202.704 34.7876C203.185 35.2683 203.455 35.9202 203.456 36.6Z" fill="#69D6F9"/>
<path d="M62.4819 60.632V171.032C62.4819 171.37 62.4154 171.704 62.2861 172.016C62.1568 172.327 61.9673 172.611 61.7284 172.849C61.4895 173.088 61.2059 173.277 60.8939 173.406C60.5819 173.534 60.2475 173.601 59.91 173.6H11.1999C10.8633 173.6 10.53 173.534 10.219 173.405C9.90808 173.276 9.62556 173.087 9.38763 172.849C9.1497 172.611 8.96103 172.328 8.83239 172.017C8.70376 171.706 8.63768 171.373 8.63795 171.036V60.636C8.63716 60.299 8.70284 59.9652 8.83124 59.6537C8.95964 59.3422 9.14823 59.059 9.38621 58.8205C9.6242 58.582 9.9069 58.3927 10.2181 58.2636C10.5294 58.1345 10.863 58.068 11.1999 58.068H59.91C60.5909 58.0675 61.2442 58.3372 61.7264 58.8179C62.2086 59.2986 62.4804 59.9511 62.4819 60.632ZM56.0119 91.294C56.0123 87.2485 54.8131 83.2937 52.5658 79.9298C50.3185 76.5659 47.1242 73.944 43.3867 72.3955C39.6493 70.8471 35.5366 70.4418 31.5688 71.2308C27.601 72.0198 23.9562 73.9677 21.0955 76.8281C18.2347 79.6886 16.2865 83.3331 15.4971 87.3009C14.7077 91.2686 15.1127 95.3813 16.6607 99.1189C18.2088 102.857 20.8304 106.051 24.1941 108.299C27.5578 110.546 31.5124 111.746 35.5579 111.746C40.9823 111.746 46.1846 109.591 50.0204 105.756C53.8562 101.92 56.0114 96.7184 56.0119 91.294Z" fill="#69D6F9"/>
<path d="M271.518 63.0339C272.248 63.0328 272.962 63.2482 273.569 63.653C274.177 64.0578 274.65 64.6337 274.93 65.3078C275.21 65.982 275.283 66.724 275.141 67.44C274.999 68.1559 274.648 68.8136 274.132 69.3297C273.616 69.8459 272.958 70.1973 272.242 70.3394C271.526 70.4815 270.784 70.4079 270.11 70.1281C269.436 69.8482 268.86 69.3745 268.455 68.7671C268.05 68.1597 267.835 67.4459 267.836 66.7159C267.836 65.7396 268.225 64.8034 268.915 64.113C269.605 63.4226 270.542 63.0345 271.518 63.0339Z" fill="#1D616F"/>
<path d="M267.834 98.7599C267.834 99.737 268.222 100.674 268.913 101.365C269.604 102.056 270.541 102.444 271.518 102.444C272.495 102.444 273.432 102.056 274.123 101.365C274.814 100.674 275.202 99.737 275.202 98.7599C275.202 97.7829 274.814 96.8458 274.123 96.155C273.432 95.4641 272.495 95.0759 271.518 95.0759C270.541 95.0759 269.604 95.4641 268.913 96.155C268.222 96.8458 267.834 97.7829 267.834 98.7599Z" fill="#1D616F"/>
<path d="M267.834 114.782C267.834 115.759 268.222 116.696 268.913 117.387C269.604 118.078 270.541 118.466 271.518 118.466C272.495 118.466 273.432 118.078 274.123 117.387C274.814 116.696 275.202 115.759 275.202 114.782C275.202 113.805 274.814 112.868 274.123 112.177C273.432 111.486 272.495 111.098 271.518 111.098C270.541 111.098 269.604 111.486 268.913 112.177C268.222 112.868 267.834 113.805 267.834 114.782Z" fill="#1D616F"/>
<path d="M271.518 127.112C272.248 127.111 272.961 127.326 273.568 127.73C274.176 128.135 274.649 128.71 274.929 129.384C275.209 130.058 275.283 130.799 275.142 131.515C275 132.231 274.65 132.888 274.135 133.405C273.619 133.921 272.962 134.273 272.247 134.416C271.531 134.559 270.79 134.487 270.115 134.208C269.441 133.93 268.865 133.457 268.459 132.851C268.053 132.245 267.836 131.532 267.836 130.802C267.835 130.318 267.93 129.838 268.114 129.391C268.299 128.943 268.57 128.536 268.912 128.194C269.254 127.851 269.66 127.579 270.107 127.394C270.554 127.208 271.034 127.112 271.518 127.112Z" fill="#1D616F"/>
<path d="M114.176 282.756C114.905 282.755 115.619 282.971 116.226 283.375C116.832 283.78 117.306 284.355 117.586 285.029C117.866 285.703 117.939 286.444 117.798 287.16C117.656 287.875 117.306 288.533 116.791 289.049C116.275 289.565 115.619 289.917 114.903 290.06C114.188 290.203 113.447 290.131 112.772 289.853C112.098 289.574 111.522 289.102 111.116 288.496C110.71 287.89 110.493 287.177 110.492 286.448C110.491 285.47 110.879 284.532 111.57 283.84C112.261 283.147 113.198 282.758 114.176 282.756Z" fill="#1D616F"/>
<path d="M114.176 314.8C114.905 314.8 115.617 315.016 116.223 315.421C116.829 315.826 117.301 316.401 117.58 317.075C117.858 317.748 117.931 318.489 117.789 319.204C117.647 319.918 117.296 320.575 116.78 321.09C116.265 321.605 115.608 321.956 114.893 322.098C114.179 322.239 113.438 322.166 112.765 321.887C112.092 321.608 111.516 321.135 111.112 320.529C110.707 319.923 110.492 319.211 110.492 318.482C110.494 317.506 110.882 316.57 111.573 315.88C112.263 315.189 113.2 314.801 114.176 314.8Z" fill="#1D616F"/>
<path d="M197.472 217.156C200.409 217.463 203.378 217.251 206.242 216.532C212.612 214.84 216.218 208.046 216.218 208.046C218.45 211.161 221.059 213.988 223.986 216.462L195.556 220.4C196.265 219.407 196.903 218.364 197.464 217.28L197.472 217.156Z" fill="#1D616F"/>
<path d="M185.758 194.772C193.032 184.604 211.632 168.838 224.072 167.572C227.43 167.226 243.472 174.252 255.998 179.858C255.998 179.858 285.198 178.814 289.216 183.348C305.878 202.102 320.478 253.402 323.328 259.1C326.178 264.798 367.246 287.73 380.858 294.772V377.744L300.634 329.208C295.544 329.831 290.398 329.831 285.308 329.208C242.216 320.84 184.47 277.23 173.288 272.048C165.074 268.248 163.12 260.298 162.088 254.962C161.867 253.455 161.526 251.967 161.068 250.514C160.363 249.086 159.427 247.784 158.296 246.662C156.944 245.178 155.324 243.642 153.88 242.214C152.74 241.127 151.684 239.955 150.722 238.708C149.591 237.133 148.95 235.259 148.879 233.321C148.808 231.384 149.31 229.468 150.322 227.814C151.084 226.433 152.041 225.169 153.164 224.062C157.14 220.078 166.684 223.482 167.07 223.614C167.443 220.708 168.544 217.943 170.27 215.576C176.316 206.194 177.682 201.084 179.768 198.318C180.443 197.387 181.362 196.66 182.424 196.218C183.2 195.884 184.36 195.382 185.758 194.772ZM197.472 217.156V217.288C196.911 218.372 196.273 219.415 195.564 220.408C192.82 224.511 188.898 227.687 184.314 229.518C183.736 229.718 183.126 229.896 182.514 230.052C184.969 232.591 187.084 235.438 188.806 238.522C189.254 239.328 189.646 240.164 189.98 241.024C189.98 241.024 212.126 254.712 215.692 256.69C215.692 256.69 238.438 244.622 245.372 241.254C245.372 241.254 237.944 233.642 236.338 231.626L270.992 226.816L280.048 225.472L284.094 224.872C286.28 224.541 288.246 223.358 289.562 221.582C290.877 219.805 291.435 217.579 291.114 215.392C290.792 213.205 289.617 211.234 287.845 209.911C286.074 208.588 283.851 208.021 281.662 208.334L277.608 208.934C277.593 208.932 277.577 208.932 277.562 208.934L268.562 210.27L224.01 216.454C221.083 213.98 218.474 211.153 216.242 208.038C216.242 208.038 212.642 214.838 206.266 216.524C203.394 217.249 200.418 217.463 197.472 217.156Z" fill="#FFC077"/>
<path d="M380.858 294.778C367.246 287.736 326.176 264.796 323.328 259.106C320.48 253.416 305.878 202.106 289.216 183.354C285.2 178.82 256 179.864 256 179.864" stroke="#1D616F" stroke-width="1.544" stroke-linecap="round" stroke-linejoin="round"/>
<path d="M167.066 223.628C166.68 223.496 157.136 220.092 153.16 224.076C152.037 225.183 151.079 226.447 150.318 227.828C149.305 229.482 148.803 231.398 148.875 233.335C148.946 235.273 149.587 237.147 150.718 238.722C151.68 239.969 152.735 241.141 153.876 242.228C155.32 243.656 156.94 245.192 158.292 246.676C159.423 247.798 160.359 249.1 161.064 250.528C161.521 251.981 161.862 253.469 162.084 254.976C163.118 260.31 165.072 268.256 173.284 272.062C184.466 277.244 242.212 320.862 285.304 329.222C290.393 329.845 295.54 329.845 300.63 329.222L380.854 377.758" stroke="#1D616F" stroke-width="1.544" stroke-linecap="round" stroke-linejoin="round"/>
<path d="M182.484 230.044H182.5C184.955 232.583 187.07 235.43 188.792 238.514C189.24 239.32 189.632 240.156 189.966 241.016C189.966 241.016 212.112 254.704 215.678 256.682C215.678 256.682 238.424 244.614 245.358 241.246C245.358 241.246 237.93 233.634 236.324 231.618L236.302 231.602" stroke="#1D616F" stroke-width="1.544" stroke-linecap="round" stroke-linejoin="round"/>
<path d="M158.294 246.668C158.294 246.668 160.642 238.204 162.594 235.988C164.546 233.772 159.544 228.638 156.348 226.346" stroke="#1D616F" stroke-width="1.544" stroke-linecap="round" stroke-linejoin="round"/>
<path d="M165.83 248.2C164.63 250.046 161.63 252.818 162.086 254.964" stroke="#1D616F" stroke-width="1.544" stroke-linecap="round" stroke-linejoin="round"/>
<path d="M224.072 216.532L223.986 216.462C221.059 213.988 218.45 211.161 216.218 208.046C216.218 208.046 212.618 214.846 206.242 216.532C203.378 217.251 200.409 217.463 197.472 217.156C196.209 217.046 194.956 216.837 193.726 216.532" stroke="#1D616F" stroke-width="1.544" stroke-linecap="round" stroke-linejoin="round"/>
<path d="M197.464 217.288C196.903 218.372 196.265 219.415 195.556 220.408C192.812 224.511 188.89 227.687 184.306 229.518C183.728 229.718 183.118 229.896 182.506 230.052C182.166 230.128 181.826 230.198 181.472 230.252C173.58 231.618 166.708 229.828 167.072 223.612C167.445 220.706 168.546 217.941 170.272 215.574C176.318 206.192 177.684 201.08 179.77 198.316C180.445 197.385 181.364 196.658 182.426 196.216C183.226 195.876 184.378 195.374 185.776 194.764C191.93 192.032 202.91 186.99 210.222 183.164C219.186 178.476 222.036 179.496 227.34 181.736C232.644 183.976 259.74 199.262 259.74 199.262" stroke="#1D616F" stroke-width="1.544" stroke-linecap="round" stroke-linejoin="round"/>
<path d="M269.982 186.048C267.426 185.014 262.136 182.604 255.998 179.864C243.474 174.264 227.43 167.232 224.072 167.578C211.632 168.838 193.032 184.604 185.758 194.778" stroke="#1D616F" stroke-width="1.544" stroke-linecap="round" stroke-linejoin="round"/>
<path d="M195.556 220.408L223.986 216.462L268.538 210.278" stroke="#1D616F" stroke-width="1.544" stroke-linecap="round" stroke-linejoin="round"/>
<path d="M270.978 226.816L236.324 231.626L189.518 238.128" stroke="#1D616F" stroke-width="1.544" stroke-linecap="round" stroke-linejoin="round"/>
<path d="M143.308 232.066L134.304 237.526L141.486 239.378L143.098 239.796L153.592 242.506" stroke="#1D616F" stroke-width="1.544" stroke-linecap="round" stroke-linejoin="round"/>
<path d="M150.302 227.82L143.308 232.066" stroke="#1D616F" stroke-width="1.544" stroke-linecap="round" stroke-linejoin="round"/>
<path d="M280.034 225.472L270.978 226.816C268.984 226.819 267.062 226.072 265.594 224.723C264.126 223.373 263.22 221.521 263.056 219.534V219.442C262.714 217.509 263.081 215.519 264.09 213.835C265.099 212.152 266.681 210.889 268.546 210.278L277.546 208.942" stroke="#1D616F" stroke-width="1.544" stroke-linecap="round" stroke-linejoin="round"/>
<path d="M280.034 225.472L284.08 224.872C286.266 224.541 288.232 223.358 289.547 221.582C290.863 219.805 291.421 217.579 291.099 215.392C290.778 213.205 289.603 211.234 287.831 209.911C286.06 208.588 283.836 208.021 281.648 208.334L277.594 208.934C277.579 208.932 277.563 208.932 277.548 208.934C277 209.104 272.136 210.734 273.31 218.534C273.457 220.289 274.207 221.939 275.433 223.204C276.659 224.468 278.284 225.27 280.034 225.472Z" stroke="#1D616F" stroke-width="1.544" stroke-linecap="round" stroke-linejoin="round"/>
<path d="M134.304 237.526L129.742 237.966" stroke="#1D616F" stroke-width="1.544" stroke-linecap="round" stroke-linejoin="round"/>
<path d="M59.9479 179.6H11.1659C8.43222 179.599 5.81065 178.513 3.87764 176.58C1.94463 174.647 0.85844 172.026 0.85791 169.292V60.678C0.85897 57.9445 1.94533 55.3232 3.87822 53.3903C5.81112 51.4574 8.43238 50.3711 11.1659 50.37H59.9479C62.6816 50.3705 65.3032 51.4567 67.2362 53.3897C69.1692 55.3227 70.2554 57.9443 70.2559 60.678V169.292C70.2554 172.026 69.1692 174.647 67.2362 176.58C65.3032 178.513 62.6816 179.599 59.9479 179.6Z" stroke="#1D616F" stroke-width="1.544" stroke-linecap="round" stroke-linejoin="round"/>
<path d="M59.91 173.6H11.1999C10.8633 173.6 10.53 173.534 10.219 173.405C9.90808 173.276 9.62556 173.087 9.38763 172.849C9.1497 172.611 8.96103 172.328 8.83239 172.017C8.70376 171.706 8.63768 171.373 8.63795 171.036V60.636C8.63716 60.299 8.70284 59.9652 8.83124 59.6537C8.95964 59.3422 9.14823 59.059 9.38621 58.8205C9.6242 58.582 9.9069 58.3927 10.2181 58.2636C10.5294 58.1345 10.863 58.068 11.1999 58.068H59.91C60.5909 58.0675 61.2442 58.3372 61.7264 58.8179C62.2086 59.2986 62.4804 59.9511 62.4819 60.632V171.032C62.4819 171.37 62.4154 171.704 62.2861 172.016C62.1568 172.327 61.9673 172.611 61.7284 172.849C61.4895 173.088 61.2059 173.277 60.8939 173.406C60.5819 173.534 60.2475 173.601 59.91 173.6Z" stroke="#1D616F" stroke-width="1.544" stroke-linecap="round" stroke-linejoin="round"/>
<path d="M21.4978 54.146H47.2158" stroke="#1D616F" stroke-width="1.544" stroke-linecap="round" stroke-linejoin="round"/>
<path d="M51.764 33.808H34.354" stroke="#1D616F" stroke-width="1.544" stroke-linecap="round" stroke-linejoin="round"/>
<path d="M14.2478 33.022C14.2478 34.9592 15.0173 36.817 16.3871 38.1867C17.7569 39.5565 19.6147 40.326 21.5518 40.326C23.4889 40.326 25.3467 39.5565 26.7165 38.1867C28.0863 36.817 28.8558 34.9592 28.8558 33.022C28.8558 31.0849 28.0863 29.2271 26.7165 27.8573C25.3467 26.4875 23.4889 25.718 21.5518 25.718C19.6147 25.718 17.7569 26.4875 16.3871 27.8573C15.0173 29.2271 14.2478 31.0849 14.2478 33.022Z" stroke="#1D616F" stroke-width="1.544" stroke-linecap="round" stroke-linejoin="round"/>
<path d="M91.9999 363.83H43.2099C41.8561 363.83 40.5156 363.564 39.2648 363.046C38.0141 362.528 36.8777 361.769 35.9204 360.811C34.9632 359.854 34.2039 358.718 33.686 357.467C33.168 356.216 32.9016 354.876 32.9019 353.522V244.906C32.9016 243.552 33.1681 242.212 33.686 240.961C34.204 239.711 34.9633 238.574 35.9205 237.617C36.8778 236.66 38.0143 235.901 39.265 235.383C40.5157 234.866 41.8562 234.599 43.2099 234.6H91.9999C94.7332 234.601 97.3545 235.686 99.2874 237.619C101.22 239.552 102.307 242.173 102.308 244.906V353.522C102.307 356.255 101.22 358.877 99.2875 360.81C97.3546 362.743 94.7334 363.829 91.9999 363.83Z" stroke="#1D616F" stroke-width="1.544" stroke-linecap="round" stroke-linejoin="round"/>
<path d="M91.954 357.822H43.24C42.5603 357.821 41.9088 357.55 41.4282 357.07C40.9476 356.589 40.6771 355.938 40.676 355.258V244.868C40.676 244.188 40.9462 243.536 41.427 243.055C41.9078 242.574 42.56 242.304 43.24 242.304H91.954C92.2906 242.304 92.624 242.37 92.9349 242.499C93.2459 242.628 93.5284 242.817 93.7663 243.055C94.0043 243.293 94.1929 243.576 94.3216 243.887C94.4502 244.198 94.5163 244.531 94.516 244.868V355.258C94.5155 355.937 94.2455 356.589 93.7652 357.07C93.2849 357.55 92.6335 357.821 91.954 357.822Z" stroke="#1D616F" stroke-width="1.544" stroke-linecap="round" stroke-linejoin="round"/>
<path d="M53.532 238.374H79.252" stroke="#1D616F" stroke-width="1.544" stroke-linecap="round" stroke-linejoin="round"/>
<path d="M83.808 218.044H66.396" stroke="#1D616F" stroke-width="1.544" stroke-linecap="round" stroke-linejoin="round"/>
<path d="M60.8898 217.25C60.8902 218.694 60.4623 220.106 59.6602 221.307C58.8581 222.507 57.7179 223.443 56.3838 223.996C55.0497 224.549 53.5817 224.693 52.1654 224.412C50.7491 224.13 49.4482 223.434 48.4272 222.413C47.4062 221.392 46.7111 220.091 46.4297 218.674C46.1483 217.258 46.2934 215.79 46.8464 214.456C47.3995 213.122 48.3358 211.982 49.5368 211.18C50.7379 210.379 52.1497 209.951 53.5938 209.952C55.529 209.953 57.3848 210.722 58.753 212.09C60.1212 213.459 60.8898 215.315 60.8898 217.25Z" stroke="#1D616F" stroke-width="1.544" stroke-linecap="round" stroke-linejoin="round"/>
<path d="M200.922 155.564H152.14C150.786 155.564 149.446 155.298 148.196 154.78C146.946 154.262 145.81 153.502 144.853 152.545C143.897 151.588 143.138 150.451 142.621 149.2C142.104 147.95 141.839 146.609 141.84 145.256V36.656C141.839 35.3027 142.104 33.9625 142.622 32.7119C143.139 31.4614 143.897 30.3249 144.854 29.3677C145.81 28.4104 146.946 27.651 148.196 27.1328C149.447 26.6147 150.787 26.348 152.14 26.348H200.922C202.276 26.347 203.617 26.6129 204.868 27.1305C206.119 27.6482 207.256 28.4074 208.213 29.3648C209.17 30.3222 209.93 31.459 210.447 32.7101C210.965 33.9612 211.231 35.3021 211.23 36.656V145.256C211.231 146.61 210.965 147.951 210.448 149.202C209.93 150.453 209.171 151.59 208.214 152.548C207.256 153.505 206.119 154.264 204.868 154.782C203.617 155.3 202.276 155.565 200.922 155.564Z" stroke="#1D616F" stroke-width="1.544" stroke-linecap="round" stroke-linejoin="round"/>
<path d="M200.892 149.566H152.178C151.498 149.564 150.847 149.293 150.367 148.812C149.887 148.331 149.617 147.68 149.616 147V36.6C149.616 35.9205 149.887 35.269 150.367 34.7883C150.847 34.3076 151.498 34.0371 152.178 34.036H200.892C201.572 34.0365 202.224 34.3068 202.704 34.7876C203.185 35.2683 203.455 35.9202 203.456 36.6V147C203.455 147.68 203.185 148.332 202.704 148.813C202.223 149.294 201.572 149.564 200.892 149.566Z" stroke="#1D616F" stroke-width="1.544" stroke-linecap="round" stroke-linejoin="round"/>
<path d="M162.472 30.118H188.19" stroke="#1D616F" stroke-width="1.544" stroke-linecap="round" stroke-linejoin="round"/>
<path d="M192.746 9.78003H175.334" stroke="#1D616F" stroke-width="1.544" stroke-linecap="round" stroke-linejoin="round"/>
<path d="M169.83 9.00005C169.829 10.4441 169.401 11.8556 168.598 13.0561C167.796 14.2566 166.655 15.1922 165.321 15.7446C163.987 16.297 162.519 16.4415 161.103 16.1596C159.687 15.8778 158.386 15.1824 157.365 14.1613C156.343 13.1403 155.648 11.8393 155.366 10.4231C155.084 9.00682 155.229 7.5388 155.781 6.20461C156.334 4.87043 157.269 3.72999 158.47 2.92749C159.67 2.12498 161.082 1.69644 162.526 1.69605C163.485 1.69578 164.435 1.88453 165.321 2.25149C166.208 2.61846 167.013 3.15646 167.691 3.83475C168.369 4.51304 168.907 5.31833 169.274 6.20461C169.641 7.09089 169.83 8.0408 169.83 9.00005Z" stroke="#1D616F" stroke-width="1.544" stroke-linecap="round" stroke-linejoin="round"/>
<path d="M340.298 179.6H291.516C288.782 179.599 286.161 178.513 284.228 176.58C282.295 174.647 281.209 172.026 281.208 169.292V60.678C281.209 57.9445 282.295 55.3232 284.228 53.3903C286.161 51.4574 288.782 50.3711 291.516 50.37H340.298C341.652 50.3697 342.992 50.6362 344.243 51.1541C345.494 51.672 346.63 52.4313 347.587 53.3886C348.545 54.3458 349.304 55.4822 349.822 56.733C350.34 57.9837 350.606 59.3243 350.606 60.678V169.292C350.607 170.646 350.34 171.986 349.822 173.237C349.305 174.488 348.545 175.625 347.588 176.582C346.631 177.539 345.494 178.299 344.243 178.816C342.992 179.334 341.652 179.601 340.298 179.6Z" stroke="#1D616F" stroke-width="1.544" stroke-linecap="round" stroke-linejoin="round"/>
<path d="M340.268 173.6H291.554C290.874 173.599 290.223 173.328 289.743 172.848C289.263 172.367 288.992 171.716 288.992 171.036V60.636C288.993 59.9567 289.263 59.3054 289.743 58.8249C290.224 58.3443 290.875 58.0736 291.554 58.072H340.268C340.947 58.0736 341.599 58.3443 342.079 58.8248C342.56 59.3053 342.83 59.9565 342.832 60.636V171.036C342.831 171.716 342.56 172.367 342.08 172.848C341.599 173.328 340.948 173.599 340.268 173.6Z" stroke="#1D616F" stroke-width="1.544" stroke-linecap="round" stroke-linejoin="round"/>
<path d="M301.848 54.146H327.566" stroke="#1D616F" stroke-width="1.544" stroke-linecap="round" stroke-linejoin="round"/>
<path d="M332.114 33.808H314.702" stroke="#1D616F" stroke-width="1.544" stroke-linecap="round" stroke-linejoin="round"/>
<path d="M294.598 33.022C294.598 34.9592 295.367 36.817 296.737 38.1867C298.107 39.5565 299.965 40.326 301.902 40.326C303.839 40.326 305.697 39.5565 307.067 38.1867C308.436 36.817 309.206 34.9592 309.206 33.022C309.206 31.0849 308.436 29.2271 307.067 27.8573C305.697 26.4875 303.839 25.718 301.902 25.718C299.965 25.718 298.107 26.4875 296.737 27.8573C295.367 29.2271 294.598 31.0849 294.598 33.022Z" stroke="#1D616F" stroke-width="1.544" stroke-linecap="round" stroke-linejoin="round"/>
<path d="M117.866 286.448C117.865 287.177 117.648 287.89 117.243 288.496C116.837 289.102 116.261 289.574 115.587 289.852C114.913 290.131 114.172 290.203 113.457 290.061C112.742 289.918 112.085 289.567 111.569 289.051C111.054 288.535 110.703 287.878 110.561 287.163C110.419 286.448 110.492 285.707 110.771 285.033C111.049 284.359 111.522 283.784 112.128 283.378C112.734 282.973 113.447 282.756 114.176 282.756C114.661 282.756 115.141 282.851 115.589 283.036C116.037 283.222 116.444 283.494 116.787 283.837C117.129 284.18 117.401 284.587 117.586 285.035C117.771 285.483 117.867 285.963 117.866 286.448Z" stroke="#1D616F" stroke-width="1.544" stroke-linecap="round" stroke-linejoin="round"/>
<path d="M117.866 318.482C117.867 319.212 117.652 319.925 117.248 320.532C116.843 321.14 116.268 321.613 115.594 321.893C114.92 322.174 114.179 322.248 113.463 322.106C112.747 321.965 112.089 321.614 111.573 321.099C111.057 320.583 110.705 319.926 110.562 319.211C110.419 318.496 110.491 317.754 110.77 317.08C111.048 316.405 111.521 315.829 112.127 315.423C112.733 315.017 113.446 314.8 114.176 314.8C114.66 314.799 115.14 314.894 115.587 315.079C116.035 315.263 116.441 315.534 116.784 315.876C117.127 316.218 117.399 316.624 117.584 317.071C117.77 317.519 117.866 317.998 117.866 318.482Z" stroke="#1D616F" stroke-width="1.544" stroke-linecap="round" stroke-linejoin="round"/>
<path d="M118.252 318.482H217.092V300.06" stroke="#1D616F" stroke-width="1.544" stroke-linecap="round" stroke-linejoin="round"/>
<path d="M78.4558 68.438C78.4558 68.9218 78.5511 69.4009 78.7362 69.8478C78.9214 70.2948 79.1927 70.7009 79.5348 71.043C79.8769 71.3851 80.283 71.6565 80.73 71.8416C81.177 72.0267 81.656 72.122 82.1398 72.122C82.6236 72.122 83.1027 72.0267 83.5496 71.8416C83.9966 71.6565 84.4027 71.3851 84.7448 71.043C85.0869 70.7009 85.3582 70.2948 85.5434 69.8478C85.7285 69.4009 85.8238 68.9218 85.8238 68.438C85.8238 67.9542 85.7285 67.4752 85.5434 67.0282C85.3582 66.5813 85.0869 66.1751 84.7448 65.833C84.4027 65.491 83.9966 65.2196 83.5496 65.0345C83.1027 64.8493 82.6236 64.754 82.1398 64.754C81.656 64.754 81.177 64.8493 80.73 65.0345C80.283 65.2196 79.8769 65.491 79.5348 65.833C79.1927 66.1751 78.9214 66.5813 78.7362 67.0282C78.5511 67.4752 78.4558 67.9542 78.4558 68.438Z" stroke="#1D616F" stroke-width="1.544" stroke-linecap="round" stroke-linejoin="round"/>
<path d="M85.822 68.438H114.176V185.8H193.41" stroke="#1D616F" stroke-width="1.544" stroke-linecap="round" stroke-linejoin="round"/>
<path d="M123.988 237.966H117.866V198.324H179.752H179.76" stroke="#1D616F" stroke-width="1.544" stroke-linecap="round" stroke-linejoin="round"/>
<path d="M275.2 66.7159C275.2 67.4447 274.985 68.1571 274.58 68.7632C274.176 69.3693 273.6 69.8418 272.927 70.1209C272.254 70.4001 271.513 70.4733 270.799 70.3314C270.084 70.1895 269.427 69.8388 268.912 69.3236C268.396 68.8085 268.045 68.1521 267.903 67.4374C267.761 66.7227 267.834 65.9819 268.112 65.3086C268.391 64.6353 268.863 64.0598 269.469 63.6549C270.075 63.2501 270.787 63.0339 271.516 63.0339C272.493 63.0345 273.429 63.4225 274.12 64.1128C274.81 64.8032 275.199 65.7394 275.2 66.7159Z" stroke="#1D616F" stroke-width="1.544" stroke-linecap="round" stroke-linejoin="round"/>
<path d="M219.778 49.096C219.778 50.073 220.166 51.0101 220.857 51.701C221.548 52.3919 222.485 52.78 223.462 52.78C224.439 52.78 225.376 52.3919 226.067 51.701C226.758 51.0101 227.146 50.073 227.146 49.096C227.146 48.1189 226.758 47.1819 226.067 46.491C225.376 45.8001 224.439 45.412 223.462 45.412C222.485 45.412 221.548 45.8001 220.857 46.491C220.166 47.1819 219.778 48.1189 219.778 49.096Z" stroke="#1D616F" stroke-width="1.544" stroke-linecap="round" stroke-linejoin="round"/>
<path d="M267.834 98.7599C267.834 99.737 268.222 100.674 268.913 101.365C269.604 102.056 270.541 102.444 271.518 102.444C272.495 102.444 273.432 102.056 274.123 101.365C274.814 100.674 275.202 99.737 275.202 98.7599C275.202 97.7829 274.814 96.8458 274.123 96.155C273.432 95.4641 272.495 95.0759 271.518 95.0759C270.541 95.0759 269.604 95.4641 268.913 96.155C268.222 96.8458 267.834 97.7829 267.834 98.7599Z" stroke="#1D616F" stroke-width="1.544" stroke-linecap="round" stroke-linejoin="round"/>
<path d="M267.834 114.782C267.834 115.759 268.222 116.696 268.913 117.387C269.604 118.078 270.541 118.466 271.518 118.466C272.495 118.466 273.432 118.078 274.123 117.387C274.814 116.696 275.202 115.759 275.202 114.782C275.202 113.805 274.814 112.868 274.123 112.177C273.432 111.486 272.495 111.098 271.518 111.098C270.541 111.098 269.604 111.486 268.913 112.177C268.222 112.868 267.834 113.805 267.834 114.782Z" stroke="#1D616F" stroke-width="1.544" stroke-linecap="round" stroke-linejoin="round"/>
<path d="M275.2 130.8C275.199 131.528 274.982 132.24 274.576 132.845C274.171 133.45 273.595 133.921 272.922 134.199C272.248 134.477 271.508 134.549 270.794 134.406C270.079 134.264 269.424 133.912 268.909 133.397C268.394 132.881 268.044 132.225 267.902 131.51C267.761 130.796 267.834 130.056 268.113 129.383C268.392 128.71 268.864 128.135 269.47 127.73C270.076 127.326 270.788 127.11 271.516 127.11C272 127.11 272.48 127.205 272.927 127.391C273.375 127.577 273.781 127.848 274.123 128.191C274.465 128.534 274.737 128.941 274.921 129.388C275.106 129.836 275.201 130.316 275.2 130.8Z" stroke="#1D616F" stroke-width="1.544" stroke-linecap="round" stroke-linejoin="round"/>
<path d="M223.462 52.78V98.76H240.834H267.836" stroke="#1D616F" stroke-width="1.544" stroke-linecap="round" stroke-linejoin="round"/>
<path d="M267.836 114.782H255.528V179.06" stroke="#1D616F" stroke-width="1.544" stroke-linecap="round" stroke-linejoin="round"/>
<path d="M267.836 130.802H263.002V179.06" stroke="#1D616F" stroke-width="1.544" stroke-linecap="round" stroke-linejoin="round"/>
<path d="M267.836 66.7159H240.834V98.7599V172.79" stroke="#1D616F" stroke-width="1.544" stroke-linecap="round" stroke-linejoin="round"/>
<path d="M15.104 91.294C15.104 93.98 15.6331 96.6398 16.661 99.1214C17.6889 101.603 19.1955 103.858 21.0948 105.757C22.9942 107.656 25.249 109.163 27.7306 110.191C30.2122 111.219 32.8719 111.748 35.558 111.748C38.2441 111.748 40.9038 111.219 43.3854 110.191C45.867 109.163 48.1218 107.656 50.0212 105.757C51.9205 103.858 53.4271 101.603 54.455 99.1214C55.4829 96.6398 56.012 93.98 56.012 91.294C56.012 88.6079 55.4829 85.9482 54.455 83.4666C53.4271 80.985 51.9205 78.7301 50.0212 76.8308C48.1218 74.9315 45.867 73.4248 43.3854 72.3969C40.9038 71.369 38.2441 70.84 35.558 70.84C32.8719 70.84 30.2122 71.369 27.7306 72.3969C25.249 73.4248 22.9942 74.9315 21.0948 76.8308C19.1955 78.7301 17.6889 80.985 16.661 83.4666C15.6331 85.9482 15.104 88.6079 15.104 91.294Z" stroke="#1D616F" stroke-width="1.544" stroke-linecap="round" stroke-linejoin="round"/>
<path d="M15.6438 123.76H53.0698" stroke="#1D616F" stroke-width="1.544" stroke-linecap="round" stroke-linejoin="round"/>
<path d="M15.6438 135.776H53.0698" stroke="#1D616F" stroke-width="1.544" stroke-linecap="round" stroke-linejoin="round"/>
<path d="M15.6438 147.79H53.0698" stroke="#1D616F" stroke-width="1.544" stroke-linecap="round" stroke-linejoin="round"/>
<path d="M47.9658 252.196H84.8278V268.842H47.9658V252.196Z" stroke="#1D616F" stroke-width="1.544" stroke-linecap="round" stroke-linejoin="round"/>
<path d="M47.9658 276.224H84.8278V292.87H47.9658V276.224Z" stroke="#1D616F" stroke-width="1.544" stroke-linecap="round" stroke-linejoin="round"/>
<path d="M47.9658 300.252H84.8278V346.232H47.9658V300.252Z" stroke="#1D616F" stroke-width="1.544" stroke-linecap="round" stroke-linejoin="round"/>
<path d="M326.67 79.2C326.671 81.3282 326.04 83.4088 324.859 85.1788C323.677 86.9487 321.997 88.3285 320.031 89.1436C318.065 89.9586 315.901 90.1724 313.814 89.7579C311.726 89.3433 309.809 88.319 308.304 86.8146C306.798 85.3101 305.773 83.3931 305.357 81.3058C304.941 79.2186 305.154 77.055 305.968 75.0886C306.782 73.1222 308.161 71.4413 309.93 70.2586C311.699 69.0759 313.78 68.4444 315.908 68.444C318.761 68.4434 321.498 69.5763 323.516 71.5934C325.534 73.6105 326.669 76.3466 326.67 79.2Z" stroke="#1D616F" stroke-width="1.544" stroke-linecap="round" stroke-linejoin="round"/>
<path d="M300.75 100.844H331.072" stroke="#1D616F" stroke-width="1.544" stroke-linecap="round" stroke-linejoin="round"/>
<path d="M300.75 108.852H331.072" stroke="#1D616F" stroke-width="1.544" stroke-linecap="round" stroke-linejoin="round"/>
<path d="M326.67 129.66C326.669 131.788 326.037 133.868 324.855 135.637C323.672 137.406 321.991 138.784 320.025 139.598C318.059 140.412 315.896 140.624 313.809 140.209C311.722 139.793 309.805 138.769 308.301 137.264C306.796 135.759 305.772 133.842 305.357 131.755C304.942 129.668 305.155 127.505 305.969 125.539C306.783 123.573 308.162 121.892 309.931 120.71C311.7 119.528 313.78 118.896 315.908 118.896C317.321 118.896 318.721 119.174 320.027 119.715C321.333 120.256 322.52 121.049 323.519 122.048C324.519 123.048 325.311 124.235 325.852 125.541C326.392 126.847 326.67 128.246 326.67 129.66Z" stroke="#1D616F" stroke-width="1.544" stroke-linecap="round" stroke-linejoin="round"/>
<path d="M300.75 151.302H331.072" stroke="#1D616F" stroke-width="1.544" stroke-linecap="round" stroke-linejoin="round"/>
<path d="M300.75 159.318H331.072" stroke="#1D616F" stroke-width="1.544" stroke-linecap="round" stroke-linejoin="round"/>
<path d="M117.866 286.448H195.556" stroke="#1D616F" stroke-width="1.544" stroke-linecap="round" stroke-linejoin="round"/>
</svg>
