<svg width="478" height="270" viewBox="0 0 478 270" fill="none" xmlns="http://www.w3.org/2000/svg">
<path d="M375.75 52.4424H131.863V42.8074C131.863 39.9864 132.984 37.2812 134.979 35.2862C136.974 33.2914 139.679 32.1707 142.5 32.1699H372.5C372.108 34.0809 371.91 36.0267 371.91 37.9774C371.91 38.0599 371.91 38.1324 371.91 38.2124H170V46.3174H372.94L373.135 46.2624C373.778 48.4122 374.655 50.4847 375.75 52.4424Z" fill="#55DEFF"/>
<path d="M264.547 210.415C266.105 210.415 267.63 210.875 268.927 211.742C270.222 212.607 271.232 213.837 271.83 215.277C272.427 216.717 272.582 218.302 272.277 219.832C271.975 221.36 271.225 222.765 270.122 223.867C269.02 224.97 267.615 225.72 266.087 226.022C264.557 226.327 262.972 226.172 261.532 225.575C260.092 224.977 258.862 223.967 257.997 222.672C257.13 221.375 256.67 219.85 256.67 218.292C256.67 216.202 257.502 214.2 258.977 212.722C260.455 211.247 262.457 210.415 264.547 210.415Z" fill="#FFE8BB"/>
<path d="M406.69 91.9726V182.722C404.82 183.527 403.002 184.445 401.245 185.472L397.137 184.082L397.243 183.765V74.7277L406.69 91.9726Z" fill="#FFE8BB"/>
<path d="M406.69 73.3199V91.9724L397.242 74.7224V70.4474C400.297 71.6906 403.46 72.6521 406.69 73.3199Z" fill="#313553"/>
<path d="M388.425 232.66H371.195L379.243 203.927H384.535C383.148 207.372 382.433 211.05 382.43 214.765C382.48 221.215 384.578 227.483 388.425 232.66Z" fill="#313553"/>
<path d="M379.25 203.927L371.202 232.66H136.765C132.959 232.66 129.309 231.147 126.618 228.457C123.927 225.765 122.415 222.115 122.415 218.31V149.777L131.862 137.71V193.29C131.863 196.11 132.984 198.817 134.979 200.81C136.974 202.805 139.679 203.927 142.5 203.927H379.25ZM272.442 218.292C272.442 216.732 271.982 215.21 271.115 213.912C270.25 212.617 269.02 211.605 267.58 211.007C266.14 210.412 264.555 210.255 263.025 210.557C261.497 210.862 260.092 211.612 258.99 212.712C257.885 213.815 257.135 215.22 256.83 216.747C256.525 218.277 256.68 219.862 257.275 221.302C257.873 222.742 258.88 223.975 260.177 224.842C261.472 225.707 262.995 226.172 264.555 226.172C266.645 226.172 268.648 225.342 270.128 223.865C271.605 222.385 272.435 220.382 272.435 218.292H272.442Z" fill="#FFE8BB"/>
<path d="M375.855 79.1199C376.41 79.1064 376.963 79.2039 377.48 79.4069C377.995 79.6099 378.468 79.9144 378.865 80.3021C379.263 80.6899 379.578 81.1531 379.793 81.6649C380.008 82.1764 380.12 82.7259 380.12 83.2811C380.12 83.8364 380.008 84.3861 379.793 84.8976C379.578 85.4094 379.263 85.8726 378.865 86.2604C378.468 86.6481 377.995 86.9524 377.48 87.1554C376.963 87.3584 376.41 87.4561 375.855 87.4424H279.925C279.103 87.4441 278.295 87.2009 277.61 86.7441C276.925 86.2871 276.393 85.6371 276.075 84.8761C275.76 84.1154 275.68 83.2781 275.84 82.4704C276.003 81.6629 276.4 80.9214 276.983 80.3399C277.368 79.9514 277.825 79.6434 278.33 79.4339C278.835 79.2244 279.378 79.1176 279.925 79.1199H375.855Z" fill="#55DEFF"/>
<path d="M375.855 96.9152C376.96 96.9152 378.018 97.3536 378.798 98.1341C379.58 98.9149 380.018 99.9737 380.018 101.078C380.018 102.181 379.58 103.24 378.798 104.021C378.018 104.801 376.96 105.24 375.855 105.24H231.39C230.286 105.238 229.227 104.798 228.446 104.017C227.666 103.236 227.226 102.177 227.225 101.073C227.23 99.9701 227.67 98.9142 228.451 98.1352C229.231 97.3564 230.288 96.9177 231.39 96.9152H375.855Z" fill="#313553"/>
<path d="M375.855 114.712C376.41 114.699 376.963 114.796 377.48 114.999C377.995 115.202 378.468 115.507 378.865 115.894C379.263 116.282 379.578 116.745 379.793 117.257C380.008 117.769 380.12 118.318 380.12 118.874C380.12 119.429 380.008 119.978 379.793 120.49C379.578 121.002 379.263 121.465 378.865 121.853C378.468 122.24 377.995 122.545 377.48 122.748C376.963 122.951 376.41 123.048 375.855 123.035H328.46C327.355 123.034 326.297 122.595 325.515 121.814C324.735 121.033 324.295 119.974 324.295 118.87C324.298 117.766 324.738 116.709 325.518 115.93C326.298 115.15 327.358 114.712 328.46 114.712H375.855Z" fill="#55DEFF"/>
<path d="M375.855 132.5C376.96 132.5 378.018 132.938 378.798 133.72C379.58 134.5 380.018 135.558 380.018 136.663C380.018 137.768 379.58 138.825 378.798 139.605C378.018 140.388 376.96 140.825 375.855 140.825H223.303C222.198 140.823 221.138 140.385 220.357 139.603C219.576 138.823 219.136 137.763 219.135 136.658C219.14 135.555 219.581 134.498 220.361 133.72C221.142 132.94 222.2 132.503 223.303 132.5H375.855Z" fill="#313553"/>
<path d="M375.855 150.305C376.94 150.332 377.972 150.782 378.732 151.56C379.49 152.337 379.915 153.38 379.915 154.467C379.915 155.552 379.49 156.595 378.732 157.372C377.972 158.15 376.94 158.6 375.855 158.627H296.105C295 158.627 293.94 158.187 293.16 157.407C292.377 156.625 291.94 155.567 291.938 154.462C291.94 153.36 292.382 152.302 293.162 151.522C293.942 150.742 295.002 150.305 296.105 150.305H375.855Z" fill="#55DEFF"/>
<path d="M375.855 168.1C376.41 168.087 376.963 168.185 377.48 168.387C377.995 168.59 378.468 168.895 378.865 169.282C379.263 169.67 379.578 170.132 379.793 170.645C380.008 171.157 380.12 171.705 380.12 172.262C380.12 172.817 380.008 173.365 379.793 173.877C379.578 174.39 379.263 174.852 378.865 175.24C378.468 175.627 377.995 175.932 377.48 176.135C376.963 176.337 376.41 176.435 375.855 176.422H352.728C351.623 176.422 350.565 175.982 349.782 175.202C349.002 174.42 348.562 173.362 348.562 172.257C348.565 171.155 349.005 170.097 349.787 169.317C350.567 168.54 351.625 168.102 352.728 168.1H375.855Z" fill="#313553"/>
<path d="M375.855 185.895C376.96 185.895 378.017 186.332 378.797 187.115C379.58 187.895 380.018 188.952 380.018 190.057C380.018 191.162 379.58 192.22 378.797 193C378.017 193.782 376.96 194.22 375.855 194.22H247.57C246.465 194.217 245.405 193.78 244.625 192.997C243.842 192.217 243.405 191.157 243.402 190.052C243.407 188.95 243.847 187.892 244.63 187.115C245.41 186.335 246.467 185.897 247.57 185.895H375.855Z" fill="#55DEFF"/>
<path d="M376.177 61.3549L372.142 69.6474H247.57C246.465 69.6474 245.407 69.2089 244.627 68.4281C243.845 67.6476 243.408 66.5889 243.408 65.4849C243.408 64.3809 243.845 63.3221 244.627 62.5416C245.407 61.7609 246.465 61.3224 247.57 61.3224H375.855C375.967 61.3224 376.065 61.3474 376.177 61.3549Z" fill="#313553"/>
<path d="M136.765 25.2775H374.82C373.77 27.4725 372.992 29.787 372.5 32.17H142.5C139.679 32.1707 136.974 33.2917 134.979 35.2865C132.984 37.2812 131.863 39.9865 131.862 42.8075V76.765C128.931 74.5935 125.762 72.764 122.415 71.3125V39.6275C122.415 37.743 122.786 35.877 123.507 34.136C124.228 32.395 125.285 30.813 126.618 29.4805C127.95 28.148 129.532 27.091 131.273 26.37C133.014 25.6487 134.88 25.2775 136.765 25.2775Z" fill="#FFE8BB"/>
<path d="M373.138 46.2624L372.943 46.3174H170V38.2124H371.92C371.935 40.9404 372.345 43.6519 373.138 46.2624Z" fill="#313553"/>
<path d="M329.75 168.1C330.835 168.127 331.867 168.577 332.627 169.355C333.385 170.132 333.81 171.175 333.81 172.26C333.81 173.347 333.385 174.39 332.627 175.167C331.867 175.945 330.835 176.395 329.75 176.422H169.105C168.001 176.422 166.942 175.982 166.161 175.202C165.38 174.42 164.941 173.362 164.94 172.257C164.943 171.155 165.384 170.097 166.164 169.317C166.945 168.54 168.002 168.102 169.105 168.1H329.75Z" fill="#55DEFF"/>
<path d="M305.48 114.712C306.565 114.739 307.598 115.189 308.358 115.967C309.115 116.744 309.54 117.787 309.54 118.874C309.54 119.96 309.115 121.003 308.358 121.781C307.598 122.558 306.565 123.008 305.48 123.035H169.105C168.001 123.034 166.942 122.595 166.161 121.814C165.38 121.033 164.941 119.974 164.94 118.87C164.942 117.767 165.382 116.709 166.162 115.93C166.943 115.15 168.002 114.712 169.105 114.712H305.48Z" fill="#313553"/>
<path d="M295.537 253.295L298.953 268.347H294.13H237.038H230.152L238.242 232.66L295.537 253.295Z" fill="#FFE8BB"/>
<path d="M290.863 232.66L295.537 253.295L238.242 232.66H290.863Z" fill="#313553"/>
<path d="M273.123 150.305C274.208 150.332 275.24 150.782 276 151.56C276.758 152.337 277.183 153.38 277.183 154.467C277.183 155.552 276.758 156.595 276 157.372C275.24 158.15 274.208 158.6 273.123 158.627H169.105C168.001 158.627 166.942 158.187 166.161 157.407C165.38 156.625 164.941 155.567 164.94 154.462C164.942 153.36 165.382 152.302 166.162 151.522C166.943 150.742 168.002 150.305 169.105 150.305H273.123Z" fill="#313553"/>
<path d="M256.945 79.1199C257.5 79.1064 258.053 79.2039 258.57 79.4069C259.085 79.6099 259.558 79.9144 259.955 80.3021C260.353 80.6899 260.667 81.1531 260.882 81.6649C261.097 82.1764 261.21 82.7259 261.21 83.2811C261.21 83.8364 261.097 84.3861 260.882 84.8976C260.667 85.4094 260.353 85.8726 259.955 86.2604C259.558 86.6481 259.085 86.9524 258.57 87.1554C258.053 87.3584 257.5 87.4561 256.945 87.4424H169.105C168.55 87.4561 167.998 87.3584 167.481 87.1554C166.964 86.9524 166.494 86.6481 166.096 86.2604C165.699 85.8726 165.383 85.4094 165.167 84.8976C164.952 84.3861 164.841 83.8364 164.841 83.2811C164.841 82.7259 164.952 82.1764 165.167 81.6649C165.383 81.1531 165.699 80.6899 166.096 80.3021C166.494 79.9144 166.964 79.6099 167.481 79.4069C167.998 79.2039 168.55 79.1064 169.105 79.1199H256.945Z" fill="#313553"/>
<path d="M224.588 61.3224C225.692 61.3224 226.75 61.7609 227.531 62.5416C228.312 63.3221 228.75 64.3809 228.75 65.4849C228.75 66.5889 228.312 67.6476 227.531 68.4281C226.75 69.2089 225.692 69.6474 224.588 69.6474H169.105C168.001 69.6466 166.942 69.2076 166.161 68.4269C165.38 67.6459 164.941 66.5869 164.94 65.4824C164.943 64.3791 165.383 63.3216 166.163 62.5419C166.944 61.7624 168.002 61.3236 169.105 61.3224H224.588Z" fill="#55DEFF"/>
<path d="M224.588 185.895C225.692 185.895 226.75 186.332 227.531 187.115C228.312 187.895 228.75 188.952 228.75 190.057C228.75 191.162 228.312 192.22 227.531 193C226.75 193.782 225.692 194.22 224.588 194.22H169.105C168.001 194.217 166.942 193.78 166.161 192.997C165.38 192.217 164.941 191.157 164.94 190.052C164.943 188.95 165.384 187.892 166.164 187.112C166.945 186.335 168.002 185.897 169.105 185.895H224.588Z" fill="#313553"/>
<path d="M208.41 96.9152C209.514 96.9152 210.573 97.3536 211.354 98.1341C212.134 98.9149 212.573 99.9737 212.573 101.078C212.573 102.181 212.134 103.24 211.354 104.021C210.573 104.801 209.514 105.24 208.41 105.24H169.105C168.001 105.239 166.942 104.799 166.161 104.018C165.38 103.236 164.941 102.177 164.94 101.073C164.943 99.9696 165.384 98.9129 166.164 98.1337C166.945 97.3547 168.002 96.9164 169.105 96.9152H208.41Z" fill="#55DEFF"/>
<path d="M200.32 132.5C201.424 132.5 202.483 132.938 203.264 133.72C204.044 134.5 204.483 135.558 204.483 136.663C204.483 137.768 204.044 138.825 203.264 139.605C202.483 140.388 201.424 140.825 200.32 140.825H169.105C168.001 140.823 166.942 140.385 166.161 139.603C165.38 138.823 164.941 137.763 164.94 136.658C164.943 135.555 165.384 134.498 166.164 133.72C166.945 132.94 168.002 132.503 169.105 132.5H200.32Z" fill="#55DEFF"/>
<path d="M145.955 98.1949C146.504 98.3997 146.982 98.7567 147.335 99.2242C147.687 99.6917 147.899 100.25 147.944 100.834C147.99 101.417 147.868 102.002 147.593 102.519C147.317 103.035 146.9 103.462 146.39 103.75C146.39 103.58 146.39 103.402 146.39 103.225C146.39 102.812 146.39 102.4 146.358 101.987V101.89C146.304 100.651 146.17 99.4164 145.955 98.1949Z" fill="#313553"/>
<path d="M144.855 62.3825C145.469 62.3805 146.069 62.5605 146.58 62.9C147.091 63.2395 147.49 63.7227 147.726 64.2892C147.962 64.8555 148.025 65.479 147.907 66.081C147.788 66.683 147.494 67.2362 147.061 67.6707C146.628 68.1055 146.075 68.4017 145.474 68.522C144.872 68.6425 144.248 68.5817 143.681 68.3472C143.114 68.113 142.629 67.7157 142.288 67.2057C141.947 66.6957 141.765 66.096 141.765 65.4825C141.765 64.662 142.09 63.875 142.67 63.294C143.249 62.7127 144.035 62.385 144.855 62.3825Z" fill="#313553"/>
<path d="M144.855 80.1799C145.468 80.1784 146.068 80.3587 146.578 80.6982C147.088 81.0377 147.487 81.5209 147.722 82.0867C147.958 82.6527 148.02 83.2757 147.901 83.8769C147.783 84.4784 147.488 85.0309 147.056 85.4649C146.623 85.8989 146.071 86.1947 145.47 86.3147C144.869 86.4349 144.245 86.3739 143.679 86.1397C143.113 85.9057 142.628 85.5087 142.288 84.9989C141.947 84.4894 141.765 83.8904 141.765 83.2774C141.765 82.4572 142.09 81.6704 142.67 81.0897C143.249 80.5092 144.035 80.1819 144.855 80.1799Z" fill="#313553"/>
<path d="M144.855 115.772C145.677 115.772 146.464 116.099 147.045 116.68C147.626 117.26 147.953 118.048 147.953 118.87C147.953 119.691 147.626 120.479 147.045 121.06C146.464 121.641 145.677 121.967 144.855 121.967C144.195 121.952 143.556 121.728 143.03 121.329C142.504 120.929 142.117 120.374 141.925 119.742L141.5 119.475C142.23 118.341 142.887 117.161 143.465 115.942L143.603 116.005C143.86 115.75 144.643 115.772 144.855 115.772Z" fill="#313553"/>
<path d="M144.855 151.362C145.469 151.36 146.069 151.54 146.58 151.88C147.091 152.22 147.49 152.702 147.726 153.27C147.962 153.835 148.025 154.46 147.907 155.06C147.788 155.662 147.494 156.217 147.061 156.65C146.628 157.085 146.075 157.382 145.474 157.502C144.872 157.622 144.248 157.562 143.681 157.327C143.114 157.092 142.629 156.695 142.288 156.185C141.947 155.675 141.765 155.075 141.765 154.462C141.765 153.642 142.09 152.855 142.67 152.275C143.249 151.692 144.035 151.365 144.855 151.362Z" fill="#313553"/>
<path d="M144.855 169.16C145.468 169.157 146.068 169.34 146.578 169.677C147.088 170.017 147.487 170.5 147.722 171.067C147.958 171.632 148.02 172.255 147.901 172.857C147.783 173.457 147.488 174.01 147.056 174.445C146.623 174.88 146.071 175.175 145.47 175.295C144.869 175.415 144.245 175.355 143.679 175.12C143.113 174.885 142.628 174.487 142.288 173.98C141.947 173.47 141.765 172.87 141.765 172.257C141.765 171.437 142.09 170.65 142.67 170.07C143.249 169.49 144.035 169.162 144.855 169.16Z" fill="#313553"/>
<path d="M144.855 186.955C145.469 186.952 146.069 187.132 146.58 187.472C147.092 187.812 147.49 188.295 147.726 188.862C147.963 189.427 148.025 190.052 147.907 190.655C147.788 191.257 147.493 191.81 147.06 192.245C146.626 192.68 146.074 192.975 145.472 193.095C144.87 193.215 144.246 193.155 143.679 192.92C143.112 192.685 142.628 192.287 142.287 191.777C141.946 191.265 141.765 190.665 141.765 190.052C141.765 189.232 142.09 188.445 142.67 187.865C143.249 187.285 144.035 186.957 144.855 186.955Z" fill="#313553"/>
<path d="M127.583 132.515L132.082 134.642L131.855 135.127V137.71L122.408 149.777V135.127C124.185 134.362 125.913 133.49 127.583 132.515Z" fill="#313553"/>
<path d="M112.183 138.452L112.27 138.85C108.09 148.33 102.77 157.737 96.5375 162.972C94.514 164.67 92.5675 166.39 90.6975 168.132C89.9925 157.795 89.2325 147.335 88.505 138.85C92.0898 139.502 95.7263 139.83 99.37 139.827C103.678 139.835 107.974 139.372 112.183 138.452Z" fill="#313553"/>
<path d="M82.875 185.84C84.4127 182.237 86.7837 179.052 89.7925 176.545C90.2525 176.19 90.7125 175.832 91.1825 175.492C98.6055 170.272 106.694 166.067 115.232 162.992C115.005 163.477 106.317 181.88 97.9825 188.91C96.05 190.535 94.115 191.992 92.2875 193.41C90.4327 194.82 88.6785 196.357 87.0375 198.012C85.2257 199.795 83.7927 201.927 82.8242 204.277C81.8555 206.627 81.371 209.15 81.4 211.692V212.105H77.835V211.692C77.8802 207.332 78.2867 202.985 79.05 198.692C79.7772 194.265 81.0625 189.945 82.875 185.84Z" fill="#55DEFF"/>
<path d="M93.1725 211.692V212.105H88.8375C88.6267 207.365 88.0202 202.652 87.025 198.012C88.6662 196.357 90.4205 194.82 92.275 193.41C92.8325 202.795 93.1725 209.815 93.1725 211.692Z" fill="#313553"/>
<path d="M91.1825 175.485C90.7125 175.832 90.2525 176.19 89.7925 176.545C86.7837 179.052 84.413 182.237 82.875 185.84C81.9125 184.34 80.7225 182.677 79.3475 180.825C76.1525 176.505 72.0125 171.247 67.765 165.405C62.6502 158.555 58.0845 151.312 54.11 143.742C54.11 143.742 54.085 143.702 54.045 143.63C53.4475 142.44 52.88 141.26 52.34 140.062C34.6475 101.04 46.11 62.1324 46.11 62.1324C52.1755 67.6649 57.8662 73.5947 63.145 79.8824C59.829 82.8162 57.1567 86.4052 55.2972 90.4232C53.4375 94.4409 52.4305 98.8009 52.34 103.227C52.34 120.53 67.765 135.035 88.505 138.852C89.2325 147.337 89.9925 157.797 90.6975 168.135C90.86 170.6 91.03 173.057 91.1825 175.485Z" fill="#55DEFF"/>
<path d="M77.31 183.897C77.31 183.897 78.6375 191.8 79.06 198.685C78.2967 202.977 77.8902 207.325 77.845 211.685V212.097H74.2925V211.685C75.5425 203.32 74.26 193.905 74.2925 189.455C75.1932 187.547 76.2007 185.692 77.31 183.897Z" fill="#313553"/>
<path d="M79.3475 180.825C78.6375 181.825 77.9575 182.855 77.31 183.897C76.2008 185.692 75.1935 187.547 74.2925 189.455C71.0138 196.542 69.29 204.25 69.2375 212.057V212.097H67.8125C67.7263 203.417 66.83 194.765 65.135 186.25C65.9525 181.97 66.385 177.117 66.9075 172.165C67.1425 169.932 67.3925 167.677 67.7 165.452L67.765 165.402C72.0125 171.25 76.1525 176.5 79.3475 180.825Z" fill="#55DEFF"/>
<path d="M67.8125 212.105H61.5125C61.1 190.667 46.605 183.897 32.0925 171.667C17.0925 159.04 1.48255 125.705 1.48255 125.705C17.0858 131.324 31.8308 139.09 45.2925 148.775C45.712 149.13 46.1493 149.465 46.6025 149.775C57.1025 158.01 62.45 172.895 65.135 186.25C66.8305 194.765 67.7268 203.422 67.8125 212.105Z" fill="#55DEFF"/>
<path d="M67.765 165.405L67.7 165.455C67.3925 167.68 67.1425 169.935 66.9075 172.167C65.4675 162.615 57.815 157.535 46.605 149.777C46.1675 149.437 45.7375 149.097 45.2925 148.777C35.125 140.252 31.9475 119.455 31.9475 119.455C43.5875 126.297 53.1725 142.16 54.045 143.632C54.085 143.705 54.11 143.745 54.11 143.745C58.0845 151.312 62.6503 158.555 67.765 165.405Z" fill="#313553"/>
<path d="M122.415 135.127C124.189 134.362 125.915 133.49 127.582 132.515L132.082 134.642L154.083 144.997L139.832 121.887C140.43 121.102 140.997 120.302 141.515 119.475C142.246 118.34 142.902 117.159 143.48 115.94C145.32 112.135 146.313 107.976 146.39 103.75C146.39 103.58 146.39 103.402 146.39 103.225C146.39 102.812 146.39 102.4 146.357 101.987" stroke="#313553" stroke-width="1.6175" stroke-linecap="round" stroke-linejoin="round"/>
<path d="M146.368 101.89C146.311 100.651 146.173 99.4164 145.955 98.1952C144.175 89.5107 139.131 81.8402 131.862 76.7652C128.931 74.5934 125.762 72.7639 122.415 71.3127C115.14 68.1737 107.293 66.5767 99.37 66.6227C86.0605 66.3389 73.1305 71.0684 63.145 79.8727C59.829 82.8062 57.1567 86.3952 55.297 90.4132C53.4375 94.4312 52.4305 98.7909 52.34 103.218C52.34 120.52 67.765 135.025 88.505 138.842C92.0898 139.495 95.7263 139.822 99.37 139.82C103.678 139.827 107.974 139.365 112.183 138.445C115.694 137.677 119.121 136.567 122.415 135.13" stroke="#313553" stroke-width="1.6175" stroke-linecap="round" stroke-linejoin="round"/>
<path d="M376.185 61.3547L378.483 56.6322C377.465 55.3052 376.545 53.9047 375.733 52.4422C374.64 50.4842 373.768 48.4117 373.13 46.2622C372.34 43.6517 371.93 40.9402 371.915 38.2122C371.915 38.1322 371.915 38.0597 371.915 37.9772C371.915 36.0267 372.11 34.0809 372.5 32.1697C372.99 29.7869 373.767 27.4727 374.815 25.2772C381.447 11.3172 398.7 1.36719 418.94 1.36719C444.905 1.36719 465.962 17.7547 465.962 37.9772C465.962 58.1997 444.905 74.5822 418.94 74.5822C414.823 74.5892 410.717 74.1634 406.69 73.3122C403.46 72.6504 400.298 71.6914 397.243 70.4472C395 69.5444 392.828 68.4792 390.743 67.2597L368.742 76.6447L372.158 69.6447L376.2 61.3522" stroke="#313553" stroke-width="1.6175" stroke-linecap="round" stroke-linejoin="round"/>
<path d="M397.137 184.085L383.07 179.32L389 196.105C387.16 198.495 385.657 201.127 384.535 203.927C383.147 207.372 382.432 211.052 382.43 214.765C382.48 221.215 384.582 227.482 388.43 232.66C396.477 243.822 411.84 251.37 429.465 251.37C455.432 251.37 476.487 234.98 476.487 214.765C476.487 194.55 455.432 178.162 429.465 178.162C421.642 178.122 413.895 179.677 406.695 182.732C404.825 183.537 403.007 184.455 401.25 185.482L397.137 184.085Z" stroke="#313553" stroke-width="1.6175" stroke-linecap="round" stroke-linejoin="round"/>
<path d="M122.415 71.3125V39.6275C122.415 35.8217 123.927 32.1717 126.618 29.4805C129.309 26.7895 132.959 25.2775 136.765 25.2775H374.82" stroke="#313553" stroke-width="1.6175" stroke-linecap="round" stroke-linejoin="round"/>
<path d="M238.25 232.66H136.765C132.959 232.66 129.309 231.147 126.618 228.457C123.927 225.765 122.415 222.115 122.415 218.31V135.127" stroke="#313553" stroke-width="1.6175" stroke-linecap="round" stroke-linejoin="round"/>
<path d="M388.425 232.66H371.195H290.862" stroke="#313553" stroke-width="1.6175" stroke-linecap="round" stroke-linejoin="round"/>
<path d="M406.69 73.3199V91.9724V182.732" stroke="#313553" stroke-width="1.6175" stroke-linecap="round" stroke-linejoin="round"/>
<path d="M131.863 76.7749V42.8074C131.863 39.9864 132.984 37.2812 134.979 35.2862C136.974 33.2914 139.679 32.1707 142.5 32.1699H372.5" stroke="#313553" stroke-width="1.6175" stroke-linecap="round" stroke-linejoin="round"/>
<path d="M384.535 203.927H142.5C139.679 203.927 136.974 202.805 134.979 200.81C132.984 198.817 131.863 196.11 131.863 193.29V135.127" stroke="#313553" stroke-width="1.6175" stroke-linecap="round" stroke-linejoin="round"/>
<path d="M397.242 70.4578V74.7278V183.768" stroke="#313553" stroke-width="1.6175" stroke-linecap="round" stroke-linejoin="round"/>
<path d="M131.863 52.4424H375.74" stroke="#313553" stroke-width="1.6175" stroke-linecap="round" stroke-linejoin="round"/>
<path d="M372.943 46.3174H170.003V38.2124H371.85" stroke="#313553" stroke-width="1.6175" stroke-linecap="round" stroke-linejoin="round"/>
<path d="M272.435 218.292C272.435 219.852 271.975 221.375 271.11 222.672C270.245 223.97 269.012 224.98 267.572 225.577C266.132 226.175 264.55 226.332 263.02 226.03C261.49 225.725 260.085 224.977 258.982 223.875C257.88 222.772 257.127 221.37 256.822 219.84C256.517 218.312 256.672 216.725 257.267 215.285C257.862 213.845 258.872 212.612 260.17 211.745C261.465 210.88 262.987 210.415 264.547 210.415C266.637 210.415 268.642 211.242 270.122 212.72C271.6 214.197 272.432 216.202 272.435 218.292Z" stroke="#313553" stroke-width="1.6175" stroke-linecap="round" stroke-linejoin="round"/>
<path d="M230.152 268.347L238.242 232.66H290.863L295.537 253.295L298.953 268.347" stroke="#313553" stroke-width="1.6175" stroke-linecap="round" stroke-linejoin="round"/>
<path d="M294.13 268.347H237.038" stroke="#313553" stroke-width="1.6175" stroke-linecap="round" stroke-linejoin="round"/>
<path d="M238.242 232.66L295.537 253.295" stroke="#313553" stroke-width="1.6175" stroke-linecap="round" stroke-linejoin="round"/>
<path d="M208.385 268.347H220.86" stroke="#313553" stroke-width="1.6175" stroke-linecap="round" stroke-linejoin="round"/>
<path d="M224.565 268.347H230.153H237.038" stroke="#313553" stroke-width="1.6175" stroke-linecap="round" stroke-linejoin="round"/>
<path d="M30.425 268.347H42.9" stroke="#313553" stroke-width="1.6175" stroke-linecap="round" stroke-linejoin="round"/>
<path d="M91.6275 268.347H123.79" stroke="#313553" stroke-width="1.6175" stroke-linecap="round" stroke-linejoin="round"/>
<path d="M46.605 268.347H63.4775" stroke="#313553" stroke-width="1.6175" stroke-linecap="round" stroke-linejoin="round"/>
<path d="M294.13 268.347H298.953H306.603" stroke="#313553" stroke-width="1.6175" stroke-linecap="round" stroke-linejoin="round"/>
<path d="M310.307 268.347H322.783" stroke="#313553" stroke-width="1.6175" stroke-linecap="round" stroke-linejoin="round"/>
<path d="M154.383 47.2574L162.658 42.4849L154.383 37.7024" stroke="#313553" stroke-width="1.6175" stroke-linecap="round" stroke-linejoin="round"/>
<path d="M149.035 37.7024L140.753 42.4849L149.035 47.2574" stroke="#313553" stroke-width="1.6175" stroke-linecap="round" stroke-linejoin="round"/>
<path d="M397.242 74.7277L406.69 91.9726" stroke="#313553" stroke-width="1.6175" stroke-linecap="round" stroke-linejoin="round"/>
<path d="M379.243 203.927L371.195 232.66" stroke="#313553" stroke-width="1.6175" stroke-linecap="round" stroke-linejoin="round"/>
<path d="M131.862 137.71L122.415 149.777" stroke="#313553" stroke-width="1.6175" stroke-linecap="round" stroke-linejoin="round"/>
<path d="M91.6275 268.347H63.4775C59.0028 268.347 54.711 266.57 51.547 263.405C48.3828 260.242 46.605 255.95 46.605 251.475V212.105H108.5V251.475C108.5 255.95 106.722 260.24 103.558 263.405C100.394 266.57 96.1023 268.347 91.6275 268.347Z" stroke="#313553" stroke-width="1.6175" stroke-linecap="round" stroke-linejoin="round"/>
<path d="M67.8125 212.105C67.7268 203.422 66.8305 194.765 65.135 186.25C62.45 172.895 57.1025 158 46.605 149.775C46.1675 149.435 45.7375 149.095 45.2925 148.775C31.8308 139.09 17.0858 131.324 1.48255 125.705C1.48255 125.705 17.095 159.04 32.0925 171.667C46.605 183.897 61.0925 190.667 61.5125 212.105" stroke="#313553" stroke-width="1.6175" stroke-linecap="round" stroke-linejoin="round"/>
<path d="M74.2925 189.462C71.0138 196.55 69.29 204.257 69.2375 212.065" stroke="#313553" stroke-width="1.6175" stroke-linecap="round" stroke-linejoin="round"/>
<path d="M79.3475 180.825C78.6375 181.825 77.9575 182.855 77.31 183.897C76.2007 185.692 75.1932 187.547 74.2925 189.455" stroke="#313553" stroke-width="1.6175" stroke-linecap="round" stroke-linejoin="round"/>
<path d="M112.27 138.85C108.09 148.33 102.77 157.737 96.5375 162.972C94.5143 164.67 92.5675 166.39 90.6975 168.132" stroke="#313553" stroke-width="1.6175" stroke-linecap="round" stroke-linejoin="round"/>
<path d="M65.135 186.25C65.9525 181.97 66.385 177.117 66.9075 172.165C67.1425 169.932 67.3925 167.677 67.7 165.452" stroke="#313553" stroke-width="1.6175" stroke-linecap="round" stroke-linejoin="round"/>
<path d="M115.25 162.972C115.015 163.472 106.327 181.867 98 188.897C96.0675 190.522 94.1325 191.98 92.305 193.397C90.4505 194.807 88.6962 196.345 87.055 198C85.2435 199.782 83.8105 201.915 82.8417 204.265C81.873 206.615 81.3887 209.137 81.4175 211.68" stroke="#313553" stroke-width="1.6175" stroke-linecap="round" stroke-linejoin="round"/>
<path d="M91.1825 175.485C98.6055 170.265 106.694 166.06 115.232 162.985" stroke="#313553" stroke-width="1.6175" stroke-linecap="round" stroke-linejoin="round"/>
<path d="M77.835 211.692C77.8802 207.332 78.2867 202.985 79.05 198.693C79.7777 194.268 81.063 189.95 82.875 185.847C84.4127 182.245 86.7837 179.06 89.7925 176.552C90.2525 176.197 90.7125 175.84 91.1825 175.5" stroke="#313553" stroke-width="1.6175" stroke-linecap="round" stroke-linejoin="round"/>
<path d="M87.025 198.012C88.0202 202.652 88.6267 207.365 88.8375 212.105" stroke="#313553" stroke-width="1.6175" stroke-linecap="round" stroke-linejoin="round"/>
<path d="M54.11 143.75C58.0845 151.32 62.6503 158.563 67.765 165.413C72.015 171.255 76.1525 176.513 79.3475 180.833C80.7225 182.685 81.9125 184.358 82.875 185.848" stroke="#313553" stroke-width="1.6175" stroke-linecap="round" stroke-linejoin="round"/>
<path d="M63.145 79.8799C57.8662 73.5921 52.1755 67.6624 46.11 62.1299C46.11 62.1299 34.6475 101.037 52.34 140.06C52.88 141.257 53.4475 142.437 54.045 143.627" stroke="#313553" stroke-width="1.6175" stroke-linecap="round" stroke-linejoin="round"/>
<path d="M91.1825 175.5C91.03 173.065 90.86 170.607 90.6975 168.14C89.9925 157.802 89.2325 147.342 88.505 138.857" stroke="#313553" stroke-width="1.6175" stroke-linecap="round" stroke-linejoin="round"/>
<path d="M93.1725 211.692C93.1725 209.815 92.8325 202.795 92.2825 193.41" stroke="#313553" stroke-width="1.6175" stroke-linecap="round" stroke-linejoin="round"/>
<path d="M54.11 143.75C54.11 143.75 54.085 143.71 54.045 143.637C53.1725 142.165 43.5875 126.302 31.9475 119.46C31.9475 119.46 35.125 140.257 45.2925 148.782C45.7123 149.137 46.1505 149.472 46.605 149.782C57.815 157.532 65.4675 162.62 66.9075 172.172" stroke="#313553" stroke-width="1.6175" stroke-linecap="round" stroke-linejoin="round"/>
<path d="M74.2925 189.455C74.26 193.905 75.5425 203.32 74.2925 211.685" stroke="#313553" stroke-width="1.6175" stroke-linecap="round" stroke-linejoin="round"/>
<path d="M77.31 183.897C77.31 183.897 78.6375 191.8 79.06 198.685" stroke="#313553" stroke-width="1.6175" stroke-linecap="round" stroke-linejoin="round"/>
<path d="M158.517 58.225V195.027" stroke="#313553" stroke-width="1.6175" stroke-linecap="round" stroke-linejoin="round"/>
<path d="M224.588 69.6474H169.105C168.001 69.6466 166.942 69.2076 166.161 68.4269C165.38 67.6459 164.941 66.5869 164.94 65.4824C164.943 64.3791 165.383 63.3216 166.163 62.5419C166.944 61.7624 168.002 61.3236 169.105 61.3224H224.588C225.692 61.3224 226.75 61.7609 227.531 62.5416C228.312 63.3221 228.75 64.3809 228.75 65.4849C228.75 66.5889 228.312 67.6476 227.531 68.4281C226.75 69.2089 225.692 69.6474 224.588 69.6474Z" stroke="#313553" stroke-width="1.6175" stroke-linecap="round" stroke-linejoin="round"/>
<path d="M376.185 61.3549C376.065 61.3549 375.967 61.3224 375.855 61.3224H247.57C246.465 61.3224 245.407 61.7609 244.627 62.5416C243.845 63.3221 243.408 64.3809 243.408 65.4849C243.408 66.5889 243.845 67.6476 244.627 68.4281C245.407 69.2089 246.465 69.6474 247.57 69.6474H372.142L376.185 61.3549Z" stroke="#313553" stroke-width="1.6175" stroke-linecap="round" stroke-linejoin="round"/>
<path d="M147.953 65.4824C147.952 66.0942 147.769 66.692 147.429 67.2002C147.088 67.7085 146.605 68.1045 146.039 68.338C145.474 68.5715 144.852 68.6322 144.252 68.5125C143.652 68.3927 143.101 68.0977 142.668 67.6649C142.236 67.2322 141.941 66.681 141.822 66.081C141.703 65.4807 141.764 64.8587 141.998 64.2934C142.232 63.7282 142.628 63.245 143.137 62.9047C143.645 62.5647 144.243 62.383 144.855 62.3825C145.262 62.3817 145.665 62.4615 146.042 62.617C146.418 62.7727 146.76 63.001 147.048 63.289C147.336 63.577 147.564 63.9189 147.719 64.2954C147.874 64.6717 147.954 65.0752 147.953 65.4824Z" stroke="#313553" stroke-width="1.6175" stroke-linecap="round" stroke-linejoin="round"/>
<path d="M256.945 87.4424H169.105C168.55 87.4561 167.998 87.3584 167.481 87.1554C166.964 86.9524 166.494 86.6481 166.096 86.2604C165.699 85.8726 165.383 85.4094 165.167 84.8976C164.952 84.3861 164.841 83.8364 164.841 83.2811C164.841 82.7259 164.952 82.1764 165.167 81.6649C165.383 81.1531 165.699 80.6899 166.096 80.3021C166.494 79.9144 166.964 79.6099 167.481 79.4069C167.998 79.2039 168.55 79.1064 169.105 79.1199H256.945C257.5 79.1064 258.053 79.2039 258.57 79.4069C259.085 79.6099 259.558 79.9144 259.955 80.3021C260.353 80.6899 260.667 81.1531 260.882 81.6649C261.097 82.1764 261.21 82.7259 261.21 83.2811C261.21 83.8364 261.097 84.3861 260.882 84.8976C260.667 85.4094 260.353 85.8726 259.955 86.2604C259.558 86.6481 259.085 86.9524 258.57 87.1554C258.053 87.3584 257.5 87.4561 256.945 87.4424Z" stroke="#313553" stroke-width="1.6175" stroke-linecap="round" stroke-linejoin="round"/>
<path d="M375.855 87.4424H279.925C279.103 87.4441 278.295 87.2009 277.61 86.7441C276.925 86.2871 276.393 85.6371 276.075 84.8761C275.76 84.1154 275.68 83.2781 275.84 82.4704C276.003 81.6629 276.4 80.9214 276.983 80.3399C277.368 79.9514 277.825 79.6434 278.33 79.4339C278.835 79.2244 279.378 79.1176 279.925 79.1199H375.855C376.41 79.1064 376.963 79.2039 377.48 79.4069C377.995 79.6099 378.468 79.9144 378.865 80.3021C379.263 80.6899 379.578 81.1531 379.793 81.6649C380.008 82.1764 380.12 82.7259 380.12 83.2811C380.12 83.8364 380.008 84.3861 379.793 84.8976C379.578 85.4094 379.263 85.8726 378.865 86.2604C378.468 86.6481 377.995 86.9524 377.48 87.1554C376.963 87.3584 376.41 87.4561 375.855 87.4424Z" stroke="#313553" stroke-width="1.6175" stroke-linecap="round" stroke-linejoin="round"/>
<path d="M147.952 83.2774C147.952 83.8892 147.77 84.4874 147.43 84.9959C147.09 85.5044 146.606 85.9007 146.041 86.1347C145.475 86.3687 144.853 86.4297 144.253 86.3102C143.653 86.1907 143.102 85.8959 142.669 85.4634C142.236 85.0307 141.942 84.4794 141.822 83.8792C141.703 83.2792 141.764 82.6569 141.998 82.0917C142.231 81.5262 142.628 81.0427 143.136 80.7024C143.645 80.3622 144.243 80.1804 144.855 80.1799C145.262 80.1792 145.665 80.2589 146.041 80.4142C146.417 80.5697 146.759 80.7979 147.047 81.0857C147.334 81.3734 147.563 81.7152 147.718 82.0912C147.873 82.4674 147.953 82.8704 147.952 83.2774Z" stroke="#313553" stroke-width="1.6175" stroke-linecap="round" stroke-linejoin="round"/>
<path d="M208.41 105.25H169.105C168.001 105.248 166.942 104.809 166.161 104.028C165.38 103.246 164.941 102.187 164.94 101.082C164.943 99.9794 165.384 98.9227 166.164 98.1437C166.945 97.3644 168.002 96.9262 169.105 96.9249H208.41C209.514 96.9249 210.573 97.3634 211.354 98.1439C212.134 98.9247 212.573 99.9834 212.573 101.087C212.573 102.191 212.134 103.25 211.354 104.031C210.573 104.811 209.514 105.25 208.41 105.25Z" stroke="#313553" stroke-width="1.6175" stroke-linecap="round" stroke-linejoin="round"/>
<path d="M375.855 105.25H231.39C230.286 105.248 229.227 104.808 228.446 104.027C227.666 103.246 227.226 102.187 227.225 101.082C227.23 99.9799 227.67 98.9239 228.451 98.1449C229.231 97.3662 230.288 96.9274 231.39 96.9249H375.855C376.96 96.9249 378.018 97.3634 378.798 98.1439C379.58 98.9247 380.018 99.9834 380.018 101.087C380.018 102.191 379.58 103.25 378.798 104.031C378.018 104.811 376.96 105.25 375.855 105.25Z" stroke="#313553" stroke-width="1.6175" stroke-linecap="round" stroke-linejoin="round"/>
<path d="M146.4 103.225C146.4 103.402 146.4 103.58 146.383 103.75C146.893 103.462 147.31 103.035 147.585 102.519C147.86 102.002 147.982 101.417 147.937 100.834C147.891 100.25 147.679 99.6917 147.327 99.2242C146.975 98.7567 146.496 98.3997 145.948 98.1949H145.93C146.151 99.4197 146.295 100.657 146.36 101.9V102C146.39 102.4 146.4 102.812 146.4 103.225Z" stroke="#313553" stroke-width="1.6175" stroke-linecap="round" stroke-linejoin="round"/>
<path d="M305.48 123.035H169.105C168.001 123.034 166.942 122.595 166.161 121.814C165.38 121.033 164.941 119.974 164.94 118.87C164.942 117.767 165.382 116.709 166.162 115.93C166.943 115.15 168.002 114.712 169.105 114.712H305.48C306.565 114.739 307.598 115.189 308.358 115.967C309.115 116.744 309.54 117.787 309.54 118.874C309.54 119.96 309.115 121.003 308.358 121.781C307.598 122.558 306.565 123.008 305.48 123.035Z" stroke="#313553" stroke-width="1.6175" stroke-linecap="round" stroke-linejoin="round"/>
<path d="M375.855 123.035H328.46C327.355 123.034 326.297 122.595 325.515 121.814C324.735 121.033 324.295 119.974 324.295 118.87C324.298 117.766 324.738 116.709 325.518 115.93C326.298 115.15 327.358 114.712 328.46 114.712H375.855C376.41 114.699 376.963 114.796 377.48 114.999C377.995 115.202 378.468 115.507 378.865 115.894C379.263 116.282 379.578 116.745 379.793 117.257C380.008 117.769 380.12 118.318 380.12 118.874C380.12 119.429 380.008 119.978 379.793 120.49C379.578 121.002 379.263 121.465 378.865 121.853C378.468 122.24 377.995 122.545 377.48 122.748C376.963 122.951 376.41 123.048 375.855 123.035Z" stroke="#313553" stroke-width="1.6175" stroke-linecap="round" stroke-linejoin="round"/>
<path d="M143.608 116C143.858 115.75 144.643 115.767 144.858 115.767C145.679 115.767 146.467 116.094 147.048 116.675C147.629 117.256 147.955 118.043 147.955 118.865C147.955 119.686 147.629 120.474 147.048 121.055C146.467 121.636 145.679 121.962 144.858 121.962C144.197 121.947 143.559 121.723 143.033 121.324C142.507 120.924 142.12 120.369 141.928 119.737" stroke="#313553" stroke-width="1.6175" stroke-linecap="round" stroke-linejoin="round"/>
<path d="M200.32 140.832H169.105C168.001 140.83 166.942 140.392 166.161 139.61C165.38 138.83 164.941 137.77 164.94 136.665C164.943 135.562 165.384 134.505 166.164 133.725C166.945 132.947 168.002 132.51 169.105 132.507H200.32C201.424 132.507 202.483 132.945 203.264 133.727C204.044 134.507 204.483 135.565 204.483 136.67C204.483 137.775 204.044 138.832 203.264 139.612C202.483 140.395 201.424 140.832 200.32 140.832Z" stroke="#313553" stroke-width="1.6175" stroke-linecap="round" stroke-linejoin="round"/>
<path d="M375.855 140.832H223.303C222.198 140.83 221.138 140.392 220.357 139.61C219.576 138.83 219.136 137.77 219.135 136.665C219.14 135.562 219.581 134.505 220.361 133.727C221.142 132.947 222.2 132.51 223.303 132.507H375.855C376.96 132.507 378.018 132.945 378.798 133.727C379.58 134.507 380.018 135.565 380.018 136.67C380.018 137.775 379.58 138.832 378.798 139.612C378.018 140.395 376.96 140.832 375.855 140.832Z" stroke="#313553" stroke-width="1.6175" stroke-linecap="round" stroke-linejoin="round"/>
<path d="M273.123 158.627H169.105C168.001 158.627 166.942 158.187 166.161 157.407C165.38 156.625 164.941 155.567 164.94 154.462C164.942 153.36 165.382 152.302 166.162 151.522C166.943 150.742 168.002 150.305 169.105 150.305H273.123C274.208 150.332 275.24 150.782 276 151.56C276.758 152.337 277.183 153.38 277.183 154.467C277.183 155.552 276.758 156.595 276 157.372C275.24 158.15 274.208 158.6 273.123 158.627Z" stroke="#313553" stroke-width="1.6175" stroke-linecap="round" stroke-linejoin="round"/>
<path d="M375.855 158.627H296.105C295 158.627 293.94 158.187 293.16 157.407C292.377 156.625 291.94 155.567 291.938 154.462C291.94 153.36 292.382 152.302 293.162 151.522C293.942 150.742 295.002 150.305 296.105 150.305H375.855C376.94 150.332 377.972 150.782 378.732 151.56C379.49 152.337 379.915 153.38 379.915 154.467C379.915 155.552 379.49 156.595 378.732 157.372C377.972 158.15 376.94 158.6 375.855 158.627Z" stroke="#313553" stroke-width="1.6175" stroke-linecap="round" stroke-linejoin="round"/>
<path d="M147.953 154.462C147.952 155.075 147.769 155.672 147.429 156.18C147.088 156.687 146.605 157.085 146.039 157.317C145.474 157.552 144.852 157.612 144.252 157.492C143.652 157.372 143.101 157.077 142.668 156.645C142.236 156.212 141.941 155.66 141.822 155.06C141.703 154.46 141.764 153.84 141.998 153.272C142.232 152.707 142.628 152.225 143.137 151.885C143.645 151.545 144.243 151.362 144.855 151.362C145.262 151.362 145.665 151.442 146.042 151.597C146.418 151.752 146.76 151.98 147.048 152.27C147.336 152.557 147.564 152.9 147.719 153.275C147.874 153.652 147.954 154.055 147.953 154.462Z" stroke="#313553" stroke-width="1.6175" stroke-linecap="round" stroke-linejoin="round"/>
<path d="M329.75 176.422H169.105C168.001 176.422 166.942 175.982 166.161 175.202C165.38 174.42 164.941 173.362 164.94 172.257C164.943 171.155 165.384 170.097 166.164 169.317C166.945 168.54 168.002 168.102 169.105 168.1H329.75C330.835 168.127 331.867 168.577 332.627 169.355C333.385 170.132 333.81 171.175 333.81 172.26C333.81 173.347 333.385 174.39 332.627 175.167C331.867 175.945 330.835 176.395 329.75 176.422Z" stroke="#313553" stroke-width="1.6175" stroke-linecap="round" stroke-linejoin="round"/>
<path d="M375.855 176.422H352.728C351.623 176.422 350.565 175.982 349.782 175.202C349.002 174.42 348.562 173.362 348.562 172.257C348.565 171.155 349.005 170.097 349.787 169.317C350.567 168.54 351.625 168.102 352.728 168.1H375.855C376.41 168.087 376.963 168.185 377.48 168.387C377.995 168.59 378.468 168.895 378.865 169.282C379.263 169.67 379.578 170.132 379.793 170.645C380.008 171.157 380.12 171.705 380.12 172.262C380.12 172.817 380.008 173.365 379.793 173.877C379.578 174.39 379.263 174.852 378.865 175.24C378.468 175.627 377.995 175.932 377.48 176.135C376.963 176.337 376.41 176.435 375.855 176.422Z" stroke="#313553" stroke-width="1.6175" stroke-linecap="round" stroke-linejoin="round"/>
<path d="M147.952 172.25C147.952 172.862 147.77 173.46 147.43 173.967C147.09 174.477 146.606 174.872 146.041 175.107C145.475 175.342 144.853 175.402 144.253 175.282C143.653 175.162 143.102 174.867 142.669 174.435C142.236 174.002 141.942 173.452 141.822 172.852C141.703 172.252 141.764 171.63 141.998 171.065C142.231 170.5 142.628 170.015 143.136 169.675C143.645 169.335 144.243 169.152 144.855 169.152C145.262 169.152 145.665 169.232 146.041 169.387C146.417 169.542 146.759 169.77 147.047 170.057C147.334 170.345 147.563 170.687 147.718 171.065C147.873 171.44 147.953 171.842 147.952 172.25Z" stroke="#313553" stroke-width="1.6175" stroke-linecap="round" stroke-linejoin="round"/>
<path d="M224.588 194.22H169.105C168.001 194.217 166.942 193.78 166.161 192.997C165.38 192.217 164.941 191.157 164.94 190.052C164.943 188.95 165.384 187.892 166.164 187.112C166.945 186.335 168.002 185.897 169.105 185.895H224.588C225.692 185.895 226.75 186.332 227.531 187.115C228.312 187.895 228.75 188.952 228.75 190.057C228.75 191.162 228.312 192.22 227.531 193C226.75 193.782 225.692 194.22 224.588 194.22Z" stroke="#313553" stroke-width="1.6175" stroke-linecap="round" stroke-linejoin="round"/>
<path d="M375.855 194.22H247.57C246.465 194.217 245.405 193.78 244.625 192.997C243.842 192.217 243.405 191.157 243.402 190.052C243.407 188.95 243.847 187.892 244.63 187.115C245.41 186.335 246.467 185.897 247.57 185.895H375.855C376.96 185.895 378.017 186.332 378.797 187.115C379.58 187.895 380.018 188.952 380.018 190.057C380.018 191.162 379.58 192.22 378.797 193C378.017 193.782 376.96 194.22 375.855 194.22Z" stroke="#313553" stroke-width="1.6175" stroke-linecap="round" stroke-linejoin="round"/>
<path d="M147.952 190.052C147.952 190.665 147.77 191.262 147.43 191.77C147.09 192.28 146.606 192.675 146.041 192.91C145.475 193.145 144.853 193.205 144.253 193.085C143.653 192.965 143.102 192.67 142.669 192.237C142.236 191.805 141.942 191.255 141.822 190.655C141.703 190.055 141.764 189.432 141.998 188.867C142.231 188.302 142.628 187.817 143.136 187.477C143.645 187.137 144.243 186.955 144.855 186.955C145.262 186.955 145.665 187.035 146.041 187.19C146.417 187.345 146.758 187.575 147.046 187.862C147.334 188.15 147.562 188.49 147.717 188.867C147.873 189.242 147.953 189.645 147.952 190.052Z" stroke="#313553" stroke-width="1.6175" stroke-linecap="round" stroke-linejoin="round"/>
<path d="M89.265 103.03C89.1675 103.03 89.0725 103.03 88.975 103.03C88.8775 103.03 88.7725 103.03 88.675 103.03C85.6718 102.876 82.8473 101.556 80.8038 99.3497C78.7605 97.1435 77.6598 94.226 77.7368 91.2197C77.8138 88.2135 79.0623 85.3565 81.2158 83.2575C83.3695 81.1587 86.2578 79.9845 89.265 79.985" stroke="#313553" stroke-width="2.4275" stroke-linecap="round" stroke-linejoin="round"/>
<path d="M72.8925 103.015H89.265C89.1675 103.015 89.0725 103.015 88.975 103.015C85.9515 103.103 83.0837 104.376 80.99 106.559C78.8962 108.742 77.7442 111.66 77.7822 114.685C77.8202 117.71 79.0452 120.598 81.1932 122.728C83.3412 124.857 86.2403 126.058 89.265 126.07" stroke="#313553" stroke-width="2.4275" stroke-linecap="round" stroke-linejoin="round"/>
<path d="M109.965 103.03C110.062 103.03 110.167 103.03 110.265 103.03C110.362 103.03 110.46 103.03 110.555 103.03C113.558 102.876 116.383 101.556 118.426 99.3497C120.47 97.1435 121.57 94.226 121.493 91.2197C121.416 88.2135 120.168 85.3565 118.014 83.2575C115.861 81.1587 112.972 79.9845 109.965 79.985" stroke="#313553" stroke-width="2.4275" stroke-linecap="round" stroke-linejoin="round"/>
<path d="M126.337 103.015H109.965C110.062 103.015 110.167 103.015 110.265 103.015C113.289 103.103 116.157 104.377 118.251 106.561C120.345 108.745 121.496 111.665 121.457 114.69C121.417 117.715 120.19 120.604 118.041 122.733C115.891 124.861 112.99 126.06 109.965 126.07" stroke="#313553" stroke-width="2.4275" stroke-linecap="round" stroke-linejoin="round"/>
<path d="M428.87 51.4624L450.847 38.7799L428.87 26.0874" stroke="#313553" stroke-width="2.4275" stroke-linecap="round" stroke-linejoin="round"/>
<path d="M406.31 26.0874L384.333 38.7799L406.31 51.4624" stroke="#313553" stroke-width="2.4275" stroke-linecap="round" stroke-linejoin="round"/>
<path d="M423.848 20.3522L410.71 57.0197" stroke="#313553" stroke-width="1.6175" stroke-linecap="round" stroke-linejoin="round"/>
<path d="M404.393 229.86L407.953 219.052L416.398 193.41L424.85 219.052L428.41 229.86" stroke="#313553" stroke-width="2.4275" stroke-linecap="round" stroke-linejoin="round"/>
<path d="M407.953 219.052H424.85" stroke="#313553" stroke-width="2.4275" stroke-linecap="round" stroke-linejoin="round"/>
<path d="M446.698 223.567C444.378 228.542 440.032 231.43 437.007 230.022C433.982 228.615 433.417 223.43 435.737 218.447C438.057 213.465 442.395 210.585 445.428 211.992C446.36 212.565 447.11 213.392 447.588 214.377C448.068 215.36 448.255 216.46 448.13 217.547C448.093 219.635 447.603 221.687 446.698 223.567Z" stroke="#313553" stroke-width="1.6175" stroke-linecap="round" stroke-linejoin="round"/>
<path d="M448.123 217.475C448.123 217.5 448.123 217.525 448.123 217.547C448.568 221.925 445.89 233.452 452.873 228.76" stroke="#313553" stroke-width="1.6175" stroke-linecap="round" stroke-linejoin="round"/>
</svg>
